999
dxflib 2.2.0.0
  0
SECTION
  2
HEADER
  9
$ACADVER
  1
AC1015
  9
$HANDSEED
  5
FFFF
  9
$DIMASZ
 40
0.1
  9
$PLIMMIN
 10
0.0
 20
0.0
  9
$DIMEXE
 40
0.05
  9
$DIMGAP
 40
0.025
  9
$PLIMMAX
 10
8.2677165354330722
 20
11.6929133858267722
  9
$ANGBASE
 50
0.0
  9
$ANGDIR
 70
0
  9
$INSUNITS
 70
1
  9
$DIMSTYLE
  2
Standard
  9
$DIMEXO
 40
0.025
  9
$DIMTXT
 40
0.1
  0
ENDSEC
  0
SECTION
  2
TABLES
  0
TABLE
  2
VPORT
  5
8
100
AcDbSymbolTable
 70
1
  0
VPORT
  5
30
100
AcDbSymbolTableRecord
100
AcDbViewportTableRecord
  2
*Active
 70
0
 10
0.0
 20
0.0
 11
1.0
 21
1.0
 12
286.3055555555554861
 22
148.5
 13
0.0
 23
0.0
 14
10.0
 24
10.0
 15
10.0
 25
10.0
 16
0.0
 26
0.0
 36
1.0
 17
0.0
 27
0.0
 37
0.0
 40
297.0
 41
1.92798353909465
 42
50.0
 43
0.0
 44
0.0
 50
0.0
 51
0.0
 71
0
 72
100
 73
1
 74
3
 75
1
 76
1
 77
0
 78
0
281
0
 65
1
110
0.0
120
0.0
130
0.0
111
1.0
121
0.0
131
0.0
112
0.0
122
1.0
132
0.0
 79
0
146
0.0
  0
ENDTAB
  0
TABLE
  2
LTYPE
  5
5
100
AcDbSymbolTable
 70
21
  0
LTYPE
  5
14
100
AcDbSymbolTableRecord
100
AcDbLinetypeTableRecord
  2
ByBlock
 70
0
  3

 72
65
 73
0
 40
0.0
  0
LTYPE
  5
15
100
AcDbSymbolTableRecord
100
AcDbLinetypeTableRecord
  2
ByLayer
 70
0
  3

 72
65
 73
0
 40
0.0
  0
LTYPE
  5
16
100
AcDbSymbolTableRecord
100
AcDbLinetypeTableRecord
  2
CONTINUOUS
 70
0
  3
Solid line
 72
65
 73
0
 40
0.0
  0
LTYPE
  5
31
100
AcDbSymbolTableRecord
100
AcDbLinetypeTableRecord
  2
DOT
 70
0
  3
Dot . . . . . . . . . . . . . . . . . . . . . .
 72
65
 73
2
 40
6.3499999999999996
 49
0.0
 74
0
 49
-6.3499999999999996
 74
0
  0
LTYPE
  5
32
100
AcDbSymbolTableRecord
100
AcDbLinetypeTableRecord
  2
DOT2
 70
0
  3
Dot (.5x) .....................................
 72
65
 73
2
 40
3.1749999999999998
 49
0.0
 74
0
 49
-3.1749999999999998
 74
0
  0
LTYPE
  5
33
100
AcDbSymbolTableRecord
100
AcDbLinetypeTableRecord
  2
DOTX2
 70
0
  3
Dot (2x) .  .  .  .  .  .  .  .  .  .  .  .  .
 72
65
 73
2
 40
12.6999999999999993
 49
0.0
 74
0
 49
-12.6999999999999993
 74
0
  0
LTYPE
  5
34
100
AcDbSymbolTableRecord
100
AcDbLinetypeTableRecord
  2
DASHED
 70
0
  3
Dashed __ __ __ __ __ __ __ __ __ __ __ __ __ _
 72
65
 73
2
 40
19.0500000000000007
 49
12.6999999999999993
 74
0
 49
-6.3499999999999996
 74
0
  0
LTYPE
  5
35
100
AcDbSymbolTableRecord
100
AcDbLinetypeTableRecord
  2
DASHED2
 70
0
  3
Dashed (.5x) _ _ _ _ _ _ _ _ _ _ _ _ _ _ _ _ _
 72
65
 73
2
 40
9.5250000000000004
 49
6.3499999999999996
 74
0
 49
-3.1749999999999998
 74
0
  0
LTYPE
  5
36
100
AcDbSymbolTableRecord
100
AcDbLinetypeTableRecord
  2
DASHEDX2
 70
0
  3
Dashed (2x) ____  ____  ____  ____  ____  ___
 72
65
 73
2
 40
38.1000000000000014
 49
25.3999999999999986
 74
0
 49
-12.6999999999999993
 74
0
  0
LTYPE
  5
37
100
AcDbSymbolTableRecord
100
AcDbLinetypeTableRecord
  2
DASHDOT
 70
0
  3
Dash dot __ . __ . __ . __ . __ . __ . __ . __
 72
65
 73
4
 40
25.3999999999999986
 49
12.6999999999999993
 74
0
 49
-6.3499999999999996
 74
0
 49
0.0
 74
0
 49
-6.3499999999999996
 74
0
  0
LTYPE
  5
38
100
AcDbSymbolTableRecord
100
AcDbLinetypeTableRecord
  2
DASHDOT2
 70
0
  3
Dash dot (.5x) _._._._._._._._._._._._._._._.
 72
65
 73
4
 40
12.6999999999999993
 49
6.3499999999999996
 74
0
 49
-3.1749999999999998
 74
0
 49
0.0
 74
0
 49
-3.1749999999999998
 74
0
  0
LTYPE
  5
39
100
AcDbSymbolTableRecord
100
AcDbLinetypeTableRecord
  2
DASHDOTX2
 70
0
  3
Dash dot (2x) ____  .  ____  .  ____  .  ___
 72
65
 73
4
 40
50.7999999999999972
 49
25.3999999999999986
 74
0
 49
-12.6999999999999993
 74
0
 49
0.0
 74
0
 49
-12.6999999999999993
 74
0
  0
LTYPE
  5
3A
100
AcDbSymbolTableRecord
100
AcDbLinetypeTableRecord
  2
DIVIDE
 70
0
  3
Divide ____ . . ____ . . ____ . . ____ . . ____
 72
65
 73
6
 40
31.75
 49
12.6999999999999993
 74
0
 49
-6.3499999999999996
 74
0
 49
0.0
 74
0
 49
-6.3499999999999996
 74
0
 49
0.0
 74
0
 49
-6.3499999999999996
 74
0
  0
LTYPE
  5
3B
100
AcDbSymbolTableRecord
100
AcDbLinetypeTableRecord
  2
DIVIDE2
 70
0
  3
Divide (.5x) __..__..__..__..__..__..__..__.._
 72
65
 73
6
 40
15.875
 49
6.3499999999999996
 74
0
 49
-3.1749999999999998
 74
0
 49
0.0
 74
0
 49
-3.1749999999999998
 74
0
 49
0.0
 74
0
 49
-3.1749999999999998
 74
0
  0
LTYPE
  5
3C
100
AcDbSymbolTableRecord
100
AcDbLinetypeTableRecord
  2
DIVIDEX2
 70
0
  3
Divide (2x) ________  .  .  ________  .  .  _
 72
65
 73
6
 40
63.5
 49
25.3999999999999986
 74
0
 49
-12.6999999999999993
 74
0
 49
0.0
 74
0
 49
-12.6999999999999993
 74
0
 49
0.0
 74
0
 49
-12.6999999999999993
 74
0
  0
LTYPE
  5
3D
100
AcDbSymbolTableRecord
100
AcDbLinetypeTableRecord
  2
CENTER
 70
0
  3
Center ____ _ ____ _ ____ _ ____ _ ____ _ ____
 72
65
 73
4
 40
50.7999999999999972
 49
31.75
 74
0
 49
-6.3499999999999996
 74
0
 49
6.3499999999999996
 74
0
 49
-6.3499999999999996
 74
0
  0
LTYPE
  5
3E
100
AcDbSymbolTableRecord
100
AcDbLinetypeTableRecord
  2
CENTER2
 70
0
  3
Center (.5x) ___ _ ___ _ ___ _ ___ _ ___ _ ___
 72
65
 73
4
 40
28.5749999999999993
 49
19.0500000000000007
 74
0
 49
-3.1749999999999998
 74
0
 49
3.1749999999999998
 74
0
 49
-3.1749999999999998
 74
0
  0
LTYPE
  5
3F
100
AcDbSymbolTableRecord
100
AcDbLinetypeTableRecord
  2
CENTERX2
 70
0
  3
Center (2x) ________  __  ________  __  _____
 72
65
 73
4
 40
101.5999999999999943
 49
63.5
 74
0
 49
-12.6999999999999993
 74
0
 49
12.6999999999999993
 74
0
 49
-12.6999999999999993
 74
0
  0
LTYPE
  5
40
100
AcDbSymbolTableRecord
100
AcDbLinetypeTableRecord
  2
BORDER
 70
0
  3
Border __ __ . __ __ . __ __ . __ __ . __ __ .
 72
65
 73
6
 40
44.4500000000000028
 49
12.6999999999999993
 74
0
 49
-6.3499999999999996
 74
0
 49
12.6999999999999993
 74
0
 49
-6.3499999999999996
 74
0
 49
0.0
 74
0
 49
-6.3499999999999996
 74
0
  0
LTYPE
  5
41
100
AcDbSymbolTableRecord
100
AcDbLinetypeTableRecord
  2
BORDER2
 70
0
  3
Border (.5x) __.__.__.__.__.__.__.__.__.__.__.
 72
65
 73
6
 40
22.2250000000000014
 49
6.3499999999999996
 74
0
 49
-3.1749999999999998
 74
0
 49
6.3499999999999996
 74
0
 49
-3.1749999999999998
 74
0
 49
0.0
 74
0
 49
-3.1749999999999998
 74
0
  0
LTYPE
  5
42
100
AcDbSymbolTableRecord
100
AcDbLinetypeTableRecord
  2
BORDERX2
 70
0
  3
Border (2x) ____  ____  .  ____  ____  .  ___
 72
65
 73
6
 40
88.9000000000000057
 49
25.3999999999999986
 74
0
 49
-12.6999999999999993
 74
0
 49
25.3999999999999986
 74
0
 49
-12.6999999999999993
 74
0
 49
0.0
 74
0
 49
-12.6999999999999993
 74
0
  0
ENDTAB
  0
TABLE
  2
LAYER
  5
2
100
AcDbSymbolTable
 70
25
  0
LAYER
  5
10
100
AcDbSymbolTableRecord
100
AcDbLayerTableRecord
  2
0
 70
0
 62
7
  6
CONTINUOUS
370
0
390
F
  0
LAYER
  5
43
100
AcDbSymbolTableRecord
100
AcDbLayerTableRecord
  2
BLACK
 70
0
 62
1
  6
CONTINUOUS
390
F
  0
LAYER
  5
44
100
AcDbSymbolTableRecord
100
AcDbLayerTableRecord
  2
BLUE
 70
0
 62
2
  6
CONTINUOUS
390
F
  0
LAYER
  5
45
100
AcDbSymbolTableRecord
100
AcDbLayerTableRecord
  2
GREEN
 70
0
 62
3
  6
CONTINUOUS
390
F
  0
LAYER
  5
46
100
AcDbSymbolTableRecord
100
AcDbLayerTableRecord
  2
CYAN
 70
0
 62
4
  6
CONTINUOUS
390
F
  0
LAYER
  5
47
100
AcDbSymbolTableRecord
100
AcDbLayerTableRecord
  2
RED
 70
0
 62
5
  6
CONTINUOUS
390
F
  0
LAYER
  5
48
100
AcDbSymbolTableRecord
100
AcDbLayerTableRecord
  2
MAGENTA
 70
0
 62
6
  6
CONTINUOUS
390
F
  0
LAYER
  5
49
100
AcDbSymbolTableRecord
100
AcDbLayerTableRecord
  2
BROWN
 70
0
 62
7
  6
CONTINUOUS
390
F
  0
LAYER
  5
4A
100
AcDbSymbolTableRecord
100
AcDbLayerTableRecord
  2
GRAY
 70
0
 62
8
  6
CONTINUOUS
390
F
  0
LAYER
  5
4B
100
AcDbSymbolTableRecord
100
AcDbLayerTableRecord
  2
DARKGRAY
 70
0
 62
9
  6
CONTINUOUS
390
F
  0
LAYER
  5
4C
100
AcDbSymbolTableRecord
100
AcDbLayerTableRecord
  2
LIGHTBLUE
 70
0
 62
1
  6
CONTINUOUS
390
F
  0
LAYER
  5
4D
100
AcDbSymbolTableRecord
100
AcDbLayerTableRecord
  2
LIGHTGREEN
 70
0
 62
11
  6
CONTINUOUS
390
F
  0
LAYER
  5
4E
100
AcDbSymbolTableRecord
100
AcDbLayerTableRecord
  2
LIGHTCYAN
 70
0
 62
12
  6
CONTINUOUS
390
F
  0
LAYER
  5
4F
100
AcDbSymbolTableRecord
100
AcDbLayerTableRecord
  2
LIGHTRED
 70
0
 62
13
  6
CONTINUOUS
390
F
  0
LAYER
  5
50
100
AcDbSymbolTableRecord
100
AcDbLayerTableRecord
  2
LIGHTMAGENTA
 70
0
 62
14
  6
CONTINUOUS
390
F
  0
LAYER
  5
51
100
AcDbSymbolTableRecord
100
AcDbLayerTableRecord
  2
YELLOW
 70
0
 62
15
  6
CONTINUOUS
390
F
  0
LAYER
  5
52
100
AcDbSymbolTableRecord
100
AcDbLayerTableRecord
  2
WHITE
 70
0
 62
16
  6
CONTINUOUS
390
F
  0
LAYER
  5
53
100
AcDbSymbolTableRecord
100
AcDbLayerTableRecord
  2
DARKDARKGRAY
 70
0
 62
17
  6
CONTINUOUS
390
F
  0
LAYER
  5
54
100
AcDbSymbolTableRecord
100
AcDbLayerTableRecord
  2
DARKBLUE
 70
0
 62
18
  6
CONTINUOUS
390
F
  0
LAYER
  5
55
100
AcDbSymbolTableRecord
100
AcDbLayerTableRecord
  2
DARKGREEN
 70
0
 62
19
  6
CONTINUOUS
390
F
  0
LAYER
  5
56
100
AcDbSymbolTableRecord
100
AcDbLayerTableRecord
  2
DARKCYAN
 70
0
 62
20
  6
CONTINUOUS
390
F
  0
LAYER
  5
57
100
AcDbSymbolTableRecord
100
AcDbLayerTableRecord
  2
DARKRED
 70
0
 62
21
  6
CONTINUOUS
390
F
  0
LAYER
  5
58
100
AcDbSymbolTableRecord
100
AcDbLayerTableRecord
  2
DARKMAGENTA
 70
0
 62
22
  6
CONTINUOUS
390
F
  0
LAYER
  5
59
100
AcDbSymbolTableRecord
100
AcDbLayerTableRecord
  2
DARKBROWN
 70
0
 62
23
  6
CONTINUOUS
390
F
  0
LAYER
  5
5A
100
AcDbSymbolTableRecord
100
AcDbLayerTableRecord
  2
LIGHTYELLOW
 70
0
 62
24
  6
CONTINUOUS
390
F
  0
ENDTAB
  0
TABLE
  2
STYLE
  5
3
100
AcDbSymbolTable
 70
1
  0
STYLE
  5
11
100
AcDbSymbolTableRecord
100
AcDbTextStyleTableRecord
  2
Standard
 70
0
 40
0.0
 41
0.75
 50
0.0
 71
0
 42
2.5
  3
txt
  4

  0
ENDTAB
  0
TABLE
  2
VIEW
  5
6
100
AcDbSymbolTable
 70
0
  0
ENDTAB
  0
TABLE
  2
UCS
  5
7
100
AcDbSymbolTable
 70
0
  0
ENDTAB
  0
TABLE
  2
APPID
  5
9
100
AcDbSymbolTable
 70
1
  0
APPID
  5
12
100
AcDbSymbolTableRecord
100
AcDbRegAppTableRecord
  2
ACAD
 70
0
  0
ENDTAB
  0
TABLE
  2
DIMSTYLE
  5
A
100
AcDbSymbolTable
 70
1
100
AcDbDimStyleTable
 71
0
  0
DIMSTYLE
105
27
100
AcDbSymbolTableRecord
100
AcDbDimStyleTableRecord
  2
Standard
 41
0.1
 42
0.025
 43
3.75
 44
0.05
 70
0
 73
0
 74
0
 77
1
 78
8
140
0.1
141
2.5
143
0.03937007874016
147
0.025
171
3
172
1
271
2
272
2
274
3
278
44
283
0
284
8
340
11
  0
ENDTAB
  0
TABLE
  2
BLOCK_RECORD
  5
1
100
AcDbSymbolTable
 70
1
  0
BLOCK_RECORD
  5
1F
100
AcDbSymbolTableRecord
100
AcDbBlockTableRecord
  2
*Model_Space
340
22
  0
BLOCK_RECORD
  5
1B
100
AcDbSymbolTableRecord
100
AcDbBlockTableRecord
  2
*Paper_Space
340
1E
  0
BLOCK_RECORD
  5
23
100
AcDbSymbolTableRecord
100
AcDbBlockTableRecord
  2
*Paper_Space0
340
26
  0
ENDTAB
  0
ENDSEC
  0
SECTION
  2
BLOCKS
  0
BLOCK
  5
20
100
AcDbEntity
  8
0
100
AcDbBlockBegin
  2
*Model_Space
 70
0
 10
0.0
 20
0.0
 30
0.0
  3
*Model_Space
  1

  0
ENDBLK
  5
21
100
AcDbEntity
  8
0
100
AcDbBlockEnd
  0
BLOCK
  5
1C
100
AcDbEntity
 67
1
  8
0
100
AcDbBlockBegin
  2
*Paper_Space
 70
0
 10
0.0
 20
0.0
 30
0.0
  3
*Paper_Space
  1

  0
ENDBLK
  5
1D
100
AcDbEntity
 67
1
  8
0
100
AcDbBlockEnd
  0
BLOCK
  5
24
100
AcDbEntity
  8
0
100
AcDbBlockBegin
  2
*Paper_Space0
 70
0
 10
0.0
 20
0.0
 30
0.0
  3
*Paper_Space0
  1

  0
ENDBLK
  5
25
100
AcDbEntity
  8
0
100
AcDbBlockEnd
  0
ENDSEC
  0
SECTION
  2
ENTITIES
  0
LINE
  5
5B
100
AcDbEntity
100
AcDbLine
  8
BLACK
 62
256
370
-1
  6
ByLayer
 10
0.0
 20
0.0
 30
0.0
 11
4.6000000000000005
 21
0.0
 31
0.0
  0
LINE
  5
5C
100
AcDbEntity
100
AcDbLine
  8
BLACK
 62
256
370
-1
  6
ByLayer
 10
0.0
 20
2.1000000000000001
 30
0.0
 11
4.6000000000000005
 21
2.1000000000000001
 31
0.0
  0
LINE
  5
5D
100
AcDbEntity
100
AcDbLine
  8
BLACK
 62
256
370
-1
  6
ByLayer
 10
0.0
 20
2.1000000000000001
 30
0.0
 11
0.0
 21
0.0
 31
0.0
  0
LINE
  5
5E
100
AcDbEntity
100
AcDbLine
  8
BLACK
 62
256
370
-1
  6
ByLayer
 10
4.6000000000000005
 20
0.0
 30
0.0
 11
4.6000000000000005
 21
2.1000000000000001
 31
0.0
  0
LINE
  5
5F
100
AcDbEntity
100
AcDbLine
  8
BLACK
 62
256
370
-1
  6
ByLayer
 10
2.4199999999999999
 20
0.38
 30
0.0
 11
2.4199999999999999
 21
0.42
 31
0.0
  0
LINE
  5
60
100
AcDbEntity
100
AcDbLine
  8
BLACK
 62
256
370
-1
  6
ByLayer
 10
2.3999999999999999
 20
0.4
 30
0.0
 11
2.4399999999999999
 21
0.4
 31
0.0
  0
LINE
  5
61
100
AcDbEntity
100
AcDbLine
  8
BLACK
 62
256
370
-1
  6
ByLayer
 10
2.3300000000000001
 20
0.455
 30
0.0
 11
2.3900000000000001
 21
0.455
 31
0.0
  0
LINE
  5
62
100
AcDbEntity
100
AcDbLine
  8
BLACK
 62
256
370
-1
  6
ByLayer
 10
2.3900000000000001
 20
0.455
 30
0.0
 11
2.3900000000000001
 21
0.345
 31
0.0
  0
LINE
  5
63
100
AcDbEntity
100
AcDbLine
  8
BLACK
 62
256
370
-1
  6
ByLayer
 10
2.3900000000000001
 20
0.345
 30
0.0
 11
2.3300000000000001
 21
0.345
 31
0.0
  0
LINE
  5
64
100
AcDbEntity
100
AcDbLine
  8
BLACK
 62
256
370
-1
  6
ByLayer
 10
2.27
 20
0.345
 30
0.0
 11
2.21
 21
0.345
 31
0.0
  0
LINE
  5
65
100
AcDbEntity
100
AcDbLine
  8
BLACK
 62
256
370
-1
  6
ByLayer
 10
2.21
 20
0.345
 30
0.0
 11
2.21
 21
0.455
 31
0.0
  0
LINE
  5
66
100
AcDbEntity
100
AcDbLine
  8
BLACK
 62
256
370
-1
  6
ByLayer
 10
2.21
 20
0.455
 30
0.0
 11
2.27
 21
0.455
 31
0.0
  0
LINE
  5
67
100
AcDbEntity
100
AcDbLine
  8
BLACK
 62
256
370
-1
  6
ByLayer
 10
1.77
 20
0.8450000000000001
 30
0.0
 11
1.7100000000000002
 21
0.8450000000000001
 31
0.0
  0
LINE
  5
68
100
AcDbEntity
100
AcDbLine
  8
BLACK
 62
256
370
-1
  6
ByLayer
 10
1.7100000000000002
 20
0.8450000000000001
 30
0.0
 11
1.7100000000000002
 21
0.9550000000000001
 31
0.0
  0
LINE
  5
69
100
AcDbEntity
100
AcDbLine
  8
BLACK
 62
256
370
-1
  6
ByLayer
 10
1.7100000000000002
 20
0.9550000000000001
 30
0.0
 11
1.77
 21
0.9550000000000001
 31
0.0
  0
LINE
  5
6A
100
AcDbEntity
100
AcDbLine
  8
BLACK
 62
256
370
-1
  6
ByLayer
 10
1.8300000000000001
 20
0.9550000000000001
 30
0.0
 11
1.8900000000000001
 21
0.9550000000000001
 31
0.0
  0
LINE
  5
6B
100
AcDbEntity
100
AcDbLine
  8
BLACK
 62
256
370
-1
  6
ByLayer
 10
1.8900000000000001
 20
0.9550000000000001
 30
0.0
 11
1.8900000000000001
 21
0.8450000000000001
 31
0.0
  0
LINE
  5
6C
100
AcDbEntity
100
AcDbLine
  8
BLACK
 62
256
370
-1
  6
ByLayer
 10
1.8900000000000001
 20
0.8450000000000001
 30
0.0
 11
1.8300000000000001
 21
0.8450000000000001
 31
0.0
  0
LINE
  5
6D
100
AcDbEntity
100
AcDbLine
  8
BLACK
 62
256
370
-1
  6
ByLayer
 10
2.8300000000000001
 20
1.4300000000000002
 30
0.0
 11
2.8900000000000001
 21
1.4300000000000002
 31
0.0
  0
LINE
  5
6E
100
AcDbEntity
100
AcDbLine
  8
BLACK
 62
256
370
-1
  6
ByLayer
 10
2.8900000000000001
 20
1.4300000000000002
 30
0.0
 11
2.8900000000000001
 21
1.3200000000000001
 31
0.0
  0
LINE
  5
6F
100
AcDbEntity
100
AcDbLine
  8
BLACK
 62
256
370
-1
  6
ByLayer
 10
2.8900000000000001
 20
1.3200000000000001
 30
0.0
 11
2.8300000000000001
 21
1.3200000000000001
 31
0.0
  0
LINE
  5
70
100
AcDbEntity
100
AcDbLine
  8
BLACK
 62
256
370
-1
  6
ByLayer
 10
2.77
 20
1.3200000000000001
 30
0.0
 11
2.71
 21
1.3200000000000001
 31
0.0
  0
LINE
  5
71
100
AcDbEntity
100
AcDbLine
  8
BLACK
 62
256
370
-1
  6
ByLayer
 10
2.71
 20
1.3200000000000001
 30
0.0
 11
2.71
 21
1.4300000000000002
 31
0.0
  0
LINE
  5
72
100
AcDbEntity
100
AcDbLine
  8
BLACK
 62
256
370
-1
  6
ByLayer
 10
2.71
 20
1.4300000000000002
 30
0.0
 11
2.77
 21
1.4300000000000002
 31
0.0
  0
LINE
  5
73
100
AcDbEntity
100
AcDbLine
  8
BLACK
 62
256
370
-1
  6
ByLayer
 10
2.8300000000000001
 20
0.9550000000000001
 30
0.0
 11
2.8900000000000001
 21
0.9550000000000001
 31
0.0
  0
LINE
  5
74
100
AcDbEntity
100
AcDbLine
  8
BLACK
 62
256
370
-1
  6
ByLayer
 10
2.8900000000000001
 20
0.9550000000000001
 30
0.0
 11
2.8900000000000001
 21
0.8450000000000001
 31
0.0
  0
LINE
  5
75
100
AcDbEntity
100
AcDbLine
  8
BLACK
 62
256
370
-1
  6
ByLayer
 10
2.8900000000000001
 20
0.8450000000000001
 30
0.0
 11
2.8300000000000001
 21
0.8450000000000001
 31
0.0
  0
LINE
  5
76
100
AcDbEntity
100
AcDbLine
  8
BLACK
 62
256
370
-1
  6
ByLayer
 10
2.77
 20
0.8450000000000001
 30
0.0
 11
2.71
 21
0.8450000000000001
 31
0.0
  0
LINE
  5
77
100
AcDbEntity
100
AcDbLine
  8
BLACK
 62
256
370
-1
  6
ByLayer
 10
2.71
 20
0.8450000000000001
 30
0.0
 11
2.71
 21
0.9550000000000001
 31
0.0
  0
LINE
  5
78
100
AcDbEntity
100
AcDbLine
  8
BLACK
 62
256
370
-1
  6
ByLayer
 10
2.71
 20
0.9550000000000001
 30
0.0
 11
2.77
 21
0.9550000000000001
 31
0.0
  0
CIRCLE
  5
79
100
AcDbEntity
100
AcDbCircle
  8
BLACK
 62
256
370
-1
  6
ByLayer
 10
2.395
 20
0.49
 30
0.0
 40
0.007
  0
LINE
  5
7A
100
AcDbEntity
100
AcDbLine
  8
BLACK
 62
256
370
-1
  6
ByLayer
 10
2.3300000000000001
 20
0.605
 30
0.0
 11
2.3900000000000001
 21
0.605
 31
0.0
  0
LINE
  5
7B
100
AcDbEntity
100
AcDbLine
  8
BLACK
 62
256
370
-1
  6
ByLayer
 10
2.3900000000000001
 20
0.605
 30
0.0
 11
2.3900000000000001
 21
0.4950000000000001
 31
0.0
  0
LINE
  5
7C
100
AcDbEntity
100
AcDbLine
  8
BLACK
 62
256
370
-1
  6
ByLayer
 10
2.3900000000000001
 20
0.4950000000000001
 30
0.0
 11
2.3300000000000001
 21
0.4950000000000001
 31
0.0
  0
LINE
  5
7D
100
AcDbEntity
100
AcDbLine
  8
BLACK
 62
256
370
-1
  6
ByLayer
 10
2.27
 20
0.4950000000000001
 30
0.0
 11
2.21
 21
0.4950000000000001
 31
0.0
  0
LINE
  5
7E
100
AcDbEntity
100
AcDbLine
  8
BLACK
 62
256
370
-1
  6
ByLayer
 10
2.21
 20
0.4950000000000001
 30
0.0
 11
2.21
 21
0.605
 31
0.0
  0
LINE
  5
7F
100
AcDbEntity
100
AcDbLine
  8
BLACK
 62
256
370
-1
  6
ByLayer
 10
2.21
 20
0.605
 30
0.0
 11
2.27
 21
0.605
 31
0.0
  0
CIRCLE
  5
80
100
AcDbEntity
100
AcDbCircle
  8
BLACK
 62
256
370
-1
  6
ByLayer
 10
2.2749999999999999
 20
0.7000000000000001
 30
0.0
 40
0.025
  0
LINE
  5
81
100
AcDbEntity
100
AcDbLine
  8
BLACK
 62
256
370
-1
  6
ByLayer
 10
2.2250000000000001
 20
0.65
 30
0.0
 11
2.2250000000000001
 21
0.9500000000000001
 31
0.0
  0
LINE
  5
82
100
AcDbEntity
100
AcDbLine
  8
BLACK
 62
256
370
-1
  6
ByLayer
 10
2.2250000000000001
 20
0.9500000000000001
 30
0.0
 11
2.375
 21
0.9500000000000001
 31
0.0
  0
LINE
  5
83
100
AcDbEntity
100
AcDbLine
  8
BLACK
 62
256
370
-1
  6
ByLayer
 10
2.375
 20
0.9500000000000001
 30
0.0
 11
2.375
 21
0.65
 31
0.0
  0
LINE
  5
84
100
AcDbEntity
100
AcDbLine
  8
BLACK
 62
256
370
-1
  6
ByLayer
 10
2.375
 20
0.65
 30
0.0
 11
2.2250000000000001
 21
0.65
 31
0.0
  0
LINE
  5
85
100
AcDbEntity
100
AcDbLine
  8
BLACK
 62
256
370
-1
  6
ByLayer
 10
2.4199999999999999
 20
1.1800000000000002
 30
0.0
 11
2.4199999999999999
 21
1.22
 31
0.0
  0
LINE
  5
86
100
AcDbEntity
100
AcDbLine
  8
BLACK
 62
256
370
-1
  6
ByLayer
 10
2.3999999999999999
 20
1.2
 30
0.0
 11
2.4399999999999999
 21
1.2
 31
0.0
  0
LINE
  5
87
100
AcDbEntity
100
AcDbLine
  8
BLACK
 62
256
370
-1
  6
ByLayer
 10
2.3300000000000001
 20
1.2550000000000001
 30
0.0
 11
2.3900000000000001
 21
1.2550000000000001
 31
0.0
  0
LINE
  5
88
100
AcDbEntity
100
AcDbLine
  8
BLACK
 62
256
370
-1
  6
ByLayer
 10
2.3900000000000001
 20
1.2550000000000001
 30
0.0
 11
2.3900000000000001
 21
1.145
 31
0.0
  0
LINE
  5
89
100
AcDbEntity
100
AcDbLine
  8
BLACK
 62
256
370
-1
  6
ByLayer
 10
2.3900000000000001
 20
1.145
 30
0.0
 11
2.3300000000000001
 21
1.145
 31
0.0
  0
LINE
  5
8A
100
AcDbEntity
100
AcDbLine
  8
BLACK
 62
256
370
-1
  6
ByLayer
 10
2.27
 20
1.145
 30
0.0
 11
2.21
 21
1.145
 31
0.0
  0
LINE
  5
8B
100
AcDbEntity
100
AcDbLine
  8
BLACK
 62
256
370
-1
  6
ByLayer
 10
2.21
 20
1.145
 30
0.0
 11
2.21
 21
1.2550000000000001
 31
0.0
  0
LINE
  5
8C
100
AcDbEntity
100
AcDbLine
  8
BLACK
 62
256
370
-1
  6
ByLayer
 10
2.21
 20
1.2550000000000001
 30
0.0
 11
2.27
 21
1.2550000000000001
 31
0.0
  0
CIRCLE
  5
8D
100
AcDbEntity
100
AcDbCircle
  8
BLACK
 62
256
370
-1
  6
ByLayer
 10
2.48
 20
0.9600000000000001
 30
0.0
 40
0.007
  0
LINE
  5
8E
100
AcDbEntity
100
AcDbLine
  8
BLACK
 62
256
370
-1
  6
ByLayer
 10
2.5449999999999999
 20
0.8450000000000001
 30
0.0
 11
2.4850000000000003
 21
0.8450000000000001
 31
0.0
  0
LINE
  5
8F
100
AcDbEntity
100
AcDbLine
  8
BLACK
 62
256
370
-1
  6
ByLayer
 10
2.4850000000000003
 20
0.8450000000000001
 30
0.0
 11
2.4850000000000003
 21
0.9550000000000001
 31
0.0
  0
LINE
  5
90
100
AcDbEntity
100
AcDbLine
  8
BLACK
 62
256
370
-1
  6
ByLayer
 10
2.4850000000000003
 20
0.9550000000000001
 30
0.0
 11
2.5449999999999999
 21
0.9550000000000001
 31
0.0
  0
LINE
  5
91
100
AcDbEntity
100
AcDbLine
  8
BLACK
 62
256
370
-1
  6
ByLayer
 10
2.605
 20
0.9550000000000001
 30
0.0
 11
2.665
 21
0.9550000000000001
 31
0.0
  0
LINE
  5
92
100
AcDbEntity
100
AcDbLine
  8
BLACK
 62
256
370
-1
  6
ByLayer
 10
2.665
 20
0.9550000000000001
 30
0.0
 11
2.665
 21
0.8450000000000001
 31
0.0
  0
LINE
  5
93
100
AcDbEntity
100
AcDbLine
  8
BLACK
 62
256
370
-1
  6
ByLayer
 10
2.665
 20
0.8450000000000001
 30
0.0
 11
2.605
 21
0.8450000000000001
 31
0.0
  0
CIRCLE
  5
94
100
AcDbEntity
100
AcDbCircle
  8
BLACK
 62
256
370
-1
  6
ByLayer
 10
2.395
 20
0.9900000000000001
 30
0.0
 40
0.007
  0
LINE
  5
95
100
AcDbEntity
100
AcDbLine
  8
BLACK
 62
256
370
-1
  6
ByLayer
 10
2.3300000000000001
 20
1.105
 30
0.0
 11
2.3900000000000001
 21
1.105
 31
0.0
  0
LINE
  5
96
100
AcDbEntity
100
AcDbLine
  8
BLACK
 62
256
370
-1
  6
ByLayer
 10
2.3900000000000001
 20
1.105
 30
0.0
 11
2.3900000000000001
 21
0.995
 31
0.0
  0
LINE
  5
97
100
AcDbEntity
100
AcDbLine
  8
BLACK
 62
256
370
-1
  6
ByLayer
 10
2.3900000000000001
 20
0.995
 30
0.0
 11
2.3300000000000001
 21
0.995
 31
0.0
  0
LINE
  5
98
100
AcDbEntity
100
AcDbLine
  8
BLACK
 62
256
370
-1
  6
ByLayer
 10
2.27
 20
0.995
 30
0.0
 11
2.21
 21
0.995
 31
0.0
  0
LINE
  5
99
100
AcDbEntity
100
AcDbLine
  8
BLACK
 62
256
370
-1
  6
ByLayer
 10
2.21
 20
0.995
 30
0.0
 11
2.21
 21
1.105
 31
0.0
  0
LINE
  5
9A
100
AcDbEntity
100
AcDbLine
  8
BLACK
 62
256
370
-1
  6
ByLayer
 10
2.21
 20
1.105
 30
0.0
 11
2.27
 21
1.105
 31
0.0
  0
CIRCLE
  5
9B
100
AcDbEntity
100
AcDbCircle
  8
BLACK
 62
256
370
-1
  6
ByLayer
 10
1.7050000000000001
 20
1.1100000000000001
 30
0.0
 40
0.007
  0
LINE
  5
9C
100
AcDbEntity
100
AcDbLine
  8
BLACK
 62
256
370
-1
  6
ByLayer
 10
1.77
 20
0.995
 30
0.0
 11
1.7100000000000002
 21
0.995
 31
0.0
  0
LINE
  5
9D
100
AcDbEntity
100
AcDbLine
  8
BLACK
 62
256
370
-1
  6
ByLayer
 10
1.7100000000000002
 20
0.995
 30
0.0
 11
1.7100000000000002
 21
1.105
 31
0.0
  0
LINE
  5
9E
100
AcDbEntity
100
AcDbLine
  8
BLACK
 62
256
370
-1
  6
ByLayer
 10
1.7100000000000002
 20
1.105
 30
0.0
 11
1.77
 21
1.105
 31
0.0
  0
LINE
  5
9F
100
AcDbEntity
100
AcDbLine
  8
BLACK
 62
256
370
-1
  6
ByLayer
 10
1.8300000000000001
 20
1.105
 30
0.0
 11
1.8900000000000001
 21
1.105
 31
0.0
  0
LINE
  5
A0
100
AcDbEntity
100
AcDbLine
  8
BLACK
 62
256
370
-1
  6
ByLayer
 10
1.8900000000000001
 20
1.105
 30
0.0
 11
1.8900000000000001
 21
0.995
 31
0.0
  0
LINE
  5
A1
100
AcDbEntity
100
AcDbLine
  8
BLACK
 62
256
370
-1
  6
ByLayer
 10
1.8900000000000001
 20
0.995
 30
0.0
 11
1.8300000000000001
 21
0.995
 31
0.0
  0
CIRCLE
  5
A2
100
AcDbEntity
100
AcDbCircle
  8
BLACK
 62
256
370
-1
  6
ByLayer
 10
1.7050000000000001
 20
1.2850000000000001
 30
0.0
 40
0.007
  0
LINE
  5
A3
100
AcDbEntity
100
AcDbLine
  8
BLACK
 62
256
370
-1
  6
ByLayer
 10
1.77
 20
1.1700000000000002
 30
0.0
 11
1.7100000000000002
 21
1.1700000000000002
 31
0.0
  0
LINE
  5
A4
100
AcDbEntity
100
AcDbLine
  8
BLACK
 62
256
370
-1
  6
ByLayer
 10
1.7100000000000002
 20
1.1700000000000002
 30
0.0
 11
1.7100000000000002
 21
1.28
 31
0.0
  0
LINE
  5
A5
100
AcDbEntity
100
AcDbLine
  8
BLACK
 62
256
370
-1
  6
ByLayer
 10
1.7100000000000002
 20
1.28
 30
0.0
 11
1.77
 21
1.28
 31
0.0
  0
LINE
  5
A6
100
AcDbEntity
100
AcDbLine
  8
BLACK
 62
256
370
-1
  6
ByLayer
 10
1.8300000000000001
 20
1.28
 30
0.0
 11
1.8900000000000001
 21
1.28
 31
0.0
  0
LINE
  5
A7
100
AcDbEntity
100
AcDbLine
  8
BLACK
 62
256
370
-1
  6
ByLayer
 10
1.8900000000000001
 20
1.28
 30
0.0
 11
1.8900000000000001
 21
1.1700000000000002
 31
0.0
  0
LINE
  5
A8
100
AcDbEntity
100
AcDbLine
  8
BLACK
 62
256
370
-1
  6
ByLayer
 10
1.8900000000000001
 20
1.1700000000000002
 30
0.0
 11
1.8300000000000001
 21
1.1700000000000002
 31
0.0
  0
CIRCLE
  5
A9
100
AcDbEntity
100
AcDbCircle
  8
BLACK
 62
256
370
-1
  6
ByLayer
 10
2.895
 20
0.9900000000000001
 30
0.0
 40
0.007
  0
LINE
  5
AA
100
AcDbEntity
100
AcDbLine
  8
BLACK
 62
256
370
-1
  6
ByLayer
 10
2.8300000000000001
 20
1.105
 30
0.0
 11
2.8900000000000001
 21
1.105
 31
0.0
  0
LINE
  5
AB
100
AcDbEntity
100
AcDbLine
  8
BLACK
 62
256
370
-1
  6
ByLayer
 10
2.8900000000000001
 20
1.105
 30
0.0
 11
2.8900000000000001
 21
0.995
 31
0.0
  0
LINE
  5
AC
100
AcDbEntity
100
AcDbLine
  8
BLACK
 62
256
370
-1
  6
ByLayer
 10
2.8900000000000001
 20
0.995
 30
0.0
 11
2.8300000000000001
 21
0.995
 31
0.0
  0
LINE
  5
AD
100
AcDbEntity
100
AcDbLine
  8
BLACK
 62
256
370
-1
  6
ByLayer
 10
2.77
 20
0.995
 30
0.0
 11
2.71
 21
0.995
 31
0.0
  0
LINE
  5
AE
100
AcDbEntity
100
AcDbLine
  8
BLACK
 62
256
370
-1
  6
ByLayer
 10
2.71
 20
0.995
 30
0.0
 11
2.71
 21
1.105
 31
0.0
  0
LINE
  5
AF
100
AcDbEntity
100
AcDbLine
  8
BLACK
 62
256
370
-1
  6
ByLayer
 10
2.71
 20
1.105
 30
0.0
 11
2.77
 21
1.105
 31
0.0
  0
CIRCLE
  5
B0
100
AcDbEntity
100
AcDbCircle
  8
BLACK
 62
256
370
-1
  6
ByLayer
 10
2.895
 20
1.165
 30
0.0
 40
0.007
  0
LINE
  5
B1
100
AcDbEntity
100
AcDbLine
  8
BLACK
 62
256
370
-1
  6
ByLayer
 10
2.8300000000000001
 20
1.28
 30
0.0
 11
2.8900000000000001
 21
1.28
 31
0.0
  0
LINE
  5
B2
100
AcDbEntity
100
AcDbLine
  8
BLACK
 62
256
370
-1
  6
ByLayer
 10
2.8900000000000001
 20
1.28
 30
0.0
 11
2.8900000000000001
 21
1.1700000000000002
 31
0.0
  0
LINE
  5
B3
100
AcDbEntity
100
AcDbLine
  8
BLACK
 62
256
370
-1
  6
ByLayer
 10
2.8900000000000001
 20
1.1700000000000002
 30
0.0
 11
2.8300000000000001
 21
1.1700000000000002
 31
0.0
  0
LINE
  5
B4
100
AcDbEntity
100
AcDbLine
  8
BLACK
 62
256
370
-1
  6
ByLayer
 10
2.77
 20
1.1700000000000002
 30
0.0
 11
2.71
 21
1.1700000000000002
 31
0.0
  0
LINE
  5
B5
100
AcDbEntity
100
AcDbLine
  8
BLACK
 62
256
370
-1
  6
ByLayer
 10
2.71
 20
1.1700000000000002
 30
0.0
 11
2.71
 21
1.28
 31
0.0
  0
LINE
  5
B6
100
AcDbEntity
100
AcDbLine
  8
BLACK
 62
256
370
-1
  6
ByLayer
 10
2.71
 20
1.28
 30
0.0
 11
2.77
 21
1.28
 31
0.0
  0
CIRCLE
  5
B7
100
AcDbEntity
100
AcDbCircle
  8
BLACK
 62
256
370
-1
  6
ByLayer
 10
1.7050000000000001
 20
1.4350000000000001
 30
0.0
 40
0.007
  0
LINE
  5
B8
100
AcDbEntity
100
AcDbLine
  8
BLACK
 62
256
370
-1
  6
ByLayer
 10
1.77
 20
1.3200000000000001
 30
0.0
 11
1.7100000000000002
 21
1.3200000000000001
 31
0.0
  0
LINE
  5
B9
100
AcDbEntity
100
AcDbLine
  8
BLACK
 62
256
370
-1
  6
ByLayer
 10
1.7100000000000002
 20
1.3200000000000001
 30
0.0
 11
1.7100000000000002
 21
1.4300000000000002
 31
0.0
  0
LINE
  5
BA
100
AcDbEntity
100
AcDbLine
  8
BLACK
 62
256
370
-1
  6
ByLayer
 10
1.7100000000000002
 20
1.4300000000000002
 30
0.0
 11
1.77
 21
1.4300000000000002
 31
0.0
  0
LINE
  5
BB
100
AcDbEntity
100
AcDbLine
  8
BLACK
 62
256
370
-1
  6
ByLayer
 10
1.8300000000000001
 20
1.4300000000000002
 30
0.0
 11
1.8900000000000001
 21
1.4300000000000002
 31
0.0
  0
LINE
  5
BC
100
AcDbEntity
100
AcDbLine
  8
BLACK
 62
256
370
-1
  6
ByLayer
 10
1.8900000000000001
 20
1.4300000000000002
 30
0.0
 11
1.8900000000000001
 21
1.3200000000000001
 31
0.0
  0
LINE
  5
BD
100
AcDbEntity
100
AcDbLine
  8
BLACK
 62
256
370
-1
  6
ByLayer
 10
1.8900000000000001
 20
1.3200000000000001
 30
0.0
 11
1.8300000000000001
 21
1.3200000000000001
 31
0.0
  0
LINE
  5
BE
100
AcDbEntity
100
AcDbLine
  8
BLACK
 62
256
370
-1
  6
ByLayer
 10
2.1842999999999999
 20
0.405
 30
0.0
 11
2.1857000000000002
 21
0.4064
 31
0.0
  0
LINE
  5
BF
100
AcDbEntity
100
AcDbLine
  8
BLACK
 62
256
370
-1
  6
ByLayer
 10
2.1857000000000002
 20
0.4064
 30
0.0
 11
2.1871
 21
0.4107
 31
0.0
  0
LINE
  5
C0
100
AcDbEntity
100
AcDbLine
  8
BLACK
 62
256
370
-1
  6
ByLayer
 10
2.1871
 20
0.4107
 30
0.0
 11
2.1871
 21
0.4136
 31
0.0
  0
LINE
  5
C1
100
AcDbEntity
100
AcDbLine
  8
BLACK
 62
256
370
-1
  6
ByLayer
 10
2.1871
 20
0.4136
 30
0.0
 11
2.1857000000000002
 21
0.4179
 31
0.0
  0
LINE
  5
C2
100
AcDbEntity
100
AcDbLine
  8
BLACK
 62
256
370
-1
  6
ByLayer
 10
2.1857000000000002
 20
0.4179
 30
0.0
 11
2.1829000000000001
 21
0.4207
 31
0.0
  0
LINE
  5
C3
100
AcDbEntity
100
AcDbLine
  8
BLACK
 62
256
370
-1
  6
ByLayer
 10
2.1829000000000001
 20
0.4207
 30
0.0
 11
2.1800000000000002
 21
0.4222
 31
0.0
  0
LINE
  5
C4
100
AcDbEntity
100
AcDbLine
  8
BLACK
 62
256
370
-1
  6
ByLayer
 10
2.1800000000000002
 20
0.4222
 30
0.0
 11
2.1743000000000001
 21
0.4236
 31
0.0
  0
LINE
  5
C5
100
AcDbEntity
100
AcDbLine
  8
BLACK
 62
256
370
-1
  6
ByLayer
 10
2.1743000000000001
 20
0.4236
 30
0.0
 11
2.1699999999999999
 21
0.4236
 31
0.0
  0
LINE
  5
C6
100
AcDbEntity
100
AcDbLine
  8
BLACK
 62
256
370
-1
  6
ByLayer
 10
2.1699999999999999
 20
0.4236
 30
0.0
 11
2.1642999999999999
 21
0.4222
 31
0.0
  0
LINE
  5
C7
100
AcDbEntity
100
AcDbLine
  8
BLACK
 62
256
370
-1
  6
ByLayer
 10
2.1642999999999999
 20
0.4222
 30
0.0
 11
2.1614
 21
0.4207
 31
0.0
  0
LINE
  5
C8
100
AcDbEntity
100
AcDbLine
  8
BLACK
 62
256
370
-1
  6
ByLayer
 10
2.1614
 20
0.4207
 30
0.0
 11
2.1586000000000003
 21
0.4179
 31
0.0
  0
LINE
  5
C9
100
AcDbEntity
100
AcDbLine
  8
BLACK
 62
256
370
-1
  6
ByLayer
 10
2.1586000000000003
 20
0.4179
 30
0.0
 11
2.1571000000000002
 21
0.4136
 31
0.0
  0
LINE
  5
CA
100
AcDbEntity
100
AcDbLine
  8
BLACK
 62
256
370
-1
  6
ByLayer
 10
2.1571000000000002
 20
0.4136
 30
0.0
 11
2.1571000000000002
 21
0.4107
 31
0.0
  0
LINE
  5
CB
100
AcDbEntity
100
AcDbLine
  8
BLACK
 62
256
370
-1
  6
ByLayer
 10
2.1571000000000002
 20
0.4107
 30
0.0
 11
2.1586000000000003
 21
0.4064
 31
0.0
  0
LINE
  5
CC
100
AcDbEntity
100
AcDbLine
  8
BLACK
 62
256
370
-1
  6
ByLayer
 10
2.1586000000000003
 20
0.4064
 30
0.0
 11
2.1600000000000001
 21
0.405
 31
0.0
  0
LINE
  5
CD
100
AcDbEntity
100
AcDbLine
  8
BLACK
 62
256
370
-1
  6
ByLayer
 10
2.1571000000000002
 20
0.3779
 30
0.0
 11
2.1571000000000002
 21
0.3922
 31
0.0
  0
LINE
  5
CE
100
AcDbEntity
100
AcDbLine
  8
BLACK
 62
256
370
-1
  6
ByLayer
 10
2.1571000000000002
 20
0.3922
 30
0.0
 11
2.1714000000000002
 21
0.3936
 31
0.0
  0
LINE
  5
CF
100
AcDbEntity
100
AcDbLine
  8
BLACK
 62
256
370
-1
  6
ByLayer
 10
2.1714000000000002
 20
0.3936
 30
0.0
 11
2.1699999999999999
 21
0.3922
 31
0.0
  0
LINE
  5
D0
100
AcDbEntity
100
AcDbLine
  8
BLACK
 62
256
370
-1
  6
ByLayer
 10
2.1699999999999999
 20
0.3922
 30
0.0
 11
2.1686000000000001
 21
0.3893
 31
0.0
  0
LINE
  5
D1
100
AcDbEntity
100
AcDbLine
  8
BLACK
 62
256
370
-1
  6
ByLayer
 10
2.1686000000000001
 20
0.3893
 30
0.0
 11
2.1686000000000001
 21
0.3822
 31
0.0
  0
LINE
  5
D2
100
AcDbEntity
100
AcDbLine
  8
BLACK
 62
256
370
-1
  6
ByLayer
 10
2.1686000000000001
 20
0.3822
 30
0.0
 11
2.1699999999999999
 21
0.3793
 31
0.0
  0
LINE
  5
D3
100
AcDbEntity
100
AcDbLine
  8
BLACK
 62
256
370
-1
  6
ByLayer
 10
2.1699999999999999
 20
0.3793
 30
0.0
 11
2.1714000000000002
 21
0.3779
 31
0.0
  0
LINE
  5
D4
100
AcDbEntity
100
AcDbLine
  8
BLACK
 62
256
370
-1
  6
ByLayer
 10
2.1714000000000002
 20
0.3779
 30
0.0
 11
2.1743000000000001
 21
0.3764
 31
0.0
  0
LINE
  5
D5
100
AcDbEntity
100
AcDbLine
  8
BLACK
 62
256
370
-1
  6
ByLayer
 10
2.1743000000000001
 20
0.3764
 30
0.0
 11
2.1814
 21
0.3764
 31
0.0
  0
LINE
  5
D6
100
AcDbEntity
100
AcDbLine
  8
BLACK
 62
256
370
-1
  6
ByLayer
 10
2.1814
 20
0.3764
 30
0.0
 11
2.1842999999999999
 21
0.3779
 31
0.0
  0
LINE
  5
D7
100
AcDbEntity
100
AcDbLine
  8
BLACK
 62
256
370
-1
  6
ByLayer
 10
2.1842999999999999
 20
0.3779
 30
0.0
 11
2.1857000000000002
 21
0.3793
 31
0.0
  0
LINE
  5
D8
100
AcDbEntity
100
AcDbLine
  8
BLACK
 62
256
370
-1
  6
ByLayer
 10
2.1857000000000002
 20
0.3793
 30
0.0
 11
2.1871
 21
0.3822
 31
0.0
  0
LINE
  5
D9
100
AcDbEntity
100
AcDbLine
  8
BLACK
 62
256
370
-1
  6
ByLayer
 10
2.1871
 20
0.3822
 30
0.0
 11
2.1871
 21
0.3893
 31
0.0
  0
LINE
  5
DA
100
AcDbEntity
100
AcDbLine
  8
BLACK
 62
256
370
-1
  6
ByLayer
 10
2.1871
 20
0.3893
 30
0.0
 11
2.1857000000000002
 21
0.3922
 31
0.0
  0
LINE
  5
DB
100
AcDbEntity
100
AcDbLine
  8
BLACK
 62
256
370
-1
  6
ByLayer
 10
2.1857000000000002
 20
0.3922
 30
0.0
 11
2.1842999999999999
 21
0.3936
 31
0.0
  0
LINE
  5
DC
100
AcDbEntity
100
AcDbLine
  8
BLACK
 62
256
370
-1
  6
ByLayer
 10
2.4871000000000003
 20
0.4321
 30
0.0
 11
2.4871000000000003
 21
0.4493
 31
0.0
  0
LINE
  5
DD
100
AcDbEntity
100
AcDbLine
  8
BLACK
 62
256
370
-1
  6
ByLayer
 10
2.4871000000000003
 20
0.4407
 30
0.0
 11
2.4571000000000001
 21
0.4407
 31
0.0
  0
LINE
  5
DE
100
AcDbEntity
100
AcDbLine
  8
BLACK
 62
256
370
-1
  6
ByLayer
 10
2.4571000000000001
 20
0.4407
 30
0.0
 11
2.4614000000000003
 21
0.4436
 31
0.0
  0
LINE
  5
DF
100
AcDbEntity
100
AcDbLine
  8
BLACK
 62
256
370
-1
  6
ByLayer
 10
2.4614000000000003
 20
0.4436
 30
0.0
 11
2.4643000000000002
 21
0.4464
 31
0.0
  0
LINE
  5
E0
100
AcDbEntity
100
AcDbLine
  8
BLACK
 62
256
370
-1
  6
ByLayer
 10
2.4643000000000002
 20
0.4464
 30
0.0
 11
2.4657
 21
0.4493
 31
0.0
  0
LINE
  5
E1
100
AcDbEntity
100
AcDbLine
  8
BLACK
 62
256
370
-1
  6
ByLayer
 10
2.4571000000000001
 20
0.4135
 30
0.0
 11
2.4571000000000001
 21
0.4107
 31
0.0
  0
LINE
  5
E2
100
AcDbEntity
100
AcDbLine
  8
BLACK
 62
256
370
-1
  6
ByLayer
 10
2.4571000000000001
 20
0.4107
 30
0.0
 11
2.4586000000000001
 21
0.4078
 31
0.0
  0
LINE
  5
E3
100
AcDbEntity
100
AcDbLine
  8
BLACK
 62
256
370
-1
  6
ByLayer
 10
2.4586000000000001
 20
0.4078
 30
0.0
 11
2.46
 21
0.4064
 31
0.0
  0
LINE
  5
E4
100
AcDbEntity
100
AcDbLine
  8
BLACK
 62
256
370
-1
  6
ByLayer
 10
2.46
 20
0.4064
 30
0.0
 11
2.4629000000000003
 21
0.405
 31
0.0
  0
LINE
  5
E5
100
AcDbEntity
100
AcDbLine
  8
BLACK
 62
256
370
-1
  6
ByLayer
 10
2.4629000000000003
 20
0.405
 30
0.0
 11
2.4685999999999999
 21
0.4035
 31
0.0
  0
LINE
  5
E6
100
AcDbEntity
100
AcDbLine
  8
BLACK
 62
256
370
-1
  6
ByLayer
 10
2.4685999999999999
 20
0.4035
 30
0.0
 11
2.4757000000000002
 21
0.4035
 31
0.0
  0
LINE
  5
E7
100
AcDbEntity
100
AcDbLine
  8
BLACK
 62
256
370
-1
  6
ByLayer
 10
2.4757000000000002
 20
0.4035
 30
0.0
 11
2.4814000000000003
 21
0.405
 31
0.0
  0
LINE
  5
E8
100
AcDbEntity
100
AcDbLine
  8
BLACK
 62
256
370
-1
  6
ByLayer
 10
2.4814000000000003
 20
0.405
 30
0.0
 11
2.4843000000000002
 21
0.4064
 31
0.0
  0
LINE
  5
E9
100
AcDbEntity
100
AcDbLine
  8
BLACK
 62
256
370
-1
  6
ByLayer
 10
2.4843000000000002
 20
0.4064
 30
0.0
 11
2.4857
 21
0.4078
 31
0.0
  0
LINE
  5
EA
100
AcDbEntity
100
AcDbLine
  8
BLACK
 62
256
370
-1
  6
ByLayer
 10
2.4857
 20
0.4078
 30
0.0
 11
2.4871000000000003
 21
0.4107
 31
0.0
  0
LINE
  5
EB
100
AcDbEntity
100
AcDbLine
  8
BLACK
 62
256
370
-1
  6
ByLayer
 10
2.4871000000000003
 20
0.4107
 30
0.0
 11
2.4871000000000003
 21
0.4135
 31
0.0
  0
LINE
  5
EC
100
AcDbEntity
100
AcDbLine
  8
BLACK
 62
256
370
-1
  6
ByLayer
 10
2.4871000000000003
 20
0.4135
 30
0.0
 11
2.4857
 21
0.4164
 31
0.0
  0
LINE
  5
ED
100
AcDbEntity
100
AcDbLine
  8
BLACK
 62
256
370
-1
  6
ByLayer
 10
2.4857
 20
0.4164
 30
0.0
 11
2.4843000000000002
 21
0.4178
 31
0.0
  0
LINE
  5
EE
100
AcDbEntity
100
AcDbLine
  8
BLACK
 62
256
370
-1
  6
ByLayer
 10
2.4843000000000002
 20
0.4178
 30
0.0
 11
2.4814000000000003
 21
0.4193
 31
0.0
  0
LINE
  5
EF
100
AcDbEntity
100
AcDbLine
  8
BLACK
 62
256
370
-1
  6
ByLayer
 10
2.4814000000000003
 20
0.4193
 30
0.0
 11
2.4757000000000002
 21
0.4207
 31
0.0
  0
LINE
  5
F0
100
AcDbEntity
100
AcDbLine
  8
BLACK
 62
256
370
-1
  6
ByLayer
 10
2.4757000000000002
 20
0.4207
 30
0.0
 11
2.4685999999999999
 21
0.4207
 31
0.0
  0
LINE
  5
F1
100
AcDbEntity
100
AcDbLine
  8
BLACK
 62
256
370
-1
  6
ByLayer
 10
2.4685999999999999
 20
0.4207
 30
0.0
 11
2.4629000000000003
 21
0.4193
 31
0.0
  0
LINE
  5
F2
100
AcDbEntity
100
AcDbLine
  8
BLACK
 62
256
370
-1
  6
ByLayer
 10
2.4629000000000003
 20
0.4193
 30
0.0
 11
2.46
 21
0.4178
 31
0.0
  0
LINE
  5
F3
100
AcDbEntity
100
AcDbLine
  8
BLACK
 62
256
370
-1
  6
ByLayer
 10
2.46
 20
0.4178
 30
0.0
 11
2.4586000000000001
 21
0.4164
 31
0.0
  0
LINE
  5
F4
100
AcDbEntity
100
AcDbLine
  8
BLACK
 62
256
370
-1
  6
ByLayer
 10
2.4586000000000001
 20
0.4164
 30
0.0
 11
2.4571000000000001
 21
0.4135
 31
0.0
  0
LINE
  5
F5
100
AcDbEntity
100
AcDbLine
  8
BLACK
 62
256
370
-1
  6
ByLayer
 10
2.4671000000000003
 20
0.3778
 30
0.0
 11
2.4871000000000003
 21
0.3778
 31
0.0
  0
LINE
  5
F6
100
AcDbEntity
100
AcDbLine
  8
BLACK
 62
256
370
-1
  6
ByLayer
 10
2.4671000000000003
 20
0.3907
 30
0.0
 11
2.4829000000000003
 21
0.3907
 31
0.0
  0
LINE
  5
F7
100
AcDbEntity
100
AcDbLine
  8
BLACK
 62
256
370
-1
  6
ByLayer
 10
2.4829000000000003
 20
0.3907
 30
0.0
 11
2.4857
 21
0.3892
 31
0.0
  0
LINE
  5
F8
100
AcDbEntity
100
AcDbLine
  8
BLACK
 62
256
370
-1
  6
ByLayer
 10
2.4857
 20
0.3892
 30
0.0
 11
2.4871000000000003
 21
0.3864
 31
0.0
  0
LINE
  5
F9
100
AcDbEntity
100
AcDbLine
  8
BLACK
 62
256
370
-1
  6
ByLayer
 10
2.4871000000000003
 20
0.3864
 30
0.0
 11
2.4871000000000003
 21
0.3821
 31
0.0
  0
LINE
  5
FA
100
AcDbEntity
100
AcDbLine
  8
BLACK
 62
256
370
-1
  6
ByLayer
 10
2.4871000000000003
 20
0.3821
 30
0.0
 11
2.4857
 21
0.3792
 31
0.0
  0
LINE
  5
FB
100
AcDbEntity
100
AcDbLine
  8
BLACK
 62
256
370
-1
  6
ByLayer
 10
2.4857
 20
0.3792
 30
0.0
 11
2.4843000000000002
 21
0.3778
 31
0.0
  0
LINE
  5
FC
100
AcDbEntity
100
AcDbLine
  8
BLACK
 62
256
370
-1
  6
ByLayer
 10
2.4714
 20
0.3536
 30
0.0
 11
2.4714
 21
0.3636
 31
0.0
  0
LINE
  5
FD
100
AcDbEntity
100
AcDbLine
  8
BLACK
 62
256
370
-1
  6
ByLayer
 10
2.4871000000000003
 20
0.3636
 30
0.0
 11
2.4571000000000001
 21
0.3636
 31
0.0
  0
LINE
  5
FE
100
AcDbEntity
100
AcDbLine
  8
BLACK
 62
256
370
-1
  6
ByLayer
 10
2.4571000000000001
 20
0.3636
 30
0.0
 11
2.4571000000000001
 21
0.3493
 31
0.0
  0
LINE
  5
FF
100
AcDbEntity
100
AcDbLine
  8
BLACK
 62
256
370
-1
  6
ByLayer
 10
1.9343000000000001
 20
0.905
 30
0.0
 11
1.9357000000000002
 21
0.9064000000000001
 31
0.0
  0
LINE
  5
100
100
AcDbEntity
100
AcDbLine
  8
BLACK
 62
256
370
-1
  6
ByLayer
 10
1.9357000000000002
 20
0.9064000000000001
 30
0.0
 11
1.9371
 21
0.9107000000000001
 31
0.0
  0
LINE
  5
101
100
AcDbEntity
100
AcDbLine
  8
BLACK
 62
256
370
-1
  6
ByLayer
 10
1.9371
 20
0.9107000000000001
 30
0.0
 11
1.9371
 21
0.9136000000000001
 31
0.0
  0
LINE
  5
102
100
AcDbEntity
100
AcDbLine
  8
BLACK
 62
256
370
-1
  6
ByLayer
 10
1.9371
 20
0.9136000000000001
 30
0.0
 11
1.9357000000000002
 21
0.9179
 31
0.0
  0
LINE
  5
103
100
AcDbEntity
100
AcDbLine
  8
BLACK
 62
256
370
-1
  6
ByLayer
 10
1.9357000000000002
 20
0.9179
 30
0.0
 11
1.9329000000000001
 21
0.9207000000000001
 31
0.0
  0
LINE
  5
104
100
AcDbEntity
100
AcDbLine
  8
BLACK
 62
256
370
-1
  6
ByLayer
 10
1.9329000000000001
 20
0.9207000000000001
 30
0.0
 11
1.9300000000000002
 21
0.9222
 31
0.0
  0
LINE
  5
105
100
AcDbEntity
100
AcDbLine
  8
BLACK
 62
256
370
-1
  6
ByLayer
 10
1.9300000000000002
 20
0.9222
 30
0.0
 11
1.9243000000000001
 21
0.9236000000000001
 31
0.0
  0
LINE
  5
106
100
AcDbEntity
100
AcDbLine
  8
BLACK
 62
256
370
-1
  6
ByLayer
 10
1.9243000000000001
 20
0.9236000000000001
 30
0.0
 11
1.9200000000000002
 21
0.9236000000000001
 31
0.0
  0
LINE
  5
107
100
AcDbEntity
100
AcDbLine
  8
BLACK
 62
256
370
-1
  6
ByLayer
 10
1.9200000000000002
 20
0.9236000000000001
 30
0.0
 11
1.9143000000000001
 21
0.9222
 31
0.0
  0
LINE
  5
108
100
AcDbEntity
100
AcDbLine
  8
BLACK
 62
256
370
-1
  6
ByLayer
 10
1.9143000000000001
 20
0.9222
 30
0.0
 11
1.9114
 21
0.9207000000000001
 31
0.0
  0
LINE
  5
109
100
AcDbEntity
100
AcDbLine
  8
BLACK
 62
256
370
-1
  6
ByLayer
 10
1.9114
 20
0.9207000000000001
 30
0.0
 11
1.9086000000000001
 21
0.9179
 31
0.0
  0
LINE
  5
10A
100
AcDbEntity
100
AcDbLine
  8
BLACK
 62
256
370
-1
  6
ByLayer
 10
1.9086000000000001
 20
0.9179
 30
0.0
 11
1.9071
 21
0.9136000000000001
 31
0.0
  0
LINE
  5
10B
100
AcDbEntity
100
AcDbLine
  8
BLACK
 62
256
370
-1
  6
ByLayer
 10
1.9071
 20
0.9136000000000001
 30
0.0
 11
1.9071
 21
0.9107000000000001
 31
0.0
  0
LINE
  5
10C
100
AcDbEntity
100
AcDbLine
  8
BLACK
 62
256
370
-1
  6
ByLayer
 10
1.9071
 20
0.9107000000000001
 30
0.0
 11
1.9086000000000001
 21
0.9064000000000001
 31
0.0
  0
LINE
  5
10D
100
AcDbEntity
100
AcDbLine
  8
BLACK
 62
256
370
-1
  6
ByLayer
 10
1.9086000000000001
 20
0.9064000000000001
 30
0.0
 11
1.9100000000000001
 21
0.905
 31
0.0
  0
LINE
  5
10E
100
AcDbEntity
100
AcDbLine
  8
BLACK
 62
256
370
-1
  6
ByLayer
 10
1.9371
 20
0.8764000000000001
 30
0.0
 11
1.9371
 21
0.8936000000000001
 31
0.0
  0
LINE
  5
10F
100
AcDbEntity
100
AcDbLine
  8
BLACK
 62
256
370
-1
  6
ByLayer
 10
1.9371
 20
0.885
 30
0.0
 11
1.9071
 21
0.885
 31
0.0
  0
LINE
  5
110
100
AcDbEntity
100
AcDbLine
  8
BLACK
 62
256
370
-1
  6
ByLayer
 10
1.9071
 20
0.885
 30
0.0
 11
1.9114
 21
0.8879
 31
0.0
  0
LINE
  5
111
100
AcDbEntity
100
AcDbLine
  8
BLACK
 62
256
370
-1
  6
ByLayer
 10
1.9114
 20
0.8879
 30
0.0
 11
1.9143000000000001
 21
0.8907
 31
0.0
  0
LINE
  5
112
100
AcDbEntity
100
AcDbLine
  8
BLACK
 62
256
370
-1
  6
ByLayer
 10
1.9143000000000001
 20
0.8907
 30
0.0
 11
1.9157000000000002
 21
0.8936000000000001
 31
0.0
  0
LINE
  5
113
100
AcDbEntity
100
AcDbLine
  8
BLACK
 62
256
370
-1
  6
ByLayer
 10
1.6871
 20
0.9392
 30
0.0
 11
1.6871
 21
0.9564
 31
0.0
  0
LINE
  5
114
100
AcDbEntity
100
AcDbLine
  8
BLACK
 62
256
370
-1
  6
ByLayer
 10
1.6871
 20
0.9478000000000001
 30
0.0
 11
1.6571
 21
0.9478000000000001
 31
0.0
  0
LINE
  5
115
100
AcDbEntity
100
AcDbLine
  8
BLACK
 62
256
370
-1
  6
ByLayer
 10
1.6571
 20
0.9478000000000001
 30
0.0
 11
1.6614
 21
0.9507000000000001
 31
0.0
  0
LINE
  5
116
100
AcDbEntity
100
AcDbLine
  8
BLACK
 62
256
370
-1
  6
ByLayer
 10
1.6614
 20
0.9507000000000001
 30
0.0
 11
1.6643000000000001
 21
0.9535
 31
0.0
  0
LINE
  5
117
100
AcDbEntity
100
AcDbLine
  8
BLACK
 62
256
370
-1
  6
ByLayer
 10
1.6643000000000001
 20
0.9535
 30
0.0
 11
1.6657000000000002
 21
0.9564
 31
0.0
  0
LINE
  5
118
100
AcDbEntity
100
AcDbLine
  8
BLACK
 62
256
370
-1
  6
ByLayer
 10
1.6843000000000001
 20
0.9264
 30
0.0
 11
1.6857
 21
0.9249000000000001
 31
0.0
  0
LINE
  5
119
100
AcDbEntity
100
AcDbLine
  8
BLACK
 62
256
370
-1
  6
ByLayer
 10
1.6857
 20
0.9249000000000001
 30
0.0
 11
1.6871
 21
0.9264
 31
0.0
  0
LINE
  5
11A
100
AcDbEntity
100
AcDbLine
  8
BLACK
 62
256
370
-1
  6
ByLayer
 10
1.6871
 20
0.9264
 30
0.0
 11
1.6857
 21
0.9278000000000001
 31
0.0
  0
LINE
  5
11B
100
AcDbEntity
100
AcDbLine
  8
BLACK
 62
256
370
-1
  6
ByLayer
 10
1.6857
 20
0.9278000000000001
 30
0.0
 11
1.6843000000000001
 21
0.9264
 31
0.0
  0
LINE
  5
11C
100
AcDbEntity
100
AcDbLine
  8
BLACK
 62
256
370
-1
  6
ByLayer
 10
1.6843000000000001
 20
0.9264
 30
0.0
 11
1.6871
 21
0.9264
 31
0.0
  0
LINE
  5
11D
100
AcDbEntity
100
AcDbLine
  8
BLACK
 62
256
370
-1
  6
ByLayer
 10
1.6571
 20
0.8978
 30
0.0
 11
1.6571
 21
0.9121
 31
0.0
  0
LINE
  5
11E
100
AcDbEntity
100
AcDbLine
  8
BLACK
 62
256
370
-1
  6
ByLayer
 10
1.6571
 20
0.9121
 30
0.0
 11
1.6714
 21
0.9135000000000001
 31
0.0
  0
LINE
  5
11F
100
AcDbEntity
100
AcDbLine
  8
BLACK
 62
256
370
-1
  6
ByLayer
 10
1.6714
 20
0.9135000000000001
 30
0.0
 11
1.6700000000000002
 21
0.9121
 31
0.0
  0
LINE
  5
120
100
AcDbEntity
100
AcDbLine
  8
BLACK
 62
256
370
-1
  6
ByLayer
 10
1.6700000000000002
 20
0.9121
 30
0.0
 11
1.6686000000000001
 21
0.9092
 31
0.0
  0
LINE
  5
121
100
AcDbEntity
100
AcDbLine
  8
BLACK
 62
256
370
-1
  6
ByLayer
 10
1.6686000000000001
 20
0.9092
 30
0.0
 11
1.6686000000000001
 21
0.9021
 31
0.0
  0
LINE
  5
122
100
AcDbEntity
100
AcDbLine
  8
BLACK
 62
256
370
-1
  6
ByLayer
 10
1.6686000000000001
 20
0.9021
 30
0.0
 11
1.6700000000000002
 21
0.8992
 31
0.0
  0
LINE
  5
123
100
AcDbEntity
100
AcDbLine
  8
BLACK
 62
256
370
-1
  6
ByLayer
 10
1.6700000000000002
 20
0.8992
 30
0.0
 11
1.6714
 21
0.8978
 31
0.0
  0
LINE
  5
124
100
AcDbEntity
100
AcDbLine
  8
BLACK
 62
256
370
-1
  6
ByLayer
 10
1.6714
 20
0.8978
 30
0.0
 11
1.6743000000000001
 21
0.8963000000000001
 31
0.0
  0
LINE
  5
125
100
AcDbEntity
100
AcDbLine
  8
BLACK
 62
256
370
-1
  6
ByLayer
 10
1.6743000000000001
 20
0.8963000000000001
 30
0.0
 11
1.6814
 21
0.8963000000000001
 31
0.0
  0
LINE
  5
126
100
AcDbEntity
100
AcDbLine
  8
BLACK
 62
256
370
-1
  6
ByLayer
 10
1.6814
 20
0.8963000000000001
 30
0.0
 11
1.6843000000000001
 21
0.8978
 31
0.0
  0
LINE
  5
127
100
AcDbEntity
100
AcDbLine
  8
BLACK
 62
256
370
-1
  6
ByLayer
 10
1.6843000000000001
 20
0.8978
 30
0.0
 11
1.6857
 21
0.8992
 31
0.0
  0
LINE
  5
128
100
AcDbEntity
100
AcDbLine
  8
BLACK
 62
256
370
-1
  6
ByLayer
 10
1.6857
 20
0.8992
 30
0.0
 11
1.6871
 21
0.9021
 31
0.0
  0
LINE
  5
129
100
AcDbEntity
100
AcDbLine
  8
BLACK
 62
256
370
-1
  6
ByLayer
 10
1.6871
 20
0.9021
 30
0.0
 11
1.6871
 21
0.9092
 31
0.0
  0
LINE
  5
12A
100
AcDbEntity
100
AcDbLine
  8
BLACK
 62
256
370
-1
  6
ByLayer
 10
1.6871
 20
0.9092
 30
0.0
 11
1.6857
 21
0.9121
 31
0.0
  0
LINE
  5
12B
100
AcDbEntity
100
AcDbLine
  8
BLACK
 62
256
370
-1
  6
ByLayer
 10
1.6857
 20
0.9121
 30
0.0
 11
1.6843000000000001
 21
0.9135000000000001
 31
0.0
  0
LINE
  5
12C
100
AcDbEntity
100
AcDbLine
  8
BLACK
 62
256
370
-1
  6
ByLayer
 10
1.6671
 20
0.8706
 30
0.0
 11
1.6871
 21
0.8706
 31
0.0
  0
LINE
  5
12D
100
AcDbEntity
100
AcDbLine
  8
BLACK
 62
256
370
-1
  6
ByLayer
 10
1.6671
 20
0.8835000000000001
 30
0.0
 11
1.6829000000000001
 21
0.8835000000000001
 31
0.0
  0
LINE
  5
12E
100
AcDbEntity
100
AcDbLine
  8
BLACK
 62
256
370
-1
  6
ByLayer
 10
1.6829000000000001
 20
0.8835000000000001
 30
0.0
 11
1.6857
 21
0.882
 31
0.0
  0
LINE
  5
12F
100
AcDbEntity
100
AcDbLine
  8
BLACK
 62
256
370
-1
  6
ByLayer
 10
1.6857
 20
0.882
 30
0.0
 11
1.6871
 21
0.8792000000000001
 31
0.0
  0
LINE
  5
130
100
AcDbEntity
100
AcDbLine
  8
BLACK
 62
256
370
-1
  6
ByLayer
 10
1.6871
 20
0.8792000000000001
 30
0.0
 11
1.6871
 21
0.8749
 31
0.0
  0
LINE
  5
131
100
AcDbEntity
100
AcDbLine
  8
BLACK
 62
256
370
-1
  6
ByLayer
 10
1.6871
 20
0.8749
 30
0.0
 11
1.6857
 21
0.872
 31
0.0
  0
LINE
  5
132
100
AcDbEntity
100
AcDbLine
  8
BLACK
 62
256
370
-1
  6
ByLayer
 10
1.6857
 20
0.872
 30
0.0
 11
1.6843000000000001
 21
0.8706
 31
0.0
  0
LINE
  5
133
100
AcDbEntity
100
AcDbLine
  8
BLACK
 62
256
370
-1
  6
ByLayer
 10
1.6714
 20
0.8464
 30
0.0
 11
1.6714
 21
0.8564000000000001
 31
0.0
  0
LINE
  5
134
100
AcDbEntity
100
AcDbLine
  8
BLACK
 62
256
370
-1
  6
ByLayer
 10
1.6871
 20
0.8564000000000001
 30
0.0
 11
1.6571
 21
0.8564000000000001
 31
0.0
  0
LINE
  5
135
100
AcDbEntity
100
AcDbLine
  8
BLACK
 62
256
370
-1
  6
ByLayer
 10
1.6571
 20
0.8564000000000001
 30
0.0
 11
1.6571
 21
0.8421000000000001
 31
0.0
  0
LINE
  5
136
100
AcDbEntity
100
AcDbLine
  8
BLACK
 62
256
370
-1
  6
ByLayer
 10
2.6842999999999999
 20
1.3800000000000001
 30
0.0
 11
2.6857000000000002
 21
1.3814
 31
0.0
  0
LINE
  5
137
100
AcDbEntity
100
AcDbLine
  8
BLACK
 62
256
370
-1
  6
ByLayer
 10
2.6857000000000002
 20
1.3814
 30
0.0
 11
2.6871
 21
1.3857000000000002
 31
0.0
  0
LINE
  5
138
100
AcDbEntity
100
AcDbLine
  8
BLACK
 62
256
370
-1
  6
ByLayer
 10
2.6871
 20
1.3857000000000002
 30
0.0
 11
2.6871
 21
1.3886000000000001
 31
0.0
  0
LINE
  5
139
100
AcDbEntity
100
AcDbLine
  8
BLACK
 62
256
370
-1
  6
ByLayer
 10
2.6871
 20
1.3886000000000001
 30
0.0
 11
2.6857000000000002
 21
1.3929
 31
0.0
  0
LINE
  5
13A
100
AcDbEntity
100
AcDbLine
  8
BLACK
 62
256
370
-1
  6
ByLayer
 10
2.6857000000000002
 20
1.3929
 30
0.0
 11
2.6829000000000001
 21
1.3957000000000002
 31
0.0
  0
LINE
  5
13B
100
AcDbEntity
100
AcDbLine
  8
BLACK
 62
256
370
-1
  6
ByLayer
 10
2.6829000000000001
 20
1.3957000000000002
 30
0.0
 11
2.6800000000000002
 21
1.3972
 31
0.0
  0
LINE
  5
13C
100
AcDbEntity
100
AcDbLine
  8
BLACK
 62
256
370
-1
  6
ByLayer
 10
2.6800000000000002
 20
1.3972
 30
0.0
 11
2.6743000000000001
 21
1.3986000000000001
 31
0.0
  0
LINE
  5
13D
100
AcDbEntity
100
AcDbLine
  8
BLACK
 62
256
370
-1
  6
ByLayer
 10
2.6743000000000001
 20
1.3986000000000001
 30
0.0
 11
2.6699999999999999
 21
1.3986000000000001
 31
0.0
  0
LINE
  5
13E
100
AcDbEntity
100
AcDbLine
  8
BLACK
 62
256
370
-1
  6
ByLayer
 10
2.6699999999999999
 20
1.3986000000000001
 30
0.0
 11
2.6643000000000003
 21
1.3972
 31
0.0
  0
LINE
  5
13F
100
AcDbEntity
100
AcDbLine
  8
BLACK
 62
256
370
-1
  6
ByLayer
 10
2.6643000000000003
 20
1.3972
 30
0.0
 11
2.6614
 21
1.3957000000000002
 31
0.0
  0
LINE
  5
140
100
AcDbEntity
100
AcDbLine
  8
BLACK
 62
256
370
-1
  6
ByLayer
 10
2.6614
 20
1.3957000000000002
 30
0.0
 11
2.6586000000000003
 21
1.3929
 31
0.0
  0
LINE
  5
141
100
AcDbEntity
100
AcDbLine
  8
BLACK
 62
256
370
-1
  6
ByLayer
 10
2.6586000000000003
 20
1.3929
 30
0.0
 11
2.6571000000000002
 21
1.3886000000000001
 31
0.0
  0
LINE
  5
142
100
AcDbEntity
100
AcDbLine
  8
BLACK
 62
256
370
-1
  6
ByLayer
 10
2.6571000000000002
 20
1.3886000000000001
 30
0.0
 11
2.6571000000000002
 21
1.3857000000000002
 31
0.0
  0
LINE
  5
143
100
AcDbEntity
100
AcDbLine
  8
BLACK
 62
256
370
-1
  6
ByLayer
 10
2.6571000000000002
 20
1.3857000000000002
 30
0.0
 11
2.6586000000000003
 21
1.3814
 31
0.0
  0
LINE
  5
144
100
AcDbEntity
100
AcDbLine
  8
BLACK
 62
256
370
-1
  6
ByLayer
 10
2.6586000000000003
 20
1.3814
 30
0.0
 11
2.6600000000000001
 21
1.3800000000000001
 31
0.0
  0
LINE
  5
145
100
AcDbEntity
100
AcDbLine
  8
BLACK
 62
256
370
-1
  6
ByLayer
 10
2.6671
 20
1.3543000000000001
 30
0.0
 11
2.6871
 21
1.3543000000000001
 31
0.0
  0
LINE
  5
146
100
AcDbEntity
100
AcDbLine
  8
BLACK
 62
256
370
-1
  6
ByLayer
 10
2.6556999999999999
 20
1.3614000000000002
 30
0.0
 11
2.6771000000000003
 21
1.3686
 31
0.0
  0
LINE
  5
147
100
AcDbEntity
100
AcDbLine
  8
BLACK
 62
256
370
-1
  6
ByLayer
 10
2.6771000000000003
 20
1.3686
 30
0.0
 11
2.6771000000000003
 21
1.3500000000000001
 31
0.0
  0
LINE
  5
148
100
AcDbEntity
100
AcDbLine
  8
BLACK
 62
256
370
-1
  6
ByLayer
 10
2.9371
 20
1.4142000000000001
 30
0.0
 11
2.9371
 21
1.4314
 31
0.0
  0
LINE
  5
149
100
AcDbEntity
100
AcDbLine
  8
BLACK
 62
256
370
-1
  6
ByLayer
 10
2.9371
 20
1.4228000000000001
 30
0.0
 11
2.9071000000000002
 21
1.4228000000000001
 31
0.0
  0
LINE
  5
14A
100
AcDbEntity
100
AcDbLine
  8
BLACK
 62
256
370
-1
  6
ByLayer
 10
2.9071000000000002
 20
1.4228000000000001
 30
0.0
 11
2.9114
 21
1.4257
 31
0.0
  0
LINE
  5
14B
100
AcDbEntity
100
AcDbLine
  8
BLACK
 62
256
370
-1
  6
ByLayer
 10
2.9114
 20
1.4257
 30
0.0
 11
2.9143000000000003
 21
1.4285000000000001
 31
0.0
  0
LINE
  5
14C
100
AcDbEntity
100
AcDbLine
  8
BLACK
 62
256
370
-1
  6
ByLayer
 10
2.9143000000000003
 20
1.4285000000000001
 30
0.0
 11
2.9157000000000002
 21
1.4314
 31
0.0
  0
LINE
  5
14D
100
AcDbEntity
100
AcDbLine
  8
BLACK
 62
256
370
-1
  6
ByLayer
 10
2.9343000000000004
 20
1.4014
 30
0.0
 11
2.9357000000000002
 21
1.3999000000000001
 31
0.0
  0
LINE
  5
14E
100
AcDbEntity
100
AcDbLine
  8
BLACK
 62
256
370
-1
  6
ByLayer
 10
2.9357000000000002
 20
1.3999000000000001
 30
0.0
 11
2.9371
 21
1.4014
 31
0.0
  0
LINE
  5
14F
100
AcDbEntity
100
AcDbLine
  8
BLACK
 62
256
370
-1
  6
ByLayer
 10
2.9371
 20
1.4014
 30
0.0
 11
2.9357000000000002
 21
1.4028
 31
0.0
  0
LINE
  5
150
100
AcDbEntity
100
AcDbLine
  8
BLACK
 62
256
370
-1
  6
ByLayer
 10
2.9357000000000002
 20
1.4028
 30
0.0
 11
2.9343000000000004
 21
1.4014
 31
0.0
  0
LINE
  5
151
100
AcDbEntity
100
AcDbLine
  8
BLACK
 62
256
370
-1
  6
ByLayer
 10
2.9343000000000004
 20
1.4014
 30
0.0
 11
2.9371
 21
1.4014
 31
0.0
  0
LINE
  5
152
100
AcDbEntity
100
AcDbLine
  8
BLACK
 62
256
370
-1
  6
ByLayer
 10
2.9071000000000002
 20
1.3728
 30
0.0
 11
2.9071000000000002
 21
1.3871
 31
0.0
  0
LINE
  5
153
100
AcDbEntity
100
AcDbLine
  8
BLACK
 62
256
370
-1
  6
ByLayer
 10
2.9071000000000002
 20
1.3871
 30
0.0
 11
2.9214000000000002
 21
1.3885000000000001
 31
0.0
  0
LINE
  5
154
100
AcDbEntity
100
AcDbLine
  8
BLACK
 62
256
370
-1
  6
ByLayer
 10
2.9214000000000002
 20
1.3885000000000001
 30
0.0
 11
2.9199999999999999
 21
1.3871
 31
0.0
  0
LINE
  5
155
100
AcDbEntity
100
AcDbLine
  8
BLACK
 62
256
370
-1
  6
ByLayer
 10
2.9199999999999999
 20
1.3871
 30
0.0
 11
2.9186000000000001
 21
1.3842000000000001
 31
0.0
  0
LINE
  5
156
100
AcDbEntity
100
AcDbLine
  8
BLACK
 62
256
370
-1
  6
ByLayer
 10
2.9186000000000001
 20
1.3842000000000001
 30
0.0
 11
2.9186000000000001
 21
1.3771
 31
0.0
  0
LINE
  5
157
100
AcDbEntity
100
AcDbLine
  8
BLACK
 62
256
370
-1
  6
ByLayer
 10
2.9186000000000001
 20
1.3771
 30
0.0
 11
2.9199999999999999
 21
1.3742000000000001
 31
0.0
  0
LINE
  5
158
100
AcDbEntity
100
AcDbLine
  8
BLACK
 62
256
370
-1
  6
ByLayer
 10
2.9199999999999999
 20
1.3742000000000001
 30
0.0
 11
2.9214000000000002
 21
1.3728
 31
0.0
  0
LINE
  5
159
100
AcDbEntity
100
AcDbLine
  8
BLACK
 62
256
370
-1
  6
ByLayer
 10
2.9214000000000002
 20
1.3728
 30
0.0
 11
2.9243000000000001
 21
1.3713
 31
0.0
  0
LINE
  5
15A
100
AcDbEntity
100
AcDbLine
  8
BLACK
 62
256
370
-1
  6
ByLayer
 10
2.9243000000000001
 20
1.3713
 30
0.0
 11
2.9314
 21
1.3713
 31
0.0
  0
LINE
  5
15B
100
AcDbEntity
100
AcDbLine
  8
BLACK
 62
256
370
-1
  6
ByLayer
 10
2.9314
 20
1.3713
 30
0.0
 11
2.9343000000000004
 21
1.3728
 31
0.0
  0
LINE
  5
15C
100
AcDbEntity
100
AcDbLine
  8
BLACK
 62
256
370
-1
  6
ByLayer
 10
2.9343000000000004
 20
1.3728
 30
0.0
 11
2.9357000000000002
 21
1.3742000000000001
 31
0.0
  0
LINE
  5
15D
100
AcDbEntity
100
AcDbLine
  8
BLACK
 62
256
370
-1
  6
ByLayer
 10
2.9357000000000002
 20
1.3742000000000001
 30
0.0
 11
2.9371
 21
1.3771
 31
0.0
  0
LINE
  5
15E
100
AcDbEntity
100
AcDbLine
  8
BLACK
 62
256
370
-1
  6
ByLayer
 10
2.9371
 20
1.3771
 30
0.0
 11
2.9371
 21
1.3842000000000001
 31
0.0
  0
LINE
  5
15F
100
AcDbEntity
100
AcDbLine
  8
BLACK
 62
256
370
-1
  6
ByLayer
 10
2.9371
 20
1.3842000000000001
 30
0.0
 11
2.9357000000000002
 21
1.3871
 31
0.0
  0
LINE
  5
160
100
AcDbEntity
100
AcDbLine
  8
BLACK
 62
256
370
-1
  6
ByLayer
 10
2.9357000000000002
 20
1.3871
 30
0.0
 11
2.9343000000000004
 21
1.3885000000000001
 31
0.0
  0
LINE
  5
161
100
AcDbEntity
100
AcDbLine
  8
BLACK
 62
256
370
-1
  6
ByLayer
 10
2.9171
 20
1.3456000000000001
 30
0.0
 11
2.9371
 21
1.3456000000000001
 31
0.0
  0
LINE
  5
162
100
AcDbEntity
100
AcDbLine
  8
BLACK
 62
256
370
-1
  6
ByLayer
 10
2.9171
 20
1.3585
 30
0.0
 11
2.9329000000000001
 21
1.3585
 31
0.0
  0
LINE
  5
163
100
AcDbEntity
100
AcDbLine
  8
BLACK
 62
256
370
-1
  6
ByLayer
 10
2.9329000000000001
 20
1.3585
 30
0.0
 11
2.9357000000000002
 21
1.357
 31
0.0
  0
LINE
  5
164
100
AcDbEntity
100
AcDbLine
  8
BLACK
 62
256
370
-1
  6
ByLayer
 10
2.9357000000000002
 20
1.357
 30
0.0
 11
2.9371
 21
1.3542000000000001
 31
0.0
  0
LINE
  5
165
100
AcDbEntity
100
AcDbLine
  8
BLACK
 62
256
370
-1
  6
ByLayer
 10
2.9371
 20
1.3542000000000001
 30
0.0
 11
2.9371
 21
1.3499000000000001
 31
0.0
  0
LINE
  5
166
100
AcDbEntity
100
AcDbLine
  8
BLACK
 62
256
370
-1
  6
ByLayer
 10
2.9371
 20
1.3499000000000001
 30
0.0
 11
2.9357000000000002
 21
1.347
 31
0.0
  0
LINE
  5
167
100
AcDbEntity
100
AcDbLine
  8
BLACK
 62
256
370
-1
  6
ByLayer
 10
2.9357000000000002
 20
1.347
 30
0.0
 11
2.9343000000000004
 21
1.3456000000000001
 31
0.0
  0
LINE
  5
168
100
AcDbEntity
100
AcDbLine
  8
BLACK
 62
256
370
-1
  6
ByLayer
 10
2.9214000000000002
 20
1.3214000000000001
 30
0.0
 11
2.9214000000000002
 21
1.3314000000000001
 31
0.0
  0
LINE
  5
169
100
AcDbEntity
100
AcDbLine
  8
BLACK
 62
256
370
-1
  6
ByLayer
 10
2.9371
 20
1.3314000000000001
 30
0.0
 11
2.9071000000000002
 21
1.3314000000000001
 31
0.0
  0
LINE
  5
16A
100
AcDbEntity
100
AcDbLine
  8
BLACK
 62
256
370
-1
  6
ByLayer
 10
2.9071000000000002
 20
1.3314000000000001
 30
0.0
 11
2.9071000000000002
 21
1.3171000000000002
 31
0.0
  0
LINE
  5
16B
100
AcDbEntity
100
AcDbLine
  8
BLACK
 62
256
370
-1
  6
ByLayer
 10
2.98
 20
0.8157000000000001
 30
0.0
 11
2.9814000000000003
 21
0.8143
 31
0.0
  0
LINE
  5
16C
100
AcDbEntity
100
AcDbLine
  8
BLACK
 62
256
370
-1
  6
ByLayer
 10
2.9814000000000003
 20
0.8143
 30
0.0
 11
2.9857
 21
0.8129000000000001
 31
0.0
  0
LINE
  5
16D
100
AcDbEntity
100
AcDbLine
  8
BLACK
 62
256
370
-1
  6
ByLayer
 10
2.9857
 20
0.8129000000000001
 30
0.0
 11
2.9885999999999999
 21
0.8129000000000001
 31
0.0
  0
LINE
  5
16E
100
AcDbEntity
100
AcDbLine
  8
BLACK
 62
256
370
-1
  6
ByLayer
 10
2.9885999999999999
 20
0.8129000000000001
 30
0.0
 11
2.9929000000000001
 21
0.8143
 31
0.0
  0
LINE
  5
16F
100
AcDbEntity
100
AcDbLine
  8
BLACK
 62
256
370
-1
  6
ByLayer
 10
2.9929000000000001
 20
0.8143
 30
0.0
 11
2.9957000000000003
 21
0.8171
 31
0.0
  0
LINE
  5
170
100
AcDbEntity
100
AcDbLine
  8
BLACK
 62
256
370
-1
  6
ByLayer
 10
2.9957000000000003
 20
0.8171
 30
0.0
 11
2.9972000000000003
 21
0.8200000000000001
 31
0.0
  0
LINE
  5
171
100
AcDbEntity
100
AcDbLine
  8
BLACK
 62
256
370
-1
  6
ByLayer
 10
2.9972000000000003
 20
0.8200000000000001
 30
0.0
 11
2.9986000000000002
 21
0.8257
 31
0.0
  0
LINE
  5
172
100
AcDbEntity
100
AcDbLine
  8
BLACK
 62
256
370
-1
  6
ByLayer
 10
2.9986000000000002
 20
0.8257
 30
0.0
 11
2.9986000000000002
 21
0.8300000000000001
 31
0.0
  0
LINE
  5
173
100
AcDbEntity
100
AcDbLine
  8
BLACK
 62
256
370
-1
  6
ByLayer
 10
2.9986000000000002
 20
0.8300000000000001
 30
0.0
 11
2.9972000000000003
 21
0.8357
 31
0.0
  0
LINE
  5
174
100
AcDbEntity
100
AcDbLine
  8
BLACK
 62
256
370
-1
  6
ByLayer
 10
2.9972000000000003
 20
0.8357
 30
0.0
 11
2.9957000000000003
 21
0.8386
 31
0.0
  0
LINE
  5
175
100
AcDbEntity
100
AcDbLine
  8
BLACK
 62
256
370
-1
  6
ByLayer
 10
2.9957000000000003
 20
0.8386
 30
0.0
 11
2.9929000000000001
 21
0.8414
 31
0.0
  0
LINE
  5
176
100
AcDbEntity
100
AcDbLine
  8
BLACK
 62
256
370
-1
  6
ByLayer
 10
2.9929000000000001
 20
0.8414
 30
0.0
 11
2.9885999999999999
 21
0.8429000000000001
 31
0.0
  0
LINE
  5
177
100
AcDbEntity
100
AcDbLine
  8
BLACK
 62
256
370
-1
  6
ByLayer
 10
2.9885999999999999
 20
0.8429000000000001
 30
0.0
 11
2.9857
 21
0.8429000000000001
 31
0.0
  0
LINE
  5
178
100
AcDbEntity
100
AcDbLine
  8
BLACK
 62
256
370
-1
  6
ByLayer
 10
2.9857
 20
0.8429000000000001
 30
0.0
 11
2.9814000000000003
 21
0.8414
 31
0.0
  0
LINE
  5
179
100
AcDbEntity
100
AcDbLine
  8
BLACK
 62
256
370
-1
  6
ByLayer
 10
2.9814000000000003
 20
0.8414
 30
0.0
 11
2.98
 21
0.8400000000000001
 31
0.0
  0
LINE
  5
17A
100
AcDbEntity
100
AcDbLine
  8
BLACK
 62
256
370
-1
  6
ByLayer
 10
2.9700000000000002
 20
0.8429000000000001
 30
0.0
 11
2.9514
 21
0.8429000000000001
 31
0.0
  0
LINE
  5
17B
100
AcDbEntity
100
AcDbLine
  8
BLACK
 62
256
370
-1
  6
ByLayer
 10
2.9514
 20
0.8429000000000001
 30
0.0
 11
2.9614000000000003
 21
0.8314
 31
0.0
  0
LINE
  5
17C
100
AcDbEntity
100
AcDbLine
  8
BLACK
 62
256
370
-1
  6
ByLayer
 10
2.9614000000000003
 20
0.8314
 30
0.0
 11
2.9572000000000003
 21
0.8314
 31
0.0
  0
LINE
  5
17D
100
AcDbEntity
100
AcDbLine
  8
BLACK
 62
256
370
-1
  6
ByLayer
 10
2.9572000000000003
 20
0.8314
 30
0.0
 11
2.9542999999999999
 21
0.8300000000000001
 31
0.0
  0
LINE
  5
17E
100
AcDbEntity
100
AcDbLine
  8
BLACK
 62
256
370
-1
  6
ByLayer
 10
2.9542999999999999
 20
0.8300000000000001
 30
0.0
 11
2.9529000000000001
 21
0.8286
 31
0.0
  0
LINE
  5
17F
100
AcDbEntity
100
AcDbLine
  8
BLACK
 62
256
370
-1
  6
ByLayer
 10
2.9529000000000001
 20
0.8286
 30
0.0
 11
2.9514
 21
0.8257
 31
0.0
  0
LINE
  5
180
100
AcDbEntity
100
AcDbLine
  8
BLACK
 62
256
370
-1
  6
ByLayer
 10
2.9514
 20
0.8257
 30
0.0
 11
2.9514
 21
0.8186
 31
0.0
  0
LINE
  5
181
100
AcDbEntity
100
AcDbLine
  8
BLACK
 62
256
370
-1
  6
ByLayer
 10
2.9514
 20
0.8186
 30
0.0
 11
2.9529000000000001
 21
0.8157000000000001
 31
0.0
  0
LINE
  5
182
100
AcDbEntity
100
AcDbLine
  8
BLACK
 62
256
370
-1
  6
ByLayer
 10
2.9529000000000001
 20
0.8157000000000001
 30
0.0
 11
2.9542999999999999
 21
0.8143
 31
0.0
  0
LINE
  5
183
100
AcDbEntity
100
AcDbLine
  8
BLACK
 62
256
370
-1
  6
ByLayer
 10
2.9542999999999999
 20
0.8143
 30
0.0
 11
2.9572000000000003
 21
0.8129000000000001
 31
0.0
  0
LINE
  5
184
100
AcDbEntity
100
AcDbLine
  8
BLACK
 62
256
370
-1
  6
ByLayer
 10
2.9572000000000003
 20
0.8129000000000001
 30
0.0
 11
2.9657
 21
0.8129000000000001
 31
0.0
  0
LINE
  5
185
100
AcDbEntity
100
AcDbLine
  8
BLACK
 62
256
370
-1
  6
ByLayer
 10
2.9657
 20
0.8129000000000001
 30
0.0
 11
2.9686000000000003
 21
0.8143
 31
0.0
  0
LINE
  5
186
100
AcDbEntity
100
AcDbLine
  8
BLACK
 62
256
370
-1
  6
ByLayer
 10
2.9686000000000003
 20
0.8143
 30
0.0
 11
2.9700000000000002
 21
0.8157000000000001
 31
0.0
  0
LINE
  5
187
100
AcDbEntity
100
AcDbLine
  8
BLACK
 62
256
370
-1
  6
ByLayer
 10
2.9371
 20
0.9392
 30
0.0
 11
2.9371
 21
0.9564
 31
0.0
  0
LINE
  5
188
100
AcDbEntity
100
AcDbLine
  8
BLACK
 62
256
370
-1
  6
ByLayer
 10
2.9371
 20
0.9478000000000001
 30
0.0
 11
2.9071000000000002
 21
0.9478000000000001
 31
0.0
  0
LINE
  5
189
100
AcDbEntity
100
AcDbLine
  8
BLACK
 62
256
370
-1
  6
ByLayer
 10
2.9071000000000002
 20
0.9478000000000001
 30
0.0
 11
2.9114
 21
0.9507000000000001
 31
0.0
  0
LINE
  5
18A
100
AcDbEntity
100
AcDbLine
  8
BLACK
 62
256
370
-1
  6
ByLayer
 10
2.9114
 20
0.9507000000000001
 30
0.0
 11
2.9143000000000003
 21
0.9535
 31
0.0
  0
LINE
  5
18B
100
AcDbEntity
100
AcDbLine
  8
BLACK
 62
256
370
-1
  6
ByLayer
 10
2.9143000000000003
 20
0.9535
 30
0.0
 11
2.9157000000000002
 21
0.9564
 31
0.0
  0
LINE
  5
18C
100
AcDbEntity
100
AcDbLine
  8
BLACK
 62
256
370
-1
  6
ByLayer
 10
2.9343000000000004
 20
0.9264
 30
0.0
 11
2.9357000000000002
 21
0.9249000000000001
 31
0.0
  0
LINE
  5
18D
100
AcDbEntity
100
AcDbLine
  8
BLACK
 62
256
370
-1
  6
ByLayer
 10
2.9357000000000002
 20
0.9249000000000001
 30
0.0
 11
2.9371
 21
0.9264
 31
0.0
  0
LINE
  5
18E
100
AcDbEntity
100
AcDbLine
  8
BLACK
 62
256
370
-1
  6
ByLayer
 10
2.9371
 20
0.9264
 30
0.0
 11
2.9357000000000002
 21
0.9278000000000001
 31
0.0
  0
LINE
  5
18F
100
AcDbEntity
100
AcDbLine
  8
BLACK
 62
256
370
-1
  6
ByLayer
 10
2.9357000000000002
 20
0.9278000000000001
 30
0.0
 11
2.9343000000000004
 21
0.9264
 31
0.0
  0
LINE
  5
190
100
AcDbEntity
100
AcDbLine
  8
BLACK
 62
256
370
-1
  6
ByLayer
 10
2.9343000000000004
 20
0.9264
 30
0.0
 11
2.9371
 21
0.9264
 31
0.0
  0
LINE
  5
191
100
AcDbEntity
100
AcDbLine
  8
BLACK
 62
256
370
-1
  6
ByLayer
 10
2.9071000000000002
 20
0.8978
 30
0.0
 11
2.9071000000000002
 21
0.9121
 31
0.0
  0
LINE
  5
192
100
AcDbEntity
100
AcDbLine
  8
BLACK
 62
256
370
-1
  6
ByLayer
 10
2.9071000000000002
 20
0.9121
 30
0.0
 11
2.9214000000000002
 21
0.9135000000000001
 31
0.0
  0
LINE
  5
193
100
AcDbEntity
100
AcDbLine
  8
BLACK
 62
256
370
-1
  6
ByLayer
 10
2.9214000000000002
 20
0.9135000000000001
 30
0.0
 11
2.9199999999999999
 21
0.9121
 31
0.0
  0
LINE
  5
194
100
AcDbEntity
100
AcDbLine
  8
BLACK
 62
256
370
-1
  6
ByLayer
 10
2.9199999999999999
 20
0.9121
 30
0.0
 11
2.9186000000000001
 21
0.9092
 31
0.0
  0
LINE
  5
195
100
AcDbEntity
100
AcDbLine
  8
BLACK
 62
256
370
-1
  6
ByLayer
 10
2.9186000000000001
 20
0.9092
 30
0.0
 11
2.9186000000000001
 21
0.9021
 31
0.0
  0
LINE
  5
196
100
AcDbEntity
100
AcDbLine
  8
BLACK
 62
256
370
-1
  6
ByLayer
 10
2.9186000000000001
 20
0.9021
 30
0.0
 11
2.9199999999999999
 21
0.8992
 31
0.0
  0
LINE
  5
197
100
AcDbEntity
100
AcDbLine
  8
BLACK
 62
256
370
-1
  6
ByLayer
 10
2.9199999999999999
 20
0.8992
 30
0.0
 11
2.9214000000000002
 21
0.8978
 31
0.0
  0
LINE
  5
198
100
AcDbEntity
100
AcDbLine
  8
BLACK
 62
256
370
-1
  6
ByLayer
 10
2.9214000000000002
 20
0.8978
 30
0.0
 11
2.9243000000000001
 21
0.8963000000000001
 31
0.0
  0
LINE
  5
199
100
AcDbEntity
100
AcDbLine
  8
BLACK
 62
256
370
-1
  6
ByLayer
 10
2.9243000000000001
 20
0.8963000000000001
 30
0.0
 11
2.9314
 21
0.8963000000000001
 31
0.0
  0
LINE
  5
19A
100
AcDbEntity
100
AcDbLine
  8
BLACK
 62
256
370
-1
  6
ByLayer
 10
2.9314
 20
0.8963000000000001
 30
0.0
 11
2.9343000000000004
 21
0.8978
 31
0.0
  0
LINE
  5
19B
100
AcDbEntity
100
AcDbLine
  8
BLACK
 62
256
370
-1
  6
ByLayer
 10
2.9343000000000004
 20
0.8978
 30
0.0
 11
2.9357000000000002
 21
0.8992
 31
0.0
  0
LINE
  5
19C
100
AcDbEntity
100
AcDbLine
  8
BLACK
 62
256
370
-1
  6
ByLayer
 10
2.9357000000000002
 20
0.8992
 30
0.0
 11
2.9371
 21
0.9021
 31
0.0
  0
LINE
  5
19D
100
AcDbEntity
100
AcDbLine
  8
BLACK
 62
256
370
-1
  6
ByLayer
 10
2.9371
 20
0.9021
 30
0.0
 11
2.9371
 21
0.9092
 31
0.0
  0
LINE
  5
19E
100
AcDbEntity
100
AcDbLine
  8
BLACK
 62
256
370
-1
  6
ByLayer
 10
2.9371
 20
0.9092
 30
0.0
 11
2.9357000000000002
 21
0.9121
 31
0.0
  0
LINE
  5
19F
100
AcDbEntity
100
AcDbLine
  8
BLACK
 62
256
370
-1
  6
ByLayer
 10
2.9357000000000002
 20
0.9121
 30
0.0
 11
2.9343000000000004
 21
0.9135000000000001
 31
0.0
  0
LINE
  5
1A0
100
AcDbEntity
100
AcDbLine
  8
BLACK
 62
256
370
-1
  6
ByLayer
 10
2.9171
 20
0.8706
 30
0.0
 11
2.9371
 21
0.8706
 31
0.0
  0
LINE
  5
1A1
100
AcDbEntity
100
AcDbLine
  8
BLACK
 62
256
370
-1
  6
ByLayer
 10
2.9171
 20
0.8835000000000001
 30
0.0
 11
2.9329000000000001
 21
0.8835000000000001
 31
0.0
  0
LINE
  5
1A2
100
AcDbEntity
100
AcDbLine
  8
BLACK
 62
256
370
-1
  6
ByLayer
 10
2.9329000000000001
 20
0.8835000000000001
 30
0.0
 11
2.9357000000000002
 21
0.882
 31
0.0
  0
LINE
  5
1A3
100
AcDbEntity
100
AcDbLine
  8
BLACK
 62
256
370
-1
  6
ByLayer
 10
2.9357000000000002
 20
0.882
 30
0.0
 11
2.9371
 21
0.8792000000000001
 31
0.0
  0
LINE
  5
1A4
100
AcDbEntity
100
AcDbLine
  8
BLACK
 62
256
370
-1
  6
ByLayer
 10
2.9371
 20
0.8792000000000001
 30
0.0
 11
2.9371
 21
0.8749
 31
0.0
  0
LINE
  5
1A5
100
AcDbEntity
100
AcDbLine
  8
BLACK
 62
256
370
-1
  6
ByLayer
 10
2.9371
 20
0.8749
 30
0.0
 11
2.9357000000000002
 21
0.872
 31
0.0
  0
LINE
  5
1A6
100
AcDbEntity
100
AcDbLine
  8
BLACK
 62
256
370
-1
  6
ByLayer
 10
2.9357000000000002
 20
0.872
 30
0.0
 11
2.9343000000000004
 21
0.8706
 31
0.0
  0
LINE
  5
1A7
100
AcDbEntity
100
AcDbLine
  8
BLACK
 62
256
370
-1
  6
ByLayer
 10
2.9214000000000002
 20
0.8464
 30
0.0
 11
2.9214000000000002
 21
0.8564000000000001
 31
0.0
  0
LINE
  5
1A8
100
AcDbEntity
100
AcDbLine
  8
BLACK
 62
256
370
-1
  6
ByLayer
 10
2.9371
 20
0.8564000000000001
 30
0.0
 11
2.9071000000000002
 21
0.8564000000000001
 31
0.0
  0
LINE
  5
1A9
100
AcDbEntity
100
AcDbLine
  8
BLACK
 62
256
370
-1
  6
ByLayer
 10
2.9071000000000002
 20
0.8564000000000001
 30
0.0
 11
2.9071000000000002
 21
0.8421000000000001
 31
0.0
  0
LINE
  5
1AA
100
AcDbEntity
100
AcDbLine
  8
BLACK
 62
256
370
-1
  6
ByLayer
 10
2.1842999999999999
 20
0.555
 30
0.0
 11
2.1857000000000002
 21
0.5564
 31
0.0
  0
LINE
  5
1AB
100
AcDbEntity
100
AcDbLine
  8
BLACK
 62
256
370
-1
  6
ByLayer
 10
2.1857000000000002
 20
0.5564
 30
0.0
 11
2.1871
 21
0.5607
 31
0.0
  0
LINE
  5
1AC
100
AcDbEntity
100
AcDbLine
  8
BLACK
 62
256
370
-1
  6
ByLayer
 10
2.1871
 20
0.5607
 30
0.0
 11
2.1871
 21
0.5636
 31
0.0
  0
LINE
  5
1AD
100
AcDbEntity
100
AcDbLine
  8
BLACK
 62
256
370
-1
  6
ByLayer
 10
2.1871
 20
0.5636
 30
0.0
 11
2.1857000000000002
 21
0.5679000000000001
 31
0.0
  0
LINE
  5
1AE
100
AcDbEntity
100
AcDbLine
  8
BLACK
 62
256
370
-1
  6
ByLayer
 10
2.1857000000000002
 20
0.5679000000000001
 30
0.0
 11
2.1829000000000001
 21
0.5707
 31
0.0
  0
LINE
  5
1AF
100
AcDbEntity
100
AcDbLine
  8
BLACK
 62
256
370
-1
  6
ByLayer
 10
2.1829000000000001
 20
0.5707
 30
0.0
 11
2.1800000000000002
 21
0.5722
 31
0.0
  0
LINE
  5
1B0
100
AcDbEntity
100
AcDbLine
  8
BLACK
 62
256
370
-1
  6
ByLayer
 10
2.1800000000000002
 20
0.5722
 30
0.0
 11
2.1743000000000001
 21
0.5736
 31
0.0
  0
LINE
  5
1B1
100
AcDbEntity
100
AcDbLine
  8
BLACK
 62
256
370
-1
  6
ByLayer
 10
2.1743000000000001
 20
0.5736
 30
0.0
 11
2.1699999999999999
 21
0.5736
 31
0.0
  0
LINE
  5
1B2
100
AcDbEntity
100
AcDbLine
  8
BLACK
 62
256
370
-1
  6
ByLayer
 10
2.1699999999999999
 20
0.5736
 30
0.0
 11
2.1642999999999999
 21
0.5722
 31
0.0
  0
LINE
  5
1B3
100
AcDbEntity
100
AcDbLine
  8
BLACK
 62
256
370
-1
  6
ByLayer
 10
2.1642999999999999
 20
0.5722
 30
0.0
 11
2.1614
 21
0.5707
 31
0.0
  0
LINE
  5
1B4
100
AcDbEntity
100
AcDbLine
  8
BLACK
 62
256
370
-1
  6
ByLayer
 10
2.1614
 20
0.5707
 30
0.0
 11
2.1586000000000003
 21
0.5679000000000001
 31
0.0
  0
LINE
  5
1B5
100
AcDbEntity
100
AcDbLine
  8
BLACK
 62
256
370
-1
  6
ByLayer
 10
2.1586000000000003
 20
0.5679000000000001
 30
0.0
 11
2.1571000000000002
 21
0.5636
 31
0.0
  0
LINE
  5
1B6
100
AcDbEntity
100
AcDbLine
  8
BLACK
 62
256
370
-1
  6
ByLayer
 10
2.1571000000000002
 20
0.5636
 30
0.0
 11
2.1571000000000002
 21
0.5607
 31
0.0
  0
LINE
  5
1B7
100
AcDbEntity
100
AcDbLine
  8
BLACK
 62
256
370
-1
  6
ByLayer
 10
2.1571000000000002
 20
0.5607
 30
0.0
 11
2.1586000000000003
 21
0.5564
 31
0.0
  0
LINE
  5
1B8
100
AcDbEntity
100
AcDbLine
  8
BLACK
 62
256
370
-1
  6
ByLayer
 10
2.1586000000000003
 20
0.5564
 30
0.0
 11
2.1600000000000001
 21
0.555
 31
0.0
  0
LINE
  5
1B9
100
AcDbEntity
100
AcDbLine
  8
BLACK
 62
256
370
-1
  6
ByLayer
 10
2.1571000000000002
 20
0.5293
 30
0.0
 11
2.1571000000000002
 21
0.535
 31
0.0
  0
LINE
  5
1BA
100
AcDbEntity
100
AcDbLine
  8
BLACK
 62
256
370
-1
  6
ByLayer
 10
2.1571000000000002
 20
0.535
 30
0.0
 11
2.1586000000000003
 21
0.5379
 31
0.0
  0
LINE
  5
1BB
100
AcDbEntity
100
AcDbLine
  8
BLACK
 62
256
370
-1
  6
ByLayer
 10
2.1586000000000003
 20
0.5379
 30
0.0
 11
2.1600000000000001
 21
0.5393
 31
0.0
  0
LINE
  5
1BC
100
AcDbEntity
100
AcDbLine
  8
BLACK
 62
256
370
-1
  6
ByLayer
 10
2.1600000000000001
 20
0.5393
 30
0.0
 11
2.1642999999999999
 21
0.5422
 31
0.0
  0
LINE
  5
1BD
100
AcDbEntity
100
AcDbLine
  8
BLACK
 62
256
370
-1
  6
ByLayer
 10
2.1642999999999999
 20
0.5422
 30
0.0
 11
2.1699999999999999
 21
0.5436
 31
0.0
  0
LINE
  5
1BE
100
AcDbEntity
100
AcDbLine
  8
BLACK
 62
256
370
-1
  6
ByLayer
 10
2.1699999999999999
 20
0.5436
 30
0.0
 11
2.1814
 21
0.5436
 31
0.0
  0
LINE
  5
1BF
100
AcDbEntity
100
AcDbLine
  8
BLACK
 62
256
370
-1
  6
ByLayer
 10
2.1814
 20
0.5436
 30
0.0
 11
2.1842999999999999
 21
0.5422
 31
0.0
  0
LINE
  5
1C0
100
AcDbEntity
100
AcDbLine
  8
BLACK
 62
256
370
-1
  6
ByLayer
 10
2.1842999999999999
 20
0.5422
 30
0.0
 11
2.1857000000000002
 21
0.5407000000000001
 31
0.0
  0
LINE
  5
1C1
100
AcDbEntity
100
AcDbLine
  8
BLACK
 62
256
370
-1
  6
ByLayer
 10
2.1857000000000002
 20
0.5407000000000001
 30
0.0
 11
2.1871
 21
0.5379
 31
0.0
  0
LINE
  5
1C2
100
AcDbEntity
100
AcDbLine
  8
BLACK
 62
256
370
-1
  6
ByLayer
 10
2.1871
 20
0.5379
 30
0.0
 11
2.1871
 21
0.5322
 31
0.0
  0
LINE
  5
1C3
100
AcDbEntity
100
AcDbLine
  8
BLACK
 62
256
370
-1
  6
ByLayer
 10
2.1871
 20
0.5322
 30
0.0
 11
2.1857000000000002
 21
0.5293
 31
0.0
  0
LINE
  5
1C4
100
AcDbEntity
100
AcDbLine
  8
BLACK
 62
256
370
-1
  6
ByLayer
 10
2.1857000000000002
 20
0.5293
 30
0.0
 11
2.1842999999999999
 21
0.5279
 31
0.0
  0
LINE
  5
1C5
100
AcDbEntity
100
AcDbLine
  8
BLACK
 62
256
370
-1
  6
ByLayer
 10
2.1842999999999999
 20
0.5279
 30
0.0
 11
2.1814
 21
0.5264
 31
0.0
  0
LINE
  5
1C6
100
AcDbEntity
100
AcDbLine
  8
BLACK
 62
256
370
-1
  6
ByLayer
 10
2.1814
 20
0.5264
 30
0.0
 11
2.1743000000000001
 21
0.5264
 31
0.0
  0
LINE
  5
1C7
100
AcDbEntity
100
AcDbLine
  8
BLACK
 62
256
370
-1
  6
ByLayer
 10
2.1743000000000001
 20
0.5264
 30
0.0
 11
2.1714000000000002
 21
0.5279
 31
0.0
  0
LINE
  5
1C8
100
AcDbEntity
100
AcDbLine
  8
BLACK
 62
256
370
-1
  6
ByLayer
 10
2.1714000000000002
 20
0.5279
 30
0.0
 11
2.1699999999999999
 21
0.5293
 31
0.0
  0
LINE
  5
1C9
100
AcDbEntity
100
AcDbLine
  8
BLACK
 62
256
370
-1
  6
ByLayer
 10
2.1699999999999999
 20
0.5293
 30
0.0
 11
2.1686000000000001
 21
0.5322
 31
0.0
  0
LINE
  5
1CA
100
AcDbEntity
100
AcDbLine
  8
BLACK
 62
256
370
-1
  6
ByLayer
 10
2.1686000000000001
 20
0.5322
 30
0.0
 11
2.1686000000000001
 21
0.5379
 31
0.0
  0
LINE
  5
1CB
100
AcDbEntity
100
AcDbLine
  8
BLACK
 62
256
370
-1
  6
ByLayer
 10
2.1686000000000001
 20
0.5379
 30
0.0
 11
2.1699999999999999
 21
0.5407000000000001
 31
0.0
  0
LINE
  5
1CC
100
AcDbEntity
100
AcDbLine
  8
BLACK
 62
256
370
-1
  6
ByLayer
 10
2.1699999999999999
 20
0.5407000000000001
 30
0.0
 11
2.1714000000000002
 21
0.5422
 31
0.0
  0
LINE
  5
1CD
100
AcDbEntity
100
AcDbLine
  8
BLACK
 62
256
370
-1
  6
ByLayer
 10
2.1714000000000002
 20
0.5422
 30
0.0
 11
2.1743000000000001
 21
0.5436
 31
0.0
  0
LINE
  5
1CE
100
AcDbEntity
100
AcDbLine
  8
BLACK
 62
256
370
-1
  6
ByLayer
 10
2.4071000000000002
 20
0.5992000000000001
 30
0.0
 11
2.4071000000000002
 21
0.5964
 31
0.0
  0
LINE
  5
1CF
100
AcDbEntity
100
AcDbLine
  8
BLACK
 62
256
370
-1
  6
ByLayer
 10
2.4071000000000002
 20
0.5964
 30
0.0
 11
2.4086000000000003
 21
0.5935
 31
0.0
  0
LINE
  5
1D0
100
AcDbEntity
100
AcDbLine
  8
BLACK
 62
256
370
-1
  6
ByLayer
 10
2.4086000000000003
 20
0.5935
 30
0.0
 11
2.4100000000000001
 21
0.5921000000000001
 31
0.0
  0
LINE
  5
1D1
100
AcDbEntity
100
AcDbLine
  8
BLACK
 62
256
370
-1
  6
ByLayer
 10
2.4100000000000001
 20
0.5921000000000001
 30
0.0
 11
2.4129
 21
0.5907
 31
0.0
  0
LINE
  5
1D2
100
AcDbEntity
100
AcDbLine
  8
BLACK
 62
256
370
-1
  6
ByLayer
 10
2.4129
 20
0.5907
 30
0.0
 11
2.4186000000000001
 21
0.5892000000000001
 31
0.0
  0
LINE
  5
1D3
100
AcDbEntity
100
AcDbLine
  8
BLACK
 62
256
370
-1
  6
ByLayer
 10
2.4186000000000001
 20
0.5892000000000001
 30
0.0
 11
2.4257
 21
0.5892000000000001
 31
0.0
  0
LINE
  5
1D4
100
AcDbEntity
100
AcDbLine
  8
BLACK
 62
256
370
-1
  6
ByLayer
 10
2.4257
 20
0.5892000000000001
 30
0.0
 11
2.4314
 21
0.5907
 31
0.0
  0
LINE
  5
1D5
100
AcDbEntity
100
AcDbLine
  8
BLACK
 62
256
370
-1
  6
ByLayer
 10
2.4314
 20
0.5907
 30
0.0
 11
2.4342999999999999
 21
0.5921000000000001
 31
0.0
  0
LINE
  5
1D6
100
AcDbEntity
100
AcDbLine
  8
BLACK
 62
256
370
-1
  6
ByLayer
 10
2.4342999999999999
 20
0.5921000000000001
 30
0.0
 11
2.4357000000000002
 21
0.5935
 31
0.0
  0
LINE
  5
1D7
100
AcDbEntity
100
AcDbLine
  8
BLACK
 62
256
370
-1
  6
ByLayer
 10
2.4357000000000002
 20
0.5935
 30
0.0
 11
2.4371
 21
0.5964
 31
0.0
  0
LINE
  5
1D8
100
AcDbEntity
100
AcDbLine
  8
BLACK
 62
256
370
-1
  6
ByLayer
 10
2.4371
 20
0.5964
 30
0.0
 11
2.4371
 21
0.5992000000000001
 31
0.0
  0
LINE
  5
1D9
100
AcDbEntity
100
AcDbLine
  8
BLACK
 62
256
370
-1
  6
ByLayer
 10
2.4371
 20
0.5992000000000001
 30
0.0
 11
2.4357000000000002
 21
0.6021000000000001
 31
0.0
  0
LINE
  5
1DA
100
AcDbEntity
100
AcDbLine
  8
BLACK
 62
256
370
-1
  6
ByLayer
 10
2.4357000000000002
 20
0.6021000000000001
 30
0.0
 11
2.4342999999999999
 21
0.6035
 31
0.0
  0
LINE
  5
1DB
100
AcDbEntity
100
AcDbLine
  8
BLACK
 62
256
370
-1
  6
ByLayer
 10
2.4342999999999999
 20
0.6035
 30
0.0
 11
2.4314
 21
0.605
 31
0.0
  0
LINE
  5
1DC
100
AcDbEntity
100
AcDbLine
  8
BLACK
 62
256
370
-1
  6
ByLayer
 10
2.4314
 20
0.605
 30
0.0
 11
2.4257
 21
0.6064000000000001
 31
0.0
  0
LINE
  5
1DD
100
AcDbEntity
100
AcDbLine
  8
BLACK
 62
256
370
-1
  6
ByLayer
 10
2.4257
 20
0.6064000000000001
 30
0.0
 11
2.4186000000000001
 21
0.6064000000000001
 31
0.0
  0
LINE
  5
1DE
100
AcDbEntity
100
AcDbLine
  8
BLACK
 62
256
370
-1
  6
ByLayer
 10
2.4186000000000001
 20
0.6064000000000001
 30
0.0
 11
2.4129
 21
0.605
 31
0.0
  0
LINE
  5
1DF
100
AcDbEntity
100
AcDbLine
  8
BLACK
 62
256
370
-1
  6
ByLayer
 10
2.4129
 20
0.605
 30
0.0
 11
2.4100000000000001
 21
0.6035
 31
0.0
  0
LINE
  5
1E0
100
AcDbEntity
100
AcDbLine
  8
BLACK
 62
256
370
-1
  6
ByLayer
 10
2.4100000000000001
 20
0.6035
 30
0.0
 11
2.4086000000000003
 21
0.6021000000000001
 31
0.0
  0
LINE
  5
1E1
100
AcDbEntity
100
AcDbLine
  8
BLACK
 62
256
370
-1
  6
ByLayer
 10
2.4086000000000003
 20
0.6021000000000001
 30
0.0
 11
2.4071000000000002
 21
0.5992000000000001
 31
0.0
  0
LINE
  5
1E2
100
AcDbEntity
100
AcDbLine
  8
BLACK
 62
256
370
-1
  6
ByLayer
 10
2.4342999999999999
 20
0.5764
 30
0.0
 11
2.4357000000000002
 21
0.5749000000000001
 31
0.0
  0
LINE
  5
1E3
100
AcDbEntity
100
AcDbLine
  8
BLACK
 62
256
370
-1
  6
ByLayer
 10
2.4357000000000002
 20
0.5749000000000001
 30
0.0
 11
2.4371
 21
0.5764
 31
0.0
  0
LINE
  5
1E4
100
AcDbEntity
100
AcDbLine
  8
BLACK
 62
256
370
-1
  6
ByLayer
 10
2.4371
 20
0.5764
 30
0.0
 11
2.4357000000000002
 21
0.5778
 31
0.0
  0
LINE
  5
1E5
100
AcDbEntity
100
AcDbLine
  8
BLACK
 62
256
370
-1
  6
ByLayer
 10
2.4357000000000002
 20
0.5778
 30
0.0
 11
2.4342999999999999
 21
0.5764
 31
0.0
  0
LINE
  5
1E6
100
AcDbEntity
100
AcDbLine
  8
BLACK
 62
256
370
-1
  6
ByLayer
 10
2.4342999999999999
 20
0.5764
 30
0.0
 11
2.4371
 21
0.5764
 31
0.0
  0
LINE
  5
1E7
100
AcDbEntity
100
AcDbLine
  8
BLACK
 62
256
370
-1
  6
ByLayer
 10
2.4371
 20
0.5463
 30
0.0
 11
2.4371
 21
0.5635
 31
0.0
  0
LINE
  5
1E8
100
AcDbEntity
100
AcDbLine
  8
BLACK
 62
256
370
-1
  6
ByLayer
 10
2.4371
 20
0.5549000000000001
 30
0.0
 11
2.4071000000000002
 21
0.5549000000000001
 31
0.0
  0
LINE
  5
1E9
100
AcDbEntity
100
AcDbLine
  8
BLACK
 62
256
370
-1
  6
ByLayer
 10
2.4071000000000002
 20
0.5549000000000001
 30
0.0
 11
2.4114
 21
0.5578000000000001
 31
0.0
  0
LINE
  5
1EA
100
AcDbEntity
100
AcDbLine
  8
BLACK
 62
256
370
-1
  6
ByLayer
 10
2.4114
 20
0.5578000000000001
 30
0.0
 11
2.4143000000000003
 21
0.5606
 31
0.0
  0
LINE
  5
1EB
100
AcDbEntity
100
AcDbLine
  8
BLACK
 62
256
370
-1
  6
ByLayer
 10
2.4143000000000003
 20
0.5606
 30
0.0
 11
2.4157000000000002
 21
0.5635
 31
0.0
  0
LINE
  5
1EC
100
AcDbEntity
100
AcDbLine
  8
BLACK
 62
256
370
-1
  6
ByLayer
 10
2.4171
 20
0.5206000000000001
 30
0.0
 11
2.4371
 21
0.5206000000000001
 31
0.0
  0
LINE
  5
1ED
100
AcDbEntity
100
AcDbLine
  8
BLACK
 62
256
370
-1
  6
ByLayer
 10
2.4171
 20
0.5335
 30
0.0
 11
2.4329000000000001
 21
0.5335
 31
0.0
  0
LINE
  5
1EE
100
AcDbEntity
100
AcDbLine
  8
BLACK
 62
256
370
-1
  6
ByLayer
 10
2.4329000000000001
 20
0.5335
 30
0.0
 11
2.4357000000000002
 21
0.532
 31
0.0
  0
LINE
  5
1EF
100
AcDbEntity
100
AcDbLine
  8
BLACK
 62
256
370
-1
  6
ByLayer
 10
2.4357000000000002
 20
0.532
 30
0.0
 11
2.4371
 21
0.5292
 31
0.0
  0
LINE
  5
1F0
100
AcDbEntity
100
AcDbLine
  8
BLACK
 62
256
370
-1
  6
ByLayer
 10
2.4371
 20
0.5292
 30
0.0
 11
2.4371
 21
0.5249
 31
0.0
  0
LINE
  5
1F1
100
AcDbEntity
100
AcDbLine
  8
BLACK
 62
256
370
-1
  6
ByLayer
 10
2.4371
 20
0.5249
 30
0.0
 11
2.4357000000000002
 21
0.522
 31
0.0
  0
LINE
  5
1F2
100
AcDbEntity
100
AcDbLine
  8
BLACK
 62
256
370
-1
  6
ByLayer
 10
2.4357000000000002
 20
0.522
 30
0.0
 11
2.4342999999999999
 21
0.5206000000000001
 31
0.0
  0
LINE
  5
1F3
100
AcDbEntity
100
AcDbLine
  8
BLACK
 62
256
370
-1
  6
ByLayer
 10
2.4214000000000002
 20
0.4964
 30
0.0
 11
2.4214000000000002
 21
0.5064000000000001
 31
0.0
  0
LINE
  5
1F4
100
AcDbEntity
100
AcDbLine
  8
BLACK
 62
256
370
-1
  6
ByLayer
 10
2.4371
 20
0.5064000000000001
 30
0.0
 11
2.4071000000000002
 21
0.5064000000000001
 31
0.0
  0
LINE
  5
1F5
100
AcDbEntity
100
AcDbLine
  8
BLACK
 62
256
370
-1
  6
ByLayer
 10
2.4071000000000002
 20
0.5064000000000001
 30
0.0
 11
2.4071000000000002
 21
0.4921
 31
0.0
  0
LINE
  5
1F6
100
AcDbEntity
100
AcDbLine
  8
BLACK
 62
256
370
-1
  6
ByLayer
 10
2.1371000000000002
 20
0.9472
 30
0.0
 11
2.1071
 21
0.9472
 31
0.0
  0
LINE
  5
1F7
100
AcDbEntity
100
AcDbLine
  8
BLACK
 62
256
370
-1
  6
ByLayer
 10
2.1071
 20
0.9472
 30
0.0
 11
2.1071
 21
0.9400000000000001
 31
0.0
  0
LINE
  5
1F8
100
AcDbEntity
100
AcDbLine
  8
BLACK
 62
256
370
-1
  6
ByLayer
 10
2.1071
 20
0.9400000000000001
 30
0.0
 11
2.1086
 21
0.9357000000000001
 31
0.0
  0
LINE
  5
1F9
100
AcDbEntity
100
AcDbLine
  8
BLACK
 62
256
370
-1
  6
ByLayer
 10
2.1086
 20
0.9357000000000001
 30
0.0
 11
2.1114000000000002
 21
0.9329000000000001
 31
0.0
  0
LINE
  5
1FA
100
AcDbEntity
100
AcDbLine
  8
BLACK
 62
256
370
-1
  6
ByLayer
 10
2.1114000000000002
 20
0.9329000000000001
 30
0.0
 11
2.1143000000000001
 21
0.9314
 31
0.0
  0
LINE
  5
1FB
100
AcDbEntity
100
AcDbLine
  8
BLACK
 62
256
370
-1
  6
ByLayer
 10
2.1143000000000001
 20
0.9314
 30
0.0
 11
2.1200000000000001
 21
0.93
 31
0.0
  0
LINE
  5
1FC
100
AcDbEntity
100
AcDbLine
  8
BLACK
 62
256
370
-1
  6
ByLayer
 10
2.1200000000000001
 20
0.93
 30
0.0
 11
2.1243000000000003
 21
0.93
 31
0.0
  0
LINE
  5
1FD
100
AcDbEntity
100
AcDbLine
  8
BLACK
 62
256
370
-1
  6
ByLayer
 10
2.1243000000000003
 20
0.93
 30
0.0
 11
2.1299999999999999
 21
0.9314
 31
0.0
  0
LINE
  5
1FE
100
AcDbEntity
100
AcDbLine
  8
BLACK
 62
256
370
-1
  6
ByLayer
 10
2.1299999999999999
 20
0.9314
 30
0.0
 11
2.1329000000000002
 21
0.9329000000000001
 31
0.0
  0
LINE
  5
1FF
100
AcDbEntity
100
AcDbLine
  8
BLACK
 62
256
370
-1
  6
ByLayer
 10
2.1329000000000002
 20
0.9329000000000001
 30
0.0
 11
2.1356999999999999
 21
0.9357000000000001
 31
0.0
  0
LINE
  5
200
100
AcDbEntity
100
AcDbLine
  8
BLACK
 62
256
370
-1
  6
ByLayer
 10
2.1356999999999999
 20
0.9357000000000001
 30
0.0
 11
2.1371000000000002
 21
0.9400000000000001
 31
0.0
  0
LINE
  5
201
100
AcDbEntity
100
AcDbLine
  8
BLACK
 62
256
370
-1
  6
ByLayer
 10
2.1371000000000002
 20
0.9400000000000001
 30
0.0
 11
2.1371000000000002
 21
0.9472
 31
0.0
  0
LINE
  5
202
100
AcDbEntity
100
AcDbLine
  8
BLACK
 62
256
370
-1
  6
ByLayer
 10
2.1371000000000002
 20
0.9014000000000001
 30
0.0
 11
2.1371000000000002
 21
0.9186000000000001
 31
0.0
  0
LINE
  5
203
100
AcDbEntity
100
AcDbLine
  8
BLACK
 62
256
370
-1
  6
ByLayer
 10
2.1371000000000002
 20
0.91
 30
0.0
 11
2.1071
 21
0.91
 31
0.0
  0
LINE
  5
204
100
AcDbEntity
100
AcDbLine
  8
BLACK
 62
256
370
-1
  6
ByLayer
 10
2.1071
 20
0.91
 30
0.0
 11
2.1114000000000002
 21
0.9129
 31
0.0
  0
LINE
  5
205
100
AcDbEntity
100
AcDbLine
  8
BLACK
 62
256
370
-1
  6
ByLayer
 10
2.1114000000000002
 20
0.9129
 30
0.0
 11
2.1143000000000001
 21
0.9157000000000001
 31
0.0
  0
LINE
  5
206
100
AcDbEntity
100
AcDbLine
  8
BLACK
 62
256
370
-1
  6
ByLayer
 10
2.1143000000000001
 20
0.9157000000000001
 30
0.0
 11
2.1156999999999999
 21
0.9186000000000001
 31
0.0
  0
LINE
  5
207
100
AcDbEntity
100
AcDbLine
  8
BLACK
 62
256
370
-1
  6
ByLayer
 10
2.4786000000000001
 20
0.8193
 30
0.0
 11
2.4786000000000001
 21
0.805
 31
0.0
  0
LINE
  5
208
100
AcDbEntity
100
AcDbLine
  8
BLACK
 62
256
370
-1
  6
ByLayer
 10
2.4871000000000003
 20
0.8221000000000001
 30
0.0
 11
2.4571000000000001
 21
0.8121
 31
0.0
  0
LINE
  5
209
100
AcDbEntity
100
AcDbLine
  8
BLACK
 62
256
370
-1
  6
ByLayer
 10
2.4571000000000001
 20
0.8121
 30
0.0
 11
2.4871000000000003
 21
0.8021
 31
0.0
  0
LINE
  5
20A
100
AcDbEntity
100
AcDbLine
  8
BLACK
 62
256
370
-1
  6
ByLayer
 10
2.4871000000000003
 20
0.7922
 30
0.0
 11
2.4571000000000001
 21
0.7922
 31
0.0
  0
LINE
  5
20B
100
AcDbEntity
100
AcDbLine
  8
BLACK
 62
256
370
-1
  6
ByLayer
 10
2.4571000000000001
 20
0.7922
 30
0.0
 11
2.4571000000000001
 21
0.785
 31
0.0
  0
LINE
  5
20C
100
AcDbEntity
100
AcDbLine
  8
BLACK
 62
256
370
-1
  6
ByLayer
 10
2.4571000000000001
 20
0.785
 30
0.0
 11
2.4586000000000001
 21
0.7807000000000001
 31
0.0
  0
LINE
  5
20D
100
AcDbEntity
100
AcDbLine
  8
BLACK
 62
256
370
-1
  6
ByLayer
 10
2.4586000000000001
 20
0.7807000000000001
 30
0.0
 11
2.4614000000000003
 21
0.7779
 31
0.0
  0
LINE
  5
20E
100
AcDbEntity
100
AcDbLine
  8
BLACK
 62
256
370
-1
  6
ByLayer
 10
2.4614000000000003
 20
0.7779
 30
0.0
 11
2.4643000000000002
 21
0.7764000000000001
 31
0.0
  0
LINE
  5
20F
100
AcDbEntity
100
AcDbLine
  8
BLACK
 62
256
370
-1
  6
ByLayer
 10
2.4643000000000002
 20
0.7764000000000001
 30
0.0
 11
2.4700000000000002
 21
0.775
 31
0.0
  0
LINE
  5
210
100
AcDbEntity
100
AcDbLine
  8
BLACK
 62
256
370
-1
  6
ByLayer
 10
2.4700000000000002
 20
0.775
 30
0.0
 11
2.4742999999999999
 21
0.775
 31
0.0
  0
LINE
  5
211
100
AcDbEntity
100
AcDbLine
  8
BLACK
 62
256
370
-1
  6
ByLayer
 10
2.4742999999999999
 20
0.775
 30
0.0
 11
2.48
 21
0.7764000000000001
 31
0.0
  0
LINE
  5
212
100
AcDbEntity
100
AcDbLine
  8
BLACK
 62
256
370
-1
  6
ByLayer
 10
2.48
 20
0.7764000000000001
 30
0.0
 11
2.4829000000000003
 21
0.7779
 31
0.0
  0
LINE
  5
213
100
AcDbEntity
100
AcDbLine
  8
BLACK
 62
256
370
-1
  6
ByLayer
 10
2.4829000000000003
 20
0.7779
 30
0.0
 11
2.4857
 21
0.7807000000000001
 31
0.0
  0
LINE
  5
214
100
AcDbEntity
100
AcDbLine
  8
BLACK
 62
256
370
-1
  6
ByLayer
 10
2.4857
 20
0.7807000000000001
 30
0.0
 11
2.4871000000000003
 21
0.785
 31
0.0
  0
LINE
  5
215
100
AcDbEntity
100
AcDbLine
  8
BLACK
 62
256
370
-1
  6
ByLayer
 10
2.4871000000000003
 20
0.785
 30
0.0
 11
2.4871000000000003
 21
0.7922
 31
0.0
  0
LINE
  5
216
100
AcDbEntity
100
AcDbLine
  8
BLACK
 62
256
370
-1
  6
ByLayer
 10
2.4571000000000001
 20
0.7479
 30
0.0
 11
2.4571000000000001
 21
0.7622
 31
0.0
  0
LINE
  5
217
100
AcDbEntity
100
AcDbLine
  8
BLACK
 62
256
370
-1
  6
ByLayer
 10
2.4571000000000001
 20
0.7622
 30
0.0
 11
2.4714
 21
0.7636000000000001
 31
0.0
  0
LINE
  5
218
100
AcDbEntity
100
AcDbLine
  8
BLACK
 62
256
370
-1
  6
ByLayer
 10
2.4714
 20
0.7636000000000001
 30
0.0
 11
2.4700000000000002
 21
0.7622
 31
0.0
  0
LINE
  5
219
100
AcDbEntity
100
AcDbLine
  8
BLACK
 62
256
370
-1
  6
ByLayer
 10
2.4700000000000002
 20
0.7622
 30
0.0
 11
2.4685999999999999
 21
0.7593000000000001
 31
0.0
  0
LINE
  5
21A
100
AcDbEntity
100
AcDbLine
  8
BLACK
 62
256
370
-1
  6
ByLayer
 10
2.4685999999999999
 20
0.7593000000000001
 30
0.0
 11
2.4685999999999999
 21
0.7522000000000001
 31
0.0
  0
LINE
  5
21B
100
AcDbEntity
100
AcDbLine
  8
BLACK
 62
256
370
-1
  6
ByLayer
 10
2.4685999999999999
 20
0.7522000000000001
 30
0.0
 11
2.4700000000000002
 21
0.7493000000000001
 31
0.0
  0
LINE
  5
21C
100
AcDbEntity
100
AcDbLine
  8
BLACK
 62
256
370
-1
  6
ByLayer
 10
2.4700000000000002
 20
0.7493000000000001
 30
0.0
 11
2.4714
 21
0.7479
 31
0.0
  0
LINE
  5
21D
100
AcDbEntity
100
AcDbLine
  8
BLACK
 62
256
370
-1
  6
ByLayer
 10
2.4714
 20
0.7479
 30
0.0
 11
2.4742999999999999
 21
0.7464000000000001
 31
0.0
  0
LINE
  5
21E
100
AcDbEntity
100
AcDbLine
  8
BLACK
 62
256
370
-1
  6
ByLayer
 10
2.4742999999999999
 20
0.7464000000000001
 30
0.0
 11
2.4814000000000003
 21
0.7464000000000001
 31
0.0
  0
LINE
  5
21F
100
AcDbEntity
100
AcDbLine
  8
BLACK
 62
256
370
-1
  6
ByLayer
 10
2.4814000000000003
 20
0.7464000000000001
 30
0.0
 11
2.4843000000000002
 21
0.7479
 31
0.0
  0
LINE
  5
220
100
AcDbEntity
100
AcDbLine
  8
BLACK
 62
256
370
-1
  6
ByLayer
 10
2.4843000000000002
 20
0.7479
 30
0.0
 11
2.4857
 21
0.7493000000000001
 31
0.0
  0
LINE
  5
221
100
AcDbEntity
100
AcDbLine
  8
BLACK
 62
256
370
-1
  6
ByLayer
 10
2.4857
 20
0.7493000000000001
 30
0.0
 11
2.4871000000000003
 21
0.7522000000000001
 31
0.0
  0
LINE
  5
222
100
AcDbEntity
100
AcDbLine
  8
BLACK
 62
256
370
-1
  6
ByLayer
 10
2.4871000000000003
 20
0.7522000000000001
 30
0.0
 11
2.4871000000000003
 21
0.7593000000000001
 31
0.0
  0
LINE
  5
223
100
AcDbEntity
100
AcDbLine
  8
BLACK
 62
256
370
-1
  6
ByLayer
 10
2.4871000000000003
 20
0.7593000000000001
 30
0.0
 11
2.4857
 21
0.7622
 31
0.0
  0
LINE
  5
224
100
AcDbEntity
100
AcDbLine
  8
BLACK
 62
256
370
-1
  6
ByLayer
 10
2.4857
 20
0.7622
 30
0.0
 11
2.4843000000000002
 21
0.7636000000000001
 31
0.0
  0
LINE
  5
225
100
AcDbEntity
100
AcDbLine
  8
BLACK
 62
256
370
-1
  6
ByLayer
 10
2.4571000000000001
 20
0.7364000000000001
 30
0.0
 11
2.4571000000000001
 21
0.7164
 31
0.0
  0
LINE
  5
226
100
AcDbEntity
100
AcDbLine
  8
BLACK
 62
256
370
-1
  6
ByLayer
 10
2.4571000000000001
 20
0.7164
 30
0.0
 11
2.4871000000000003
 21
0.7293000000000001
 31
0.0
  0
LINE
  5
227
100
AcDbEntity
100
AcDbLine
  8
BLACK
 62
256
370
-1
  6
ByLayer
 10
2.4571000000000001
 20
0.7078
 30
0.0
 11
2.4871000000000003
 21
0.6878000000000001
 31
0.0
  0
LINE
  5
228
100
AcDbEntity
100
AcDbLine
  8
BLACK
 62
256
370
-1
  6
ByLayer
 10
2.4571000000000001
 20
0.6878000000000001
 30
0.0
 11
2.4871000000000003
 21
0.7078
 31
0.0
  0
LINE
  5
229
100
AcDbEntity
100
AcDbLine
  8
BLACK
 62
256
370
-1
  6
ByLayer
 10
2.4671000000000003
 20
0.6635
 30
0.0
 11
2.4871000000000003
 21
0.6635
 31
0.0
  0
LINE
  5
22A
100
AcDbEntity
100
AcDbLine
  8
BLACK
 62
256
370
-1
  6
ByLayer
 10
2.4557000000000002
 20
0.6706000000000001
 30
0.0
 11
2.4771000000000001
 21
0.6778000000000001
 31
0.0
  0
LINE
  5
22B
100
AcDbEntity
100
AcDbLine
  8
BLACK
 62
256
370
-1
  6
ByLayer
 10
2.4771000000000001
 20
0.6778000000000001
 30
0.0
 11
2.4771000000000001
 21
0.6592
 31
0.0
  0
LINE
  5
22C
100
AcDbEntity
100
AcDbLine
  8
BLACK
 62
256
370
-1
  6
ByLayer
 10
2.4871000000000003
 20
0.6306
 30
0.0
 11
2.4729000000000001
 21
0.6406000000000001
 31
0.0
  0
LINE
  5
22D
100
AcDbEntity
100
AcDbLine
  8
BLACK
 62
256
370
-1
  6
ByLayer
 10
2.4871000000000003
 20
0.6478
 30
0.0
 11
2.4571000000000001
 21
0.6478
 31
0.0
  0
LINE
  5
22E
100
AcDbEntity
100
AcDbLine
  8
BLACK
 62
256
370
-1
  6
ByLayer
 10
2.4571000000000001
 20
0.6478
 30
0.0
 11
2.4571000000000001
 21
0.6363
 31
0.0
  0
LINE
  5
22F
100
AcDbEntity
100
AcDbLine
  8
BLACK
 62
256
370
-1
  6
ByLayer
 10
2.4571000000000001
 20
0.6363
 30
0.0
 11
2.4586000000000001
 21
0.6335000000000001
 31
0.0
  0
LINE
  5
230
100
AcDbEntity
100
AcDbLine
  8
BLACK
 62
256
370
-1
  6
ByLayer
 10
2.4586000000000001
 20
0.6335000000000001
 30
0.0
 11
2.46
 21
0.632
 31
0.0
  0
LINE
  5
231
100
AcDbEntity
100
AcDbLine
  8
BLACK
 62
256
370
-1
  6
ByLayer
 10
2.46
 20
0.632
 30
0.0
 11
2.4629000000000003
 21
0.6306
 31
0.0
  0
LINE
  5
232
100
AcDbEntity
100
AcDbLine
  8
BLACK
 62
256
370
-1
  6
ByLayer
 10
2.4629000000000003
 20
0.6306
 30
0.0
 11
2.4671000000000003
 21
0.6306
 31
0.0
  0
LINE
  5
233
100
AcDbEntity
100
AcDbLine
  8
BLACK
 62
256
370
-1
  6
ByLayer
 10
2.4671000000000003
 20
0.6306
 30
0.0
 11
2.4700000000000002
 21
0.632
 31
0.0
  0
LINE
  5
234
100
AcDbEntity
100
AcDbLine
  8
BLACK
 62
256
370
-1
  6
ByLayer
 10
2.4700000000000002
 20
0.632
 30
0.0
 11
2.4714
 21
0.6335000000000001
 31
0.0
  0
LINE
  5
235
100
AcDbEntity
100
AcDbLine
  8
BLACK
 62
256
370
-1
  6
ByLayer
 10
2.4714
 20
0.6335000000000001
 30
0.0
 11
2.4729000000000001
 21
0.6363
 31
0.0
  0
LINE
  5
236
100
AcDbEntity
100
AcDbLine
  8
BLACK
 62
256
370
-1
  6
ByLayer
 10
2.4729000000000001
 20
0.6363
 30
0.0
 11
2.4729000000000001
 21
0.6478
 31
0.0
  0
LINE
  5
237
100
AcDbEntity
100
AcDbLine
  8
BLACK
 62
256
370
-1
  6
ByLayer
 10
2.1842999999999999
 20
1.2050000000000001
 30
0.0
 11
2.1857000000000002
 21
1.2064000000000001
 31
0.0
  0
LINE
  5
238
100
AcDbEntity
100
AcDbLine
  8
BLACK
 62
256
370
-1
  6
ByLayer
 10
2.1857000000000002
 20
1.2064000000000001
 30
0.0
 11
2.1871
 21
1.2107000000000001
 31
0.0
  0
LINE
  5
239
100
AcDbEntity
100
AcDbLine
  8
BLACK
 62
256
370
-1
  6
ByLayer
 10
2.1871
 20
1.2107000000000001
 30
0.0
 11
2.1871
 21
1.2136
 31
0.0
  0
LINE
  5
23A
100
AcDbEntity
100
AcDbLine
  8
BLACK
 62
256
370
-1
  6
ByLayer
 10
2.1871
 20
1.2136
 30
0.0
 11
2.1857000000000002
 21
1.2179
 31
0.0
  0
LINE
  5
23B
100
AcDbEntity
100
AcDbLine
  8
BLACK
 62
256
370
-1
  6
ByLayer
 10
2.1857000000000002
 20
1.2179
 30
0.0
 11
2.1829000000000001
 21
1.2207000000000001
 31
0.0
  0
LINE
  5
23C
100
AcDbEntity
100
AcDbLine
  8
BLACK
 62
256
370
-1
  6
ByLayer
 10
2.1829000000000001
 20
1.2207000000000001
 30
0.0
 11
2.1800000000000002
 21
1.2222
 31
0.0
  0
LINE
  5
23D
100
AcDbEntity
100
AcDbLine
  8
BLACK
 62
256
370
-1
  6
ByLayer
 10
2.1800000000000002
 20
1.2222
 30
0.0
 11
2.1743000000000001
 21
1.2236
 31
0.0
  0
LINE
  5
23E
100
AcDbEntity
100
AcDbLine
  8
BLACK
 62
256
370
-1
  6
ByLayer
 10
2.1743000000000001
 20
1.2236
 30
0.0
 11
2.1699999999999999
 21
1.2236
 31
0.0
  0
LINE
  5
23F
100
AcDbEntity
100
AcDbLine
  8
BLACK
 62
256
370
-1
  6
ByLayer
 10
2.1699999999999999
 20
1.2236
 30
0.0
 11
2.1642999999999999
 21
1.2222
 31
0.0
  0
LINE
  5
240
100
AcDbEntity
100
AcDbLine
  8
BLACK
 62
256
370
-1
  6
ByLayer
 10
2.1642999999999999
 20
1.2222
 30
0.0
 11
2.1614
 21
1.2207000000000001
 31
0.0
  0
LINE
  5
241
100
AcDbEntity
100
AcDbLine
  8
BLACK
 62
256
370
-1
  6
ByLayer
 10
2.1614
 20
1.2207000000000001
 30
0.0
 11
2.1586000000000003
 21
1.2179
 31
0.0
  0
LINE
  5
242
100
AcDbEntity
100
AcDbLine
  8
BLACK
 62
256
370
-1
  6
ByLayer
 10
2.1586000000000003
 20
1.2179
 30
0.0
 11
2.1571000000000002
 21
1.2136
 31
0.0
  0
LINE
  5
243
100
AcDbEntity
100
AcDbLine
  8
BLACK
 62
256
370
-1
  6
ByLayer
 10
2.1571000000000002
 20
1.2136
 30
0.0
 11
2.1571000000000002
 21
1.2107000000000001
 31
0.0
  0
LINE
  5
244
100
AcDbEntity
100
AcDbLine
  8
BLACK
 62
256
370
-1
  6
ByLayer
 10
2.1571000000000002
 20
1.2107000000000001
 30
0.0
 11
2.1586000000000003
 21
1.2064000000000001
 31
0.0
  0
LINE
  5
245
100
AcDbEntity
100
AcDbLine
  8
BLACK
 62
256
370
-1
  6
ByLayer
 10
2.1586000000000003
 20
1.2064000000000001
 30
0.0
 11
2.1600000000000001
 21
1.2050000000000001
 31
0.0
  0
LINE
  5
246
100
AcDbEntity
100
AcDbLine
  8
BLACK
 62
256
370
-1
  6
ByLayer
 10
2.1699999999999999
 20
1.1879
 30
0.0
 11
2.1686000000000001
 21
1.1907000000000001
 31
0.0
  0
LINE
  5
247
100
AcDbEntity
100
AcDbLine
  8
BLACK
 62
256
370
-1
  6
ByLayer
 10
2.1686000000000001
 20
1.1907000000000001
 30
0.0
 11
2.1671
 21
1.1922000000000001
 31
0.0
  0
LINE
  5
248
100
AcDbEntity
100
AcDbLine
  8
BLACK
 62
256
370
-1
  6
ByLayer
 10
2.1671
 20
1.1922000000000001
 30
0.0
 11
2.1642999999999999
 21
1.1936
 31
0.0
  0
LINE
  5
249
100
AcDbEntity
100
AcDbLine
  8
BLACK
 62
256
370
-1
  6
ByLayer
 10
2.1642999999999999
 20
1.1936
 30
0.0
 11
2.1629
 21
1.1936
 31
0.0
  0
LINE
  5
24A
100
AcDbEntity
100
AcDbLine
  8
BLACK
 62
256
370
-1
  6
ByLayer
 10
2.1629
 20
1.1936
 30
0.0
 11
2.1600000000000001
 21
1.1922000000000001
 31
0.0
  0
LINE
  5
24B
100
AcDbEntity
100
AcDbLine
  8
BLACK
 62
256
370
-1
  6
ByLayer
 10
2.1600000000000001
 20
1.1922000000000001
 30
0.0
 11
2.1586000000000003
 21
1.1907000000000001
 31
0.0
  0
LINE
  5
24C
100
AcDbEntity
100
AcDbLine
  8
BLACK
 62
256
370
-1
  6
ByLayer
 10
2.1586000000000003
 20
1.1907000000000001
 30
0.0
 11
2.1571000000000002
 21
1.1879
 31
0.0
  0
LINE
  5
24D
100
AcDbEntity
100
AcDbLine
  8
BLACK
 62
256
370
-1
  6
ByLayer
 10
2.1571000000000002
 20
1.1879
 30
0.0
 11
2.1571000000000002
 21
1.1822000000000001
 31
0.0
  0
LINE
  5
24E
100
AcDbEntity
100
AcDbLine
  8
BLACK
 62
256
370
-1
  6
ByLayer
 10
2.1571000000000002
 20
1.1822000000000001
 30
0.0
 11
2.1586000000000003
 21
1.1793
 31
0.0
  0
LINE
  5
24F
100
AcDbEntity
100
AcDbLine
  8
BLACK
 62
256
370
-1
  6
ByLayer
 10
2.1586000000000003
 20
1.1793
 30
0.0
 11
2.1600000000000001
 21
1.1778999999999999
 31
0.0
  0
LINE
  5
250
100
AcDbEntity
100
AcDbLine
  8
BLACK
 62
256
370
-1
  6
ByLayer
 10
2.1600000000000001
 20
1.1778999999999999
 30
0.0
 11
2.1629
 21
1.1764000000000001
 31
0.0
  0
LINE
  5
251
100
AcDbEntity
100
AcDbLine
  8
BLACK
 62
256
370
-1
  6
ByLayer
 10
2.1629
 20
1.1764000000000001
 30
0.0
 11
2.1642999999999999
 21
1.1764000000000001
 31
0.0
  0
LINE
  5
252
100
AcDbEntity
100
AcDbLine
  8
BLACK
 62
256
370
-1
  6
ByLayer
 10
2.1642999999999999
 20
1.1764000000000001
 30
0.0
 11
2.1671
 21
1.1778999999999999
 31
0.0
  0
LINE
  5
253
100
AcDbEntity
100
AcDbLine
  8
BLACK
 62
256
370
-1
  6
ByLayer
 10
2.1671
 20
1.1778999999999999
 30
0.0
 11
2.1686000000000001
 21
1.1793
 31
0.0
  0
LINE
  5
254
100
AcDbEntity
100
AcDbLine
  8
BLACK
 62
256
370
-1
  6
ByLayer
 10
2.1686000000000001
 20
1.1793
 30
0.0
 11
2.1699999999999999
 21
1.1822000000000001
 31
0.0
  0
LINE
  5
255
100
AcDbEntity
100
AcDbLine
  8
BLACK
 62
256
370
-1
  6
ByLayer
 10
2.1699999999999999
 20
1.1822000000000001
 30
0.0
 11
2.1699999999999999
 21
1.1879
 31
0.0
  0
LINE
  5
256
100
AcDbEntity
100
AcDbLine
  8
BLACK
 62
256
370
-1
  6
ByLayer
 10
2.1699999999999999
 20
1.1879
 30
0.0
 11
2.1714000000000002
 21
1.1907000000000001
 31
0.0
  0
LINE
  5
257
100
AcDbEntity
100
AcDbLine
  8
BLACK
 62
256
370
-1
  6
ByLayer
 10
2.1714000000000002
 20
1.1907000000000001
 30
0.0
 11
2.1729000000000003
 21
1.1922000000000001
 31
0.0
  0
LINE
  5
258
100
AcDbEntity
100
AcDbLine
  8
BLACK
 62
256
370
-1
  6
ByLayer
 10
2.1729000000000003
 20
1.1922000000000001
 30
0.0
 11
2.1757
 21
1.1936
 31
0.0
  0
LINE
  5
259
100
AcDbEntity
100
AcDbLine
  8
BLACK
 62
256
370
-1
  6
ByLayer
 10
2.1757
 20
1.1936
 30
0.0
 11
2.1814
 21
1.1936
 31
0.0
  0
LINE
  5
25A
100
AcDbEntity
100
AcDbLine
  8
BLACK
 62
256
370
-1
  6
ByLayer
 10
2.1814
 20
1.1936
 30
0.0
 11
2.1842999999999999
 21
1.1922000000000001
 31
0.0
  0
LINE
  5
25B
100
AcDbEntity
100
AcDbLine
  8
BLACK
 62
256
370
-1
  6
ByLayer
 10
2.1842999999999999
 20
1.1922000000000001
 30
0.0
 11
2.1857000000000002
 21
1.1907000000000001
 31
0.0
  0
LINE
  5
25C
100
AcDbEntity
100
AcDbLine
  8
BLACK
 62
256
370
-1
  6
ByLayer
 10
2.1857000000000002
 20
1.1907000000000001
 30
0.0
 11
2.1871
 21
1.1879
 31
0.0
  0
LINE
  5
25D
100
AcDbEntity
100
AcDbLine
  8
BLACK
 62
256
370
-1
  6
ByLayer
 10
2.1871
 20
1.1879
 30
0.0
 11
2.1871
 21
1.1822000000000001
 31
0.0
  0
LINE
  5
25E
100
AcDbEntity
100
AcDbLine
  8
BLACK
 62
256
370
-1
  6
ByLayer
 10
2.1871
 20
1.1822000000000001
 30
0.0
 11
2.1857000000000002
 21
1.1793
 31
0.0
  0
LINE
  5
25F
100
AcDbEntity
100
AcDbLine
  8
BLACK
 62
256
370
-1
  6
ByLayer
 10
2.1857000000000002
 20
1.1793
 30
0.0
 11
2.1842999999999999
 21
1.1778999999999999
 31
0.0
  0
LINE
  5
260
100
AcDbEntity
100
AcDbLine
  8
BLACK
 62
256
370
-1
  6
ByLayer
 10
2.1842999999999999
 20
1.1778999999999999
 30
0.0
 11
2.1814
 21
1.1764000000000001
 31
0.0
  0
LINE
  5
261
100
AcDbEntity
100
AcDbLine
  8
BLACK
 62
256
370
-1
  6
ByLayer
 10
2.1814
 20
1.1764000000000001
 30
0.0
 11
2.1757
 21
1.1764000000000001
 31
0.0
  0
LINE
  5
262
100
AcDbEntity
100
AcDbLine
  8
BLACK
 62
256
370
-1
  6
ByLayer
 10
2.1757
 20
1.1764000000000001
 30
0.0
 11
2.1729000000000003
 21
1.1778999999999999
 31
0.0
  0
LINE
  5
263
100
AcDbEntity
100
AcDbLine
  8
BLACK
 62
256
370
-1
  6
ByLayer
 10
2.1729000000000003
 20
1.1778999999999999
 30
0.0
 11
2.1714000000000002
 21
1.1793
 31
0.0
  0
LINE
  5
264
100
AcDbEntity
100
AcDbLine
  8
BLACK
 62
256
370
-1
  6
ByLayer
 10
2.1714000000000002
 20
1.1793
 30
0.0
 11
2.1699999999999999
 21
1.1822000000000001
 31
0.0
  0
LINE
  5
265
100
AcDbEntity
100
AcDbLine
  8
BLACK
 62
256
370
-1
  6
ByLayer
 10
2.4871000000000003
 20
1.2321
 30
0.0
 11
2.4871000000000003
 21
1.2493000000000001
 31
0.0
  0
LINE
  5
266
100
AcDbEntity
100
AcDbLine
  8
BLACK
 62
256
370
-1
  6
ByLayer
 10
2.4871000000000003
 20
1.2407000000000001
 30
0.0
 11
2.4571000000000001
 21
1.2407000000000001
 31
0.0
  0
LINE
  5
267
100
AcDbEntity
100
AcDbLine
  8
BLACK
 62
256
370
-1
  6
ByLayer
 10
2.4571000000000001
 20
1.2407000000000001
 30
0.0
 11
2.4614000000000003
 21
1.2436
 31
0.0
  0
LINE
  5
268
100
AcDbEntity
100
AcDbLine
  8
BLACK
 62
256
370
-1
  6
ByLayer
 10
2.4614000000000003
 20
1.2436
 30
0.0
 11
2.4643000000000002
 21
1.2464
 31
0.0
  0
LINE
  5
269
100
AcDbEntity
100
AcDbLine
  8
BLACK
 62
256
370
-1
  6
ByLayer
 10
2.4643000000000002
 20
1.2464
 30
0.0
 11
2.4657
 21
1.2493000000000001
 31
0.0
  0
LINE
  5
26A
100
AcDbEntity
100
AcDbLine
  8
BLACK
 62
256
370
-1
  6
ByLayer
 10
2.4571000000000001
 20
1.2135
 30
0.0
 11
2.4571000000000001
 21
1.2107000000000001
 31
0.0
  0
LINE
  5
26B
100
AcDbEntity
100
AcDbLine
  8
BLACK
 62
256
370
-1
  6
ByLayer
 10
2.4571000000000001
 20
1.2107000000000001
 30
0.0
 11
2.4586000000000001
 21
1.2078
 31
0.0
  0
LINE
  5
26C
100
AcDbEntity
100
AcDbLine
  8
BLACK
 62
256
370
-1
  6
ByLayer
 10
2.4586000000000001
 20
1.2078
 30
0.0
 11
2.46
 21
1.2064000000000001
 31
0.0
  0
LINE
  5
26D
100
AcDbEntity
100
AcDbLine
  8
BLACK
 62
256
370
-1
  6
ByLayer
 10
2.46
 20
1.2064000000000001
 30
0.0
 11
2.4629000000000003
 21
1.2050000000000001
 31
0.0
  0
LINE
  5
26E
100
AcDbEntity
100
AcDbLine
  8
BLACK
 62
256
370
-1
  6
ByLayer
 10
2.4629000000000003
 20
1.2050000000000001
 30
0.0
 11
2.4685999999999999
 21
1.2035
 31
0.0
  0
LINE
  5
26F
100
AcDbEntity
100
AcDbLine
  8
BLACK
 62
256
370
-1
  6
ByLayer
 10
2.4685999999999999
 20
1.2035
 30
0.0
 11
2.4757000000000002
 21
1.2035
 31
0.0
  0
LINE
  5
270
100
AcDbEntity
100
AcDbLine
  8
BLACK
 62
256
370
-1
  6
ByLayer
 10
2.4757000000000002
 20
1.2035
 30
0.0
 11
2.4814000000000003
 21
1.2050000000000001
 31
0.0
  0
LINE
  5
271
100
AcDbEntity
100
AcDbLine
  8
BLACK
 62
256
370
-1
  6
ByLayer
 10
2.4814000000000003
 20
1.2050000000000001
 30
0.0
 11
2.4843000000000002
 21
1.2064000000000001
 31
0.0
  0
LINE
  5
272
100
AcDbEntity
100
AcDbLine
  8
BLACK
 62
256
370
-1
  6
ByLayer
 10
2.4843000000000002
 20
1.2064000000000001
 30
0.0
 11
2.4857
 21
1.2078
 31
0.0
  0
LINE
  5
273
100
AcDbEntity
100
AcDbLine
  8
BLACK
 62
256
370
-1
  6
ByLayer
 10
2.4857
 20
1.2078
 30
0.0
 11
2.4871000000000003
 21
1.2107000000000001
 31
0.0
  0
LINE
  5
274
100
AcDbEntity
100
AcDbLine
  8
BLACK
 62
256
370
-1
  6
ByLayer
 10
2.4871000000000003
 20
1.2107000000000001
 30
0.0
 11
2.4871000000000003
 21
1.2135
 31
0.0
  0
LINE
  5
275
100
AcDbEntity
100
AcDbLine
  8
BLACK
 62
256
370
-1
  6
ByLayer
 10
2.4871000000000003
 20
1.2135
 30
0.0
 11
2.4857
 21
1.2164000000000001
 31
0.0
  0
LINE
  5
276
100
AcDbEntity
100
AcDbLine
  8
BLACK
 62
256
370
-1
  6
ByLayer
 10
2.4857
 20
1.2164000000000001
 30
0.0
 11
2.4843000000000002
 21
1.2178
 31
0.0
  0
LINE
  5
277
100
AcDbEntity
100
AcDbLine
  8
BLACK
 62
256
370
-1
  6
ByLayer
 10
2.4843000000000002
 20
1.2178
 30
0.0
 11
2.4814000000000003
 21
1.2193000000000001
 31
0.0
  0
LINE
  5
278
100
AcDbEntity
100
AcDbLine
  8
BLACK
 62
256
370
-1
  6
ByLayer
 10
2.4814000000000003
 20
1.2193000000000001
 30
0.0
 11
2.4757000000000002
 21
1.2207000000000001
 31
0.0
  0
LINE
  5
279
100
AcDbEntity
100
AcDbLine
  8
BLACK
 62
256
370
-1
  6
ByLayer
 10
2.4757000000000002
 20
1.2207000000000001
 30
0.0
 11
2.4685999999999999
 21
1.2207000000000001
 31
0.0
  0
LINE
  5
27A
100
AcDbEntity
100
AcDbLine
  8
BLACK
 62
256
370
-1
  6
ByLayer
 10
2.4685999999999999
 20
1.2207000000000001
 30
0.0
 11
2.4629000000000003
 21
1.2193000000000001
 31
0.0
  0
LINE
  5
27B
100
AcDbEntity
100
AcDbLine
  8
BLACK
 62
256
370
-1
  6
ByLayer
 10
2.4629000000000003
 20
1.2193000000000001
 30
0.0
 11
2.46
 21
1.2178
 31
0.0
  0
LINE
  5
27C
100
AcDbEntity
100
AcDbLine
  8
BLACK
 62
256
370
-1
  6
ByLayer
 10
2.46
 20
1.2178
 30
0.0
 11
2.4586000000000001
 21
1.2164000000000001
 31
0.0
  0
LINE
  5
27D
100
AcDbEntity
100
AcDbLine
  8
BLACK
 62
256
370
-1
  6
ByLayer
 10
2.4586000000000001
 20
1.2164000000000001
 30
0.0
 11
2.4571000000000001
 21
1.2135
 31
0.0
  0
LINE
  5
27E
100
AcDbEntity
100
AcDbLine
  8
BLACK
 62
256
370
-1
  6
ByLayer
 10
2.4671000000000003
 20
1.1778
 30
0.0
 11
2.4871000000000003
 21
1.1778
 31
0.0
  0
LINE
  5
27F
100
AcDbEntity
100
AcDbLine
  8
BLACK
 62
256
370
-1
  6
ByLayer
 10
2.4671000000000003
 20
1.1907000000000001
 30
0.0
 11
2.4829000000000003
 21
1.1907000000000001
 31
0.0
  0
LINE
  5
280
100
AcDbEntity
100
AcDbLine
  8
BLACK
 62
256
370
-1
  6
ByLayer
 10
2.4829000000000003
 20
1.1907000000000001
 30
0.0
 11
2.4857
 21
1.1892
 31
0.0
  0
LINE
  5
281
100
AcDbEntity
100
AcDbLine
  8
BLACK
 62
256
370
-1
  6
ByLayer
 10
2.4857
 20
1.1892
 30
0.0
 11
2.4871000000000003
 21
1.1864000000000001
 31
0.0
  0
LINE
  5
282
100
AcDbEntity
100
AcDbLine
  8
BLACK
 62
256
370
-1
  6
ByLayer
 10
2.4871000000000003
 20
1.1864000000000001
 30
0.0
 11
2.4871000000000003
 21
1.1821000000000002
 31
0.0
  0
LINE
  5
283
100
AcDbEntity
100
AcDbLine
  8
BLACK
 62
256
370
-1
  6
ByLayer
 10
2.4871000000000003
 20
1.1821000000000002
 30
0.0
 11
2.4857
 21
1.1792
 31
0.0
  0
LINE
  5
284
100
AcDbEntity
100
AcDbLine
  8
BLACK
 62
256
370
-1
  6
ByLayer
 10
2.4857
 20
1.1792
 30
0.0
 11
2.4843000000000002
 21
1.1778
 31
0.0
  0
LINE
  5
285
100
AcDbEntity
100
AcDbLine
  8
BLACK
 62
256
370
-1
  6
ByLayer
 10
2.4714
 20
1.1536
 30
0.0
 11
2.4714
 21
1.1636
 31
0.0
  0
LINE
  5
286
100
AcDbEntity
100
AcDbLine
  8
BLACK
 62
256
370
-1
  6
ByLayer
 10
2.4871000000000003
 20
1.1636
 30
0.0
 11
2.4571000000000001
 21
1.1636
 31
0.0
  0
LINE
  5
287
100
AcDbEntity
100
AcDbLine
  8
BLACK
 62
256
370
-1
  6
ByLayer
 10
2.4571000000000001
 20
1.1636
 30
0.0
 11
2.4571000000000001
 21
1.1493
 31
0.0
  0
LINE
  5
288
100
AcDbEntity
100
AcDbLine
  8
BLACK
 62
256
370
-1
  6
ByLayer
 10
2.5800000000000001
 20
0.8107000000000001
 30
0.0
 11
2.5813999999999999
 21
0.8093
 31
0.0
  0
LINE
  5
289
100
AcDbEntity
100
AcDbLine
  8
BLACK
 62
256
370
-1
  6
ByLayer
 10
2.5813999999999999
 20
0.8093
 30
0.0
 11
2.5857000000000001
 21
0.8079000000000001
 31
0.0
  0
LINE
  5
28A
100
AcDbEntity
100
AcDbLine
  8
BLACK
 62
256
370
-1
  6
ByLayer
 10
2.5857000000000001
 20
0.8079000000000001
 30
0.0
 11
2.5886
 21
0.8079000000000001
 31
0.0
  0
LINE
  5
28B
100
AcDbEntity
100
AcDbLine
  8
BLACK
 62
256
370
-1
  6
ByLayer
 10
2.5886
 20
0.8079000000000001
 30
0.0
 11
2.5929000000000002
 21
0.8093
 31
0.0
  0
LINE
  5
28C
100
AcDbEntity
100
AcDbLine
  8
BLACK
 62
256
370
-1
  6
ByLayer
 10
2.5929000000000002
 20
0.8093
 30
0.0
 11
2.5957000000000003
 21
0.8121
 31
0.0
  0
LINE
  5
28D
100
AcDbEntity
100
AcDbLine
  8
BLACK
 62
256
370
-1
  6
ByLayer
 10
2.5957000000000003
 20
0.8121
 30
0.0
 11
2.5972
 21
0.8150000000000001
 31
0.0
  0
LINE
  5
28E
100
AcDbEntity
100
AcDbLine
  8
BLACK
 62
256
370
-1
  6
ByLayer
 10
2.5972
 20
0.8150000000000001
 30
0.0
 11
2.5986000000000002
 21
0.8207
 31
0.0
  0
LINE
  5
28F
100
AcDbEntity
100
AcDbLine
  8
BLACK
 62
256
370
-1
  6
ByLayer
 10
2.5986000000000002
 20
0.8207
 30
0.0
 11
2.5986000000000002
 21
0.8250000000000001
 31
0.0
  0
LINE
  5
290
100
AcDbEntity
100
AcDbLine
  8
BLACK
 62
256
370
-1
  6
ByLayer
 10
2.5986000000000002
 20
0.8250000000000001
 30
0.0
 11
2.5972
 21
0.8307
 31
0.0
  0
LINE
  5
291
100
AcDbEntity
100
AcDbLine
  8
BLACK
 62
256
370
-1
  6
ByLayer
 10
2.5972
 20
0.8307
 30
0.0
 11
2.5957000000000003
 21
0.8336
 31
0.0
  0
LINE
  5
292
100
AcDbEntity
100
AcDbLine
  8
BLACK
 62
256
370
-1
  6
ByLayer
 10
2.5957000000000003
 20
0.8336
 30
0.0
 11
2.5929000000000002
 21
0.8364
 31
0.0
  0
LINE
  5
293
100
AcDbEntity
100
AcDbLine
  8
BLACK
 62
256
370
-1
  6
ByLayer
 10
2.5929000000000002
 20
0.8364
 30
0.0
 11
2.5886
 21
0.8379000000000001
 31
0.0
  0
LINE
  5
294
100
AcDbEntity
100
AcDbLine
  8
BLACK
 62
256
370
-1
  6
ByLayer
 10
2.5886
 20
0.8379000000000001
 30
0.0
 11
2.5857000000000001
 21
0.8379000000000001
 31
0.0
  0
LINE
  5
295
100
AcDbEntity
100
AcDbLine
  8
BLACK
 62
256
370
-1
  6
ByLayer
 10
2.5857000000000001
 20
0.8379000000000001
 30
0.0
 11
2.5813999999999999
 21
0.8364
 31
0.0
  0
LINE
  5
296
100
AcDbEntity
100
AcDbLine
  8
BLACK
 62
256
370
-1
  6
ByLayer
 10
2.5813999999999999
 20
0.8364
 30
0.0
 11
2.5800000000000001
 21
0.8350000000000001
 31
0.0
  0
LINE
  5
297
100
AcDbEntity
100
AcDbLine
  8
BLACK
 62
256
370
-1
  6
ByLayer
 10
2.5700000000000003
 20
0.8379000000000001
 30
0.0
 11
2.5500000000000003
 21
0.8379000000000001
 31
0.0
  0
LINE
  5
298
100
AcDbEntity
100
AcDbLine
  8
BLACK
 62
256
370
-1
  6
ByLayer
 10
2.5500000000000003
 20
0.8379000000000001
 30
0.0
 11
2.5629
 21
0.8079000000000001
 31
0.0
  0
LINE
  5
299
100
AcDbEntity
100
AcDbLine
  8
BLACK
 62
256
370
-1
  6
ByLayer
 10
2.6242000000000001
 20
0.9929
 30
0.0
 11
2.6214
 21
0.9929
 31
0.0
  0
LINE
  5
29A
100
AcDbEntity
100
AcDbLine
  8
BLACK
 62
256
370
-1
  6
ByLayer
 10
2.6214
 20
0.9929
 30
0.0
 11
2.6185
 21
0.9914000000000001
 31
0.0
  0
LINE
  5
29B
100
AcDbEntity
100
AcDbLine
  8
BLACK
 62
256
370
-1
  6
ByLayer
 10
2.6185
 20
0.9914000000000001
 30
0.0
 11
2.6171000000000002
 21
0.9900000000000001
 31
0.0
  0
LINE
  5
29C
100
AcDbEntity
100
AcDbLine
  8
BLACK
 62
256
370
-1
  6
ByLayer
 10
2.6171000000000002
 20
0.9900000000000001
 30
0.0
 11
2.6156999999999999
 21
0.9871000000000001
 31
0.0
  0
LINE
  5
29D
100
AcDbEntity
100
AcDbLine
  8
BLACK
 62
256
370
-1
  6
ByLayer
 10
2.6156999999999999
 20
0.9871000000000001
 30
0.0
 11
2.6142000000000003
 21
0.9814000000000001
 31
0.0
  0
LINE
  5
29E
100
AcDbEntity
100
AcDbLine
  8
BLACK
 62
256
370
-1
  6
ByLayer
 10
2.6142000000000003
 20
0.9814000000000001
 30
0.0
 11
2.6142000000000003
 21
0.9743000000000001
 31
0.0
  0
LINE
  5
29F
100
AcDbEntity
100
AcDbLine
  8
BLACK
 62
256
370
-1
  6
ByLayer
 10
2.6142000000000003
 20
0.9743000000000001
 30
0.0
 11
2.6156999999999999
 21
0.9686
 31
0.0
  0
LINE
  5
2A0
100
AcDbEntity
100
AcDbLine
  8
BLACK
 62
256
370
-1
  6
ByLayer
 10
2.6156999999999999
 20
0.9686
 30
0.0
 11
2.6171000000000002
 21
0.9657
 31
0.0
  0
LINE
  5
2A1
100
AcDbEntity
100
AcDbLine
  8
BLACK
 62
256
370
-1
  6
ByLayer
 10
2.6171000000000002
 20
0.9657
 30
0.0
 11
2.6185
 21
0.9643
 31
0.0
  0
LINE
  5
2A2
100
AcDbEntity
100
AcDbLine
  8
BLACK
 62
256
370
-1
  6
ByLayer
 10
2.6185
 20
0.9643
 30
0.0
 11
2.6214
 21
0.9629000000000001
 31
0.0
  0
LINE
  5
2A3
100
AcDbEntity
100
AcDbLine
  8
BLACK
 62
256
370
-1
  6
ByLayer
 10
2.6214
 20
0.9629000000000001
 30
0.0
 11
2.6242000000000001
 21
0.9629000000000001
 31
0.0
  0
LINE
  5
2A4
100
AcDbEntity
100
AcDbLine
  8
BLACK
 62
256
370
-1
  6
ByLayer
 10
2.6242000000000001
 20
0.9629000000000001
 30
0.0
 11
2.6271
 21
0.9643
 31
0.0
  0
LINE
  5
2A5
100
AcDbEntity
100
AcDbLine
  8
BLACK
 62
256
370
-1
  6
ByLayer
 10
2.6271
 20
0.9643
 30
0.0
 11
2.6285000000000003
 21
0.9657
 31
0.0
  0
LINE
  5
2A6
100
AcDbEntity
100
AcDbLine
  8
BLACK
 62
256
370
-1
  6
ByLayer
 10
2.6285000000000003
 20
0.9657
 30
0.0
 11
2.6300000000000003
 21
0.9686
 31
0.0
  0
LINE
  5
2A7
100
AcDbEntity
100
AcDbLine
  8
BLACK
 62
256
370
-1
  6
ByLayer
 10
2.6300000000000003
 20
0.9686
 30
0.0
 11
2.6314000000000002
 21
0.9743000000000001
 31
0.0
  0
LINE
  5
2A8
100
AcDbEntity
100
AcDbLine
  8
BLACK
 62
256
370
-1
  6
ByLayer
 10
2.6314000000000002
 20
0.9743000000000001
 30
0.0
 11
2.6314000000000002
 21
0.9814000000000001
 31
0.0
  0
LINE
  5
2A9
100
AcDbEntity
100
AcDbLine
  8
BLACK
 62
256
370
-1
  6
ByLayer
 10
2.6314000000000002
 20
0.9814000000000001
 30
0.0
 11
2.6300000000000003
 21
0.9871000000000001
 31
0.0
  0
LINE
  5
2AA
100
AcDbEntity
100
AcDbLine
  8
BLACK
 62
256
370
-1
  6
ByLayer
 10
2.6300000000000003
 20
0.9871000000000001
 30
0.0
 11
2.6285000000000003
 21
0.9900000000000001
 31
0.0
  0
LINE
  5
2AB
100
AcDbEntity
100
AcDbLine
  8
BLACK
 62
256
370
-1
  6
ByLayer
 10
2.6285000000000003
 20
0.9900000000000001
 30
0.0
 11
2.6271
 21
0.9914000000000001
 31
0.0
  0
LINE
  5
2AC
100
AcDbEntity
100
AcDbLine
  8
BLACK
 62
256
370
-1
  6
ByLayer
 10
2.6271
 20
0.9914000000000001
 30
0.0
 11
2.6242000000000001
 21
0.9929
 31
0.0
  0
LINE
  5
2AD
100
AcDbEntity
100
AcDbLine
  8
BLACK
 62
256
370
-1
  6
ByLayer
 10
2.6013999999999999
 20
0.9657
 30
0.0
 11
2.5999000000000003
 21
0.9643
 31
0.0
  0
LINE
  5
2AE
100
AcDbEntity
100
AcDbLine
  8
BLACK
 62
256
370
-1
  6
ByLayer
 10
2.5999000000000003
 20
0.9643
 30
0.0
 11
2.6013999999999999
 21
0.9629000000000001
 31
0.0
  0
LINE
  5
2AF
100
AcDbEntity
100
AcDbLine
  8
BLACK
 62
256
370
-1
  6
ByLayer
 10
2.6013999999999999
 20
0.9629000000000001
 30
0.0
 11
2.6028000000000002
 21
0.9643
 31
0.0
  0
LINE
  5
2B0
100
AcDbEntity
100
AcDbLine
  8
BLACK
 62
256
370
-1
  6
ByLayer
 10
2.6028000000000002
 20
0.9643
 30
0.0
 11
2.6013999999999999
 21
0.9657
 31
0.0
  0
LINE
  5
2B1
100
AcDbEntity
100
AcDbLine
  8
BLACK
 62
256
370
-1
  6
ByLayer
 10
2.6013999999999999
 20
0.9657
 30
0.0
 11
2.6013999999999999
 21
0.9629000000000001
 31
0.0
  0
LINE
  5
2B2
100
AcDbEntity
100
AcDbLine
  8
BLACK
 62
256
370
-1
  6
ByLayer
 10
2.5712999999999999
 20
0.9629000000000001
 30
0.0
 11
2.5885000000000002
 21
0.9629000000000001
 31
0.0
  0
LINE
  5
2B3
100
AcDbEntity
100
AcDbLine
  8
BLACK
 62
256
370
-1
  6
ByLayer
 10
2.5799000000000003
 20
0.9629000000000001
 30
0.0
 11
2.5799000000000003
 21
0.9929
 31
0.0
  0
LINE
  5
2B4
100
AcDbEntity
100
AcDbLine
  8
BLACK
 62
256
370
-1
  6
ByLayer
 10
2.5799000000000003
 20
0.9929
 30
0.0
 11
2.5828000000000002
 21
0.9886
 31
0.0
  0
LINE
  5
2B5
100
AcDbEntity
100
AcDbLine
  8
BLACK
 62
256
370
-1
  6
ByLayer
 10
2.5828000000000002
 20
0.9886
 30
0.0
 11
2.5856000000000003
 21
0.9857
 31
0.0
  0
LINE
  5
2B6
100
AcDbEntity
100
AcDbLine
  8
BLACK
 62
256
370
-1
  6
ByLayer
 10
2.5856000000000003
 20
0.9857
 30
0.0
 11
2.5885000000000002
 21
0.9843000000000001
 31
0.0
  0
LINE
  5
2B7
100
AcDbEntity
100
AcDbLine
  8
BLACK
 62
256
370
-1
  6
ByLayer
 10
2.5456000000000003
 20
0.9829
 30
0.0
 11
2.5456000000000003
 21
0.9629000000000001
 31
0.0
  0
LINE
  5
2B8
100
AcDbEntity
100
AcDbLine
  8
BLACK
 62
256
370
-1
  6
ByLayer
 10
2.5585
 20
0.9829
 30
0.0
 11
2.5585
 21
0.9671000000000001
 31
0.0
  0
LINE
  5
2B9
100
AcDbEntity
100
AcDbLine
  8
BLACK
 62
256
370
-1
  6
ByLayer
 10
2.5585
 20
0.9671000000000001
 30
0.0
 11
2.5569999999999999
 21
0.9643
 31
0.0
  0
LINE
  5
2BA
100
AcDbEntity
100
AcDbLine
  8
BLACK
 62
256
370
-1
  6
ByLayer
 10
2.5569999999999999
 20
0.9643
 30
0.0
 11
2.5542000000000002
 21
0.9629000000000001
 31
0.0
  0
LINE
  5
2BB
100
AcDbEntity
100
AcDbLine
  8
BLACK
 62
256
370
-1
  6
ByLayer
 10
2.5542000000000002
 20
0.9629000000000001
 30
0.0
 11
2.5499000000000001
 21
0.9629000000000001
 31
0.0
  0
LINE
  5
2BC
100
AcDbEntity
100
AcDbLine
  8
BLACK
 62
256
370
-1
  6
ByLayer
 10
2.5499000000000001
 20
0.9629000000000001
 30
0.0
 11
2.5470000000000002
 21
0.9643
 31
0.0
  0
LINE
  5
2BD
100
AcDbEntity
100
AcDbLine
  8
BLACK
 62
256
370
-1
  6
ByLayer
 10
2.5470000000000002
 20
0.9643
 30
0.0
 11
2.5456000000000003
 21
0.9657
 31
0.0
  0
LINE
  5
2BE
100
AcDbEntity
100
AcDbLine
  8
BLACK
 62
256
370
-1
  6
ByLayer
 10
2.5214000000000003
 20
0.9786
 30
0.0
 11
2.5314000000000001
 21
0.9786
 31
0.0
  0
LINE
  5
2BF
100
AcDbEntity
100
AcDbLine
  8
BLACK
 62
256
370
-1
  6
ByLayer
 10
2.5314000000000001
 20
0.9629000000000001
 30
0.0
 11
2.5314000000000001
 21
0.9929
 31
0.0
  0
LINE
  5
2C0
100
AcDbEntity
100
AcDbLine
  8
BLACK
 62
256
370
-1
  6
ByLayer
 10
2.5314000000000001
 20
0.9929
 30
0.0
 11
2.5171000000000001
 21
0.9929
 31
0.0
  0
LINE
  5
2C1
100
AcDbEntity
100
AcDbLine
  8
BLACK
 62
256
370
-1
  6
ByLayer
 10
2.1842999999999999
 20
1.0550000000000002
 30
0.0
 11
2.1857000000000002
 21
1.0564
 31
0.0
  0
LINE
  5
2C2
100
AcDbEntity
100
AcDbLine
  8
BLACK
 62
256
370
-1
  6
ByLayer
 10
2.1857000000000002
 20
1.0564
 30
0.0
 11
2.1871
 21
1.0607
 31
0.0
  0
LINE
  5
2C3
100
AcDbEntity
100
AcDbLine
  8
BLACK
 62
256
370
-1
  6
ByLayer
 10
2.1871
 20
1.0607
 30
0.0
 11
2.1871
 21
1.0636000000000001
 31
0.0
  0
LINE
  5
2C4
100
AcDbEntity
100
AcDbLine
  8
BLACK
 62
256
370
-1
  6
ByLayer
 10
2.1871
 20
1.0636000000000001
 30
0.0
 11
2.1857000000000002
 21
1.0679000000000001
 31
0.0
  0
LINE
  5
2C5
100
AcDbEntity
100
AcDbLine
  8
BLACK
 62
256
370
-1
  6
ByLayer
 10
2.1857000000000002
 20
1.0679000000000001
 30
0.0
 11
2.1829000000000001
 21
1.0707
 31
0.0
  0
LINE
  5
2C6
100
AcDbEntity
100
AcDbLine
  8
BLACK
 62
256
370
-1
  6
ByLayer
 10
2.1829000000000001
 20
1.0707
 30
0.0
 11
2.1800000000000002
 21
1.0722
 31
0.0
  0
LINE
  5
2C7
100
AcDbEntity
100
AcDbLine
  8
BLACK
 62
256
370
-1
  6
ByLayer
 10
2.1800000000000002
 20
1.0722
 30
0.0
 11
2.1743000000000001
 21
1.0736000000000001
 31
0.0
  0
LINE
  5
2C8
100
AcDbEntity
100
AcDbLine
  8
BLACK
 62
256
370
-1
  6
ByLayer
 10
2.1743000000000001
 20
1.0736000000000001
 30
0.0
 11
2.1699999999999999
 21
1.0736000000000001
 31
0.0
  0
LINE
  5
2C9
100
AcDbEntity
100
AcDbLine
  8
BLACK
 62
256
370
-1
  6
ByLayer
 10
2.1699999999999999
 20
1.0736000000000001
 30
0.0
 11
2.1642999999999999
 21
1.0722
 31
0.0
  0
LINE
  5
2CA
100
AcDbEntity
100
AcDbLine
  8
BLACK
 62
256
370
-1
  6
ByLayer
 10
2.1642999999999999
 20
1.0722
 30
0.0
 11
2.1614
 21
1.0707
 31
0.0
  0
LINE
  5
2CB
100
AcDbEntity
100
AcDbLine
  8
BLACK
 62
256
370
-1
  6
ByLayer
 10
2.1614
 20
1.0707
 30
0.0
 11
2.1586000000000003
 21
1.0679000000000001
 31
0.0
  0
LINE
  5
2CC
100
AcDbEntity
100
AcDbLine
  8
BLACK
 62
256
370
-1
  6
ByLayer
 10
2.1586000000000003
 20
1.0679000000000001
 30
0.0
 11
2.1571000000000002
 21
1.0636000000000001
 31
0.0
  0
LINE
  5
2CD
100
AcDbEntity
100
AcDbLine
  8
BLACK
 62
256
370
-1
  6
ByLayer
 10
2.1571000000000002
 20
1.0636000000000001
 30
0.0
 11
2.1571000000000002
 21
1.0607
 31
0.0
  0
LINE
  5
2CE
100
AcDbEntity
100
AcDbLine
  8
BLACK
 62
256
370
-1
  6
ByLayer
 10
2.1571000000000002
 20
1.0607
 30
0.0
 11
2.1586000000000003
 21
1.0564
 31
0.0
  0
LINE
  5
2CF
100
AcDbEntity
100
AcDbLine
  8
BLACK
 62
256
370
-1
  6
ByLayer
 10
2.1586000000000003
 20
1.0564
 30
0.0
 11
2.1600000000000001
 21
1.0550000000000002
 31
0.0
  0
LINE
  5
2D0
100
AcDbEntity
100
AcDbLine
  8
BLACK
 62
256
370
-1
  6
ByLayer
 10
2.1871
 20
1.0407
 30
0.0
 11
2.1871
 21
1.0350000000000001
 31
0.0
  0
LINE
  5
2D1
100
AcDbEntity
100
AcDbLine
  8
BLACK
 62
256
370
-1
  6
ByLayer
 10
2.1871
 20
1.0350000000000001
 30
0.0
 11
2.1857000000000002
 21
1.0322
 31
0.0
  0
LINE
  5
2D2
100
AcDbEntity
100
AcDbLine
  8
BLACK
 62
256
370
-1
  6
ByLayer
 10
2.1857000000000002
 20
1.0322
 30
0.0
 11
2.1842999999999999
 21
1.0306999999999999
 31
0.0
  0
LINE
  5
2D3
100
AcDbEntity
100
AcDbLine
  8
BLACK
 62
256
370
-1
  6
ByLayer
 10
2.1842999999999999
 20
1.0306999999999999
 30
0.0
 11
2.1800000000000002
 21
1.0279
 31
0.0
  0
LINE
  5
2D4
100
AcDbEntity
100
AcDbLine
  8
BLACK
 62
256
370
-1
  6
ByLayer
 10
2.1800000000000002
 20
1.0279
 30
0.0
 11
2.1743000000000001
 21
1.0264
 31
0.0
  0
LINE
  5
2D5
100
AcDbEntity
100
AcDbLine
  8
BLACK
 62
256
370
-1
  6
ByLayer
 10
2.1743000000000001
 20
1.0264
 30
0.0
 11
2.1629
 21
1.0264
 31
0.0
  0
LINE
  5
2D6
100
AcDbEntity
100
AcDbLine
  8
BLACK
 62
256
370
-1
  6
ByLayer
 10
2.1629
 20
1.0264
 30
0.0
 11
2.1600000000000001
 21
1.0279
 31
0.0
  0
LINE
  5
2D7
100
AcDbEntity
100
AcDbLine
  8
BLACK
 62
256
370
-1
  6
ByLayer
 10
2.1600000000000001
 20
1.0279
 30
0.0
 11
2.1586000000000003
 21
1.0293000000000001
 31
0.0
  0
LINE
  5
2D8
100
AcDbEntity
100
AcDbLine
  8
BLACK
 62
256
370
-1
  6
ByLayer
 10
2.1586000000000003
 20
1.0293000000000001
 30
0.0
 11
2.1571000000000002
 21
1.0322
 31
0.0
  0
LINE
  5
2D9
100
AcDbEntity
100
AcDbLine
  8
BLACK
 62
256
370
-1
  6
ByLayer
 10
2.1571000000000002
 20
1.0322
 30
0.0
 11
2.1571000000000002
 21
1.0379
 31
0.0
  0
LINE
  5
2DA
100
AcDbEntity
100
AcDbLine
  8
BLACK
 62
256
370
-1
  6
ByLayer
 10
2.1571000000000002
 20
1.0379
 30
0.0
 11
2.1586000000000003
 21
1.0407
 31
0.0
  0
LINE
  5
2DB
100
AcDbEntity
100
AcDbLine
  8
BLACK
 62
256
370
-1
  6
ByLayer
 10
2.1586000000000003
 20
1.0407
 30
0.0
 11
2.1600000000000001
 21
1.0422
 31
0.0
  0
LINE
  5
2DC
100
AcDbEntity
100
AcDbLine
  8
BLACK
 62
256
370
-1
  6
ByLayer
 10
2.1600000000000001
 20
1.0422
 30
0.0
 11
2.1629
 21
1.0436000000000001
 31
0.0
  0
LINE
  5
2DD
100
AcDbEntity
100
AcDbLine
  8
BLACK
 62
256
370
-1
  6
ByLayer
 10
2.1629
 20
1.0436000000000001
 30
0.0
 11
2.1699999999999999
 21
1.0436000000000001
 31
0.0
  0
LINE
  5
2DE
100
AcDbEntity
100
AcDbLine
  8
BLACK
 62
256
370
-1
  6
ByLayer
 10
2.1699999999999999
 20
1.0436000000000001
 30
0.0
 11
2.1729000000000003
 21
1.0422
 31
0.0
  0
LINE
  5
2DF
100
AcDbEntity
100
AcDbLine
  8
BLACK
 62
256
370
-1
  6
ByLayer
 10
2.1729000000000003
 20
1.0422
 30
0.0
 11
2.1743000000000001
 21
1.0407
 31
0.0
  0
LINE
  5
2E0
100
AcDbEntity
100
AcDbLine
  8
BLACK
 62
256
370
-1
  6
ByLayer
 10
2.1743000000000001
 20
1.0407
 30
0.0
 11
2.1757
 21
1.0379
 31
0.0
  0
LINE
  5
2E1
100
AcDbEntity
100
AcDbLine
  8
BLACK
 62
256
370
-1
  6
ByLayer
 10
2.1757
 20
1.0379
 30
0.0
 11
2.1757
 21
1.0322
 31
0.0
  0
LINE
  5
2E2
100
AcDbEntity
100
AcDbLine
  8
BLACK
 62
256
370
-1
  6
ByLayer
 10
2.1757
 20
1.0322
 30
0.0
 11
2.1743000000000001
 21
1.0293000000000001
 31
0.0
  0
LINE
  5
2E3
100
AcDbEntity
100
AcDbLine
  8
BLACK
 62
256
370
-1
  6
ByLayer
 10
2.1743000000000001
 20
1.0293000000000001
 30
0.0
 11
2.1729000000000003
 21
1.0279
 31
0.0
  0
LINE
  5
2E4
100
AcDbEntity
100
AcDbLine
  8
BLACK
 62
256
370
-1
  6
ByLayer
 10
2.1729000000000003
 20
1.0279
 30
0.0
 11
2.1699999999999999
 21
1.0264
 31
0.0
  0
LINE
  5
2E5
100
AcDbEntity
100
AcDbLine
  8
BLACK
 62
256
370
-1
  6
ByLayer
 10
2.4071000000000002
 20
1.0992
 30
0.0
 11
2.4071000000000002
 21
1.0964
 31
0.0
  0
LINE
  5
2E6
100
AcDbEntity
100
AcDbLine
  8
BLACK
 62
256
370
-1
  6
ByLayer
 10
2.4071000000000002
 20
1.0964
 30
0.0
 11
2.4086000000000003
 21
1.0935000000000001
 31
0.0
  0
LINE
  5
2E7
100
AcDbEntity
100
AcDbLine
  8
BLACK
 62
256
370
-1
  6
ByLayer
 10
2.4086000000000003
 20
1.0935000000000001
 30
0.0
 11
2.4100000000000001
 21
1.0921000000000001
 31
0.0
  0
LINE
  5
2E8
100
AcDbEntity
100
AcDbLine
  8
BLACK
 62
256
370
-1
  6
ByLayer
 10
2.4100000000000001
 20
1.0921000000000001
 30
0.0
 11
2.4129
 21
1.0907
 31
0.0
  0
LINE
  5
2E9
100
AcDbEntity
100
AcDbLine
  8
BLACK
 62
256
370
-1
  6
ByLayer
 10
2.4129
 20
1.0907
 30
0.0
 11
2.4186000000000001
 21
1.0891999999999999
 31
0.0
  0
LINE
  5
2EA
100
AcDbEntity
100
AcDbLine
  8
BLACK
 62
256
370
-1
  6
ByLayer
 10
2.4186000000000001
 20
1.0891999999999999
 30
0.0
 11
2.4257
 21
1.0891999999999999
 31
0.0
  0
LINE
  5
2EB
100
AcDbEntity
100
AcDbLine
  8
BLACK
 62
256
370
-1
  6
ByLayer
 10
2.4257
 20
1.0891999999999999
 30
0.0
 11
2.4314
 21
1.0907
 31
0.0
  0
LINE
  5
2EC
100
AcDbEntity
100
AcDbLine
  8
BLACK
 62
256
370
-1
  6
ByLayer
 10
2.4314
 20
1.0907
 30
0.0
 11
2.4342999999999999
 21
1.0921000000000001
 31
0.0
  0
LINE
  5
2ED
100
AcDbEntity
100
AcDbLine
  8
BLACK
 62
256
370
-1
  6
ByLayer
 10
2.4342999999999999
 20
1.0921000000000001
 30
0.0
 11
2.4357000000000002
 21
1.0935000000000001
 31
0.0
  0
LINE
  5
2EE
100
AcDbEntity
100
AcDbLine
  8
BLACK
 62
256
370
-1
  6
ByLayer
 10
2.4357000000000002
 20
1.0935000000000001
 30
0.0
 11
2.4371
 21
1.0964
 31
0.0
  0
LINE
  5
2EF
100
AcDbEntity
100
AcDbLine
  8
BLACK
 62
256
370
-1
  6
ByLayer
 10
2.4371
 20
1.0964
 30
0.0
 11
2.4371
 21
1.0992
 31
0.0
  0
LINE
  5
2F0
100
AcDbEntity
100
AcDbLine
  8
BLACK
 62
256
370
-1
  6
ByLayer
 10
2.4371
 20
1.0992
 30
0.0
 11
2.4357000000000002
 21
1.1021000000000001
 31
0.0
  0
LINE
  5
2F1
100
AcDbEntity
100
AcDbLine
  8
BLACK
 62
256
370
-1
  6
ByLayer
 10
2.4357000000000002
 20
1.1021000000000001
 30
0.0
 11
2.4342999999999999
 21
1.1035000000000001
 31
0.0
  0
LINE
  5
2F2
100
AcDbEntity
100
AcDbLine
  8
BLACK
 62
256
370
-1
  6
ByLayer
 10
2.4342999999999999
 20
1.1035000000000001
 30
0.0
 11
2.4314
 21
1.105
 31
0.0
  0
LINE
  5
2F3
100
AcDbEntity
100
AcDbLine
  8
BLACK
 62
256
370
-1
  6
ByLayer
 10
2.4314
 20
1.105
 30
0.0
 11
2.4257
 21
1.1064000000000001
 31
0.0
  0
LINE
  5
2F4
100
AcDbEntity
100
AcDbLine
  8
BLACK
 62
256
370
-1
  6
ByLayer
 10
2.4257
 20
1.1064000000000001
 30
0.0
 11
2.4186000000000001
 21
1.1064000000000001
 31
0.0
  0
LINE
  5
2F5
100
AcDbEntity
100
AcDbLine
  8
BLACK
 62
256
370
-1
  6
ByLayer
 10
2.4186000000000001
 20
1.1064000000000001
 30
0.0
 11
2.4129
 21
1.105
 31
0.0
  0
LINE
  5
2F6
100
AcDbEntity
100
AcDbLine
  8
BLACK
 62
256
370
-1
  6
ByLayer
 10
2.4129
 20
1.105
 30
0.0
 11
2.4100000000000001
 21
1.1035000000000001
 31
0.0
  0
LINE
  5
2F7
100
AcDbEntity
100
AcDbLine
  8
BLACK
 62
256
370
-1
  6
ByLayer
 10
2.4100000000000001
 20
1.1035000000000001
 30
0.0
 11
2.4086000000000003
 21
1.1021000000000001
 31
0.0
  0
LINE
  5
2F8
100
AcDbEntity
100
AcDbLine
  8
BLACK
 62
256
370
-1
  6
ByLayer
 10
2.4086000000000003
 20
1.1021000000000001
 30
0.0
 11
2.4071000000000002
 21
1.0992
 31
0.0
  0
LINE
  5
2F9
100
AcDbEntity
100
AcDbLine
  8
BLACK
 62
256
370
-1
  6
ByLayer
 10
2.4342999999999999
 20
1.0764
 30
0.0
 11
2.4357000000000002
 21
1.0749
 31
0.0
  0
LINE
  5
2FA
100
AcDbEntity
100
AcDbLine
  8
BLACK
 62
256
370
-1
  6
ByLayer
 10
2.4357000000000002
 20
1.0749
 30
0.0
 11
2.4371
 21
1.0764
 31
0.0
  0
LINE
  5
2FB
100
AcDbEntity
100
AcDbLine
  8
BLACK
 62
256
370
-1
  6
ByLayer
 10
2.4371
 20
1.0764
 30
0.0
 11
2.4357000000000002
 21
1.0778000000000001
 31
0.0
  0
LINE
  5
2FC
100
AcDbEntity
100
AcDbLine
  8
BLACK
 62
256
370
-1
  6
ByLayer
 10
2.4357000000000002
 20
1.0778000000000001
 30
0.0
 11
2.4342999999999999
 21
1.0764
 31
0.0
  0
LINE
  5
2FD
100
AcDbEntity
100
AcDbLine
  8
BLACK
 62
256
370
-1
  6
ByLayer
 10
2.4342999999999999
 20
1.0764
 30
0.0
 11
2.4371
 21
1.0764
 31
0.0
  0
LINE
  5
2FE
100
AcDbEntity
100
AcDbLine
  8
BLACK
 62
256
370
-1
  6
ByLayer
 10
2.4371
 20
1.0463
 30
0.0
 11
2.4371
 21
1.0635000000000001
 31
0.0
  0
LINE
  5
2FF
100
AcDbEntity
100
AcDbLine
  8
BLACK
 62
256
370
-1
  6
ByLayer
 10
2.4371
 20
1.0548999999999999
 30
0.0
 11
2.4071000000000002
 21
1.0548999999999999
 31
0.0
  0
LINE
  5
300
100
AcDbEntity
100
AcDbLine
  8
BLACK
 62
256
370
-1
  6
ByLayer
 10
2.4071000000000002
 20
1.0548999999999999
 30
0.0
 11
2.4114
 21
1.0578000000000001
 31
0.0
  0
LINE
  5
301
100
AcDbEntity
100
AcDbLine
  8
BLACK
 62
256
370
-1
  6
ByLayer
 10
2.4114
 20
1.0578000000000001
 30
0.0
 11
2.4143000000000003
 21
1.0606
 31
0.0
  0
LINE
  5
302
100
AcDbEntity
100
AcDbLine
  8
BLACK
 62
256
370
-1
  6
ByLayer
 10
2.4143000000000003
 20
1.0606
 30
0.0
 11
2.4157000000000002
 21
1.0635000000000001
 31
0.0
  0
LINE
  5
303
100
AcDbEntity
100
AcDbLine
  8
BLACK
 62
256
370
-1
  6
ByLayer
 10
2.4171
 20
1.0206
 30
0.0
 11
2.4371
 21
1.0206
 31
0.0
  0
LINE
  5
304
100
AcDbEntity
100
AcDbLine
  8
BLACK
 62
256
370
-1
  6
ByLayer
 10
2.4171
 20
1.0335000000000001
 30
0.0
 11
2.4329000000000001
 21
1.0335000000000001
 31
0.0
  0
LINE
  5
305
100
AcDbEntity
100
AcDbLine
  8
BLACK
 62
256
370
-1
  6
ByLayer
 10
2.4329000000000001
 20
1.0335000000000001
 30
0.0
 11
2.4357000000000002
 21
1.032
 31
0.0
  0
LINE
  5
306
100
AcDbEntity
100
AcDbLine
  8
BLACK
 62
256
370
-1
  6
ByLayer
 10
2.4357000000000002
 20
1.032
 30
0.0
 11
2.4371
 21
1.0292000000000001
 31
0.0
  0
LINE
  5
307
100
AcDbEntity
100
AcDbLine
  8
BLACK
 62
256
370
-1
  6
ByLayer
 10
2.4371
 20
1.0292000000000001
 30
0.0
 11
2.4371
 21
1.0249000000000001
 31
0.0
  0
LINE
  5
308
100
AcDbEntity
100
AcDbLine
  8
BLACK
 62
256
370
-1
  6
ByLayer
 10
2.4371
 20
1.0249000000000001
 30
0.0
 11
2.4357000000000002
 21
1.022
 31
0.0
  0
LINE
  5
309
100
AcDbEntity
100
AcDbLine
  8
BLACK
 62
256
370
-1
  6
ByLayer
 10
2.4357000000000002
 20
1.022
 30
0.0
 11
2.4342999999999999
 21
1.0206
 31
0.0
  0
LINE
  5
30A
100
AcDbEntity
100
AcDbLine
  8
BLACK
 62
256
370
-1
  6
ByLayer
 10
2.4214000000000002
 20
0.9964000000000001
 30
0.0
 11
2.4214000000000002
 21
1.0064
 31
0.0
  0
LINE
  5
30B
100
AcDbEntity
100
AcDbLine
  8
BLACK
 62
256
370
-1
  6
ByLayer
 10
2.4371
 20
1.0064
 30
0.0
 11
2.4071000000000002
 21
1.0064
 31
0.0
  0
LINE
  5
30C
100
AcDbEntity
100
AcDbLine
  8
BLACK
 62
256
370
-1
  6
ByLayer
 10
2.4071000000000002
 20
1.0064
 30
0.0
 11
2.4071000000000002
 21
0.9921000000000001
 31
0.0
  0
LINE
  5
30D
100
AcDbEntity
100
AcDbLine
  8
BLACK
 62
256
370
-1
  6
ByLayer
 10
1.9371
 20
1.0550000000000002
 30
0.0
 11
1.9229000000000001
 21
1.0649999999999999
 31
0.0
  0
LINE
  5
30E
100
AcDbEntity
100
AcDbLine
  8
BLACK
 62
256
370
-1
  6
ByLayer
 10
1.9371
 20
1.0722
 30
0.0
 11
1.9071
 21
1.0722
 31
0.0
  0
LINE
  5
30F
100
AcDbEntity
100
AcDbLine
  8
BLACK
 62
256
370
-1
  6
ByLayer
 10
1.9071
 20
1.0722
 30
0.0
 11
1.9071
 21
1.0607
 31
0.0
  0
LINE
  5
310
100
AcDbEntity
100
AcDbLine
  8
BLACK
 62
256
370
-1
  6
ByLayer
 10
1.9071
 20
1.0607
 30
0.0
 11
1.9086000000000001
 21
1.0579000000000001
 31
0.0
  0
LINE
  5
311
100
AcDbEntity
100
AcDbLine
  8
BLACK
 62
256
370
-1
  6
ByLayer
 10
1.9086000000000001
 20
1.0579000000000001
 30
0.0
 11
1.9100000000000001
 21
1.0564
 31
0.0
  0
LINE
  5
312
100
AcDbEntity
100
AcDbLine
  8
BLACK
 62
256
370
-1
  6
ByLayer
 10
1.9100000000000001
 20
1.0564
 30
0.0
 11
1.9129
 21
1.0550000000000002
 31
0.0
  0
LINE
  5
313
100
AcDbEntity
100
AcDbLine
  8
BLACK
 62
256
370
-1
  6
ByLayer
 10
1.9129
 20
1.0550000000000002
 30
0.0
 11
1.9171
 21
1.0550000000000002
 31
0.0
  0
LINE
  5
314
100
AcDbEntity
100
AcDbLine
  8
BLACK
 62
256
370
-1
  6
ByLayer
 10
1.9171
 20
1.0550000000000002
 30
0.0
 11
1.9200000000000002
 21
1.0564
 31
0.0
  0
LINE
  5
315
100
AcDbEntity
100
AcDbLine
  8
BLACK
 62
256
370
-1
  6
ByLayer
 10
1.9200000000000002
 20
1.0564
 30
0.0
 11
1.9214
 21
1.0579000000000001
 31
0.0
  0
LINE
  5
316
100
AcDbEntity
100
AcDbLine
  8
BLACK
 62
256
370
-1
  6
ByLayer
 10
1.9214
 20
1.0579000000000001
 30
0.0
 11
1.9229000000000001
 21
1.0607
 31
0.0
  0
LINE
  5
317
100
AcDbEntity
100
AcDbLine
  8
BLACK
 62
256
370
-1
  6
ByLayer
 10
1.9229000000000001
 20
1.0607
 30
0.0
 11
1.9229000000000001
 21
1.0722
 31
0.0
  0
LINE
  5
318
100
AcDbEntity
100
AcDbLine
  8
BLACK
 62
256
370
-1
  6
ByLayer
 10
1.9371
 20
1.0264
 30
0.0
 11
1.9371
 21
1.0436000000000001
 31
0.0
  0
LINE
  5
319
100
AcDbEntity
100
AcDbLine
  8
BLACK
 62
256
370
-1
  6
ByLayer
 10
1.9371
 20
1.0350000000000001
 30
0.0
 11
1.9071
 21
1.0350000000000001
 31
0.0
  0
LINE
  5
31A
100
AcDbEntity
100
AcDbLine
  8
BLACK
 62
256
370
-1
  6
ByLayer
 10
1.9071
 20
1.0350000000000001
 30
0.0
 11
1.9114
 21
1.0379
 31
0.0
  0
LINE
  5
31B
100
AcDbEntity
100
AcDbLine
  8
BLACK
 62
256
370
-1
  6
ByLayer
 10
1.9114
 20
1.0379
 30
0.0
 11
1.9143000000000001
 21
1.0407
 31
0.0
  0
LINE
  5
31C
100
AcDbEntity
100
AcDbLine
  8
BLACK
 62
256
370
-1
  6
ByLayer
 10
1.9143000000000001
 20
1.0407
 30
0.0
 11
1.9157000000000002
 21
1.0436000000000001
 31
0.0
  0
LINE
  5
31D
100
AcDbEntity
100
AcDbLine
  8
BLACK
 62
256
370
-1
  6
ByLayer
 10
1.6571
 20
1.0728
 30
0.0
 11
1.6571
 21
1.0700000000000001
 31
0.0
  0
LINE
  5
31E
100
AcDbEntity
100
AcDbLine
  8
BLACK
 62
256
370
-1
  6
ByLayer
 10
1.6571
 20
1.0700000000000001
 30
0.0
 11
1.6586000000000001
 21
1.0671000000000002
 31
0.0
  0
LINE
  5
31F
100
AcDbEntity
100
AcDbLine
  8
BLACK
 62
256
370
-1
  6
ByLayer
 10
1.6586000000000001
 20
1.0671000000000002
 30
0.0
 11
1.6600000000000001
 21
1.0657000000000001
 31
0.0
  0
LINE
  5
320
100
AcDbEntity
100
AcDbLine
  8
BLACK
 62
256
370
-1
  6
ByLayer
 10
1.6600000000000001
 20
1.0657000000000001
 30
0.0
 11
1.6629
 21
1.0643
 31
0.0
  0
LINE
  5
321
100
AcDbEntity
100
AcDbLine
  8
BLACK
 62
256
370
-1
  6
ByLayer
 10
1.6629
 20
1.0643
 30
0.0
 11
1.6686000000000001
 21
1.0628
 31
0.0
  0
LINE
  5
322
100
AcDbEntity
100
AcDbLine
  8
BLACK
 62
256
370
-1
  6
ByLayer
 10
1.6686000000000001
 20
1.0628
 30
0.0
 11
1.6757000000000002
 21
1.0628
 31
0.0
  0
LINE
  5
323
100
AcDbEntity
100
AcDbLine
  8
BLACK
 62
256
370
-1
  6
ByLayer
 10
1.6757000000000002
 20
1.0628
 30
0.0
 11
1.6814
 21
1.0643
 31
0.0
  0
LINE
  5
324
100
AcDbEntity
100
AcDbLine
  8
BLACK
 62
256
370
-1
  6
ByLayer
 10
1.6814
 20
1.0643
 30
0.0
 11
1.6843000000000001
 21
1.0657000000000001
 31
0.0
  0
LINE
  5
325
100
AcDbEntity
100
AcDbLine
  8
BLACK
 62
256
370
-1
  6
ByLayer
 10
1.6843000000000001
 20
1.0657000000000001
 30
0.0
 11
1.6857
 21
1.0671000000000002
 31
0.0
  0
LINE
  5
326
100
AcDbEntity
100
AcDbLine
  8
BLACK
 62
256
370
-1
  6
ByLayer
 10
1.6857
 20
1.0671000000000002
 30
0.0
 11
1.6871
 21
1.0700000000000001
 31
0.0
  0
LINE
  5
327
100
AcDbEntity
100
AcDbLine
  8
BLACK
 62
256
370
-1
  6
ByLayer
 10
1.6871
 20
1.0700000000000001
 30
0.0
 11
1.6871
 21
1.0728
 31
0.0
  0
LINE
  5
328
100
AcDbEntity
100
AcDbLine
  8
BLACK
 62
256
370
-1
  6
ByLayer
 10
1.6871
 20
1.0728
 30
0.0
 11
1.6857
 21
1.0757000000000001
 31
0.0
  0
LINE
  5
329
100
AcDbEntity
100
AcDbLine
  8
BLACK
 62
256
370
-1
  6
ByLayer
 10
1.6857
 20
1.0757000000000001
 30
0.0
 11
1.6843000000000001
 21
1.0770999999999999
 31
0.0
  0
LINE
  5
32A
100
AcDbEntity
100
AcDbLine
  8
BLACK
 62
256
370
-1
  6
ByLayer
 10
1.6843000000000001
 20
1.0770999999999999
 30
0.0
 11
1.6814
 21
1.0786
 31
0.0
  0
LINE
  5
32B
100
AcDbEntity
100
AcDbLine
  8
BLACK
 62
256
370
-1
  6
ByLayer
 10
1.6814
 20
1.0786
 30
0.0
 11
1.6757000000000002
 21
1.0800000000000001
 31
0.0
  0
LINE
  5
32C
100
AcDbEntity
100
AcDbLine
  8
BLACK
 62
256
370
-1
  6
ByLayer
 10
1.6757000000000002
 20
1.0800000000000001
 30
0.0
 11
1.6686000000000001
 21
1.0800000000000001
 31
0.0
  0
LINE
  5
32D
100
AcDbEntity
100
AcDbLine
  8
BLACK
 62
256
370
-1
  6
ByLayer
 10
1.6686000000000001
 20
1.0800000000000001
 30
0.0
 11
1.6629
 21
1.0786
 31
0.0
  0
LINE
  5
32E
100
AcDbEntity
100
AcDbLine
  8
BLACK
 62
256
370
-1
  6
ByLayer
 10
1.6629
 20
1.0786
 30
0.0
 11
1.6600000000000001
 21
1.0770999999999999
 31
0.0
  0
LINE
  5
32F
100
AcDbEntity
100
AcDbLine
  8
BLACK
 62
256
370
-1
  6
ByLayer
 10
1.6600000000000001
 20
1.0770999999999999
 30
0.0
 11
1.6586000000000001
 21
1.0757000000000001
 31
0.0
  0
LINE
  5
330
100
AcDbEntity
100
AcDbLine
  8
BLACK
 62
256
370
-1
  6
ByLayer
 10
1.6586000000000001
 20
1.0757000000000001
 30
0.0
 11
1.6571
 21
1.0728
 31
0.0
  0
LINE
  5
331
100
AcDbEntity
100
AcDbLine
  8
BLACK
 62
256
370
-1
  6
ByLayer
 10
1.6843000000000001
 20
1.05
 30
0.0
 11
1.6857
 21
1.0485
 31
0.0
  0
LINE
  5
332
100
AcDbEntity
100
AcDbLine
  8
BLACK
 62
256
370
-1
  6
ByLayer
 10
1.6857
 20
1.0485
 30
0.0
 11
1.6871
 21
1.05
 31
0.0
  0
LINE
  5
333
100
AcDbEntity
100
AcDbLine
  8
BLACK
 62
256
370
-1
  6
ByLayer
 10
1.6871
 20
1.05
 30
0.0
 11
1.6857
 21
1.0514000000000001
 31
0.0
  0
LINE
  5
334
100
AcDbEntity
100
AcDbLine
  8
BLACK
 62
256
370
-1
  6
ByLayer
 10
1.6857
 20
1.0514000000000001
 30
0.0
 11
1.6843000000000001
 21
1.05
 31
0.0
  0
LINE
  5
335
100
AcDbEntity
100
AcDbLine
  8
BLACK
 62
256
370
-1
  6
ByLayer
 10
1.6843000000000001
 20
1.05
 30
0.0
 11
1.6871
 21
1.05
 31
0.0
  0
LINE
  5
336
100
AcDbEntity
100
AcDbLine
  8
BLACK
 62
256
370
-1
  6
ByLayer
 10
1.6871
 20
1.0199
 30
0.0
 11
1.6871
 21
1.0371000000000001
 31
0.0
  0
LINE
  5
337
100
AcDbEntity
100
AcDbLine
  8
BLACK
 62
256
370
-1
  6
ByLayer
 10
1.6871
 20
1.0285
 30
0.0
 11
1.6571
 21
1.0285
 31
0.0
  0
LINE
  5
338
100
AcDbEntity
100
AcDbLine
  8
BLACK
 62
256
370
-1
  6
ByLayer
 10
1.6571
 20
1.0285
 30
0.0
 11
1.6614
 21
1.0314000000000001
 31
0.0
  0
LINE
  5
339
100
AcDbEntity
100
AcDbLine
  8
BLACK
 62
256
370
-1
  6
ByLayer
 10
1.6614
 20
1.0314000000000001
 30
0.0
 11
1.6643000000000001
 21
1.0342
 31
0.0
  0
LINE
  5
33A
100
AcDbEntity
100
AcDbLine
  8
BLACK
 62
256
370
-1
  6
ByLayer
 10
1.6643000000000001
 20
1.0342
 30
0.0
 11
1.6657000000000002
 21
1.0371000000000001
 31
0.0
  0
LINE
  5
33B
100
AcDbEntity
100
AcDbLine
  8
BLACK
 62
256
370
-1
  6
ByLayer
 10
1.9371
 20
1.23
 30
0.0
 11
1.9229000000000001
 21
1.24
 31
0.0
  0
LINE
  5
33C
100
AcDbEntity
100
AcDbLine
  8
BLACK
 62
256
370
-1
  6
ByLayer
 10
1.9371
 20
1.2472000000000001
 30
0.0
 11
1.9071
 21
1.2472000000000001
 31
0.0
  0
LINE
  5
33D
100
AcDbEntity
100
AcDbLine
  8
BLACK
 62
256
370
-1
  6
ByLayer
 10
1.9071
 20
1.2472000000000001
 30
0.0
 11
1.9071
 21
1.2357
 31
0.0
  0
LINE
  5
33E
100
AcDbEntity
100
AcDbLine
  8
BLACK
 62
256
370
-1
  6
ByLayer
 10
1.9071
 20
1.2357
 30
0.0
 11
1.9086000000000001
 21
1.2329000000000001
 31
0.0
  0
LINE
  5
33F
100
AcDbEntity
100
AcDbLine
  8
BLACK
 62
256
370
-1
  6
ByLayer
 10
1.9086000000000001
 20
1.2329000000000001
 30
0.0
 11
1.9100000000000001
 21
1.2314000000000001
 31
0.0
  0
LINE
  5
340
100
AcDbEntity
100
AcDbLine
  8
BLACK
 62
256
370
-1
  6
ByLayer
 10
1.9100000000000001
 20
1.2314000000000001
 30
0.0
 11
1.9129
 21
1.23
 31
0.0
  0
LINE
  5
341
100
AcDbEntity
100
AcDbLine
  8
BLACK
 62
256
370
-1
  6
ByLayer
 10
1.9129
 20
1.23
 30
0.0
 11
1.9171
 21
1.23
 31
0.0
  0
LINE
  5
342
100
AcDbEntity
100
AcDbLine
  8
BLACK
 62
256
370
-1
  6
ByLayer
 10
1.9171
 20
1.23
 30
0.0
 11
1.9200000000000002
 21
1.2314000000000001
 31
0.0
  0
LINE
  5
343
100
AcDbEntity
100
AcDbLine
  8
BLACK
 62
256
370
-1
  6
ByLayer
 10
1.9200000000000002
 20
1.2314000000000001
 30
0.0
 11
1.9214
 21
1.2329000000000001
 31
0.0
  0
LINE
  5
344
100
AcDbEntity
100
AcDbLine
  8
BLACK
 62
256
370
-1
  6
ByLayer
 10
1.9214
 20
1.2329000000000001
 30
0.0
 11
1.9229000000000001
 21
1.2357
 31
0.0
  0
LINE
  5
345
100
AcDbEntity
100
AcDbLine
  8
BLACK
 62
256
370
-1
  6
ByLayer
 10
1.9229000000000001
 20
1.2357
 30
0.0
 11
1.9229000000000001
 21
1.2472000000000001
 31
0.0
  0
LINE
  5
346
100
AcDbEntity
100
AcDbLine
  8
BLACK
 62
256
370
-1
  6
ByLayer
 10
1.9100000000000001
 20
1.2186000000000001
 30
0.0
 11
1.9086000000000001
 21
1.2172000000000001
 31
0.0
  0
LINE
  5
347
100
AcDbEntity
100
AcDbLine
  8
BLACK
 62
256
370
-1
  6
ByLayer
 10
1.9086000000000001
 20
1.2172000000000001
 30
0.0
 11
1.9071
 21
1.2143000000000002
 31
0.0
  0
LINE
  5
348
100
AcDbEntity
100
AcDbLine
  8
BLACK
 62
256
370
-1
  6
ByLayer
 10
1.9071
 20
1.2143000000000002
 30
0.0
 11
1.9071
 21
1.2072000000000001
 31
0.0
  0
LINE
  5
349
100
AcDbEntity
100
AcDbLine
  8
BLACK
 62
256
370
-1
  6
ByLayer
 10
1.9071
 20
1.2072000000000001
 30
0.0
 11
1.9086000000000001
 21
1.2043000000000001
 31
0.0
  0
LINE
  5
34A
100
AcDbEntity
100
AcDbLine
  8
BLACK
 62
256
370
-1
  6
ByLayer
 10
1.9086000000000001
 20
1.2043000000000001
 30
0.0
 11
1.9100000000000001
 21
1.2029000000000001
 31
0.0
  0
LINE
  5
34B
100
AcDbEntity
100
AcDbLine
  8
BLACK
 62
256
370
-1
  6
ByLayer
 10
1.9100000000000001
 20
1.2029000000000001
 30
0.0
 11
1.9129
 21
1.2014
 31
0.0
  0
LINE
  5
34C
100
AcDbEntity
100
AcDbLine
  8
BLACK
 62
256
370
-1
  6
ByLayer
 10
1.9129
 20
1.2014
 30
0.0
 11
1.9157000000000002
 21
1.2014
 31
0.0
  0
LINE
  5
34D
100
AcDbEntity
100
AcDbLine
  8
BLACK
 62
256
370
-1
  6
ByLayer
 10
1.9157000000000002
 20
1.2014
 30
0.0
 11
1.9200000000000002
 21
1.2029000000000001
 31
0.0
  0
LINE
  5
34E
100
AcDbEntity
100
AcDbLine
  8
BLACK
 62
256
370
-1
  6
ByLayer
 10
1.9200000000000002
 20
1.2029000000000001
 30
0.0
 11
1.9371
 21
1.22
 31
0.0
  0
LINE
  5
34F
100
AcDbEntity
100
AcDbLine
  8
BLACK
 62
256
370
-1
  6
ByLayer
 10
1.9371
 20
1.22
 30
0.0
 11
1.9371
 21
1.2014
 31
0.0
  0
LINE
  5
350
100
AcDbEntity
100
AcDbLine
  8
BLACK
 62
256
370
-1
  6
ByLayer
 10
1.6571
 20
1.2478
 30
0.0
 11
1.6571
 21
1.2450000000000001
 31
0.0
  0
LINE
  5
351
100
AcDbEntity
100
AcDbLine
  8
BLACK
 62
256
370
-1
  6
ByLayer
 10
1.6571
 20
1.2450000000000001
 30
0.0
 11
1.6586000000000001
 21
1.2421
 31
0.0
  0
LINE
  5
352
100
AcDbEntity
100
AcDbLine
  8
BLACK
 62
256
370
-1
  6
ByLayer
 10
1.6586000000000001
 20
1.2421
 30
0.0
 11
1.6600000000000001
 21
1.2407000000000001
 31
0.0
  0
LINE
  5
353
100
AcDbEntity
100
AcDbLine
  8
BLACK
 62
256
370
-1
  6
ByLayer
 10
1.6600000000000001
 20
1.2407000000000001
 30
0.0
 11
1.6629
 21
1.2393000000000001
 31
0.0
  0
LINE
  5
354
100
AcDbEntity
100
AcDbLine
  8
BLACK
 62
256
370
-1
  6
ByLayer
 10
1.6629
 20
1.2393000000000001
 30
0.0
 11
1.6686000000000001
 21
1.2378
 31
0.0
  0
LINE
  5
355
100
AcDbEntity
100
AcDbLine
  8
BLACK
 62
256
370
-1
  6
ByLayer
 10
1.6686000000000001
 20
1.2378
 30
0.0
 11
1.6757000000000002
 21
1.2378
 31
0.0
  0
LINE
  5
356
100
AcDbEntity
100
AcDbLine
  8
BLACK
 62
256
370
-1
  6
ByLayer
 10
1.6757000000000002
 20
1.2378
 30
0.0
 11
1.6814
 21
1.2393000000000001
 31
0.0
  0
LINE
  5
357
100
AcDbEntity
100
AcDbLine
  8
BLACK
 62
256
370
-1
  6
ByLayer
 10
1.6814
 20
1.2393000000000001
 30
0.0
 11
1.6843000000000001
 21
1.2407000000000001
 31
0.0
  0
LINE
  5
358
100
AcDbEntity
100
AcDbLine
  8
BLACK
 62
256
370
-1
  6
ByLayer
 10
1.6843000000000001
 20
1.2407000000000001
 30
0.0
 11
1.6857
 21
1.2421
 31
0.0
  0
LINE
  5
359
100
AcDbEntity
100
AcDbLine
  8
BLACK
 62
256
370
-1
  6
ByLayer
 10
1.6857
 20
1.2421
 30
0.0
 11
1.6871
 21
1.2450000000000001
 31
0.0
  0
LINE
  5
35A
100
AcDbEntity
100
AcDbLine
  8
BLACK
 62
256
370
-1
  6
ByLayer
 10
1.6871
 20
1.2450000000000001
 30
0.0
 11
1.6871
 21
1.2478
 31
0.0
  0
LINE
  5
35B
100
AcDbEntity
100
AcDbLine
  8
BLACK
 62
256
370
-1
  6
ByLayer
 10
1.6871
 20
1.2478
 30
0.0
 11
1.6857
 21
1.2507000000000001
 31
0.0
  0
LINE
  5
35C
100
AcDbEntity
100
AcDbLine
  8
BLACK
 62
256
370
-1
  6
ByLayer
 10
1.6857
 20
1.2507000000000001
 30
0.0
 11
1.6843000000000001
 21
1.2521
 31
0.0
  0
LINE
  5
35D
100
AcDbEntity
100
AcDbLine
  8
BLACK
 62
256
370
-1
  6
ByLayer
 10
1.6843000000000001
 20
1.2521
 30
0.0
 11
1.6814
 21
1.2536
 31
0.0
  0
LINE
  5
35E
100
AcDbEntity
100
AcDbLine
  8
BLACK
 62
256
370
-1
  6
ByLayer
 10
1.6814
 20
1.2536
 30
0.0
 11
1.6757000000000002
 21
1.2550000000000001
 31
0.0
  0
LINE
  5
35F
100
AcDbEntity
100
AcDbLine
  8
BLACK
 62
256
370
-1
  6
ByLayer
 10
1.6757000000000002
 20
1.2550000000000001
 30
0.0
 11
1.6686000000000001
 21
1.2550000000000001
 31
0.0
  0
LINE
  5
360
100
AcDbEntity
100
AcDbLine
  8
BLACK
 62
256
370
-1
  6
ByLayer
 10
1.6686000000000001
 20
1.2550000000000001
 30
0.0
 11
1.6629
 21
1.2536
 31
0.0
  0
LINE
  5
361
100
AcDbEntity
100
AcDbLine
  8
BLACK
 62
256
370
-1
  6
ByLayer
 10
1.6629
 20
1.2536
 30
0.0
 11
1.6600000000000001
 21
1.2521
 31
0.0
  0
LINE
  5
362
100
AcDbEntity
100
AcDbLine
  8
BLACK
 62
256
370
-1
  6
ByLayer
 10
1.6600000000000001
 20
1.2521
 30
0.0
 11
1.6586000000000001
 21
1.2507000000000001
 31
0.0
  0
LINE
  5
363
100
AcDbEntity
100
AcDbLine
  8
BLACK
 62
256
370
-1
  6
ByLayer
 10
1.6586000000000001
 20
1.2507000000000001
 30
0.0
 11
1.6571
 21
1.2478
 31
0.0
  0
LINE
  5
364
100
AcDbEntity
100
AcDbLine
  8
BLACK
 62
256
370
-1
  6
ByLayer
 10
1.6843000000000001
 20
1.2250000000000001
 30
0.0
 11
1.6857
 21
1.2235
 31
0.0
  0
LINE
  5
365
100
AcDbEntity
100
AcDbLine
  8
BLACK
 62
256
370
-1
  6
ByLayer
 10
1.6857
 20
1.2235
 30
0.0
 11
1.6871
 21
1.2250000000000001
 31
0.0
  0
LINE
  5
366
100
AcDbEntity
100
AcDbLine
  8
BLACK
 62
256
370
-1
  6
ByLayer
 10
1.6871
 20
1.2250000000000001
 30
0.0
 11
1.6857
 21
1.2264000000000002
 31
0.0
  0
LINE
  5
367
100
AcDbEntity
100
AcDbLine
  8
BLACK
 62
256
370
-1
  6
ByLayer
 10
1.6857
 20
1.2264000000000002
 30
0.0
 11
1.6843000000000001
 21
1.2250000000000001
 31
0.0
  0
LINE
  5
368
100
AcDbEntity
100
AcDbLine
  8
BLACK
 62
256
370
-1
  6
ByLayer
 10
1.6843000000000001
 20
1.2250000000000001
 30
0.0
 11
1.6871
 21
1.2250000000000001
 31
0.0
  0
LINE
  5
369
100
AcDbEntity
100
AcDbLine
  8
BLACK
 62
256
370
-1
  6
ByLayer
 10
1.6871
 20
1.1949000000000001
 30
0.0
 11
1.6871
 21
1.2121
 31
0.0
  0
LINE
  5
36A
100
AcDbEntity
100
AcDbLine
  8
BLACK
 62
256
370
-1
  6
ByLayer
 10
1.6871
 20
1.2035
 30
0.0
 11
1.6571
 21
1.2035
 31
0.0
  0
LINE
  5
36B
100
AcDbEntity
100
AcDbLine
  8
BLACK
 62
256
370
-1
  6
ByLayer
 10
1.6571
 20
1.2035
 30
0.0
 11
1.6614
 21
1.2064000000000001
 31
0.0
  0
LINE
  5
36C
100
AcDbEntity
100
AcDbLine
  8
BLACK
 62
256
370
-1
  6
ByLayer
 10
1.6614
 20
1.2064000000000001
 30
0.0
 11
1.6643000000000001
 21
1.2092000000000001
 31
0.0
  0
LINE
  5
36D
100
AcDbEntity
100
AcDbLine
  8
BLACK
 62
256
370
-1
  6
ByLayer
 10
1.6643000000000001
 20
1.2092000000000001
 30
0.0
 11
1.6657000000000002
 21
1.2121
 31
0.0
  0
LINE
  5
36E
100
AcDbEntity
100
AcDbLine
  8
BLACK
 62
256
370
-1
  6
ByLayer
 10
2.6871
 20
1.0550000000000002
 30
0.0
 11
2.6729000000000003
 21
1.0649999999999999
 31
0.0
  0
LINE
  5
36F
100
AcDbEntity
100
AcDbLine
  8
BLACK
 62
256
370
-1
  6
ByLayer
 10
2.6871
 20
1.0722
 30
0.0
 11
2.6571000000000002
 21
1.0722
 31
0.0
  0
LINE
  5
370
100
AcDbEntity
100
AcDbLine
  8
BLACK
 62
256
370
-1
  6
ByLayer
 10
2.6571000000000002
 20
1.0722
 30
0.0
 11
2.6571000000000002
 21
1.0607
 31
0.0
  0
LINE
  5
371
100
AcDbEntity
100
AcDbLine
  8
BLACK
 62
256
370
-1
  6
ByLayer
 10
2.6571000000000002
 20
1.0607
 30
0.0
 11
2.6586000000000003
 21
1.0579000000000001
 31
0.0
  0
LINE
  5
372
100
AcDbEntity
100
AcDbLine
  8
BLACK
 62
256
370
-1
  6
ByLayer
 10
2.6586000000000003
 20
1.0579000000000001
 30
0.0
 11
2.6600000000000001
 21
1.0564
 31
0.0
  0
LINE
  5
373
100
AcDbEntity
100
AcDbLine
  8
BLACK
 62
256
370
-1
  6
ByLayer
 10
2.6600000000000001
 20
1.0564
 30
0.0
 11
2.6629
 21
1.0550000000000002
 31
0.0
  0
LINE
  5
374
100
AcDbEntity
100
AcDbLine
  8
BLACK
 62
256
370
-1
  6
ByLayer
 10
2.6629
 20
1.0550000000000002
 30
0.0
 11
2.6671
 21
1.0550000000000002
 31
0.0
  0
LINE
  5
375
100
AcDbEntity
100
AcDbLine
  8
BLACK
 62
256
370
-1
  6
ByLayer
 10
2.6671
 20
1.0550000000000002
 30
0.0
 11
2.6699999999999999
 21
1.0564
 31
0.0
  0
LINE
  5
376
100
AcDbEntity
100
AcDbLine
  8
BLACK
 62
256
370
-1
  6
ByLayer
 10
2.6699999999999999
 20
1.0564
 30
0.0
 11
2.6714000000000002
 21
1.0579000000000001
 31
0.0
  0
LINE
  5
377
100
AcDbEntity
100
AcDbLine
  8
BLACK
 62
256
370
-1
  6
ByLayer
 10
2.6714000000000002
 20
1.0579000000000001
 30
0.0
 11
2.6729000000000003
 21
1.0607
 31
0.0
  0
LINE
  5
378
100
AcDbEntity
100
AcDbLine
  8
BLACK
 62
256
370
-1
  6
ByLayer
 10
2.6729000000000003
 20
1.0607
 30
0.0
 11
2.6729000000000003
 21
1.0722
 31
0.0
  0
LINE
  5
379
100
AcDbEntity
100
AcDbLine
  8
BLACK
 62
256
370
-1
  6
ByLayer
 10
2.6571000000000002
 20
1.0450000000000002
 30
0.0
 11
2.6571000000000002
 21
1.0264
 31
0.0
  0
LINE
  5
37A
100
AcDbEntity
100
AcDbLine
  8
BLACK
 62
256
370
-1
  6
ByLayer
 10
2.6571000000000002
 20
1.0264
 30
0.0
 11
2.6686000000000001
 21
1.0364
 31
0.0
  0
LINE
  5
37B
100
AcDbEntity
100
AcDbLine
  8
BLACK
 62
256
370
-1
  6
ByLayer
 10
2.6686000000000001
 20
1.0364
 30
0.0
 11
2.6686000000000001
 21
1.0322
 31
0.0
  0
LINE
  5
37C
100
AcDbEntity
100
AcDbLine
  8
BLACK
 62
256
370
-1
  6
ByLayer
 10
2.6686000000000001
 20
1.0322
 30
0.0
 11
2.6699999999999999
 21
1.0293000000000001
 31
0.0
  0
LINE
  5
37D
100
AcDbEntity
100
AcDbLine
  8
BLACK
 62
256
370
-1
  6
ByLayer
 10
2.6699999999999999
 20
1.0293000000000001
 30
0.0
 11
2.6714000000000002
 21
1.0279
 31
0.0
  0
LINE
  5
37E
100
AcDbEntity
100
AcDbLine
  8
BLACK
 62
256
370
-1
  6
ByLayer
 10
2.6714000000000002
 20
1.0279
 30
0.0
 11
2.6743000000000001
 21
1.0264
 31
0.0
  0
LINE
  5
37F
100
AcDbEntity
100
AcDbLine
  8
BLACK
 62
256
370
-1
  6
ByLayer
 10
2.6743000000000001
 20
1.0264
 30
0.0
 11
2.6814
 21
1.0264
 31
0.0
  0
LINE
  5
380
100
AcDbEntity
100
AcDbLine
  8
BLACK
 62
256
370
-1
  6
ByLayer
 10
2.6814
 20
1.0264
 30
0.0
 11
2.6842999999999999
 21
1.0279
 31
0.0
  0
LINE
  5
381
100
AcDbEntity
100
AcDbLine
  8
BLACK
 62
256
370
-1
  6
ByLayer
 10
2.6842999999999999
 20
1.0279
 30
0.0
 11
2.6857000000000002
 21
1.0293000000000001
 31
0.0
  0
LINE
  5
382
100
AcDbEntity
100
AcDbLine
  8
BLACK
 62
256
370
-1
  6
ByLayer
 10
2.6857000000000002
 20
1.0293000000000001
 30
0.0
 11
2.6871
 21
1.0322
 31
0.0
  0
LINE
  5
383
100
AcDbEntity
100
AcDbLine
  8
BLACK
 62
256
370
-1
  6
ByLayer
 10
2.6871
 20
1.0322
 30
0.0
 11
2.6871
 21
1.0407
 31
0.0
  0
LINE
  5
384
100
AcDbEntity
100
AcDbLine
  8
BLACK
 62
256
370
-1
  6
ByLayer
 10
2.6871
 20
1.0407
 30
0.0
 11
2.6857000000000002
 21
1.0436000000000001
 31
0.0
  0
LINE
  5
385
100
AcDbEntity
100
AcDbLine
  8
BLACK
 62
256
370
-1
  6
ByLayer
 10
2.6857000000000002
 20
1.0436000000000001
 30
0.0
 11
2.6842999999999999
 21
1.0450000000000002
 31
0.0
  0
LINE
  5
386
100
AcDbEntity
100
AcDbLine
  8
BLACK
 62
256
370
-1
  6
ByLayer
 10
2.9071000000000002
 20
1.0728
 30
0.0
 11
2.9071000000000002
 21
1.0700000000000001
 31
0.0
  0
LINE
  5
387
100
AcDbEntity
100
AcDbLine
  8
BLACK
 62
256
370
-1
  6
ByLayer
 10
2.9071000000000002
 20
1.0700000000000001
 30
0.0
 11
2.9086000000000003
 21
1.0671000000000002
 31
0.0
  0
LINE
  5
388
100
AcDbEntity
100
AcDbLine
  8
BLACK
 62
256
370
-1
  6
ByLayer
 10
2.9086000000000003
 20
1.0671000000000002
 30
0.0
 11
2.9100000000000001
 21
1.0657000000000001
 31
0.0
  0
LINE
  5
389
100
AcDbEntity
100
AcDbLine
  8
BLACK
 62
256
370
-1
  6
ByLayer
 10
2.9100000000000001
 20
1.0657000000000001
 30
0.0
 11
2.9129
 21
1.0643
 31
0.0
  0
LINE
  5
38A
100
AcDbEntity
100
AcDbLine
  8
BLACK
 62
256
370
-1
  6
ByLayer
 10
2.9129
 20
1.0643
 30
0.0
 11
2.9186000000000001
 21
1.0628
 31
0.0
  0
LINE
  5
38B
100
AcDbEntity
100
AcDbLine
  8
BLACK
 62
256
370
-1
  6
ByLayer
 10
2.9186000000000001
 20
1.0628
 30
0.0
 11
2.9257
 21
1.0628
 31
0.0
  0
LINE
  5
38C
100
AcDbEntity
100
AcDbLine
  8
BLACK
 62
256
370
-1
  6
ByLayer
 10
2.9257
 20
1.0628
 30
0.0
 11
2.9314
 21
1.0643
 31
0.0
  0
LINE
  5
38D
100
AcDbEntity
100
AcDbLine
  8
BLACK
 62
256
370
-1
  6
ByLayer
 10
2.9314
 20
1.0643
 30
0.0
 11
2.9343000000000004
 21
1.0657000000000001
 31
0.0
  0
LINE
  5
38E
100
AcDbEntity
100
AcDbLine
  8
BLACK
 62
256
370
-1
  6
ByLayer
 10
2.9343000000000004
 20
1.0657000000000001
 30
0.0
 11
2.9357000000000002
 21
1.0671000000000002
 31
0.0
  0
LINE
  5
38F
100
AcDbEntity
100
AcDbLine
  8
BLACK
 62
256
370
-1
  6
ByLayer
 10
2.9357000000000002
 20
1.0671000000000002
 30
0.0
 11
2.9371
 21
1.0700000000000001
 31
0.0
  0
LINE
  5
390
100
AcDbEntity
100
AcDbLine
  8
BLACK
 62
256
370
-1
  6
ByLayer
 10
2.9371
 20
1.0700000000000001
 30
0.0
 11
2.9371
 21
1.0728
 31
0.0
  0
LINE
  5
391
100
AcDbEntity
100
AcDbLine
  8
BLACK
 62
256
370
-1
  6
ByLayer
 10
2.9371
 20
1.0728
 30
0.0
 11
2.9357000000000002
 21
1.0757000000000001
 31
0.0
  0
LINE
  5
392
100
AcDbEntity
100
AcDbLine
  8
BLACK
 62
256
370
-1
  6
ByLayer
 10
2.9357000000000002
 20
1.0757000000000001
 30
0.0
 11
2.9343000000000004
 21
1.0770999999999999
 31
0.0
  0
LINE
  5
393
100
AcDbEntity
100
AcDbLine
  8
BLACK
 62
256
370
-1
  6
ByLayer
 10
2.9343000000000004
 20
1.0770999999999999
 30
0.0
 11
2.9314
 21
1.0786
 31
0.0
  0
LINE
  5
394
100
AcDbEntity
100
AcDbLine
  8
BLACK
 62
256
370
-1
  6
ByLayer
 10
2.9314
 20
1.0786
 30
0.0
 11
2.9257
 21
1.0800000000000001
 31
0.0
  0
LINE
  5
395
100
AcDbEntity
100
AcDbLine
  8
BLACK
 62
256
370
-1
  6
ByLayer
 10
2.9257
 20
1.0800000000000001
 30
0.0
 11
2.9186000000000001
 21
1.0800000000000001
 31
0.0
  0
LINE
  5
396
100
AcDbEntity
100
AcDbLine
  8
BLACK
 62
256
370
-1
  6
ByLayer
 10
2.9186000000000001
 20
1.0800000000000001
 30
0.0
 11
2.9129
 21
1.0786
 31
0.0
  0
LINE
  5
397
100
AcDbEntity
100
AcDbLine
  8
BLACK
 62
256
370
-1
  6
ByLayer
 10
2.9129
 20
1.0786
 30
0.0
 11
2.9100000000000001
 21
1.0770999999999999
 31
0.0
  0
LINE
  5
398
100
AcDbEntity
100
AcDbLine
  8
BLACK
 62
256
370
-1
  6
ByLayer
 10
2.9100000000000001
 20
1.0770999999999999
 30
0.0
 11
2.9086000000000003
 21
1.0757000000000001
 31
0.0
  0
LINE
  5
399
100
AcDbEntity
100
AcDbLine
  8
BLACK
 62
256
370
-1
  6
ByLayer
 10
2.9086000000000003
 20
1.0757000000000001
 30
0.0
 11
2.9071000000000002
 21
1.0728
 31
0.0
  0
LINE
  5
39A
100
AcDbEntity
100
AcDbLine
  8
BLACK
 62
256
370
-1
  6
ByLayer
 10
2.9343000000000004
 20
1.05
 30
0.0
 11
2.9357000000000002
 21
1.0485
 31
0.0
  0
LINE
  5
39B
100
AcDbEntity
100
AcDbLine
  8
BLACK
 62
256
370
-1
  6
ByLayer
 10
2.9357000000000002
 20
1.0485
 30
0.0
 11
2.9371
 21
1.05
 31
0.0
  0
LINE
  5
39C
100
AcDbEntity
100
AcDbLine
  8
BLACK
 62
256
370
-1
  6
ByLayer
 10
2.9371
 20
1.05
 30
0.0
 11
2.9357000000000002
 21
1.0514000000000001
 31
0.0
  0
LINE
  5
39D
100
AcDbEntity
100
AcDbLine
  8
BLACK
 62
256
370
-1
  6
ByLayer
 10
2.9357000000000002
 20
1.0514000000000001
 30
0.0
 11
2.9343000000000004
 21
1.05
 31
0.0
  0
LINE
  5
39E
100
AcDbEntity
100
AcDbLine
  8
BLACK
 62
256
370
-1
  6
ByLayer
 10
2.9343000000000004
 20
1.05
 30
0.0
 11
2.9371
 21
1.05
 31
0.0
  0
LINE
  5
39F
100
AcDbEntity
100
AcDbLine
  8
BLACK
 62
256
370
-1
  6
ByLayer
 10
2.9371
 20
1.0199
 30
0.0
 11
2.9371
 21
1.0371000000000001
 31
0.0
  0
LINE
  5
3A0
100
AcDbEntity
100
AcDbLine
  8
BLACK
 62
256
370
-1
  6
ByLayer
 10
2.9371
 20
1.0285
 30
0.0
 11
2.9071000000000002
 21
1.0285
 31
0.0
  0
LINE
  5
3A1
100
AcDbEntity
100
AcDbLine
  8
BLACK
 62
256
370
-1
  6
ByLayer
 10
2.9071000000000002
 20
1.0285
 30
0.0
 11
2.9114
 21
1.0314000000000001
 31
0.0
  0
LINE
  5
3A2
100
AcDbEntity
100
AcDbLine
  8
BLACK
 62
256
370
-1
  6
ByLayer
 10
2.9114
 20
1.0314000000000001
 30
0.0
 11
2.9143000000000003
 21
1.0342
 31
0.0
  0
LINE
  5
3A3
100
AcDbEntity
100
AcDbLine
  8
BLACK
 62
256
370
-1
  6
ByLayer
 10
2.9143000000000003
 20
1.0342
 30
0.0
 11
2.9157000000000002
 21
1.0371000000000001
 31
0.0
  0
LINE
  5
3A4
100
AcDbEntity
100
AcDbLine
  8
BLACK
 62
256
370
-1
  6
ByLayer
 10
2.6871
 20
1.23
 30
0.0
 11
2.6729000000000003
 21
1.24
 31
0.0
  0
LINE
  5
3A5
100
AcDbEntity
100
AcDbLine
  8
BLACK
 62
256
370
-1
  6
ByLayer
 10
2.6871
 20
1.2472000000000001
 30
0.0
 11
2.6571000000000002
 21
1.2472000000000001
 31
0.0
  0
LINE
  5
3A6
100
AcDbEntity
100
AcDbLine
  8
BLACK
 62
256
370
-1
  6
ByLayer
 10
2.6571000000000002
 20
1.2472000000000001
 30
0.0
 11
2.6571000000000002
 21
1.2357
 31
0.0
  0
LINE
  5
3A7
100
AcDbEntity
100
AcDbLine
  8
BLACK
 62
256
370
-1
  6
ByLayer
 10
2.6571000000000002
 20
1.2357
 30
0.0
 11
2.6586000000000003
 21
1.2329000000000001
 31
0.0
  0
LINE
  5
3A8
100
AcDbEntity
100
AcDbLine
  8
BLACK
 62
256
370
-1
  6
ByLayer
 10
2.6586000000000003
 20
1.2329000000000001
 30
0.0
 11
2.6600000000000001
 21
1.2314000000000001
 31
0.0
  0
LINE
  5
3A9
100
AcDbEntity
100
AcDbLine
  8
BLACK
 62
256
370
-1
  6
ByLayer
 10
2.6600000000000001
 20
1.2314000000000001
 30
0.0
 11
2.6629
 21
1.23
 31
0.0
  0
LINE
  5
3AA
100
AcDbEntity
100
AcDbLine
  8
BLACK
 62
256
370
-1
  6
ByLayer
 10
2.6629
 20
1.23
 30
0.0
 11
2.6671
 21
1.23
 31
0.0
  0
LINE
  5
3AB
100
AcDbEntity
100
AcDbLine
  8
BLACK
 62
256
370
-1
  6
ByLayer
 10
2.6671
 20
1.23
 30
0.0
 11
2.6699999999999999
 21
1.2314000000000001
 31
0.0
  0
LINE
  5
3AC
100
AcDbEntity
100
AcDbLine
  8
BLACK
 62
256
370
-1
  6
ByLayer
 10
2.6699999999999999
 20
1.2314000000000001
 30
0.0
 11
2.6714000000000002
 21
1.2329000000000001
 31
0.0
  0
LINE
  5
3AD
100
AcDbEntity
100
AcDbLine
  8
BLACK
 62
256
370
-1
  6
ByLayer
 10
2.6714000000000002
 20
1.2329000000000001
 30
0.0
 11
2.6729000000000003
 21
1.2357
 31
0.0
  0
LINE
  5
3AE
100
AcDbEntity
100
AcDbLine
  8
BLACK
 62
256
370
-1
  6
ByLayer
 10
2.6729000000000003
 20
1.2357
 30
0.0
 11
2.6729000000000003
 21
1.2472000000000001
 31
0.0
  0
LINE
  5
3AF
100
AcDbEntity
100
AcDbLine
  8
BLACK
 62
256
370
-1
  6
ByLayer
 10
2.6671
 20
1.2043000000000001
 30
0.0
 11
2.6871
 21
1.2043000000000001
 31
0.0
  0
LINE
  5
3B0
100
AcDbEntity
100
AcDbLine
  8
BLACK
 62
256
370
-1
  6
ByLayer
 10
2.6556999999999999
 20
1.2114
 30
0.0
 11
2.6771000000000003
 21
1.2186000000000001
 31
0.0
  0
LINE
  5
3B1
100
AcDbEntity
100
AcDbLine
  8
BLACK
 62
256
370
-1
  6
ByLayer
 10
2.6771000000000003
 20
1.2186000000000001
 30
0.0
 11
2.6771000000000003
 21
1.2
 31
0.0
  0
LINE
  5
3B2
100
AcDbEntity
100
AcDbLine
  8
BLACK
 62
256
370
-1
  6
ByLayer
 10
2.9071000000000002
 20
1.2478
 30
0.0
 11
2.9071000000000002
 21
1.2450000000000001
 31
0.0
  0
LINE
  5
3B3
100
AcDbEntity
100
AcDbLine
  8
BLACK
 62
256
370
-1
  6
ByLayer
 10
2.9071000000000002
 20
1.2450000000000001
 30
0.0
 11
2.9086000000000003
 21
1.2421
 31
0.0
  0
LINE
  5
3B4
100
AcDbEntity
100
AcDbLine
  8
BLACK
 62
256
370
-1
  6
ByLayer
 10
2.9086000000000003
 20
1.2421
 30
0.0
 11
2.9100000000000001
 21
1.2407000000000001
 31
0.0
  0
LINE
  5
3B5
100
AcDbEntity
100
AcDbLine
  8
BLACK
 62
256
370
-1
  6
ByLayer
 10
2.9100000000000001
 20
1.2407000000000001
 30
0.0
 11
2.9129
 21
1.2393000000000001
 31
0.0
  0
LINE
  5
3B6
100
AcDbEntity
100
AcDbLine
  8
BLACK
 62
256
370
-1
  6
ByLayer
 10
2.9129
 20
1.2393000000000001
 30
0.0
 11
2.9186000000000001
 21
1.2378
 31
0.0
  0
LINE
  5
3B7
100
AcDbEntity
100
AcDbLine
  8
BLACK
 62
256
370
-1
  6
ByLayer
 10
2.9186000000000001
 20
1.2378
 30
0.0
 11
2.9257
 21
1.2378
 31
0.0
  0
LINE
  5
3B8
100
AcDbEntity
100
AcDbLine
  8
BLACK
 62
256
370
-1
  6
ByLayer
 10
2.9257
 20
1.2378
 30
0.0
 11
2.9314
 21
1.2393000000000001
 31
0.0
  0
LINE
  5
3B9
100
AcDbEntity
100
AcDbLine
  8
BLACK
 62
256
370
-1
  6
ByLayer
 10
2.9314
 20
1.2393000000000001
 30
0.0
 11
2.9343000000000004
 21
1.2407000000000001
 31
0.0
  0
LINE
  5
3BA
100
AcDbEntity
100
AcDbLine
  8
BLACK
 62
256
370
-1
  6
ByLayer
 10
2.9343000000000004
 20
1.2407000000000001
 30
0.0
 11
2.9357000000000002
 21
1.2421
 31
0.0
  0
LINE
  5
3BB
100
AcDbEntity
100
AcDbLine
  8
BLACK
 62
256
370
-1
  6
ByLayer
 10
2.9357000000000002
 20
1.2421
 30
0.0
 11
2.9371
 21
1.2450000000000001
 31
0.0
  0
LINE
  5
3BC
100
AcDbEntity
100
AcDbLine
  8
BLACK
 62
256
370
-1
  6
ByLayer
 10
2.9371
 20
1.2450000000000001
 30
0.0
 11
2.9371
 21
1.2478
 31
0.0
  0
LINE
  5
3BD
100
AcDbEntity
100
AcDbLine
  8
BLACK
 62
256
370
-1
  6
ByLayer
 10
2.9371
 20
1.2478
 30
0.0
 11
2.9357000000000002
 21
1.2507000000000001
 31
0.0
  0
LINE
  5
3BE
100
AcDbEntity
100
AcDbLine
  8
BLACK
 62
256
370
-1
  6
ByLayer
 10
2.9357000000000002
 20
1.2507000000000001
 30
0.0
 11
2.9343000000000004
 21
1.2521
 31
0.0
  0
LINE
  5
3BF
100
AcDbEntity
100
AcDbLine
  8
BLACK
 62
256
370
-1
  6
ByLayer
 10
2.9343000000000004
 20
1.2521
 30
0.0
 11
2.9314
 21
1.2536
 31
0.0
  0
LINE
  5
3C0
100
AcDbEntity
100
AcDbLine
  8
BLACK
 62
256
370
-1
  6
ByLayer
 10
2.9314
 20
1.2536
 30
0.0
 11
2.9257
 21
1.2550000000000001
 31
0.0
  0
LINE
  5
3C1
100
AcDbEntity
100
AcDbLine
  8
BLACK
 62
256
370
-1
  6
ByLayer
 10
2.9257
 20
1.2550000000000001
 30
0.0
 11
2.9186000000000001
 21
1.2550000000000001
 31
0.0
  0
LINE
  5
3C2
100
AcDbEntity
100
AcDbLine
  8
BLACK
 62
256
370
-1
  6
ByLayer
 10
2.9186000000000001
 20
1.2550000000000001
 30
0.0
 11
2.9129
 21
1.2536
 31
0.0
  0
LINE
  5
3C3
100
AcDbEntity
100
AcDbLine
  8
BLACK
 62
256
370
-1
  6
ByLayer
 10
2.9129
 20
1.2536
 30
0.0
 11
2.9100000000000001
 21
1.2521
 31
0.0
  0
LINE
  5
3C4
100
AcDbEntity
100
AcDbLine
  8
BLACK
 62
256
370
-1
  6
ByLayer
 10
2.9100000000000001
 20
1.2521
 30
0.0
 11
2.9086000000000003
 21
1.2507000000000001
 31
0.0
  0
LINE
  5
3C5
100
AcDbEntity
100
AcDbLine
  8
BLACK
 62
256
370
-1
  6
ByLayer
 10
2.9086000000000003
 20
1.2507000000000001
 30
0.0
 11
2.9071000000000002
 21
1.2478
 31
0.0
  0
LINE
  5
3C6
100
AcDbEntity
100
AcDbLine
  8
BLACK
 62
256
370
-1
  6
ByLayer
 10
2.9343000000000004
 20
1.2250000000000001
 30
0.0
 11
2.9357000000000002
 21
1.2235
 31
0.0
  0
LINE
  5
3C7
100
AcDbEntity
100
AcDbLine
  8
BLACK
 62
256
370
-1
  6
ByLayer
 10
2.9357000000000002
 20
1.2235
 30
0.0
 11
2.9371
 21
1.2250000000000001
 31
0.0
  0
LINE
  5
3C8
100
AcDbEntity
100
AcDbLine
  8
BLACK
 62
256
370
-1
  6
ByLayer
 10
2.9371
 20
1.2250000000000001
 30
0.0
 11
2.9357000000000002
 21
1.2264000000000002
 31
0.0
  0
LINE
  5
3C9
100
AcDbEntity
100
AcDbLine
  8
BLACK
 62
256
370
-1
  6
ByLayer
 10
2.9357000000000002
 20
1.2264000000000002
 30
0.0
 11
2.9343000000000004
 21
1.2250000000000001
 31
0.0
  0
LINE
  5
3CA
100
AcDbEntity
100
AcDbLine
  8
BLACK
 62
256
370
-1
  6
ByLayer
 10
2.9343000000000004
 20
1.2250000000000001
 30
0.0
 11
2.9371
 21
1.2250000000000001
 31
0.0
  0
LINE
  5
3CB
100
AcDbEntity
100
AcDbLine
  8
BLACK
 62
256
370
-1
  6
ByLayer
 10
2.9371
 20
1.1949000000000001
 30
0.0
 11
2.9371
 21
1.2121
 31
0.0
  0
LINE
  5
3CC
100
AcDbEntity
100
AcDbLine
  8
BLACK
 62
256
370
-1
  6
ByLayer
 10
2.9371
 20
1.2035
 30
0.0
 11
2.9071000000000002
 21
1.2035
 31
0.0
  0
LINE
  5
3CD
100
AcDbEntity
100
AcDbLine
  8
BLACK
 62
256
370
-1
  6
ByLayer
 10
2.9071000000000002
 20
1.2035
 30
0.0
 11
2.9114
 21
1.2064000000000001
 31
0.0
  0
LINE
  5
3CE
100
AcDbEntity
100
AcDbLine
  8
BLACK
 62
256
370
-1
  6
ByLayer
 10
2.9114
 20
1.2064000000000001
 30
0.0
 11
2.9143000000000003
 21
1.2092000000000001
 31
0.0
  0
LINE
  5
3CF
100
AcDbEntity
100
AcDbLine
  8
BLACK
 62
256
370
-1
  6
ByLayer
 10
2.9143000000000003
 20
1.2092000000000001
 30
0.0
 11
2.9157000000000002
 21
1.2121
 31
0.0
  0
LINE
  5
3D0
100
AcDbEntity
100
AcDbLine
  8
BLACK
 62
256
370
-1
  6
ByLayer
 10
1.9343000000000001
 20
1.3800000000000001
 30
0.0
 11
1.9357000000000002
 21
1.3814
 31
0.0
  0
LINE
  5
3D1
100
AcDbEntity
100
AcDbLine
  8
BLACK
 62
256
370
-1
  6
ByLayer
 10
1.9357000000000002
 20
1.3814
 30
0.0
 11
1.9371
 21
1.3857000000000002
 31
0.0
  0
LINE
  5
3D2
100
AcDbEntity
100
AcDbLine
  8
BLACK
 62
256
370
-1
  6
ByLayer
 10
1.9371
 20
1.3857000000000002
 30
0.0
 11
1.9371
 21
1.3886000000000001
 31
0.0
  0
LINE
  5
3D3
100
AcDbEntity
100
AcDbLine
  8
BLACK
 62
256
370
-1
  6
ByLayer
 10
1.9371
 20
1.3886000000000001
 30
0.0
 11
1.9357000000000002
 21
1.3929
 31
0.0
  0
LINE
  5
3D4
100
AcDbEntity
100
AcDbLine
  8
BLACK
 62
256
370
-1
  6
ByLayer
 10
1.9357000000000002
 20
1.3929
 30
0.0
 11
1.9329000000000001
 21
1.3957000000000002
 31
0.0
  0
LINE
  5
3D5
100
AcDbEntity
100
AcDbLine
  8
BLACK
 62
256
370
-1
  6
ByLayer
 10
1.9329000000000001
 20
1.3957000000000002
 30
0.0
 11
1.9300000000000002
 21
1.3972
 31
0.0
  0
LINE
  5
3D6
100
AcDbEntity
100
AcDbLine
  8
BLACK
 62
256
370
-1
  6
ByLayer
 10
1.9300000000000002
 20
1.3972
 30
0.0
 11
1.9243000000000001
 21
1.3986000000000001
 31
0.0
  0
LINE
  5
3D7
100
AcDbEntity
100
AcDbLine
  8
BLACK
 62
256
370
-1
  6
ByLayer
 10
1.9243000000000001
 20
1.3986000000000001
 30
0.0
 11
1.9200000000000002
 21
1.3986000000000001
 31
0.0
  0
LINE
  5
3D8
100
AcDbEntity
100
AcDbLine
  8
BLACK
 62
256
370
-1
  6
ByLayer
 10
1.9200000000000002
 20
1.3986000000000001
 30
0.0
 11
1.9143000000000001
 21
1.3972
 31
0.0
  0
LINE
  5
3D9
100
AcDbEntity
100
AcDbLine
  8
BLACK
 62
256
370
-1
  6
ByLayer
 10
1.9143000000000001
 20
1.3972
 30
0.0
 11
1.9114
 21
1.3957000000000002
 31
0.0
  0
LINE
  5
3DA
100
AcDbEntity
100
AcDbLine
  8
BLACK
 62
256
370
-1
  6
ByLayer
 10
1.9114
 20
1.3957000000000002
 30
0.0
 11
1.9086000000000001
 21
1.3929
 31
0.0
  0
LINE
  5
3DB
100
AcDbEntity
100
AcDbLine
  8
BLACK
 62
256
370
-1
  6
ByLayer
 10
1.9086000000000001
 20
1.3929
 30
0.0
 11
1.9071
 21
1.3886000000000001
 31
0.0
  0
LINE
  5
3DC
100
AcDbEntity
100
AcDbLine
  8
BLACK
 62
256
370
-1
  6
ByLayer
 10
1.9071
 20
1.3886000000000001
 30
0.0
 11
1.9071
 21
1.3857000000000002
 31
0.0
  0
LINE
  5
3DD
100
AcDbEntity
100
AcDbLine
  8
BLACK
 62
256
370
-1
  6
ByLayer
 10
1.9071
 20
1.3857000000000002
 30
0.0
 11
1.9086000000000001
 21
1.3814
 31
0.0
  0
LINE
  5
3DE
100
AcDbEntity
100
AcDbLine
  8
BLACK
 62
256
370
-1
  6
ByLayer
 10
1.9086000000000001
 20
1.3814
 30
0.0
 11
1.9100000000000001
 21
1.3800000000000001
 31
0.0
  0
LINE
  5
3DF
100
AcDbEntity
100
AcDbLine
  8
BLACK
 62
256
370
-1
  6
ByLayer
 10
1.9100000000000001
 20
1.3686
 30
0.0
 11
1.9086000000000001
 21
1.3672
 31
0.0
  0
LINE
  5
3E0
100
AcDbEntity
100
AcDbLine
  8
BLACK
 62
256
370
-1
  6
ByLayer
 10
1.9086000000000001
 20
1.3672
 30
0.0
 11
1.9071
 21
1.3643000000000001
 31
0.0
  0
LINE
  5
3E1
100
AcDbEntity
100
AcDbLine
  8
BLACK
 62
256
370
-1
  6
ByLayer
 10
1.9071
 20
1.3643000000000001
 30
0.0
 11
1.9071
 21
1.3572
 31
0.0
  0
LINE
  5
3E2
100
AcDbEntity
100
AcDbLine
  8
BLACK
 62
256
370
-1
  6
ByLayer
 10
1.9071
 20
1.3572
 30
0.0
 11
1.9086000000000001
 21
1.3543000000000001
 31
0.0
  0
LINE
  5
3E3
100
AcDbEntity
100
AcDbLine
  8
BLACK
 62
256
370
-1
  6
ByLayer
 10
1.9086000000000001
 20
1.3543000000000001
 30
0.0
 11
1.9100000000000001
 21
1.3529
 31
0.0
  0
LINE
  5
3E4
100
AcDbEntity
100
AcDbLine
  8
BLACK
 62
256
370
-1
  6
ByLayer
 10
1.9100000000000001
 20
1.3529
 30
0.0
 11
1.9129
 21
1.3514000000000002
 31
0.0
  0
LINE
  5
3E5
100
AcDbEntity
100
AcDbLine
  8
BLACK
 62
256
370
-1
  6
ByLayer
 10
1.9129
 20
1.3514000000000002
 30
0.0
 11
1.9157000000000002
 21
1.3514000000000002
 31
0.0
  0
LINE
  5
3E6
100
AcDbEntity
100
AcDbLine
  8
BLACK
 62
256
370
-1
  6
ByLayer
 10
1.9157000000000002
 20
1.3514000000000002
 30
0.0
 11
1.9200000000000002
 21
1.3529
 31
0.0
  0
LINE
  5
3E7
100
AcDbEntity
100
AcDbLine
  8
BLACK
 62
256
370
-1
  6
ByLayer
 10
1.9200000000000002
 20
1.3529
 30
0.0
 11
1.9371
 21
1.3700000000000001
 31
0.0
  0
LINE
  5
3E8
100
AcDbEntity
100
AcDbLine
  8
BLACK
 62
256
370
-1
  6
ByLayer
 10
1.9371
 20
1.3700000000000001
 30
0.0
 11
1.9371
 21
1.3514000000000002
 31
0.0
  0
LINE
  5
3E9
100
AcDbEntity
100
AcDbLine
  8
BLACK
 62
256
370
-1
  6
ByLayer
 10
1.6871
 20
1.4142000000000001
 30
0.0
 11
1.6871
 21
1.4314
 31
0.0
  0
LINE
  5
3EA
100
AcDbEntity
100
AcDbLine
  8
BLACK
 62
256
370
-1
  6
ByLayer
 10
1.6871
 20
1.4228000000000001
 30
0.0
 11
1.6571
 21
1.4228000000000001
 31
0.0
  0
LINE
  5
3EB
100
AcDbEntity
100
AcDbLine
  8
BLACK
 62
256
370
-1
  6
ByLayer
 10
1.6571
 20
1.4228000000000001
 30
0.0
 11
1.6614
 21
1.4257
 31
0.0
  0
LINE
  5
3EC
100
AcDbEntity
100
AcDbLine
  8
BLACK
 62
256
370
-1
  6
ByLayer
 10
1.6614
 20
1.4257
 30
0.0
 11
1.6643000000000001
 21
1.4285000000000001
 31
0.0
  0
LINE
  5
3ED
100
AcDbEntity
100
AcDbLine
  8
BLACK
 62
256
370
-1
  6
ByLayer
 10
1.6643000000000001
 20
1.4285000000000001
 30
0.0
 11
1.6657000000000002
 21
1.4314
 31
0.0
  0
LINE
  5
3EE
100
AcDbEntity
100
AcDbLine
  8
BLACK
 62
256
370
-1
  6
ByLayer
 10
1.6843000000000001
 20
1.4014
 30
0.0
 11
1.6857
 21
1.3999000000000001
 31
0.0
  0
LINE
  5
3EF
100
AcDbEntity
100
AcDbLine
  8
BLACK
 62
256
370
-1
  6
ByLayer
 10
1.6857
 20
1.3999000000000001
 30
0.0
 11
1.6871
 21
1.4014
 31
0.0
  0
LINE
  5
3F0
100
AcDbEntity
100
AcDbLine
  8
BLACK
 62
256
370
-1
  6
ByLayer
 10
1.6871
 20
1.4014
 30
0.0
 11
1.6857
 21
1.4028
 31
0.0
  0
LINE
  5
3F1
100
AcDbEntity
100
AcDbLine
  8
BLACK
 62
256
370
-1
  6
ByLayer
 10
1.6857
 20
1.4028
 30
0.0
 11
1.6843000000000001
 21
1.4014
 31
0.0
  0
LINE
  5
3F2
100
AcDbEntity
100
AcDbLine
  8
BLACK
 62
256
370
-1
  6
ByLayer
 10
1.6843000000000001
 20
1.4014
 30
0.0
 11
1.6871
 21
1.4014
 31
0.0
  0
LINE
  5
3F3
100
AcDbEntity
100
AcDbLine
  8
BLACK
 62
256
370
-1
  6
ByLayer
 10
1.6571
 20
1.3728
 30
0.0
 11
1.6571
 21
1.3871
 31
0.0
  0
LINE
  5
3F4
100
AcDbEntity
100
AcDbLine
  8
BLACK
 62
256
370
-1
  6
ByLayer
 10
1.6571
 20
1.3871
 30
0.0
 11
1.6714
 21
1.3885000000000001
 31
0.0
  0
LINE
  5
3F5
100
AcDbEntity
100
AcDbLine
  8
BLACK
 62
256
370
-1
  6
ByLayer
 10
1.6714
 20
1.3885000000000001
 30
0.0
 11
1.6700000000000002
 21
1.3871
 31
0.0
  0
LINE
  5
3F6
100
AcDbEntity
100
AcDbLine
  8
BLACK
 62
256
370
-1
  6
ByLayer
 10
1.6700000000000002
 20
1.3871
 30
0.0
 11
1.6686000000000001
 21
1.3842000000000001
 31
0.0
  0
LINE
  5
3F7
100
AcDbEntity
100
AcDbLine
  8
BLACK
 62
256
370
-1
  6
ByLayer
 10
1.6686000000000001
 20
1.3842000000000001
 30
0.0
 11
1.6686000000000001
 21
1.3771
 31
0.0
  0
LINE
  5
3F8
100
AcDbEntity
100
AcDbLine
  8
BLACK
 62
256
370
-1
  6
ByLayer
 10
1.6686000000000001
 20
1.3771
 30
0.0
 11
1.6700000000000002
 21
1.3742000000000001
 31
0.0
  0
LINE
  5
3F9
100
AcDbEntity
100
AcDbLine
  8
BLACK
 62
256
370
-1
  6
ByLayer
 10
1.6700000000000002
 20
1.3742000000000001
 30
0.0
 11
1.6714
 21
1.3728
 31
0.0
  0
LINE
  5
3FA
100
AcDbEntity
100
AcDbLine
  8
BLACK
 62
256
370
-1
  6
ByLayer
 10
1.6714
 20
1.3728
 30
0.0
 11
1.6743000000000001
 21
1.3713
 31
0.0
  0
LINE
  5
3FB
100
AcDbEntity
100
AcDbLine
  8
BLACK
 62
256
370
-1
  6
ByLayer
 10
1.6743000000000001
 20
1.3713
 30
0.0
 11
1.6814
 21
1.3713
 31
0.0
  0
LINE
  5
3FC
100
AcDbEntity
100
AcDbLine
  8
BLACK
 62
256
370
-1
  6
ByLayer
 10
1.6814
 20
1.3713
 30
0.0
 11
1.6843000000000001
 21
1.3728
 31
0.0
  0
LINE
  5
3FD
100
AcDbEntity
100
AcDbLine
  8
BLACK
 62
256
370
-1
  6
ByLayer
 10
1.6843000000000001
 20
1.3728
 30
0.0
 11
1.6857
 21
1.3742000000000001
 31
0.0
  0
LINE
  5
3FE
100
AcDbEntity
100
AcDbLine
  8
BLACK
 62
256
370
-1
  6
ByLayer
 10
1.6857
 20
1.3742000000000001
 30
0.0
 11
1.6871
 21
1.3771
 31
0.0
  0
LINE
  5
3FF
100
AcDbEntity
100
AcDbLine
  8
BLACK
 62
256
370
-1
  6
ByLayer
 10
1.6871
 20
1.3771
 30
0.0
 11
1.6871
 21
1.3842000000000001
 31
0.0
  0
LINE
  5
400
100
AcDbEntity
100
AcDbLine
  8
BLACK
 62
256
370
-1
  6
ByLayer
 10
1.6871
 20
1.3842000000000001
 30
0.0
 11
1.6857
 21
1.3871
 31
0.0
  0
LINE
  5
401
100
AcDbEntity
100
AcDbLine
  8
BLACK
 62
256
370
-1
  6
ByLayer
 10
1.6857
 20
1.3871
 30
0.0
 11
1.6843000000000001
 21
1.3885000000000001
 31
0.0
  0
LINE
  5
402
100
AcDbEntity
100
AcDbLine
  8
BLACK
 62
256
370
-1
  6
ByLayer
 10
1.6671
 20
1.3456000000000001
 30
0.0
 11
1.6871
 21
1.3456000000000001
 31
0.0
  0
LINE
  5
403
100
AcDbEntity
100
AcDbLine
  8
BLACK
 62
256
370
-1
  6
ByLayer
 10
1.6671
 20
1.3585
 30
0.0
 11
1.6829000000000001
 21
1.3585
 31
0.0
  0
LINE
  5
404
100
AcDbEntity
100
AcDbLine
  8
BLACK
 62
256
370
-1
  6
ByLayer
 10
1.6829000000000001
 20
1.3585
 30
0.0
 11
1.6857
 21
1.357
 31
0.0
  0
LINE
  5
405
100
AcDbEntity
100
AcDbLine
  8
BLACK
 62
256
370
-1
  6
ByLayer
 10
1.6857
 20
1.357
 30
0.0
 11
1.6871
 21
1.3542000000000001
 31
0.0
  0
LINE
  5
406
100
AcDbEntity
100
AcDbLine
  8
BLACK
 62
256
370
-1
  6
ByLayer
 10
1.6871
 20
1.3542000000000001
 30
0.0
 11
1.6871
 21
1.3499000000000001
 31
0.0
  0
LINE
  5
407
100
AcDbEntity
100
AcDbLine
  8
BLACK
 62
256
370
-1
  6
ByLayer
 10
1.6871
 20
1.3499000000000001
 30
0.0
 11
1.6857
 21
1.347
 31
0.0
  0
LINE
  5
408
100
AcDbEntity
100
AcDbLine
  8
BLACK
 62
256
370
-1
  6
ByLayer
 10
1.6857
 20
1.347
 30
0.0
 11
1.6843000000000001
 21
1.3456000000000001
 31
0.0
  0
LINE
  5
409
100
AcDbEntity
100
AcDbLine
  8
BLACK
 62
256
370
-1
  6
ByLayer
 10
1.6714
 20
1.3214000000000001
 30
0.0
 11
1.6714
 21
1.3314000000000001
 31
0.0
  0
LINE
  5
40A
100
AcDbEntity
100
AcDbLine
  8
BLACK
 62
256
370
-1
  6
ByLayer
 10
1.6871
 20
1.3314000000000001
 30
0.0
 11
1.6571
 21
1.3314000000000001
 31
0.0
  0
LINE
  5
40B
100
AcDbEntity
100
AcDbLine
  8
BLACK
 62
256
370
-1
  6
ByLayer
 10
1.6571
 20
1.3314000000000001
 30
0.0
 11
1.6571
 21
1.3171000000000002
 31
0.0
  0
ENDSEC
  0
SECTION
  2
OBJECTS
  0
DICTIONARY
  5
C
100
AcDbDictionary
280
0
281
1
  3
ACAD_GROUP
350
D
  3
ACAD_LAYOUT
350
1A
  3
ACAD_MLINESTYLE
350
17
  3
ACAD_PLOTSETTINGS
350
19
  3
ACAD_PLOTSTYLENAME
350
E
  3
AcDbVariableDictionary
350
40C
  0
DICTIONARY
  5
D
100
AcDbDictionary
280
0
281
1
  0
ACDBDICTIONARYWDFLT
  5
E
100
AcDbDictionary
281
1
  3
Normal
350
F
100
AcDbDictionaryWithDefault
340
F
  0
ACDBPLACEHOLDER
  5
F
  0
DICTIONARY
  5
17
100
AcDbDictionary
280
0
281
1
  3
Standard
350
18
  0
MLINESTYLE
  5
18
100
AcDbMlineStyle
  2
STANDARD
 70
0
  3

 62
256
 51
90.0
 52
90.0
 71
2
 49
0.5
 62
256
  6
BYLAYER
 49
-0.5
 62
256
  6
BYLAYER
  0
DICTIONARY
  5
19
100
AcDbDictionary
280
0
281
1
  0
DICTIONARY
  5
1A
100
AcDbDictionary
281
1
  3
Layout1
350
1E
  3
Layout2
350
26
  3
Model
350
22
  0
LAYOUT
  5
1E
100
AcDbPlotSettings
  1

  2
C:\Program Files\AutoCAD 2002\plotters\DWF ePlot (optimized for plotting).pc3
  4

  6

 40
0.0
 41
0.0
 42
0.0
 43
0.0
 44
0.0
 45
0.0
 46
0.0
 47
0.0
 48
0.0
 49
0.0
140
0.0
141
0.0
142
1.0
143
1.0
 70
688
 72
0
 73
0
 74
5
  7

 75
16
147
1.0
148
0.0
149
0.0
100
AcDbLayout
  1
Layout1
 70
1
 71
1
 10
0.0
 20
0.0
 11
420.0
 21
297.0
 12
0.0
 22
0.0
 32
0.0
 14
100000000000000000000.0
 24
100000000000000000000.0
 34
100000000000000000000.0
 15
-100000000000000000000.0
 25
-100000000000000000000.0
 35
-100000000000000000000.0
146
0.0
 13
0.0
 23
0.0
 33
0.0
 16
1.0
 26
0.0
 36
0.0
 17
0.0
 27
1.0
 37
0.0
 76
0
330
1B
  0
LAYOUT
  5
22
100
AcDbPlotSettings
  1

  2
C:\Program Files\AutoCAD 2002\plotters\DWF ePlot (optimized for plotting).pc3
  4

  6

 40
0.0
 41
0.0
 42
0.0
 43
0.0
 44
0.0
 45
0.0
 46
0.0
 47
0.0
 48
0.0
 49
0.0
140
0.0
141
0.0
142
1.0
143
1.0
 70
1712
 72
0
 73
0
 74
0
  7

 75
0
147
1.0
148
0.0
149
0.0
100
AcDbLayout
  1
Model
 70
1
 71
0
 10
0.0
 20
0.0
 11
12.0
 21
9.0
 12
0.0
 22
0.0
 32
0.0
 14
0.0
 24
0.0
 34
0.0
 15
0.0
 25
0.0
 35
0.0
146
0.0
 13
0.0
 23
0.0
 33
0.0
 16
1.0
 26
0.0
 36
0.0
 17
0.0
 27
1.0
 37
0.0
 76
0
330
1F
  0
LAYOUT
  5
26
100
AcDbPlotSettings
  1

  2
C:\Program Files\AutoCAD 2002\plotters\DWF ePlot (optimized for plotting).pc3
  4

  6

 40
0.0
 41
0.0
 42
0.0
 43
0.0
 44
0.0
 45
0.0
 46
0.0
 47
0.0
 48
0.0
 49
0.0
140
0.0
141
0.0
142
1.0
143
1.0
 70
688
 72
0
 73
0
 74
5
  7

 75
16
147
1.0
148
0.0
149
0.0
100
AcDbLayout
  1
Layout2
 70
1
 71
2
 10
0.0
 20
0.0
 11
12.0
 21
9.0
 12
0.0
 22
0.0
 32
0.0
 14
0.0
 24
0.0
 34
0.0
 15
0.0
 25
0.0
 35
0.0
146
0.0
 13
0.0
 23
0.0
 33
0.0
 16
1.0
 26
0.0
 36
0.0
 17
0.0
 27
1.0
 37
0.0
 76
0
330
23
  0
DICTIONARY
  5
40C
100
AcDbDictionary
281
1
  3
DIMASSOC
350
40E
  3
HIDETEXT
350
40D
  0
DICTIONARYVAR
  5
40D
100
DictionaryVariables
280
0
  1
2
  0
DICTIONARYVAR
  5
40E
100
DictionaryVariables
280
0
  1
1
  0
ENDSEC
  0
EOF
