0
SECTION
2
HEADER
9
$ANGBASE
50
0.0
9
$ANGDIR
70
0
0
ENDSEC
0
SECTION
2
TABLES
0
TABLE
2
LTYPE
70
1
0
LTYPE
2
CONTINUOUS
70
0
3
Solid line
72
65
73
0
40
0.0
0
ENDTAB
0
TABLE
2
LAYER
70
24
0
LAYER
2
BLACK
70
0
62
1
6
CONTINUOUS
0
LAYER
2
BLUE
70
0
62
2
6
CONTINUOUS
0
LAYER
2
GREEN
70
0
62
3
6
CONTINUOUS
0
LAYER
2
CYAN
70
0
62
4
6
CONTINUOUS
0
LAYER
2
RED
70
0
62
5
6
CONTINUOUS
0
LAYER
2
MAGENTA
70
0
62
6
6
CONTINUOUS
0
LAYER
2
BROWN
70
0
62
7
6
CONTINUOUS
0
LAYER
2
GRAY
70
0
62
8
6
CONTINUOUS
0
LAYER
2
DARKGRAY
70
0
62
9
6
CONTINUOUS
0
LAYER
2
LIGHTBLUE
70
0
62
10
6
CONTINUOUS
0
LAYER
2
LIGHTGREEN
70
0
62
11
6
CONTINUOUS
0
LAYER
2
LIGHTCYAN
70
0
62
12
6
CONTINUOUS
0
LAYER
2
LIGHTRED
70
0
62
13
6
CONTINUOUS
0
LAYER
2
LIGHTMAGENTA
70
0
62
14
6
CONTINUOUS
0
LAYER
2
YELLOW
70
0
62
15
6
CONTINUOUS
0
LAYER
2
WHITE
70
0
62
16
6
CONTINUOUS
0
LAYER
2
DARKDARKGRAY
70
0
62
17
6
CONTINUOUS
0
LAYER
2
DARKBLUE
70
0
62
18
6
CONTINUOUS
0
LAYER
2
DARKGREEN
70
0
62
19
6
CONTINUOUS
0
LAYER
2
DARKCYAN
70
0
62
20
6
CONTINUOUS
0
LAYER
2
DARKRED
70
0
62
21
6
CONTINUOUS
0
LAYER
2
DARKMAGENTA
70
0
62
22
6
CONTINUOUS
0
LAYER
2
DARKBROWN
70
0
62
23
6
CONTINUOUS
0
LAYER
2
LIGHTYELLOW
70
0
62
24
6
CONTINUOUS
0
ENDTAB
0
ENDSEC
0
SECTION
2
ENTITIES
0
LINE
8
BLACK
10
63357.0
20
43075.0
11
63643.0
21
43075.0
0
LINE
8
BLACK
10
63300.0
20
42846.0
11
63500.0
21
43646.0
0
LINE
8
BLACK
10
63500.0
20
43646.0
11
63700.0
21
42846.0
0
LINE
8
BLACK
10
63900.0
20
42846.0
11
63900.0
21
43380.0
0
LINE
8
BLACK
10
63900.0
20
43227.0
11
63928.0
21
43303.0
0
LINE
8
BLACK
10
63928.0
20
43303.0
11
63957.0
21
43341.0
0
LINE
8
BLACK
10
63957.0
20
43341.0
11
64014.0
21
43380.0
0
LINE
8
BLACK
10
64014.0
20
43380.0
11
64071.0
21
43380.0
0
LINE
8
BLACK
10
64528.0
20
42846.0
11
64528.0
21
43646.0
0
LINE
8
BLACK
10
64528.0
20
42884.0
11
64471.0
21
42846.0
0
LINE
8
BLACK
10
64471.0
20
42846.0
11
64357.0
21
42846.0
0
LINE
8
BLACK
10
64357.0
20
42846.0
11
64299.0
21
42884.0
0
LINE
8
BLACK
10
64299.0
20
42884.0
11
64271.0
21
42922.0
0
LINE
8
BLACK
10
64271.0
20
42922.0
11
64242.0
21
42999.0
0
LINE
8
BLACK
10
64242.0
20
42999.0
11
64242.0
21
43227.0
0
LINE
8
BLACK
10
64242.0
20
43227.0
11
64271.0
21
43303.0
0
LINE
8
BLACK
10
64271.0
20
43303.0
11
64299.0
21
43341.0
0
LINE
8
BLACK
10
64299.0
20
43341.0
11
64357.0
21
43380.0
0
LINE
8
BLACK
10
64357.0
20
43380.0
11
64471.0
21
43380.0
0
LINE
8
BLACK
10
64471.0
20
43380.0
11
64528.0
21
43341.0
0
LINE
8
BLACK
10
65071.0
20
43380.0
11
65071.0
21
42846.0
0
LINE
8
BLACK
10
64814.0
20
43380.0
11
64814.0
21
42960.0
0
LINE
8
BLACK
10
64814.0
20
42960.0
11
64842.0
21
42884.0
0
LINE
8
BLACK
10
64842.0
20
42884.0
11
64900.0
21
42846.0
0
LINE
8
BLACK
10
64900.0
20
42846.0
11
64985.0
21
42846.0
0
LINE
8
BLACK
10
64985.0
20
42846.0
11
65042.0
21
42884.0
0
LINE
8
BLACK
10
65042.0
20
42884.0
11
65071.0
21
42922.0
0
LINE
8
BLACK
10
65357.0
20
42846.0
11
65357.0
21
43380.0
0
LINE
8
BLACK
10
65357.0
20
43646.0
11
65328.0
21
43608.0
0
LINE
8
BLACK
10
65328.0
20
43608.0
11
65357.0
21
43570.0
0
LINE
8
BLACK
10
65357.0
20
43570.0
11
65385.0
21
43608.0
0
LINE
8
BLACK
10
65385.0
20
43608.0
11
65357.0
21
43646.0
0
LINE
8
BLACK
10
65357.0
20
43646.0
11
65357.0
21
43570.0
0
LINE
8
BLACK
10
65643.0
20
43380.0
11
65643.0
21
42846.0
0
LINE
8
BLACK
10
65643.0
20
43303.0
11
65671.0
21
43341.0
0
LINE
8
BLACK
10
65671.0
20
43341.0
11
65729.0
21
43380.0
0
LINE
8
BLACK
10
65729.0
20
43380.0
11
65814.0
21
43380.0
0
LINE
8
BLACK
10
65814.0
20
43380.0
11
65871.0
21
43341.0
0
LINE
8
BLACK
10
65871.0
20
43341.0
11
65900.0
21
43265.0
0
LINE
8
BLACK
10
65900.0
20
43265.0
11
65900.0
21
42846.0
0
LINE
8
BLACK
10
66272.0
20
42846.0
11
66214.0
21
42884.0
0
LINE
8
BLACK
10
66214.0
20
42884.0
11
66186.0
21
42922.0
0
LINE
8
BLACK
10
66186.0
20
42922.0
11
66157.0
21
42999.0
0
LINE
8
BLACK
10
66157.0
20
42999.0
11
66157.0
21
43227.0
0
LINE
8
BLACK
10
66157.0
20
43227.0
11
66186.0
21
43303.0
0
LINE
8
BLACK
10
66186.0
20
43303.0
11
66214.0
21
43341.0
0
LINE
8
BLACK
10
66214.0
20
43341.0
11
66272.0
21
43380.0
0
LINE
8
BLACK
10
66272.0
20
43380.0
11
66357.0
21
43380.0
0
LINE
8
BLACK
10
66357.0
20
43380.0
11
66414.0
21
43341.0
0
LINE
8
BLACK
10
66414.0
20
43341.0
11
66443.0
21
43303.0
0
LINE
8
BLACK
10
66443.0
20
43303.0
11
66472.0
21
43227.0
0
LINE
8
BLACK
10
66472.0
20
43227.0
11
66472.0
21
42999.0
0
LINE
8
BLACK
10
66472.0
20
42999.0
11
66443.0
21
42922.0
0
LINE
8
BLACK
10
66443.0
20
42922.0
11
66414.0
21
42884.0
0
LINE
8
BLACK
10
66414.0
20
42884.0
11
66357.0
21
42846.0
0
LINE
8
BLACK
10
66357.0
20
42846.0
11
66272.0
21
42846.0
0
LINE
8
BLACK
10
67186.0
20
42846.0
11
67186.0
21
43646.0
0
LINE
8
BLACK
10
67186.0
20
43646.0
11
67329.0
21
43646.0
0
LINE
8
BLACK
10
67329.0
20
43646.0
11
67414.0
21
43608.0
0
LINE
8
BLACK
10
67414.0
20
43608.0
11
67472.0
21
43532.0
0
LINE
8
BLACK
10
67472.0
20
43532.0
11
67500.0
21
43456.0
0
LINE
8
BLACK
10
67500.0
20
43456.0
11
67529.0
21
43303.0
0
LINE
8
BLACK
10
67529.0
20
43303.0
11
67529.0
21
43189.0
0
LINE
8
BLACK
10
67529.0
20
43189.0
11
67500.0
21
43037.0
0
LINE
8
BLACK
10
67500.0
20
43037.0
11
67472.0
21
42960.0
0
LINE
8
BLACK
10
67472.0
20
42960.0
11
67414.0
21
42884.0
0
LINE
8
BLACK
10
67414.0
20
42884.0
11
67329.0
21
42846.0
0
LINE
8
BLACK
10
67329.0
20
42846.0
11
67186.0
21
42846.0
0
LINE
8
BLACK
10
67757.0
20
43075.0
11
68043.0
21
43075.0
0
LINE
8
BLACK
10
67700.0
20
42846.0
11
67900.0
21
43646.0
0
LINE
8
BLACK
10
67900.0
20
43646.0
11
68100.0
21
42846.0
0
LINE
8
BLACK
10
68643.0
20
42922.0
11
68614.0
21
42884.0
0
LINE
8
BLACK
10
68614.0
20
42884.0
11
68528.0
21
42846.0
0
LINE
8
BLACK
10
68528.0
20
42846.0
11
68471.0
21
42846.0
0
LINE
8
BLACK
10
68471.0
20
42846.0
11
68386.0
21
42884.0
0
LINE
8
BLACK
10
68386.0
20
42884.0
11
68328.0
21
42960.0
0
LINE
8
BLACK
10
68328.0
20
42960.0
11
68300.0
21
43037.0
0
LINE
8
BLACK
10
68300.0
20
43037.0
11
68271.0
21
43189.0
0
LINE
8
BLACK
10
68271.0
20
43189.0
11
68271.0
21
43303.0
0
LINE
8
BLACK
10
68271.0
20
43303.0
11
68300.0
21
43456.0
0
LINE
8
BLACK
10
68300.0
20
43456.0
11
68328.0
21
43532.0
0
LINE
8
BLACK
10
68328.0
20
43532.0
11
68386.0
21
43608.0
0
LINE
8
BLACK
10
68386.0
20
43608.0
11
68471.0
21
43646.0
0
LINE
8
BLACK
10
68471.0
20
43646.0
11
68528.0
21
43646.0
0
LINE
8
BLACK
10
68528.0
20
43646.0
11
68614.0
21
43608.0
0
LINE
8
BLACK
10
68614.0
20
43608.0
11
68643.0
21
43570.0
0
LINE
8
BLACK
10
64144.0
20
40646.0
11
64258.0
21
40646.0
0
LINE
8
BLACK
10
64258.0
20
40646.0
11
64316.0
21
40608.0
0
LINE
8
BLACK
10
64316.0
20
40608.0
11
64373.0
21
40532.0
0
LINE
8
BLACK
10
64373.0
20
40532.0
11
64401.0
21
40380.0
0
LINE
8
BLACK
10
64401.0
20
40380.0
11
64401.0
21
40113.0
0
LINE
8
BLACK
10
64401.0
20
40113.0
11
64373.0
21
39960.0
0
LINE
8
BLACK
10
64373.0
20
39960.0
11
64316.0
21
39884.0
0
LINE
8
BLACK
10
64316.0
20
39884.0
11
64258.0
21
39846.0
0
LINE
8
BLACK
10
64258.0
20
39846.0
11
64144.0
21
39846.0
0
LINE
8
BLACK
10
64144.0
20
39846.0
11
64087.0
21
39884.0
0
LINE
8
BLACK
10
64087.0
20
39884.0
11
64030.0
21
39960.0
0
LINE
8
BLACK
10
64030.0
20
39960.0
11
64001.0
21
40113.0
0
LINE
8
BLACK
10
64001.0
20
40113.0
11
64001.0
21
40380.0
0
LINE
8
BLACK
10
64001.0
20
40380.0
11
64030.0
21
40532.0
0
LINE
8
BLACK
10
64030.0
20
40532.0
11
64087.0
21
40608.0
0
LINE
8
BLACK
10
64087.0
20
40608.0
11
64144.0
21
40646.0
0
LINE
8
BLACK
10
64916.0
20
39884.0
11
64859.0
21
39846.0
0
LINE
8
BLACK
10
64859.0
20
39846.0
11
64745.0
21
39846.0
0
LINE
8
BLACK
10
64745.0
20
39846.0
11
64687.0
21
39884.0
0
LINE
8
BLACK
10
64687.0
20
39884.0
11
64659.0
21
39922.0
0
LINE
8
BLACK
10
64659.0
20
39922.0
11
64630.0
21
39999.0
0
LINE
8
BLACK
10
64630.0
20
39999.0
11
64630.0
21
40227.0
0
LINE
8
BLACK
10
64630.0
20
40227.0
11
64659.0
21
40303.0
0
LINE
8
BLACK
10
64659.0
20
40303.0
11
64687.0
21
40341.0
0
LINE
8
BLACK
10
64687.0
20
40341.0
11
64745.0
21
40380.0
0
LINE
8
BLACK
10
64745.0
20
40380.0
11
64859.0
21
40380.0
0
LINE
8
BLACK
10
64859.0
20
40380.0
11
64916.0
21
40341.0
0
LINE
8
BLACK
10
65087.0
20
40380.0
11
65316.0
21
40380.0
0
LINE
8
BLACK
10
65173.0
20
40646.0
11
65173.0
21
39960.0
0
LINE
8
BLACK
10
65173.0
20
39960.0
11
65201.0
21
39884.0
0
LINE
8
BLACK
10
65201.0
20
39884.0
11
65259.0
21
39846.0
0
LINE
8
BLACK
10
65259.0
20
39846.0
11
65316.0
21
39846.0
0
LINE
8
BLACK
10
65944.0
20
40570.0
11
65973.0
21
40608.0
0
LINE
8
BLACK
10
65973.0
20
40608.0
11
66030.0
21
40646.0
0
LINE
8
BLACK
10
66030.0
20
40646.0
11
66173.0
21
40646.0
0
LINE
8
BLACK
10
66173.0
20
40646.0
11
66230.0
21
40608.0
0
LINE
8
BLACK
10
66230.0
20
40608.0
11
66259.0
21
40570.0
0
LINE
8
BLACK
10
66259.0
20
40570.0
11
66287.0
21
40494.0
0
LINE
8
BLACK
10
66287.0
20
40494.0
11
66287.0
21
40418.0
0
LINE
8
BLACK
10
66287.0
20
40418.0
11
66259.0
21
40303.0
0
LINE
8
BLACK
10
66259.0
20
40303.0
11
65916.0
21
39846.0
0
LINE
8
BLACK
10
65916.0
20
39846.0
11
66287.0
21
39846.0
0
LINE
8
BLACK
10
66658.0
20
40646.0
11
66715.0
21
40646.0
0
LINE
8
BLACK
10
66715.0
20
40646.0
11
66772.0
21
40608.0
0
LINE
8
BLACK
10
66772.0
20
40608.0
11
66801.0
21
40570.0
0
LINE
8
BLACK
10
66801.0
20
40570.0
11
66830.0
21
40494.0
0
LINE
8
BLACK
10
66830.0
20
40494.0
11
66858.0
21
40341.0
0
LINE
8
BLACK
10
66858.0
20
40341.0
11
66858.0
21
40151.0
0
LINE
8
BLACK
10
66858.0
20
40151.0
11
66830.0
21
39999.0
0
LINE
8
BLACK
10
66830.0
20
39999.0
11
66801.0
21
39922.0
0
LINE
8
BLACK
10
66801.0
20
39922.0
11
66772.0
21
39884.0
0
LINE
8
BLACK
10
66772.0
20
39884.0
11
66715.0
21
39846.0
0
LINE
8
BLACK
10
66715.0
20
39846.0
11
66658.0
21
39846.0
0
LINE
8
BLACK
10
66658.0
20
39846.0
11
66601.0
21
39884.0
0
LINE
8
BLACK
10
66601.0
20
39884.0
11
66572.0
21
39922.0
0
LINE
8
BLACK
10
66572.0
20
39922.0
11
66544.0
21
39999.0
0
LINE
8
BLACK
10
66544.0
20
39999.0
11
66515.0
21
40151.0
0
LINE
8
BLACK
10
66515.0
20
40151.0
11
66515.0
21
40341.0
0
LINE
8
BLACK
10
66515.0
20
40341.0
11
66544.0
21
40494.0
0
LINE
8
BLACK
10
66544.0
20
40494.0
11
66572.0
21
40570.0
0
LINE
8
BLACK
10
66572.0
20
40570.0
11
66601.0
21
40608.0
0
LINE
8
BLACK
10
66601.0
20
40608.0
11
66658.0
21
40646.0
0
LINE
8
BLACK
10
67429.0
20
39846.0
11
67086.0
21
39846.0
0
LINE
8
BLACK
10
67258.0
20
39846.0
11
67258.0
21
40646.0
0
LINE
8
BLACK
10
67258.0
20
40646.0
11
67201.0
21
40532.0
0
LINE
8
BLACK
10
67201.0
20
40532.0
11
67143.0
21
40456.0
0
LINE
8
BLACK
10
67143.0
20
40456.0
11
67086.0
21
40418.0
0
LINE
8
BLACK
10
67629.0
20
40646.0
11
68000.0
21
40646.0
0
LINE
8
BLACK
10
68000.0
20
40646.0
11
67800.0
21
40341.0
0
LINE
8
BLACK
10
67800.0
20
40341.0
11
67886.0
21
40341.0
0
LINE
8
BLACK
10
67886.0
20
40341.0
11
67943.0
21
40303.0
0
LINE
8
BLACK
10
67943.0
20
40303.0
11
67972.0
21
40265.0
0
LINE
8
BLACK
10
67972.0
20
40265.0
11
68000.0
21
40189.0
0
LINE
8
BLACK
10
68000.0
20
40189.0
11
68000.0
21
39999.0
0
LINE
8
BLACK
10
68000.0
20
39999.0
11
67972.0
21
39922.0
0
LINE
8
BLACK
10
67972.0
20
39922.0
11
67943.0
21
39884.0
0
LINE
8
BLACK
10
67943.0
20
39884.0
11
67886.0
21
39846.0
0
LINE
8
BLACK
10
67886.0
20
39846.0
11
67714.0
21
39846.0
0
LINE
8
BLACK
10
67714.0
20
39846.0
11
67657.0
21
39884.0
0
LINE
8
BLACK
10
67657.0
20
39884.0
11
67629.0
21
39922.0
0
LINE
8
BLACK
10
64515.0
20
42146.0
11
64715.0
21
41346.0
0
LINE
8
BLACK
10
64715.0
20
41346.0
11
64915.0
21
42146.0
0
LINE
8
BLACK
10
65115.0
20
41765.0
11
65315.0
21
41765.0
0
LINE
8
BLACK
10
65401.0
20
41346.0
11
65115.0
21
41346.0
0
LINE
8
BLACK
10
65115.0
20
41346.0
11
65115.0
21
42146.0
0
LINE
8
BLACK
10
65115.0
20
42146.0
11
65401.0
21
42146.0
0
LINE
8
BLACK
10
66001.0
20
41346.0
11
65801.0
21
41727.0
0
LINE
8
BLACK
10
65658.0
20
41346.0
11
65658.0
21
42146.0
0
LINE
8
BLACK
10
65658.0
20
42146.0
11
65886.0
21
42146.0
0
LINE
8
BLACK
10
65886.0
20
42146.0
11
65944.0
21
42108.0
0
LINE
8
BLACK
10
65944.0
20
42108.0
11
65972.0
21
42070.0
0
LINE
8
BLACK
10
65972.0
20
42070.0
11
66001.0
21
41994.0
0
LINE
8
BLACK
10
66001.0
20
41994.0
11
66001.0
21
41880.0
0
LINE
8
BLACK
10
66001.0
20
41880.0
11
65972.0
21
41803.0
0
LINE
8
BLACK
10
65972.0
20
41803.0
11
65944.0
21
41765.0
0
LINE
8
BLACK
10
65944.0
20
41765.0
11
65886.0
21
41727.0
0
LINE
8
BLACK
10
65886.0
20
41727.0
11
65658.0
21
41727.0
0
LINE
8
BLACK
10
66572.0
20
41346.0
11
66229.0
21
41346.0
0
LINE
8
BLACK
10
66401.0
20
41346.0
11
66401.0
21
42146.0
0
LINE
8
BLACK
10
66401.0
20
42146.0
11
66344.0
21
42032.0
0
LINE
8
BLACK
10
66344.0
20
42032.0
11
66286.0
21
41956.0
0
LINE
8
BLACK
10
66286.0
20
41956.0
11
66229.0
21
41918.0
0
LINE
8
BLACK
10
66829.0
20
41422.0
11
66857.0
21
41384.0
0
LINE
8
BLACK
10
66857.0
20
41384.0
11
66829.0
21
41346.0
0
LINE
8
BLACK
10
66829.0
20
41346.0
11
66800.0
21
41384.0
0
LINE
8
BLACK
10
66800.0
20
41384.0
11
66829.0
21
41422.0
0
LINE
8
BLACK
10
66829.0
20
41422.0
11
66829.0
21
41346.0
0
LINE
8
BLACK
10
67229.0
20
42146.0
11
67286.0
21
42146.0
0
LINE
8
BLACK
10
67286.0
20
42146.0
11
67343.0
21
42108.0
0
LINE
8
BLACK
10
67343.0
20
42108.0
11
67372.0
21
42070.0
0
LINE
8
BLACK
10
67372.0
20
42070.0
11
67401.0
21
41994.0
0
LINE
8
BLACK
10
67401.0
20
41994.0
11
67429.0
21
41841.0
0
LINE
8
BLACK
10
67429.0
20
41841.0
11
67429.0
21
41651.0
0
LINE
8
BLACK
10
67429.0
20
41651.0
11
67401.0
21
41499.0
0
LINE
8
BLACK
10
67401.0
20
41499.0
11
67372.0
21
41422.0
0
LINE
8
BLACK
10
67372.0
20
41422.0
11
67343.0
21
41384.0
0
LINE
8
BLACK
10
67343.0
20
41384.0
11
67286.0
21
41346.0
0
LINE
8
BLACK
10
67286.0
20
41346.0
11
67229.0
21
41346.0
0
LINE
8
BLACK
10
67229.0
20
41346.0
11
67172.0
21
41384.0
0
LINE
8
BLACK
10
67172.0
20
41384.0
11
67143.0
21
41422.0
0
LINE
8
BLACK
10
67143.0
20
41422.0
11
67115.0
21
41499.0
0
LINE
8
BLACK
10
67115.0
20
41499.0
11
67086.0
21
41651.0
0
LINE
8
BLACK
10
67086.0
20
41651.0
11
67086.0
21
41841.0
0
LINE
8
BLACK
10
67086.0
20
41841.0
11
67115.0
21
41994.0
0
LINE
8
BLACK
10
67115.0
20
41994.0
11
67143.0
21
42070.0
0
LINE
8
BLACK
10
67143.0
20
42070.0
11
67172.0
21
42108.0
0
LINE
8
BLACK
10
67172.0
20
42108.0
11
67229.0
21
42146.0
0
LINE
8
BLACK
10
89500.0
20
52170.0
11
49500.0
21
52170.0
0
LINE
8
BLACK
10
89500.0
20
31170.0
11
89500.0
21
52170.0
0
LINE
8
BLACK
10
49500.0
20
31170.0
11
89500.0
21
31170.0
0
LINE
8
BLACK
10
49500.0
20
52170.0
11
49500.0
21
31170.0
0
LINE
8
BLACK
10
89500.0
20
44420.0
11
89500.0
21
38920.0
0
LINE
8
BLACK
10
89500.0
20
38920.0
11
83750.0
21
38920.0
0
LINE
8
BLACK
10
83750.0
20
38920.0
11
83750.0
21
44420.0
0
LINE
8
BLACK
10
83750.0
20
44420.0
11
89500.0
21
44420.0
0
CIRCLE
8
BLACK
10
71000.0
20
34170.0
40
750
0
CIRCLE
8
BLACK
10
71000.0
20
45170.0
40
750
0
LINE
8
BLACK
10
69500.0
20
40670.0
11
71500.0
21
40670.0
0
LINE
8
BLACK
10
71500.0
20
40670.0
11
71500.0
21
43670.0
0
LINE
8
BLACK
10
71500.0
20
43670.0
11
69500.0
21
43670.0
0
LINE
8
BLACK
10
69500.0
20
43670.0
11
69500.0
21
40670.0
0
LINE
8
BLACK
10
50750.0
20
48420.0
11
50750.0
21
50170.0
0
LINE
8
BLACK
10
51750.0
20
50420.0
11
53750.0
21
50420.0
0
LINE
8
BLACK
10
53750.0
20
50420.0
11
53750.0
21
48420.0
0
LINE
8
BLACK
10
53750.0
20
48420.0
11
50750.0
21
48420.0
0
CIRCLE
8
BLACK
10
74250.0
20
42170.0
40
1250
0
LINE
8
BLACK
10
42500.0
20
43670.0
11
42500.0
21
48670.0
0
LINE
8
BLACK
10
42500.0
20
48670.0
11
48750.0
21
48670.0
0
LINE
8
BLACK
10
48750.0
20
48670.0
11
48750.0
21
43670.0
0
LINE
8
BLACK
10
48750.0
20
43670.0
11
42500.0
21
43670.0
0
LINE
8
BLACK
10
71000.0
20
31420.0
11
71000.0
21
31170.0
0
LINE
8
BLACK
10
71500.0
20
32670.0
11
72000.0
21
33170.0
0
LINE
8
BLACK
10
44000.0
20
32420.0
11
44000.0
21
36420.0
0
LINE
8
BLACK
10
44000.0
20
36420.0
11
49500.0
21
36420.0
0
LINE
8
BLACK
10
49500.0
20
36420.0
11
49500.0
21
32420.0
0
LINE
8
BLACK
10
49500.0
20
32420.0
11
44000.0
21
32420.0
0
LINE
8
BLACK
10
70500.0
20
52170.0
11
71000.0
21
51670.0
0
LINE
8
BLACK
10
71000.0
20
51670.0
11
71000.0
21
47170.0
0
LINE
8
BLACK
10
71000.0
20
47170.0
11
72000.0
21
46170.0
0
LINE
8
BLACK
10
72000.0
20
46170.0
11
72000.0
21
33170.0
0
LINE
8
BLACK
10
45000.0
20
31170.0
11
45000.0
21
52170.0
0
LINE
8
BLACK
10
45000.0
20
52170.0
11
83000.0
21
52170.0
0
LINE
8
BLACK
10
83000.0
20
52170.0
11
84000.0
21
51170.0
0
LINE
8
BLACK
10
84000.0
20
51170.0
11
84000.0
21
47170.0
0
LINE
8
BLACK
10
84000.0
20
47170.0
11
85000.0
21
46170.0
0
LINE
8
BLACK
10
85000.0
20
46170.0
11
85000.0
21
32670.0
0
LINE
8
BLACK
10
85000.0
20
32670.0
11
84000.0
21
31670.0
0
LINE
8
BLACK
10
84000.0
20
31670.0
11
84000.0
21
31170.0
0
LINE
8
BLACK
10
84000.0
20
31170.0
11
45000.0
21
31170.0
0
CIRCLE
8
BLACK
10
86500.0
20
36420.0
40
250
0
LINE
8
BLACK
10
86000.0
20
36920.0
11
86000.0
21
33920.0
0
LINE
8
BLACK
10
86000.0
20
33920.0
11
87500.0
21
33920.0
0
LINE
8
BLACK
10
87500.0
20
33920.0
11
87500.0
21
36920.0
0
LINE
8
BLACK
10
87500.0
20
36920.0
11
86000.0
21
36920.0
0
LINE
8
BLACK
10
60250.0
20
44670.0
11
60250.0
21
38670.0
0
LINE
8
BLACK
10
54250.0
20
44670.0
11
54250.0
21
38670.0
0
LINE
8
BLACK
10
55250.0
20
44670.0
11
55250.0
21
44970.0
0
LINE
8
BLACK
10
55250.0
20
44970.0
11
59250.0
21
44970.0
0
LINE
8
BLACK
10
59250.0
20
44970.0
11
59250.0
21
44670.0
0
LINE
8
BLACK
10
54250.0
20
40670.0
11
60250.0
21
40670.0
0
LINE
8
BLACK
10
54250.0
20
44670.0
11
60250.0
21
44670.0
0
LINE
8
BLACK
10
54250.0
20
38670.0
11
60250.0
21
38670.0
0
LINE
8
BLACK
10
80250.0
20
44670.0
11
80250.0
21
38670.0
0
LINE
8
BLACK
10
74250.0
20
44670.0
11
74250.0
21
38670.0
0
LINE
8
BLACK
10
75250.0
20
44670.0
11
75250.0
21
44970.0
0
LINE
8
BLACK
10
75250.0
20
44970.0
11
79250.0
21
44970.0
0
LINE
8
BLACK
10
79250.0
20
44970.0
11
79250.0
21
44670.0
0
LINE
8
BLACK
10
74250.0
20
40670.0
11
80250.0
21
40670.0
0
LINE
8
BLACK
10
74250.0
20
44670.0
11
80250.0
21
44670.0
0
LINE
8
BLACK
10
74250.0
20
38670.0
11
80250.0
21
38670.0
0
CIRCLE
8
BLACK
10
85250.0
20
47020.0
40
150
0
LINE
8
BLACK
10
84950.0
20
46720.0
11
88550.0
21
46720.0
0
LINE
8
BLACK
10
88550.0
20
46720.0
11
88550.0
21
48120.0
0
LINE
8
BLACK
10
88550.0
20
48120.0
11
84950.0
21
48120.0
0
LINE
8
BLACK
10
84950.0
20
48120.0
11
84950.0
21
46720.0
0
LINE
8
BLACK
10
83705.0
20
38258.0
11
83705.0
21
38658.0
0
LINE
8
BLACK
10
83705.0
20
38658.0
11
83858.0
21
38658.0
0
LINE
8
BLACK
10
83858.0
20
38658.0
11
83896.0
21
38639.0
0
LINE
8
BLACK
10
83896.0
20
38639.0
11
83915.0
21
38620.0
0
LINE
8
BLACK
10
83915.0
20
38620.0
11
83934.0
21
38582.0
0
LINE
8
BLACK
10
83934.0
20
38582.0
11
83934.0
21
38525.0
0
LINE
8
BLACK
10
83934.0
20
38525.0
11
83915.0
21
38487.0
0
LINE
8
BLACK
10
83915.0
20
38487.0
11
83896.0
21
38468.0
0
LINE
8
BLACK
10
83896.0
20
38468.0
11
83858.0
21
38449.0
0
LINE
8
BLACK
10
83858.0
20
38449.0
11
83705.0
21
38449.0
0
LINE
8
BLACK
10
84315.0
20
38258.0
11
84086.0
21
38258.0
0
LINE
8
BLACK
10
84200.0
20
38258.0
11
84200.0
21
38658.0
0
LINE
8
BLACK
10
84200.0
20
38658.0
11
84162.0
21
38601.0
0
LINE
8
BLACK
10
84162.0
20
38601.0
11
84124.0
21
38563.0
0
LINE
8
BLACK
10
84124.0
20
38563.0
11
84086.0
21
38544.0
0
LINE
8
BLACK
10
85594.0
20
44906.0
11
86051.0
21
44906.0
0
LINE
8
BLACK
10
85822.0
20
44677.0
11
85822.0
21
45134.0
0
LINE
8
BLACK
10
86651.0
20
44677.0
11
86308.0
21
44677.0
0
LINE
8
BLACK
10
86480.0
20
44677.0
11
86480.0
21
45277.0
0
LINE
8
BLACK
10
86480.0
20
45277.0
11
86423.0
21
45191.0
0
LINE
8
BLACK
10
86423.0
20
45191.0
11
86365.0
21
45134.0
0
LINE
8
BLACK
10
86365.0
20
45134.0
11
86308.0
21
45106.0
0
LINE
8
BLACK
10
86879.0
20
45220.0
11
86908.0
21
45249.0
0
LINE
8
BLACK
10
86908.0
20
45249.0
11
86965.0
21
45277.0
0
LINE
8
BLACK
10
86965.0
20
45277.0
11
87108.0
21
45277.0
0
LINE
8
BLACK
10
87108.0
20
45277.0
11
87165.0
21
45249.0
0
LINE
8
BLACK
10
87165.0
20
45249.0
11
87194.0
21
45220.0
0
LINE
8
BLACK
10
87194.0
20
45220.0
11
87222.0
21
45163.0
0
LINE
8
BLACK
10
87222.0
20
45163.0
11
87222.0
21
45106.0
0
LINE
8
BLACK
10
87222.0
20
45106.0
11
87194.0
21
45020.0
0
LINE
8
BLACK
10
87194.0
20
45020.0
11
86851.0
21
44677.0
0
LINE
8
BLACK
10
86851.0
20
44677.0
11
87222.0
21
44677.0
0
LINE
8
BLACK
10
87393.0
20
45277.0
11
87593.0
21
44677.0
0
LINE
8
BLACK
10
87593.0
20
44677.0
11
87793.0
21
45277.0
0
LINE
8
BLACK
10
87993.0
20
44677.0
11
87993.0
21
45277.0
0
LINE
8
BLACK
10
87993.0
20
45277.0
11
88136.0
21
45277.0
0
LINE
8
BLACK
10
88136.0
20
45277.0
11
88221.0
21
45249.0
0
LINE
8
BLACK
10
88221.0
20
45249.0
11
88279.0
21
45191.0
0
LINE
8
BLACK
10
88279.0
20
45191.0
11
88307.0
21
45134.0
0
LINE
8
BLACK
10
88307.0
20
45134.0
11
88336.0
21
45020.0
0
LINE
8
BLACK
10
88336.0
20
45020.0
11
88336.0
21
44934.0
0
LINE
8
BLACK
10
88336.0
20
44934.0
11
88307.0
21
44820.0
0
LINE
8
BLACK
10
88307.0
20
44820.0
11
88279.0
21
44763.0
0
LINE
8
BLACK
10
88279.0
20
44763.0
11
88221.0
21
44706.0
0
LINE
8
BLACK
10
88221.0
20
44706.0
11
88136.0
21
44677.0
0
LINE
8
BLACK
10
88136.0
20
44677.0
11
87993.0
21
44677.0
0
LINE
8
BLACK
10
88936.0
20
44734.0
11
88907.0
21
44706.0
0
LINE
8
BLACK
10
88907.0
20
44706.0
11
88821.0
21
44677.0
0
LINE
8
BLACK
10
88821.0
20
44677.0
11
88764.0
21
44677.0
0
LINE
8
BLACK
10
88764.0
20
44677.0
11
88679.0
21
44706.0
0
LINE
8
BLACK
10
88679.0
20
44706.0
11
88621.0
21
44763.0
0
LINE
8
BLACK
10
88621.0
20
44763.0
11
88593.0
21
44820.0
0
LINE
8
BLACK
10
88593.0
20
44820.0
11
88564.0
21
44934.0
0
LINE
8
BLACK
10
88564.0
20
44934.0
11
88564.0
21
45020.0
0
LINE
8
BLACK
10
88564.0
20
45020.0
11
88593.0
21
45134.0
0
LINE
8
BLACK
10
88593.0
20
45134.0
11
88621.0
21
45191.0
0
LINE
8
BLACK
10
88621.0
20
45191.0
11
88679.0
21
45249.0
0
LINE
8
BLACK
10
88679.0
20
45249.0
11
88764.0
21
45277.0
0
LINE
8
BLACK
10
88764.0
20
45277.0
11
88821.0
21
45277.0
0
LINE
8
BLACK
10
88821.0
20
45277.0
11
88907.0
21
45249.0
0
LINE
8
BLACK
10
88907.0
20
45249.0
11
88936.0
21
45220.0
0
LINE
8
BLACK
10
45743.0
20
46527.0
11
45743.0
21
46041.0
0
LINE
8
BLACK
10
45743.0
20
46041.0
11
45771.0
21
45984.0
0
LINE
8
BLACK
10
45771.0
20
45984.0
11
45800.0
21
45956.0
0
LINE
8
BLACK
10
45800.0
20
45956.0
11
45857.0
21
45927.0
0
LINE
8
BLACK
10
45857.0
20
45927.0
11
45971.0
21
45927.0
0
LINE
8
BLACK
10
45971.0
20
45927.0
11
46029.0
21
45956.0
0
LINE
8
BLACK
10
46029.0
20
45956.0
11
46057.0
21
45984.0
0
LINE
8
BLACK
10
46057.0
20
45984.0
11
46086.0
21
46041.0
0
LINE
8
BLACK
10
46086.0
20
46041.0
11
46086.0
21
46527.0
0
LINE
8
BLACK
10
46343.0
20
45956.0
11
46429.0
21
45927.0
0
LINE
8
BLACK
10
46429.0
20
45927.0
11
46572.0
21
45927.0
0
LINE
8
BLACK
10
46572.0
20
45927.0
11
46629.0
21
45956.0
0
LINE
8
BLACK
10
46629.0
20
45956.0
11
46658.0
21
45984.0
0
LINE
8
BLACK
10
46658.0
20
45984.0
11
46686.0
21
46041.0
0
LINE
8
BLACK
10
46686.0
20
46041.0
11
46686.0
21
46099.0
0
LINE
8
BLACK
10
46686.0
20
46099.0
11
46658.0
21
46156.0
0
LINE
8
BLACK
10
46658.0
20
46156.0
11
46629.0
21
46184.0
0
LINE
8
BLACK
10
46629.0
20
46184.0
11
46572.0
21
46213.0
0
LINE
8
BLACK
10
46572.0
20
46213.0
11
46458.0
21
46241.0
0
LINE
8
BLACK
10
46458.0
20
46241.0
11
46400.0
21
46270.0
0
LINE
8
BLACK
10
46400.0
20
46270.0
11
46372.0
21
46299.0
0
LINE
8
BLACK
10
46372.0
20
46299.0
11
46343.0
21
46356.0
0
LINE
8
BLACK
10
46343.0
20
46356.0
11
46343.0
21
46413.0
0
LINE
8
BLACK
10
46343.0
20
46413.0
11
46372.0
21
46470.0
0
LINE
8
BLACK
10
46372.0
20
46470.0
11
46400.0
21
46499.0
0
LINE
8
BLACK
10
46400.0
20
46499.0
11
46458.0
21
46527.0
0
LINE
8
BLACK
10
46458.0
20
46527.0
11
46600.0
21
46527.0
0
LINE
8
BLACK
10
46600.0
20
46527.0
11
46686.0
21
46499.0
0
LINE
8
BLACK
10
47143.0
20
46241.0
11
47229.0
21
46213.0
0
LINE
8
BLACK
10
47229.0
20
46213.0
11
47257.0
21
46184.0
0
LINE
8
BLACK
10
47257.0
20
46184.0
11
47286.0
21
46127.0
0
LINE
8
BLACK
10
47286.0
20
46127.0
11
47286.0
21
46041.0
0
LINE
8
BLACK
10
47286.0
20
46041.0
11
47257.0
21
45984.0
0
LINE
8
BLACK
10
47257.0
20
45984.0
11
47229.0
21
45956.0
0
LINE
8
BLACK
10
47229.0
20
45956.0
11
47171.0
21
45927.0
0
LINE
8
BLACK
10
47171.0
20
45927.0
11
46943.0
21
45927.0
0
LINE
8
BLACK
10
46943.0
20
45927.0
11
46943.0
21
46527.0
0
LINE
8
BLACK
10
46943.0
20
46527.0
11
47143.0
21
46527.0
0
LINE
8
BLACK
10
47143.0
20
46527.0
11
47200.0
21
46499.0
0
LINE
8
BLACK
10
47200.0
20
46499.0
11
47229.0
21
46470.0
0
LINE
8
BLACK
10
47229.0
20
46470.0
11
47257.0
21
46413.0
0
LINE
8
BLACK
10
47257.0
20
46413.0
11
47257.0
21
46356.0
0
LINE
8
BLACK
10
47257.0
20
46356.0
11
47229.0
21
46299.0
0
LINE
8
BLACK
10
47229.0
20
46299.0
11
47200.0
21
46270.0
0
LINE
8
BLACK
10
47200.0
20
46270.0
11
47143.0
21
46241.0
0
LINE
8
BLACK
10
47143.0
20
46241.0
11
46943.0
21
46241.0
0
LINE
8
BLACK
10
86455.0
20
37108.0
11
86455.0
21
37508.0
0
LINE
8
BLACK
10
86455.0
20
37508.0
11
86550.0
21
37508.0
0
LINE
8
BLACK
10
86550.0
20
37508.0
11
86608.0
21
37489.0
0
LINE
8
BLACK
10
86608.0
20
37489.0
11
86646.0
21
37451.0
0
LINE
8
BLACK
10
86646.0
20
37451.0
11
86665.0
21
37413.0
0
LINE
8
BLACK
10
86665.0
20
37413.0
11
86684.0
21
37337.0
0
LINE
8
BLACK
10
86684.0
20
37337.0
11
86684.0
21
37280.0
0
LINE
8
BLACK
10
86684.0
20
37280.0
11
86665.0
21
37203.0
0
LINE
8
BLACK
10
86665.0
20
37203.0
11
86646.0
21
37165.0
0
LINE
8
BLACK
10
86646.0
20
37165.0
11
86608.0
21
37127.0
0
LINE
8
BLACK
10
86608.0
20
37127.0
11
86550.0
21
37108.0
0
LINE
8
BLACK
10
86550.0
20
37108.0
11
86455.0
21
37108.0
0
LINE
8
BLACK
10
87065.0
20
37108.0
11
86836.0
21
37108.0
0
LINE
8
BLACK
10
86950.0
20
37108.0
11
86950.0
21
37508.0
0
LINE
8
BLACK
10
86950.0
20
37508.0
11
86912.0
21
37451.0
0
LINE
8
BLACK
10
86912.0
20
37451.0
11
86874.0
21
37413.0
0
LINE
8
BLACK
10
86874.0
20
37413.0
11
86836.0
21
37394.0
0
LINE
8
BLACK
10
85493.0
20
33372.0
11
85684.0
21
33372.0
0
LINE
8
BLACK
10
85455.0
20
33258.0
11
85588.0
21
33658.0
0
LINE
8
BLACK
10
85588.0
20
33658.0
11
85722.0
21
33258.0
0
LINE
8
BLACK
10
85855.0
20
33258.0
11
85855.0
21
33658.0
0
LINE
8
BLACK
10
85855.0
20
33658.0
11
85950.0
21
33658.0
0
LINE
8
BLACK
10
85950.0
20
33658.0
11
86008.0
21
33639.0
0
LINE
8
BLACK
10
86008.0
20
33639.0
11
86046.0
21
33601.0
0
LINE
8
BLACK
10
86046.0
20
33601.0
11
86065.0
21
33563.0
0
LINE
8
BLACK
10
86065.0
20
33563.0
11
86084.0
21
33487.0
0
LINE
8
BLACK
10
86084.0
20
33487.0
11
86084.0
21
33430.0
0
LINE
8
BLACK
10
86084.0
20
33430.0
11
86065.0
21
33353.0
0
LINE
8
BLACK
10
86065.0
20
33353.0
11
86046.0
21
33315.0
0
LINE
8
BLACK
10
86046.0
20
33315.0
11
86008.0
21
33277.0
0
LINE
8
BLACK
10
86008.0
20
33277.0
11
85950.0
21
33258.0
0
LINE
8
BLACK
10
85950.0
20
33258.0
11
85855.0
21
33258.0
0
LINE
8
BLACK
10
86446.0
20
33658.0
11
86255.0
21
33658.0
0
LINE
8
BLACK
10
86255.0
20
33658.0
11
86236.0
21
33468.0
0
LINE
8
BLACK
10
86236.0
20
33468.0
11
86255.0
21
33487.0
0
LINE
8
BLACK
10
86255.0
20
33487.0
11
86293.0
21
33506.0
0
LINE
8
BLACK
10
86293.0
20
33506.0
11
86389.0
21
33506.0
0
LINE
8
BLACK
10
86389.0
20
33506.0
11
86427.0
21
33487.0
0
LINE
8
BLACK
10
86427.0
20
33487.0
11
86446.0
21
33468.0
0
LINE
8
BLACK
10
86446.0
20
33468.0
11
86465.0
21
33430.0
0
LINE
8
BLACK
10
86465.0
20
33430.0
11
86465.0
21
33334.0
0
LINE
8
BLACK
10
86465.0
20
33334.0
11
86446.0
21
33296.0
0
LINE
8
BLACK
10
86446.0
20
33296.0
11
86427.0
21
33277.0
0
LINE
8
BLACK
10
86427.0
20
33277.0
11
86389.0
21
33258.0
0
LINE
8
BLACK
10
86389.0
20
33258.0
11
86293.0
21
33258.0
0
LINE
8
BLACK
10
86293.0
20
33258.0
11
86255.0
21
33277.0
0
LINE
8
BLACK
10
86255.0
20
33277.0
11
86236.0
21
33296.0
0
LINE
8
BLACK
10
86598.0
20
33658.0
11
86865.0
21
33658.0
0
LINE
8
BLACK
10
86865.0
20
33658.0
11
86693.0
21
33258.0
0
LINE
8
BLACK
10
86979.0
20
33658.0
11
87246.0
21
33258.0
0
LINE
8
BLACK
10
87246.0
20
33658.0
11
86979.0
21
33258.0
0
LINE
8
BLACK
10
87570.0
20
33525.0
11
87570.0
21
33258.0
0
LINE
8
BLACK
10
87474.0
20
33677.0
11
87379.0
21
33391.0
0
LINE
8
BLACK
10
87379.0
20
33391.0
11
87627.0
21
33391.0
0
LINE
8
BLACK
10
88008.0
20
33258.0
11
87874.0
21
33449.0
0
LINE
8
BLACK
10
87779.0
20
33258.0
11
87779.0
21
33658.0
0
LINE
8
BLACK
10
87779.0
20
33658.0
11
87932.0
21
33658.0
0
LINE
8
BLACK
10
87932.0
20
33658.0
11
87970.0
21
33639.0
0
LINE
8
BLACK
10
87970.0
20
33639.0
11
87989.0
21
33620.0
0
LINE
8
BLACK
10
87989.0
20
33620.0
11
88008.0
21
33582.0
0
LINE
8
BLACK
10
88008.0
20
33582.0
11
88008.0
21
33525.0
0
LINE
8
BLACK
10
88008.0
20
33525.0
11
87989.0
21
33487.0
0
LINE
8
BLACK
10
87989.0
20
33487.0
11
87970.0
21
33468.0
0
LINE
8
BLACK
10
87970.0
20
33468.0
11
87932.0
21
33449.0
0
LINE
8
BLACK
10
87932.0
20
33449.0
11
87779.0
21
33449.0
0
LINE
8
BLACK
10
54455.0
20
45008.0
11
54455.0
21
45408.0
0
LINE
8
BLACK
10
54455.0
20
45408.0
11
54608.0
21
45408.0
0
LINE
8
BLACK
10
54608.0
20
45408.0
11
54646.0
21
45389.0
0
LINE
8
BLACK
10
54646.0
20
45389.0
11
54665.0
21
45370.0
0
LINE
8
BLACK
10
54665.0
20
45370.0
11
54684.0
21
45332.0
0
LINE
8
BLACK
10
54684.0
20
45332.0
11
54684.0
21
45275.0
0
LINE
8
BLACK
10
54684.0
20
45275.0
11
54665.0
21
45237.0
0
LINE
8
BLACK
10
54665.0
20
45237.0
11
54646.0
21
45218.0
0
LINE
8
BLACK
10
54646.0
20
45218.0
11
54608.0
21
45199.0
0
LINE
8
BLACK
10
54608.0
20
45199.0
11
54455.0
21
45199.0
0
LINE
8
BLACK
10
54836.0
20
45370.0
11
54855.0
21
45389.0
0
LINE
8
BLACK
10
54855.0
20
45389.0
11
54893.0
21
45408.0
0
LINE
8
BLACK
10
54893.0
20
45408.0
11
54989.0
21
45408.0
0
LINE
8
BLACK
10
54989.0
20
45408.0
11
55027.0
21
45389.0
0
LINE
8
BLACK
10
55027.0
20
45389.0
11
55046.0
21
45370.0
0
LINE
8
BLACK
10
55046.0
20
45370.0
11
55065.0
21
45332.0
0
LINE
8
BLACK
10
55065.0
20
45332.0
11
55065.0
21
45294.0
0
LINE
8
BLACK
10
55065.0
20
45294.0
11
55046.0
21
45237.0
0
LINE
8
BLACK
10
55046.0
20
45237.0
11
54817.0
21
45008.0
0
LINE
8
BLACK
10
54817.0
20
45008.0
11
55065.0
21
45008.0
0
LINE
8
BLACK
10
55779.0
20
37427.0
11
55779.0
21
38027.0
0
LINE
8
BLACK
10
55779.0
20
38027.0
11
55922.0
21
38027.0
0
LINE
8
BLACK
10
55922.0
20
38027.0
11
56007.0
21
37999.0
0
LINE
8
BLACK
10
56007.0
20
37999.0
11
56065.0
21
37941.0
0
LINE
8
BLACK
10
56065.0
20
37941.0
11
56093.0
21
37884.0
0
LINE
8
BLACK
10
56093.0
20
37884.0
11
56122.0
21
37770.0
0
LINE
8
BLACK
10
56122.0
20
37770.0
11
56122.0
21
37684.0
0
LINE
8
BLACK
10
56122.0
20
37684.0
11
56093.0
21
37570.0
0
LINE
8
BLACK
10
56093.0
20
37570.0
11
56065.0
21
37513.0
0
LINE
8
BLACK
10
56065.0
20
37513.0
11
56007.0
21
37456.0
0
LINE
8
BLACK
10
56007.0
20
37456.0
11
55922.0
21
37427.0
0
LINE
8
BLACK
10
55922.0
20
37427.0
11
55779.0
21
37427.0
0
LINE
8
BLACK
10
56379.0
20
37427.0
11
56379.0
21
38027.0
0
LINE
8
BLACK
10
56979.0
20
37999.0
11
56922.0
21
38027.0
0
LINE
8
BLACK
10
56922.0
20
38027.0
11
56836.0
21
38027.0
0
LINE
8
BLACK
10
56836.0
20
38027.0
11
56751.0
21
37999.0
0
LINE
8
BLACK
10
56751.0
20
37999.0
11
56693.0
21
37941.0
0
LINE
8
BLACK
10
56693.0
20
37941.0
11
56665.0
21
37884.0
0
LINE
8
BLACK
10
56665.0
20
37884.0
11
56636.0
21
37770.0
0
LINE
8
BLACK
10
56636.0
20
37770.0
11
56636.0
21
37684.0
0
LINE
8
BLACK
10
56636.0
20
37684.0
11
56665.0
21
37570.0
0
LINE
8
BLACK
10
56665.0
20
37570.0
11
56693.0
21
37513.0
0
LINE
8
BLACK
10
56693.0
20
37513.0
11
56751.0
21
37456.0
0
LINE
8
BLACK
10
56751.0
20
37456.0
11
56836.0
21
37427.0
0
LINE
8
BLACK
10
56836.0
20
37427.0
11
56893.0
21
37427.0
0
LINE
8
BLACK
10
56893.0
20
37427.0
11
56979.0
21
37456.0
0
LINE
8
BLACK
10
56979.0
20
37456.0
11
57008.0
21
37484.0
0
LINE
8
BLACK
10
57008.0
20
37484.0
11
57008.0
21
37684.0
0
LINE
8
BLACK
10
57008.0
20
37684.0
11
56893.0
21
37684.0
0
LINE
8
BLACK
10
57265.0
20
37427.0
11
57265.0
21
38027.0
0
LINE
8
BLACK
10
57465.0
20
38027.0
11
57808.0
21
38027.0
0
LINE
8
BLACK
10
57637.0
20
37427.0
11
57637.0
21
38027.0
0
LINE
8
BLACK
10
57979.0
20
37599.0
11
58265.0
21
37599.0
0
LINE
8
BLACK
10
57922.0
20
37427.0
11
58122.0
21
38027.0
0
LINE
8
BLACK
10
58122.0
20
38027.0
11
58322.0
21
37427.0
0
LINE
8
BLACK
10
58808.0
20
37427.0
11
58522.0
21
37427.0
0
LINE
8
BLACK
10
58522.0
20
37427.0
11
58522.0
21
38027.0
0
LINE
8
BLACK
10
74205.0
20
45008.0
11
74205.0
21
45408.0
0
LINE
8
BLACK
10
74205.0
20
45408.0
11
74358.0
21
45408.0
0
LINE
8
BLACK
10
74358.0
20
45408.0
11
74396.0
21
45389.0
0
LINE
8
BLACK
10
74396.0
20
45389.0
11
74415.0
21
45370.0
0
LINE
8
BLACK
10
74415.0
20
45370.0
11
74434.0
21
45332.0
0
LINE
8
BLACK
10
74434.0
20
45332.0
11
74434.0
21
45275.0
0
LINE
8
BLACK
10
74434.0
20
45275.0
11
74415.0
21
45237.0
0
LINE
8
BLACK
10
74415.0
20
45237.0
11
74396.0
21
45218.0
0
LINE
8
BLACK
10
74396.0
20
45218.0
11
74358.0
21
45199.0
0
LINE
8
BLACK
10
74358.0
20
45199.0
11
74205.0
21
45199.0
0
LINE
8
BLACK
10
74567.0
20
45408.0
11
74815.0
21
45408.0
0
LINE
8
BLACK
10
74815.0
20
45408.0
11
74681.0
21
45256.0
0
LINE
8
BLACK
10
74681.0
20
45256.0
11
74739.0
21
45256.0
0
LINE
8
BLACK
10
74739.0
20
45256.0
11
74777.0
21
45237.0
0
LINE
8
BLACK
10
74777.0
20
45237.0
11
74796.0
21
45218.0
0
LINE
8
BLACK
10
74796.0
20
45218.0
11
74815.0
21
45180.0
0
LINE
8
BLACK
10
74815.0
20
45180.0
11
74815.0
21
45084.0
0
LINE
8
BLACK
10
74815.0
20
45084.0
11
74796.0
21
45046.0
0
LINE
8
BLACK
10
74796.0
20
45046.0
11
74777.0
21
45027.0
0
LINE
8
BLACK
10
74777.0
20
45027.0
11
74739.0
21
45008.0
0
LINE
8
BLACK
10
74739.0
20
45008.0
11
74624.0
21
45008.0
0
LINE
8
BLACK
10
74624.0
20
45008.0
11
74586.0
21
45027.0
0
LINE
8
BLACK
10
74586.0
20
45027.0
11
74567.0
21
45046.0
0
LINE
8
BLACK
10
75678.0
20
37599.0
11
75964.0
21
37599.0
0
LINE
8
BLACK
10
75621.0
20
37427.0
11
75821.0
21
38027.0
0
LINE
8
BLACK
10
75821.0
20
38027.0
11
76021.0
21
37427.0
0
LINE
8
BLACK
10
76221.0
20
37427.0
11
76221.0
21
38027.0
0
LINE
8
BLACK
10
76221.0
20
38027.0
11
76564.0
21
37427.0
0
LINE
8
BLACK
10
76564.0
20
37427.0
11
76564.0
21
38027.0
0
LINE
8
BLACK
10
76821.0
20
37599.0
11
77107.0
21
37599.0
0
LINE
8
BLACK
10
76764.0
20
37427.0
11
76964.0
21
38027.0
0
LINE
8
BLACK
10
76964.0
20
38027.0
11
77164.0
21
37427.0
0
LINE
8
BLACK
10
77650.0
20
37427.0
11
77364.0
21
37427.0
0
LINE
8
BLACK
10
77364.0
20
37427.0
11
77364.0
21
38027.0
0
LINE
8
BLACK
10
77964.0
20
38027.0
11
78078.0
21
38027.0
0
LINE
8
BLACK
10
78078.0
20
38027.0
11
78136.0
21
37999.0
0
LINE
8
BLACK
10
78136.0
20
37999.0
11
78193.0
21
37941.0
0
LINE
8
BLACK
10
78193.0
20
37941.0
11
78221.0
21
37827.0
0
LINE
8
BLACK
10
78221.0
20
37827.0
11
78221.0
21
37627.0
0
LINE
8
BLACK
10
78221.0
20
37627.0
11
78193.0
21
37513.0
0
LINE
8
BLACK
10
78193.0
20
37513.0
11
78136.0
21
37456.0
0
LINE
8
BLACK
10
78136.0
20
37456.0
11
78078.0
21
37427.0
0
LINE
8
BLACK
10
78078.0
20
37427.0
11
77964.0
21
37427.0
0
LINE
8
BLACK
10
77964.0
20
37427.0
11
77907.0
21
37456.0
0
LINE
8
BLACK
10
77907.0
20
37456.0
11
77850.0
21
37513.0
0
LINE
8
BLACK
10
77850.0
20
37513.0
11
77821.0
21
37627.0
0
LINE
8
BLACK
10
77821.0
20
37627.0
11
77821.0
21
37827.0
0
LINE
8
BLACK
10
77821.0
20
37827.0
11
77850.0
21
37941.0
0
LINE
8
BLACK
10
77850.0
20
37941.0
11
77907.0
21
37999.0
0
LINE
8
BLACK
10
77907.0
20
37999.0
11
77964.0
21
38027.0
0
LINE
8
BLACK
10
78793.0
20
37999.0
11
78736.0
21
38027.0
0
LINE
8
BLACK
10
78736.0
20
38027.0
11
78650.0
21
38027.0
0
LINE
8
BLACK
10
78650.0
20
38027.0
11
78565.0
21
37999.0
0
LINE
8
BLACK
10
78565.0
20
37999.0
11
78507.0
21
37941.0
0
LINE
8
BLACK
10
78507.0
20
37941.0
11
78479.0
21
37884.0
0
LINE
8
BLACK
10
78479.0
20
37884.0
11
78450.0
21
37770.0
0
LINE
8
BLACK
10
78450.0
20
37770.0
11
78450.0
21
37684.0
0
LINE
8
BLACK
10
78450.0
20
37684.0
11
78479.0
21
37570.0
0
LINE
8
BLACK
10
78479.0
20
37570.0
11
78507.0
21
37513.0
0
LINE
8
BLACK
10
78507.0
20
37513.0
11
78565.0
21
37456.0
0
LINE
8
BLACK
10
78565.0
20
37456.0
11
78650.0
21
37427.0
0
LINE
8
BLACK
10
78650.0
20
37427.0
11
78707.0
21
37427.0
0
LINE
8
BLACK
10
78707.0
20
37427.0
11
78793.0
21
37456.0
0
LINE
8
BLACK
10
78793.0
20
37456.0
11
78822.0
21
37484.0
0
LINE
8
BLACK
10
78822.0
20
37484.0
11
78822.0
21
37684.0
0
LINE
8
BLACK
10
78822.0
20
37684.0
11
78707.0
21
37684.0
0
LINE
8
BLACK
10
84262.0
20
47115.0
11
84586.0
21
47115.0
0
LINE
8
BLACK
10
84586.0
20
47115.0
11
84624.0
21
47134.0
0
LINE
8
BLACK
10
84624.0
20
47134.0
11
84643.0
21
47153.0
0
LINE
8
BLACK
10
84643.0
20
47153.0
11
84662.0
21
47191.0
0
LINE
8
BLACK
10
84662.0
20
47191.0
11
84662.0
21
47268.0
0
LINE
8
BLACK
10
84662.0
20
47268.0
11
84643.0
21
47306.0
0
LINE
8
BLACK
10
84643.0
20
47306.0
11
84624.0
21
47325.0
0
LINE
8
BLACK
10
84624.0
20
47325.0
11
84586.0
21
47344.0
0
LINE
8
BLACK
10
84586.0
20
47344.0
11
84262.0
21
47344.0
0
LINE
8
BLACK
10
84662.0
20
47744.0
11
84662.0
21
47515.0
0
LINE
8
BLACK
10
84662.0
20
47629.0
11
84262.0
21
47629.0
0
LINE
8
BLACK
10
84262.0
20
47629.0
11
84319.0
21
47591.0
0
LINE
8
BLACK
10
84319.0
20
47591.0
11
84357.0
21
47553.0
0
LINE
8
BLACK
10
84357.0
20
47553.0
11
84376.0
21
47515.0
0
LINE
8
BLACK
10
89162.0
20
46115.0
11
88762.0
21
46115.0
0
LINE
8
BLACK
10
89143.0
20
46286.0
11
89162.0
21
46343.0
0
LINE
8
BLACK
10
89162.0
20
46343.0
11
89162.0
21
46439.0
0
LINE
8
BLACK
10
89162.0
20
46439.0
11
89143.0
21
46477.0
0
LINE
8
BLACK
10
89143.0
20
46477.0
11
89124.0
21
46496.0
0
LINE
8
BLACK
10
89124.0
20
46496.0
11
89086.0
21
46515.0
0
LINE
8
BLACK
10
89086.0
20
46515.0
11
89048.0
21
46515.0
0
LINE
8
BLACK
10
89048.0
20
46515.0
11
89010.0
21
46496.0
0
LINE
8
BLACK
10
89010.0
20
46496.0
11
88990.0
21
46477.0
0
LINE
8
BLACK
10
88990.0
20
46477.0
11
88971.0
21
46439.0
0
LINE
8
BLACK
10
88971.0
20
46439.0
11
88952.0
21
46362.0
0
LINE
8
BLACK
10
88952.0
20
46362.0
11
88933.0
21
46324.0
0
LINE
8
BLACK
10
88933.0
20
46324.0
11
88914.0
21
46305.0
0
LINE
8
BLACK
10
88914.0
20
46305.0
11
88876.0
21
46286.0
0
LINE
8
BLACK
10
88876.0
20
46286.0
11
88838.0
21
46286.0
0
LINE
8
BLACK
10
88838.0
20
46286.0
11
88800.0
21
46305.0
0
LINE
8
BLACK
10
88800.0
20
46305.0
11
88781.0
21
46324.0
0
LINE
8
BLACK
10
88781.0
20
46324.0
11
88762.0
21
46362.0
0
LINE
8
BLACK
10
88762.0
20
46362.0
11
88762.0
21
46458.0
0
LINE
8
BLACK
10
88762.0
20
46458.0
11
88781.0
21
46515.0
0
LINE
8
BLACK
10
89162.0
20
46877.0
11
89162.0
21
46686.0
0
LINE
8
BLACK
10
89162.0
20
46686.0
11
88762.0
21
46686.0
0
LINE
8
BLACK
10
88762.0
20
47201.0
11
88762.0
21
47010.0
0
LINE
8
BLACK
10
88762.0
20
47010.0
11
88952.0
21
46991.0
0
LINE
8
BLACK
10
88952.0
20
46991.0
11
88933.0
21
47010.0
0
LINE
8
BLACK
10
88933.0
20
47010.0
11
88914.0
21
47048.0
0
LINE
8
BLACK
10
88914.0
20
47048.0
11
88914.0
21
47144.0
0
LINE
8
BLACK
10
88914.0
20
47144.0
11
88933.0
21
47182.0
0
LINE
8
BLACK
10
88933.0
20
47182.0
11
88952.0
21
47201.0
0
LINE
8
BLACK
10
88952.0
20
47201.0
11
88990.0
21
47220.0
0
LINE
8
BLACK
10
88990.0
20
47220.0
11
89086.0
21
47220.0
0
LINE
8
BLACK
10
89086.0
20
47220.0
11
89124.0
21
47201.0
0
LINE
8
BLACK
10
89124.0
20
47201.0
11
89143.0
21
47182.0
0
LINE
8
BLACK
10
89143.0
20
47182.0
11
89162.0
21
47144.0
0
LINE
8
BLACK
10
89162.0
20
47144.0
11
89162.0
21
47048.0
0
LINE
8
BLACK
10
89162.0
20
47048.0
11
89143.0
21
47010.0
0
LINE
8
BLACK
10
89143.0
20
47010.0
11
89124.0
21
46991.0
0
LINE
8
BLACK
10
88762.0
20
47582.0
11
88762.0
21
47391.0
0
LINE
8
BLACK
10
88762.0
20
47391.0
11
88952.0
21
47372.0
0
LINE
8
BLACK
10
88952.0
20
47372.0
11
88933.0
21
47391.0
0
LINE
8
BLACK
10
88933.0
20
47391.0
11
88914.0
21
47429.0
0
LINE
8
BLACK
10
88914.0
20
47429.0
11
88914.0
21
47525.0
0
LINE
8
BLACK
10
88914.0
20
47525.0
11
88933.0
21
47563.0
0
LINE
8
BLACK
10
88933.0
20
47563.0
11
88952.0
21
47582.0
0
LINE
8
BLACK
10
88952.0
20
47582.0
11
88990.0
21
47601.0
0
LINE
8
BLACK
10
88990.0
20
47601.0
11
89086.0
21
47601.0
0
LINE
8
BLACK
10
89086.0
20
47601.0
11
89124.0
21
47582.0
0
LINE
8
BLACK
10
89124.0
20
47582.0
11
89143.0
21
47563.0
0
LINE
8
BLACK
10
89143.0
20
47563.0
11
89162.0
21
47525.0
0
LINE
8
BLACK
10
89162.0
20
47525.0
11
89162.0
21
47429.0
0
LINE
8
BLACK
10
89162.0
20
47429.0
11
89143.0
21
47391.0
0
LINE
8
BLACK
10
89143.0
20
47391.0
11
89124.0
21
47372.0
0
LINE
8
BLACK
10
88762.0
20
47848.0
11
88762.0
21
47887.0
0
LINE
8
BLACK
10
88762.0
20
47887.0
11
88781.0
21
47925.0
0
LINE
8
BLACK
10
88781.0
20
47925.0
11
88800.0
21
47944.0
0
LINE
8
BLACK
10
88800.0
20
47944.0
11
88838.0
21
47963.0
0
LINE
8
BLACK
10
88838.0
20
47963.0
11
88914.0
21
47982.0
0
LINE
8
BLACK
10
88914.0
20
47982.0
11
89010.0
21
47982.0
0
LINE
8
BLACK
10
89010.0
20
47982.0
11
89086.0
21
47963.0
0
LINE
8
BLACK
10
89086.0
20
47963.0
11
89124.0
21
47944.0
0
LINE
8
BLACK
10
89124.0
20
47944.0
11
89143.0
21
47925.0
0
LINE
8
BLACK
10
89143.0
20
47925.0
11
89162.0
21
47887.0
0
LINE
8
BLACK
10
89162.0
20
47887.0
11
89162.0
21
47848.0
0
LINE
8
BLACK
10
89162.0
20
47848.0
11
89143.0
21
47810.0
0
LINE
8
BLACK
10
89143.0
20
47810.0
11
89124.0
21
47791.0
0
LINE
8
BLACK
10
89124.0
20
47791.0
11
89086.0
21
47772.0
0
LINE
8
BLACK
10
89086.0
20
47772.0
11
89010.0
21
47753.0
0
LINE
8
BLACK
10
89010.0
20
47753.0
11
88914.0
21
47753.0
0
LINE
8
BLACK
10
88914.0
20
47753.0
11
88838.0
21
47772.0
0
LINE
8
BLACK
10
88838.0
20
47772.0
11
88800.0
21
47791.0
0
LINE
8
BLACK
10
88800.0
20
47791.0
11
88781.0
21
47810.0
0
LINE
8
BLACK
10
88781.0
20
47810.0
11
88762.0
21
47848.0
0
LINE
8
BLACK
10
88762.0
20
48229.0
11
88762.0
21
48268.0
0
LINE
8
BLACK
10
88762.0
20
48268.0
11
88781.0
21
48306.0
0
LINE
8
BLACK
10
88781.0
20
48306.0
11
88800.0
21
48325.0
0
LINE
8
BLACK
10
88800.0
20
48325.0
11
88838.0
21
48344.0
0
LINE
8
BLACK
10
88838.0
20
48344.0
11
88914.0
21
48363.0
0
LINE
8
BLACK
10
88914.0
20
48363.0
11
89010.0
21
48363.0
0
LINE
8
BLACK
10
89010.0
20
48363.0
11
89086.0
21
48344.0
0
LINE
8
BLACK
10
89086.0
20
48344.0
11
89124.0
21
48325.0
0
LINE
8
BLACK
10
89124.0
20
48325.0
11
89143.0
21
48306.0
0
LINE
8
BLACK
10
89143.0
20
48306.0
11
89162.0
21
48268.0
0
LINE
8
BLACK
10
89162.0
20
48268.0
11
89162.0
21
48229.0
0
LINE
8
BLACK
10
89162.0
20
48229.0
11
89143.0
21
48191.0
0
LINE
8
BLACK
10
89143.0
20
48191.0
11
89124.0
21
48172.0
0
LINE
8
BLACK
10
89124.0
20
48172.0
11
89086.0
21
48153.0
0
LINE
8
BLACK
10
89086.0
20
48153.0
11
89010.0
21
48134.0
0
LINE
8
BLACK
10
89010.0
20
48134.0
11
88914.0
21
48134.0
0
LINE
8
BLACK
10
88914.0
20
48134.0
11
88838.0
21
48153.0
0
LINE
8
BLACK
10
88838.0
20
48153.0
11
88800.0
21
48172.0
0
LINE
8
BLACK
10
88800.0
20
48172.0
11
88781.0
21
48191.0
0
LINE
8
BLACK
10
88781.0
20
48191.0
11
88762.0
21
48229.0
0
LINE
8
BLACK
10
88895.0
20
48706.0
11
89162.0
21
48706.0
0
LINE
8
BLACK
10
88743.0
20
48610.0
11
89029.0
21
48515.0
0
LINE
8
BLACK
10
89029.0
20
48515.0
11
89029.0
21
48763.0
0
ENDSEC
0
EOF
