0
SECTION
2
HEADER
9
$ANGBASE
50
0.0
9
$ANGDIR
70
0
0
ENDSEC
0
SECTION
2
TABLES
0
TABLE
2
LTYPE
70
1
0
LTYPE
2
CONTINUOUS
70
0
3
Solid line
72
65
73
0
40
0.0
0
ENDTAB
0
TABLE
2
LAYER
70
24
0
LAYER
2
BLACK
70
0
62
1
6
CONTINUOUS
0
LAYER
2
BLUE
70
0
62
2
6
CONTINUOUS
0
LAYER
2
GREEN
70
0
62
3
6
CONTINUOUS
0
LAYER
2
CYAN
70
0
62
4
6
CONTINUOUS
0
LAYER
2
RED
70
0
62
5
6
CONTINUOUS
0
LAYER
2
MAGENTA
70
0
62
6
6
CONTINUOUS
0
LAYER
2
BROWN
70
0
62
7
6
CONTINUOUS
0
LAYER
2
GRAY
70
0
62
8
6
CONTINUOUS
0
LAYER
2
DARKGRAY
70
0
62
9
6
CONTINUOUS
0
LAYER
2
LIGHTBLUE
70
0
62
10
6
CONTINUOUS
0
LAYER
2
LIGHTGREEN
70
0
62
11
6
CONTINUOUS
0
LAYER
2
LIGHTCYAN
70
0
62
12
6
CONTINUOUS
0
LAYER
2
LIGHTRED
70
0
62
13
6
CONTINUOUS
0
LAYER
2
LIGHTMAGENTA
70
0
62
14
6
CONTINUOUS
0
LAYER
2
YELLOW
70
0
62
15
6
CONTINUOUS
0
LAYER
2
WHITE
70
0
62
16
6
CONTINUOUS
0
LAYER
2
DARKDARKGRAY
70
0
62
17
6
CONTINUOUS
0
LAYER
2
DARKBLUE
70
0
62
18
6
CONTINUOUS
0
LAYER
2
DARKGREEN
70
0
62
19
6
CONTINUOUS
0
LAYER
2
DARKCYAN
70
0
62
20
6
CONTINUOUS
0
LAYER
2
DARKRED
70
0
62
21
6
CONTINUOUS
0
LAYER
2
DARKMAGENTA
70
0
62
22
6
CONTINUOUS
0
LAYER
2
DARKBROWN
70
0
62
23
6
CONTINUOUS
0
LAYER
2
LIGHTYELLOW
70
0
62
24
6
CONTINUOUS
0
ENDTAB
0
ENDSEC
0
SECTION
2
ENTITIES
0
LINE
8
BLACK
10
89500.0
20
52170.0
11
49500.0
21
52170.0
0
LINE
8
BLACK
10
89500.0
20
31170.0
11
89500.0
21
52170.0
0
LINE
8
BLACK
10
49500.0
20
31170.0
11
89500.0
21
31170.0
0
LINE
8
BLACK
10
49500.0
20
52170.0
11
49500.0
21
31170.0
0
LINE
8
BLACK
10
85050.0
20
35720.0
11
85450.0
21
35720.0
0
LINE
8
BLACK
10
85250.0
20
35920.0
11
85250.0
21
35520.0
0
LINE
8
BLACK
10
85800.0
20
36620.0
11
85800.0
21
36020.0
0
LINE
8
BLACK
10
85800.0
20
36020.0
11
84700.0
21
36020.0
0
LINE
8
BLACK
10
84700.0
20
36020.0
11
84700.0
21
36620.0
0
LINE
8
BLACK
10
84700.0
20
37220.0
11
84700.0
21
37820.0
0
LINE
8
BLACK
10
84700.0
20
37820.0
11
85800.0
21
37820.0
0
LINE
8
BLACK
10
85800.0
20
37820.0
11
85800.0
21
37220.0
0
LINE
8
BLACK
10
87300.0
20
47120.0
11
87300.0
21
46520.0
0
LINE
8
BLACK
10
87300.0
20
46520.0
11
86200.0
21
46520.0
0
LINE
8
BLACK
10
86200.0
20
46520.0
11
86200.0
21
47120.0
0
LINE
8
BLACK
10
86200.0
20
47720.0
11
86200.0
21
48320.0
0
LINE
8
BLACK
10
86200.0
20
48320.0
11
87300.0
21
48320.0
0
LINE
8
BLACK
10
87300.0
20
48320.0
11
87300.0
21
47720.0
0
LINE
8
BLACK
10
87700.0
20
34220.0
11
87700.0
21
34820.0
0
LINE
8
BLACK
10
87700.0
20
34820.0
11
88800.0
21
34820.0
0
LINE
8
BLACK
10
88800.0
20
34820.0
11
88800.0
21
34220.0
0
LINE
8
BLACK
10
88800.0
20
33620.0
11
88800.0
21
33020.0
0
LINE
8
BLACK
10
88800.0
20
33020.0
11
87700.0
21
33020.0
0
LINE
8
BLACK
10
87700.0
20
33020.0
11
87700.0
21
33620.0
0
LINE
8
BLACK
10
84700.0
20
34220.0
11
84700.0
21
34820.0
0
LINE
8
BLACK
10
84700.0
20
34820.0
11
85800.0
21
34820.0
0
LINE
8
BLACK
10
85800.0
20
34820.0
11
85800.0
21
34220.0
0
LINE
8
BLACK
10
85800.0
20
33620.0
11
85800.0
21
33020.0
0
LINE
8
BLACK
10
85800.0
20
33020.0
11
84700.0
21
33020.0
0
LINE
8
BLACK
10
84700.0
20
33020.0
11
84700.0
21
33620.0
0
LINE
8
BLACK
10
86950.0
20
35120.0
11
86550.0
21
35120.0
0
LINE
8
BLACK
10
86750.0
20
34920.0
11
86750.0
21
35320.0
0
LINE
8
BLACK
10
86200.0
20
34220.0
11
86200.0
21
34820.0
0
LINE
8
BLACK
10
86200.0
20
34820.0
11
87300.0
21
34820.0
0
LINE
8
BLACK
10
87300.0
20
34820.0
11
87300.0
21
34220.0
0
LINE
8
BLACK
10
87300.0
20
33620.0
11
87300.0
21
33020.0
0
LINE
8
BLACK
10
87300.0
20
33020.0
11
86200.0
21
33020.0
0
LINE
8
BLACK
10
86200.0
20
33020.0
11
86200.0
21
33620.0
0
CIRCLE
8
BLACK
10
86150.0
20
35970.0
40
70
0
LINE
8
BLACK
10
87300.0
20
36620.0
11
87300.0
21
36020.0
0
LINE
8
BLACK
10
87300.0
20
36020.0
11
86200.0
21
36020.0
0
LINE
8
BLACK
10
86200.0
20
36020.0
11
86200.0
21
36620.0
0
LINE
8
BLACK
10
86200.0
20
37220.0
11
86200.0
21
37820.0
0
LINE
8
BLACK
10
86200.0
20
37820.0
11
87300.0
21
37820.0
0
LINE
8
BLACK
10
87300.0
20
37820.0
11
87300.0
21
37220.0
0
LINE
8
BLACK
10
85316.0
20
38296.0
11
85335.0
21
38277.0
0
LINE
8
BLACK
10
85335.0
20
38277.0
11
85392.0
21
38258.0
0
LINE
8
BLACK
10
85392.0
20
38258.0
11
85430.0
21
38258.0
0
LINE
8
BLACK
10
85430.0
20
38258.0
11
85488.0
21
38277.0
0
LINE
8
BLACK
10
85488.0
20
38277.0
11
85526.0
21
38315.0
0
LINE
8
BLACK
10
85526.0
20
38315.0
11
85545.0
21
38353.0
0
LINE
8
BLACK
10
85545.0
20
38353.0
11
85564.0
21
38430.0
0
LINE
8
BLACK
10
85564.0
20
38430.0
11
85564.0
21
38487.0
0
LINE
8
BLACK
10
85564.0
20
38487.0
11
85545.0
21
38563.0
0
LINE
8
BLACK
10
85545.0
20
38563.0
11
85526.0
21
38601.0
0
LINE
8
BLACK
10
85526.0
20
38601.0
11
85488.0
21
38639.0
0
LINE
8
BLACK
10
85488.0
20
38639.0
11
85430.0
21
38658.0
0
LINE
8
BLACK
10
85430.0
20
38658.0
11
85392.0
21
38658.0
0
LINE
8
BLACK
10
85392.0
20
38658.0
11
85335.0
21
38639.0
0
LINE
8
BLACK
10
85335.0
20
38639.0
11
85316.0
21
38620.0
0
LINE
8
BLACK
10
84954.0
20
38658.0
11
85145.0
21
38658.0
0
LINE
8
BLACK
10
85145.0
20
38658.0
11
85164.0
21
38468.0
0
LINE
8
BLACK
10
85164.0
20
38468.0
11
85145.0
21
38487.0
0
LINE
8
BLACK
10
85145.0
20
38487.0
11
85107.0
21
38506.0
0
LINE
8
BLACK
10
85107.0
20
38506.0
11
85011.0
21
38506.0
0
LINE
8
BLACK
10
85011.0
20
38506.0
11
84973.0
21
38487.0
0
LINE
8
BLACK
10
84973.0
20
38487.0
11
84954.0
21
38468.0
0
LINE
8
BLACK
10
84954.0
20
38468.0
11
84935.0
21
38430.0
0
LINE
8
BLACK
10
84935.0
20
38430.0
11
84935.0
21
38334.0
0
LINE
8
BLACK
10
84935.0
20
38334.0
11
84954.0
21
38296.0
0
LINE
8
BLACK
10
84954.0
20
38296.0
11
84973.0
21
38277.0
0
LINE
8
BLACK
10
84973.0
20
38277.0
11
85011.0
21
38258.0
0
LINE
8
BLACK
10
85011.0
20
38258.0
11
85107.0
21
38258.0
0
LINE
8
BLACK
10
85107.0
20
38258.0
11
85145.0
21
38277.0
0
LINE
8
BLACK
10
85145.0
20
38277.0
11
85164.0
21
38296.0
0
LINE
8
BLACK
10
85571.0
20
36799.0
11
85743.0
21
36799.0
0
LINE
8
BLACK
10
85657.0
20
36799.0
11
85657.0
21
37099.0
0
LINE
8
BLACK
10
85657.0
20
37099.0
11
85686.0
21
37056.0
0
LINE
8
BLACK
10
85686.0
20
37056.0
11
85714.0
21
37027.0
0
LINE
8
BLACK
10
85714.0
20
37027.0
11
85743.0
21
37013.0
0
LINE
8
BLACK
10
85385.0
20
37099.0
11
85357.0
21
37099.0
0
LINE
8
BLACK
10
85357.0
20
37099.0
11
85328.0
21
37084.0
0
LINE
8
BLACK
10
85328.0
20
37084.0
11
85314.0
21
37070.0
0
LINE
8
BLACK
10
85314.0
20
37070.0
11
85300.0
21
37041.0
0
LINE
8
BLACK
10
85300.0
20
37041.0
11
85285.0
21
36984.0
0
LINE
8
BLACK
10
85285.0
20
36984.0
11
85285.0
21
36913.0
0
LINE
8
BLACK
10
85285.0
20
36913.0
11
85300.0
21
36856.0
0
LINE
8
BLACK
10
85300.0
20
36856.0
11
85314.0
21
36827.0
0
LINE
8
BLACK
10
85314.0
20
36827.0
11
85328.0
21
36813.0
0
LINE
8
BLACK
10
85328.0
20
36813.0
11
85357.0
21
36799.0
0
LINE
8
BLACK
10
85357.0
20
36799.0
11
85385.0
21
36799.0
0
LINE
8
BLACK
10
85385.0
20
36799.0
11
85414.0
21
36813.0
0
LINE
8
BLACK
10
85414.0
20
36813.0
11
85428.0
21
36827.0
0
LINE
8
BLACK
10
85428.0
20
36827.0
11
85443.0
21
36856.0
0
LINE
8
BLACK
10
85443.0
20
36856.0
11
85457.0
21
36913.0
0
LINE
8
BLACK
10
85457.0
20
36913.0
11
85457.0
21
36984.0
0
LINE
8
BLACK
10
85457.0
20
36984.0
11
85443.0
21
37041.0
0
LINE
8
BLACK
10
85443.0
20
37041.0
11
85428.0
21
37070.0
0
LINE
8
BLACK
10
85428.0
20
37070.0
11
85414.0
21
37084.0
0
LINE
8
BLACK
10
85414.0
20
37084.0
11
85385.0
21
37099.0
0
LINE
8
BLACK
10
85028.0
20
36999.0
11
85028.0
21
36799.0
0
LINE
8
BLACK
10
85157.0
20
36999.0
11
85157.0
21
36841.0
0
LINE
8
BLACK
10
85157.0
20
36841.0
11
85142.0
21
36813.0
0
LINE
8
BLACK
10
85142.0
20
36813.0
11
85114.0
21
36799.0
0
LINE
8
BLACK
10
85114.0
20
36799.0
11
85071.0
21
36799.0
0
LINE
8
BLACK
10
85071.0
20
36799.0
11
85042.0
21
36813.0
0
LINE
8
BLACK
10
85042.0
20
36813.0
11
85028.0
21
36827.0
0
LINE
8
BLACK
10
84786.0
20
36956.0
11
84886.0
21
36956.0
0
LINE
8
BLACK
10
84886.0
20
36799.0
11
84886.0
21
37099.0
0
LINE
8
BLACK
10
84886.0
20
37099.0
11
84743.0
21
37099.0
0
LINE
8
BLACK
10
85874.0
20
47486.0
11
85893.0
21
47505.0
0
LINE
8
BLACK
10
85893.0
20
47505.0
11
85912.0
21
47562.0
0
LINE
8
BLACK
10
85912.0
20
47562.0
11
85912.0
21
47600.0
0
LINE
8
BLACK
10
85912.0
20
47600.0
11
85893.0
21
47658.0
0
LINE
8
BLACK
10
85893.0
20
47658.0
11
85855.0
21
47696.0
0
LINE
8
BLACK
10
85855.0
20
47696.0
11
85817.0
21
47715.0
0
LINE
8
BLACK
10
85817.0
20
47715.0
11
85740.0
21
47734.0
0
LINE
8
BLACK
10
85740.0
20
47734.0
11
85683.0
21
47734.0
0
LINE
8
BLACK
10
85683.0
20
47734.0
11
85607.0
21
47715.0
0
LINE
8
BLACK
10
85607.0
20
47715.0
11
85569.0
21
47696.0
0
LINE
8
BLACK
10
85569.0
20
47696.0
11
85531.0
21
47658.0
0
LINE
8
BLACK
10
85531.0
20
47658.0
11
85512.0
21
47600.0
0
LINE
8
BLACK
10
85512.0
20
47600.0
11
85512.0
21
47562.0
0
LINE
8
BLACK
10
85512.0
20
47562.0
11
85531.0
21
47505.0
0
LINE
8
BLACK
10
85531.0
20
47505.0
11
85550.0
21
47486.0
0
LINE
8
BLACK
10
85912.0
20
47105.0
11
85912.0
21
47334.0
0
LINE
8
BLACK
10
85912.0
20
47220.0
11
85512.0
21
47220.0
0
LINE
8
BLACK
10
85512.0
20
47220.0
11
85569.0
21
47258.0
0
LINE
8
BLACK
10
85569.0
20
47258.0
11
85607.0
21
47296.0
0
LINE
8
BLACK
10
85607.0
20
47296.0
11
85626.0
21
47334.0
0
LINE
8
BLACK
10
87242.0
20
47599.0
11
87214.0
21
47599.0
0
LINE
8
BLACK
10
87214.0
20
47599.0
11
87185.0
21
47584.0
0
LINE
8
BLACK
10
87185.0
20
47584.0
11
87171.0
21
47570.0
0
LINE
8
BLACK
10
87171.0
20
47570.0
11
87157.0
21
47541.0
0
LINE
8
BLACK
10
87157.0
20
47541.0
11
87142.0
21
47484.0
0
LINE
8
BLACK
10
87142.0
20
47484.0
11
87142.0
21
47413.0
0
LINE
8
BLACK
10
87142.0
20
47413.0
11
87157.0
21
47356.0
0
LINE
8
BLACK
10
87157.0
20
47356.0
11
87171.0
21
47327.0
0
LINE
8
BLACK
10
87171.0
20
47327.0
11
87185.0
21
47313.0
0
LINE
8
BLACK
10
87185.0
20
47313.0
11
87214.0
21
47299.0
0
LINE
8
BLACK
10
87214.0
20
47299.0
11
87242.0
21
47299.0
0
LINE
8
BLACK
10
87242.0
20
47299.0
11
87271.0
21
47313.0
0
LINE
8
BLACK
10
87271.0
20
47313.0
11
87285.0
21
47327.0
0
LINE
8
BLACK
10
87285.0
20
47327.0
11
87300.0
21
47356.0
0
LINE
8
BLACK
10
87300.0
20
47356.0
11
87314.0
21
47413.0
0
LINE
8
BLACK
10
87314.0
20
47413.0
11
87314.0
21
47484.0
0
LINE
8
BLACK
10
87314.0
20
47484.0
11
87300.0
21
47541.0
0
LINE
8
BLACK
10
87300.0
20
47541.0
11
87285.0
21
47570.0
0
LINE
8
BLACK
10
87285.0
20
47570.0
11
87271.0
21
47584.0
0
LINE
8
BLACK
10
87271.0
20
47584.0
11
87242.0
21
47599.0
0
LINE
8
BLACK
10
87014.0
20
47327.0
11
86999.0
21
47313.0
0
LINE
8
BLACK
10
86999.0
20
47313.0
11
87014.0
21
47299.0
0
LINE
8
BLACK
10
87014.0
20
47299.0
11
87028.0
21
47313.0
0
LINE
8
BLACK
10
87028.0
20
47313.0
11
87014.0
21
47327.0
0
LINE
8
BLACK
10
87014.0
20
47327.0
11
87014.0
21
47299.0
0
LINE
8
BLACK
10
86713.0
20
47299.0
11
86885.0
21
47299.0
0
LINE
8
BLACK
10
86799.0
20
47299.0
11
86799.0
21
47599.0
0
LINE
8
BLACK
10
86799.0
20
47599.0
11
86828.0
21
47556.0
0
LINE
8
BLACK
10
86828.0
20
47556.0
11
86856.0
21
47527.0
0
LINE
8
BLACK
10
86856.0
20
47527.0
11
86885.0
21
47513.0
0
LINE
8
BLACK
10
86456.0
20
47499.0
11
86456.0
21
47299.0
0
LINE
8
BLACK
10
86585.0
20
47499.0
11
86585.0
21
47341.0
0
LINE
8
BLACK
10
86585.0
20
47341.0
11
86570.0
21
47313.0
0
LINE
8
BLACK
10
86570.0
20
47313.0
11
86542.0
21
47299.0
0
LINE
8
BLACK
10
86542.0
20
47299.0
11
86499.0
21
47299.0
0
LINE
8
BLACK
10
86499.0
20
47299.0
11
86470.0
21
47313.0
0
LINE
8
BLACK
10
86470.0
20
47313.0
11
86456.0
21
47327.0
0
LINE
8
BLACK
10
86214.0
20
47456.0
11
86314.0
21
47456.0
0
LINE
8
BLACK
10
86314.0
20
47299.0
11
86314.0
21
47599.0
0
LINE
8
BLACK
10
86314.0
20
47599.0
11
86171.0
21
47599.0
0
LINE
8
BLACK
10
88316.0
20
32296.0
11
88335.0
21
32277.0
0
LINE
8
BLACK
10
88335.0
20
32277.0
11
88392.0
21
32258.0
0
LINE
8
BLACK
10
88392.0
20
32258.0
11
88430.0
21
32258.0
0
LINE
8
BLACK
10
88430.0
20
32258.0
11
88488.0
21
32277.0
0
LINE
8
BLACK
10
88488.0
20
32277.0
11
88526.0
21
32315.0
0
LINE
8
BLACK
10
88526.0
20
32315.0
11
88545.0
21
32353.0
0
LINE
8
BLACK
10
88545.0
20
32353.0
11
88564.0
21
32430.0
0
LINE
8
BLACK
10
88564.0
20
32430.0
11
88564.0
21
32487.0
0
LINE
8
BLACK
10
88564.0
20
32487.0
11
88545.0
21
32563.0
0
LINE
8
BLACK
10
88545.0
20
32563.0
11
88526.0
21
32601.0
0
LINE
8
BLACK
10
88526.0
20
32601.0
11
88488.0
21
32639.0
0
LINE
8
BLACK
10
88488.0
20
32639.0
11
88430.0
21
32658.0
0
LINE
8
BLACK
10
88430.0
20
32658.0
11
88392.0
21
32658.0
0
LINE
8
BLACK
10
88392.0
20
32658.0
11
88335.0
21
32639.0
0
LINE
8
BLACK
10
88335.0
20
32639.0
11
88316.0
21
32620.0
0
LINE
8
BLACK
10
87973.0
20
32525.0
11
87973.0
21
32258.0
0
LINE
8
BLACK
10
88069.0
20
32677.0
11
88164.0
21
32391.0
0
LINE
8
BLACK
10
88164.0
20
32391.0
11
87916.0
21
32391.0
0
LINE
8
BLACK
10
88742.0
20
34099.0
11
88714.0
21
34099.0
0
LINE
8
BLACK
10
88714.0
20
34099.0
11
88685.0
21
34084.0
0
LINE
8
BLACK
10
88685.0
20
34084.0
11
88671.0
21
34070.0
0
LINE
8
BLACK
10
88671.0
20
34070.0
11
88657.0
21
34041.0
0
LINE
8
BLACK
10
88657.0
20
34041.0
11
88642.0
21
33984.0
0
LINE
8
BLACK
10
88642.0
20
33984.0
11
88642.0
21
33913.0
0
LINE
8
BLACK
10
88642.0
20
33913.0
11
88657.0
21
33856.0
0
LINE
8
BLACK
10
88657.0
20
33856.0
11
88671.0
21
33827.0
0
LINE
8
BLACK
10
88671.0
20
33827.0
11
88685.0
21
33813.0
0
LINE
8
BLACK
10
88685.0
20
33813.0
11
88714.0
21
33799.0
0
LINE
8
BLACK
10
88714.0
20
33799.0
11
88742.0
21
33799.0
0
LINE
8
BLACK
10
88742.0
20
33799.0
11
88771.0
21
33813.0
0
LINE
8
BLACK
10
88771.0
20
33813.0
11
88785.0
21
33827.0
0
LINE
8
BLACK
10
88785.0
20
33827.0
11
88800.0
21
33856.0
0
LINE
8
BLACK
10
88800.0
20
33856.0
11
88814.0
21
33913.0
0
LINE
8
BLACK
10
88814.0
20
33913.0
11
88814.0
21
33984.0
0
LINE
8
BLACK
10
88814.0
20
33984.0
11
88800.0
21
34041.0
0
LINE
8
BLACK
10
88800.0
20
34041.0
11
88785.0
21
34070.0
0
LINE
8
BLACK
10
88785.0
20
34070.0
11
88771.0
21
34084.0
0
LINE
8
BLACK
10
88771.0
20
34084.0
11
88742.0
21
34099.0
0
LINE
8
BLACK
10
88514.0
20
33827.0
11
88499.0
21
33813.0
0
LINE
8
BLACK
10
88499.0
20
33813.0
11
88514.0
21
33799.0
0
LINE
8
BLACK
10
88514.0
20
33799.0
11
88528.0
21
33813.0
0
LINE
8
BLACK
10
88528.0
20
33813.0
11
88514.0
21
33827.0
0
LINE
8
BLACK
10
88514.0
20
33827.0
11
88514.0
21
33799.0
0
LINE
8
BLACK
10
88213.0
20
33799.0
11
88385.0
21
33799.0
0
LINE
8
BLACK
10
88299.0
20
33799.0
11
88299.0
21
34099.0
0
LINE
8
BLACK
10
88299.0
20
34099.0
11
88328.0
21
34056.0
0
LINE
8
BLACK
10
88328.0
20
34056.0
11
88356.0
21
34027.0
0
LINE
8
BLACK
10
88356.0
20
34027.0
11
88385.0
21
34013.0
0
LINE
8
BLACK
10
87956.0
20
33999.0
11
87956.0
21
33799.0
0
LINE
8
BLACK
10
88085.0
20
33999.0
11
88085.0
21
33841.0
0
LINE
8
BLACK
10
88085.0
20
33841.0
11
88070.0
21
33813.0
0
LINE
8
BLACK
10
88070.0
20
33813.0
11
88042.0
21
33799.0
0
LINE
8
BLACK
10
88042.0
20
33799.0
11
87999.0
21
33799.0
0
LINE
8
BLACK
10
87999.0
20
33799.0
11
87970.0
21
33813.0
0
LINE
8
BLACK
10
87970.0
20
33813.0
11
87956.0
21
33827.0
0
LINE
8
BLACK
10
87714.0
20
33956.0
11
87814.0
21
33956.0
0
LINE
8
BLACK
10
87814.0
20
33799.0
11
87814.0
21
34099.0
0
LINE
8
BLACK
10
87814.0
20
34099.0
11
87671.0
21
34099.0
0
LINE
8
BLACK
10
85316.0
20
32296.0
11
85335.0
21
32277.0
0
LINE
8
BLACK
10
85335.0
20
32277.0
11
85392.0
21
32258.0
0
LINE
8
BLACK
10
85392.0
20
32258.0
11
85430.0
21
32258.0
0
LINE
8
BLACK
10
85430.0
20
32258.0
11
85488.0
21
32277.0
0
LINE
8
BLACK
10
85488.0
20
32277.0
11
85526.0
21
32315.0
0
LINE
8
BLACK
10
85526.0
20
32315.0
11
85545.0
21
32353.0
0
LINE
8
BLACK
10
85545.0
20
32353.0
11
85564.0
21
32430.0
0
LINE
8
BLACK
10
85564.0
20
32430.0
11
85564.0
21
32487.0
0
LINE
8
BLACK
10
85564.0
20
32487.0
11
85545.0
21
32563.0
0
LINE
8
BLACK
10
85545.0
20
32563.0
11
85526.0
21
32601.0
0
LINE
8
BLACK
10
85526.0
20
32601.0
11
85488.0
21
32639.0
0
LINE
8
BLACK
10
85488.0
20
32639.0
11
85430.0
21
32658.0
0
LINE
8
BLACK
10
85430.0
20
32658.0
11
85392.0
21
32658.0
0
LINE
8
BLACK
10
85392.0
20
32658.0
11
85335.0
21
32639.0
0
LINE
8
BLACK
10
85335.0
20
32639.0
11
85316.0
21
32620.0
0
LINE
8
BLACK
10
85183.0
20
32658.0
11
84935.0
21
32658.0
0
LINE
8
BLACK
10
84935.0
20
32658.0
11
85069.0
21
32506.0
0
LINE
8
BLACK
10
85069.0
20
32506.0
11
85011.0
21
32506.0
0
LINE
8
BLACK
10
85011.0
20
32506.0
11
84973.0
21
32487.0
0
LINE
8
BLACK
10
84973.0
20
32487.0
11
84954.0
21
32468.0
0
LINE
8
BLACK
10
84954.0
20
32468.0
11
84935.0
21
32430.0
0
LINE
8
BLACK
10
84935.0
20
32430.0
11
84935.0
21
32334.0
0
LINE
8
BLACK
10
84935.0
20
32334.0
11
84954.0
21
32296.0
0
LINE
8
BLACK
10
84954.0
20
32296.0
11
84973.0
21
32277.0
0
LINE
8
BLACK
10
84973.0
20
32277.0
11
85011.0
21
32258.0
0
LINE
8
BLACK
10
85011.0
20
32258.0
11
85126.0
21
32258.0
0
LINE
8
BLACK
10
85126.0
20
32258.0
11
85164.0
21
32277.0
0
LINE
8
BLACK
10
85164.0
20
32277.0
11
85183.0
21
32296.0
0
LINE
8
BLACK
10
85742.0
20
34099.0
11
85714.0
21
34099.0
0
LINE
8
BLACK
10
85714.0
20
34099.0
11
85685.0
21
34084.0
0
LINE
8
BLACK
10
85685.0
20
34084.0
11
85671.0
21
34070.0
0
LINE
8
BLACK
10
85671.0
20
34070.0
11
85657.0
21
34041.0
0
LINE
8
BLACK
10
85657.0
20
34041.0
11
85642.0
21
33984.0
0
LINE
8
BLACK
10
85642.0
20
33984.0
11
85642.0
21
33913.0
0
LINE
8
BLACK
10
85642.0
20
33913.0
11
85657.0
21
33856.0
0
LINE
8
BLACK
10
85657.0
20
33856.0
11
85671.0
21
33827.0
0
LINE
8
BLACK
10
85671.0
20
33827.0
11
85685.0
21
33813.0
0
LINE
8
BLACK
10
85685.0
20
33813.0
11
85714.0
21
33799.0
0
LINE
8
BLACK
10
85714.0
20
33799.0
11
85742.0
21
33799.0
0
LINE
8
BLACK
10
85742.0
20
33799.0
11
85771.0
21
33813.0
0
LINE
8
BLACK
10
85771.0
20
33813.0
11
85785.0
21
33827.0
0
LINE
8
BLACK
10
85785.0
20
33827.0
11
85800.0
21
33856.0
0
LINE
8
BLACK
10
85800.0
20
33856.0
11
85814.0
21
33913.0
0
LINE
8
BLACK
10
85814.0
20
33913.0
11
85814.0
21
33984.0
0
LINE
8
BLACK
10
85814.0
20
33984.0
11
85800.0
21
34041.0
0
LINE
8
BLACK
10
85800.0
20
34041.0
11
85785.0
21
34070.0
0
LINE
8
BLACK
10
85785.0
20
34070.0
11
85771.0
21
34084.0
0
LINE
8
BLACK
10
85771.0
20
34084.0
11
85742.0
21
34099.0
0
LINE
8
BLACK
10
85514.0
20
33827.0
11
85499.0
21
33813.0
0
LINE
8
BLACK
10
85499.0
20
33813.0
11
85514.0
21
33799.0
0
LINE
8
BLACK
10
85514.0
20
33799.0
11
85528.0
21
33813.0
0
LINE
8
BLACK
10
85528.0
20
33813.0
11
85514.0
21
33827.0
0
LINE
8
BLACK
10
85514.0
20
33827.0
11
85514.0
21
33799.0
0
LINE
8
BLACK
10
85213.0
20
33799.0
11
85385.0
21
33799.0
0
LINE
8
BLACK
10
85299.0
20
33799.0
11
85299.0
21
34099.0
0
LINE
8
BLACK
10
85299.0
20
34099.0
11
85328.0
21
34056.0
0
LINE
8
BLACK
10
85328.0
20
34056.0
11
85356.0
21
34027.0
0
LINE
8
BLACK
10
85356.0
20
34027.0
11
85385.0
21
34013.0
0
LINE
8
BLACK
10
84956.0
20
33999.0
11
84956.0
21
33799.0
0
LINE
8
BLACK
10
85085.0
20
33999.0
11
85085.0
21
33841.0
0
LINE
8
BLACK
10
85085.0
20
33841.0
11
85070.0
21
33813.0
0
LINE
8
BLACK
10
85070.0
20
33813.0
11
85042.0
21
33799.0
0
LINE
8
BLACK
10
85042.0
20
33799.0
11
84999.0
21
33799.0
0
LINE
8
BLACK
10
84999.0
20
33799.0
11
84970.0
21
33813.0
0
LINE
8
BLACK
10
84970.0
20
33813.0
11
84956.0
21
33827.0
0
LINE
8
BLACK
10
84714.0
20
33956.0
11
84814.0
21
33956.0
0
LINE
8
BLACK
10
84814.0
20
33799.0
11
84814.0
21
34099.0
0
LINE
8
BLACK
10
84814.0
20
34099.0
11
84671.0
21
34099.0
0
LINE
8
BLACK
10
86816.0
20
32296.0
11
86835.0
21
32277.0
0
LINE
8
BLACK
10
86835.0
20
32277.0
11
86892.0
21
32258.0
0
LINE
8
BLACK
10
86892.0
20
32258.0
11
86930.0
21
32258.0
0
LINE
8
BLACK
10
86930.0
20
32258.0
11
86988.0
21
32277.0
0
LINE
8
BLACK
10
86988.0
20
32277.0
11
87026.0
21
32315.0
0
LINE
8
BLACK
10
87026.0
20
32315.0
11
87045.0
21
32353.0
0
LINE
8
BLACK
10
87045.0
20
32353.0
11
87064.0
21
32430.0
0
LINE
8
BLACK
10
87064.0
20
32430.0
11
87064.0
21
32487.0
0
LINE
8
BLACK
10
87064.0
20
32487.0
11
87045.0
21
32563.0
0
LINE
8
BLACK
10
87045.0
20
32563.0
11
87026.0
21
32601.0
0
LINE
8
BLACK
10
87026.0
20
32601.0
11
86988.0
21
32639.0
0
LINE
8
BLACK
10
86988.0
20
32639.0
11
86930.0
21
32658.0
0
LINE
8
BLACK
10
86930.0
20
32658.0
11
86892.0
21
32658.0
0
LINE
8
BLACK
10
86892.0
20
32658.0
11
86835.0
21
32639.0
0
LINE
8
BLACK
10
86835.0
20
32639.0
11
86816.0
21
32620.0
0
LINE
8
BLACK
10
86664.0
20
32620.0
11
86645.0
21
32639.0
0
LINE
8
BLACK
10
86645.0
20
32639.0
11
86607.0
21
32658.0
0
LINE
8
BLACK
10
86607.0
20
32658.0
11
86511.0
21
32658.0
0
LINE
8
BLACK
10
86511.0
20
32658.0
11
86473.0
21
32639.0
0
LINE
8
BLACK
10
86473.0
20
32639.0
11
86454.0
21
32620.0
0
LINE
8
BLACK
10
86454.0
20
32620.0
11
86435.0
21
32582.0
0
LINE
8
BLACK
10
86435.0
20
32582.0
11
86435.0
21
32544.0
0
LINE
8
BLACK
10
86435.0
20
32544.0
11
86454.0
21
32487.0
0
LINE
8
BLACK
10
86454.0
20
32487.0
11
86683.0
21
32258.0
0
LINE
8
BLACK
10
86683.0
20
32258.0
11
86435.0
21
32258.0
0
LINE
8
BLACK
10
87071.0
20
33799.0
11
87243.0
21
33799.0
0
LINE
8
BLACK
10
87157.0
20
33799.0
11
87157.0
21
34099.0
0
LINE
8
BLACK
10
87157.0
20
34099.0
11
87186.0
21
34056.0
0
LINE
8
BLACK
10
87186.0
20
34056.0
11
87214.0
21
34027.0
0
LINE
8
BLACK
10
87214.0
20
34027.0
11
87243.0
21
34013.0
0
LINE
8
BLACK
10
86885.0
20
34099.0
11
86857.0
21
34099.0
0
LINE
8
BLACK
10
86857.0
20
34099.0
11
86828.0
21
34084.0
0
LINE
8
BLACK
10
86828.0
20
34084.0
11
86814.0
21
34070.0
0
LINE
8
BLACK
10
86814.0
20
34070.0
11
86800.0
21
34041.0
0
LINE
8
BLACK
10
86800.0
20
34041.0
11
86785.0
21
33984.0
0
LINE
8
BLACK
10
86785.0
20
33984.0
11
86785.0
21
33913.0
0
LINE
8
BLACK
10
86785.0
20
33913.0
11
86800.0
21
33856.0
0
LINE
8
BLACK
10
86800.0
20
33856.0
11
86814.0
21
33827.0
0
LINE
8
BLACK
10
86814.0
20
33827.0
11
86828.0
21
33813.0
0
LINE
8
BLACK
10
86828.0
20
33813.0
11
86857.0
21
33799.0
0
LINE
8
BLACK
10
86857.0
20
33799.0
11
86885.0
21
33799.0
0
LINE
8
BLACK
10
86885.0
20
33799.0
11
86914.0
21
33813.0
0
LINE
8
BLACK
10
86914.0
20
33813.0
11
86928.0
21
33827.0
0
LINE
8
BLACK
10
86928.0
20
33827.0
11
86943.0
21
33856.0
0
LINE
8
BLACK
10
86943.0
20
33856.0
11
86957.0
21
33913.0
0
LINE
8
BLACK
10
86957.0
20
33913.0
11
86957.0
21
33984.0
0
LINE
8
BLACK
10
86957.0
20
33984.0
11
86943.0
21
34041.0
0
LINE
8
BLACK
10
86943.0
20
34041.0
11
86928.0
21
34070.0
0
LINE
8
BLACK
10
86928.0
20
34070.0
11
86914.0
21
34084.0
0
LINE
8
BLACK
10
86914.0
20
34084.0
11
86885.0
21
34099.0
0
LINE
8
BLACK
10
86528.0
20
33999.0
11
86528.0
21
33799.0
0
LINE
8
BLACK
10
86657.0
20
33999.0
11
86657.0
21
33841.0
0
LINE
8
BLACK
10
86657.0
20
33841.0
11
86642.0
21
33813.0
0
LINE
8
BLACK
10
86642.0
20
33813.0
11
86614.0
21
33799.0
0
LINE
8
BLACK
10
86614.0
20
33799.0
11
86571.0
21
33799.0
0
LINE
8
BLACK
10
86571.0
20
33799.0
11
86542.0
21
33813.0
0
LINE
8
BLACK
10
86542.0
20
33813.0
11
86528.0
21
33827.0
0
LINE
8
BLACK
10
86286.0
20
33956.0
11
86386.0
21
33956.0
0
LINE
8
BLACK
10
86386.0
20
33799.0
11
86386.0
21
34099.0
0
LINE
8
BLACK
10
86386.0
20
34099.0
11
86243.0
21
34099.0
0
LINE
8
BLACK
10
86816.0
20
38296.0
11
86835.0
21
38277.0
0
LINE
8
BLACK
10
86835.0
20
38277.0
11
86892.0
21
38258.0
0
LINE
8
BLACK
10
86892.0
20
38258.0
11
86930.0
21
38258.0
0
LINE
8
BLACK
10
86930.0
20
38258.0
11
86988.0
21
38277.0
0
LINE
8
BLACK
10
86988.0
20
38277.0
11
87026.0
21
38315.0
0
LINE
8
BLACK
10
87026.0
20
38315.0
11
87045.0
21
38353.0
0
LINE
8
BLACK
10
87045.0
20
38353.0
11
87064.0
21
38430.0
0
LINE
8
BLACK
10
87064.0
20
38430.0
11
87064.0
21
38487.0
0
LINE
8
BLACK
10
87064.0
20
38487.0
11
87045.0
21
38563.0
0
LINE
8
BLACK
10
87045.0
20
38563.0
11
87026.0
21
38601.0
0
LINE
8
BLACK
10
87026.0
20
38601.0
11
86988.0
21
38639.0
0
LINE
8
BLACK
10
86988.0
20
38639.0
11
86930.0
21
38658.0
0
LINE
8
BLACK
10
86930.0
20
38658.0
11
86892.0
21
38658.0
0
LINE
8
BLACK
10
86892.0
20
38658.0
11
86835.0
21
38639.0
0
LINE
8
BLACK
10
86835.0
20
38639.0
11
86816.0
21
38620.0
0
LINE
8
BLACK
10
86473.0
20
38658.0
11
86550.0
21
38658.0
0
LINE
8
BLACK
10
86550.0
20
38658.0
11
86588.0
21
38639.0
0
LINE
8
BLACK
10
86588.0
20
38639.0
11
86607.0
21
38620.0
0
LINE
8
BLACK
10
86607.0
20
38620.0
11
86645.0
21
38563.0
0
LINE
8
BLACK
10
86645.0
20
38563.0
11
86664.0
21
38487.0
0
LINE
8
BLACK
10
86664.0
20
38487.0
11
86664.0
21
38334.0
0
LINE
8
BLACK
10
86664.0
20
38334.0
11
86645.0
21
38296.0
0
LINE
8
BLACK
10
86645.0
20
38296.0
11
86626.0
21
38277.0
0
LINE
8
BLACK
10
86626.0
20
38277.0
11
86588.0
21
38258.0
0
LINE
8
BLACK
10
86588.0
20
38258.0
11
86511.0
21
38258.0
0
LINE
8
BLACK
10
86511.0
20
38258.0
11
86473.0
21
38277.0
0
LINE
8
BLACK
10
86473.0
20
38277.0
11
86454.0
21
38296.0
0
LINE
8
BLACK
10
86454.0
20
38296.0
11
86435.0
21
38334.0
0
LINE
8
BLACK
10
86435.0
20
38334.0
11
86435.0
21
38430.0
0
LINE
8
BLACK
10
86435.0
20
38430.0
11
86454.0
21
38468.0
0
LINE
8
BLACK
10
86454.0
20
38468.0
11
86473.0
21
38487.0
0
LINE
8
BLACK
10
86473.0
20
38487.0
11
86511.0
21
38506.0
0
LINE
8
BLACK
10
86511.0
20
38506.0
11
86588.0
21
38506.0
0
LINE
8
BLACK
10
86588.0
20
38506.0
11
86626.0
21
38487.0
0
LINE
8
BLACK
10
86626.0
20
38487.0
11
86645.0
21
38468.0
0
LINE
8
BLACK
10
86645.0
20
38468.0
11
86664.0
21
38430.0
0
LINE
8
BLACK
10
87571.0
20
37412.0
11
87571.0
21
37384.0
0
LINE
8
BLACK
10
87571.0
20
37384.0
11
87586.0
21
37355.0
0
LINE
8
BLACK
10
87586.0
20
37355.0
11
87600.0
21
37341.0
0
LINE
8
BLACK
10
87600.0
20
37341.0
11
87629.0
21
37327.0
0
LINE
8
BLACK
10
87629.0
20
37327.0
11
87686.0
21
37312.0
0
LINE
8
BLACK
10
87686.0
20
37312.0
11
87757.0
21
37312.0
0
LINE
8
BLACK
10
87757.0
20
37312.0
11
87814.0
21
37327.0
0
LINE
8
BLACK
10
87814.0
20
37327.0
11
87843.0
21
37341.0
0
LINE
8
BLACK
10
87843.0
20
37341.0
11
87857.0
21
37355.0
0
LINE
8
BLACK
10
87857.0
20
37355.0
11
87871.0
21
37384.0
0
LINE
8
BLACK
10
87871.0
20
37384.0
11
87871.0
21
37412.0
0
LINE
8
BLACK
10
87871.0
20
37412.0
11
87857.0
21
37441.0
0
LINE
8
BLACK
10
87857.0
20
37441.0
11
87843.0
21
37455.0
0
LINE
8
BLACK
10
87843.0
20
37455.0
11
87814.0
21
37470.0
0
LINE
8
BLACK
10
87814.0
20
37470.0
11
87757.0
21
37484.0
0
LINE
8
BLACK
10
87757.0
20
37484.0
11
87686.0
21
37484.0
0
LINE
8
BLACK
10
87686.0
20
37484.0
11
87629.0
21
37470.0
0
LINE
8
BLACK
10
87629.0
20
37470.0
11
87600.0
21
37455.0
0
LINE
8
BLACK
10
87600.0
20
37455.0
11
87586.0
21
37441.0
0
LINE
8
BLACK
10
87586.0
20
37441.0
11
87571.0
21
37412.0
0
LINE
8
BLACK
10
87843.0
20
37184.0
11
87857.0
21
37169.0
0
LINE
8
BLACK
10
87857.0
20
37169.0
11
87871.0
21
37184.0
0
LINE
8
BLACK
10
87871.0
20
37184.0
11
87857.0
21
37198.0
0
LINE
8
BLACK
10
87857.0
20
37198.0
11
87843.0
21
37184.0
0
LINE
8
BLACK
10
87843.0
20
37184.0
11
87871.0
21
37184.0
0
LINE
8
BLACK
10
87871.0
20
36883.0
11
87871.0
21
37055.0
0
LINE
8
BLACK
10
87871.0
20
36969.0
11
87571.0
21
36969.0
0
LINE
8
BLACK
10
87571.0
20
36969.0
11
87614.0
21
36998.0
0
LINE
8
BLACK
10
87614.0
20
36998.0
11
87643.0
21
37026.0
0
LINE
8
BLACK
10
87643.0
20
37026.0
11
87657.0
21
37055.0
0
LINE
8
BLACK
10
87671.0
20
36626.0
11
87871.0
21
36626.0
0
LINE
8
BLACK
10
87671.0
20
36755.0
11
87829.0
21
36755.0
0
LINE
8
BLACK
10
87829.0
20
36755.0
11
87857.0
21
36740.0
0
LINE
8
BLACK
10
87857.0
20
36740.0
11
87871.0
21
36712.0
0
LINE
8
BLACK
10
87871.0
20
36712.0
11
87871.0
21
36669.0
0
LINE
8
BLACK
10
87871.0
20
36669.0
11
87857.0
21
36640.0
0
LINE
8
BLACK
10
87857.0
20
36640.0
11
87843.0
21
36626.0
0
LINE
8
BLACK
10
87714.0
20
36384.0
11
87714.0
21
36484.0
0
LINE
8
BLACK
10
87871.0
20
36484.0
11
87571.0
21
36484.0
0
LINE
8
BLACK
10
87571.0
20
36484.0
11
87571.0
21
36341.0
0
ENDSEC
0
EOF
