M48
;DRILL file {PCBnew (2011-05-25)-stable} date Fri 08 Nov 2013 12:39:30 PM EST
;FORMAT={2:4/ absolute / inch / suppress trailing zeros}
FMAT,2
INCH,LZ
T1C0.025
T2C0.035
T3C0.040
T4C0.043
T5C0.063
T6C0.079
T7C0.106
T8C0.124
T9C0.130
%
G90
G05
M72
T1
X064759Y-044396
X064952Y-041581
X066162Y-043441
X06682Y-043238
X066874Y-044182
X068904Y-043565
T2
X0605Y-04375
X0615Y-04375
X0615Y-04475
X0625Y-04375
X0655Y-03825
X0665Y-03725
X0665Y-03825
X0675Y-03825
X0705Y-04375
X0715Y-04375
X0715Y-04475
X0725Y-04375
T3
X0455Y-0345
X0455Y-0355
X0455Y-0385
X0455Y-0395
X0455Y-0425
X0455Y-0435
X0455Y-0465
X0455Y-0475
X0524Y-0315
X0534Y-0315
X0544Y-0315
X0545Y-0335
X0545Y-0345
X0545Y-0355
X0545Y-0365
X0545Y-0375
X0545Y-0385
X0545Y-0395
X0545Y-0405
X0545Y-0415
X0545Y-0425
X0545Y-0435
X0545Y-0445
X0554Y-0315
X056Y-0505
X0564Y-0315
X057Y-0505
X0574Y-0315
X058Y-0505
X0584Y-0315
X059Y-0505
X0594Y-0315
X06Y-0505
X0604Y-0315
X061Y-0505
X0614Y-0315
X062Y-0505
X063Y-0315
X063Y-0505
X064Y-0315
X065Y-0315
X065Y-0505
X066Y-0315
X066Y-0505
X067Y-0315
X067Y-0505
X068Y-0315
X068Y-0505
X069Y-0315
X069Y-0505
X07Y-0315
X07Y-0505
X071Y-0505
X072Y-0315
X072Y-0505
X073Y-0315
X074Y-0315
X074Y-0505
X075Y-0315
X075Y-0505
X076Y-0315
X076Y-0505
X077Y-0315
X077Y-0505
X078Y-0315
X078Y-0505
X079Y-0315
X079Y-0505
X08Y-0505
X081Y-0505
X082Y-0315
X082Y-0325
X082Y-0335
X082Y-0345
X082Y-0355
X082Y-0365
X082Y-0375
X082Y-0385
X082Y-0395
X082Y-0405
X082Y-0415
X082Y-0425
X082Y-0435
X082Y-0445
X082Y-0455
X082Y-0465
X082Y-0475
X082Y-0485
X083Y-0315
X083Y-0325
X083Y-0335
X083Y-0345
X083Y-0355
X083Y-0365
X083Y-0375
X083Y-0385
X083Y-0395
X083Y-0405
X083Y-0415
X083Y-0425
X083Y-0435
X083Y-0445
X083Y-0455
X083Y-0465
X083Y-0475
X083Y-0485
T4
X07775Y-039
X07775Y-04
X07775Y-041
X07775Y-042
X07775Y-043
T5
X08832Y-041
T6
X0595Y-04725
X0635Y-04725
X0645Y-03475
X0685Y-03475
X0695Y-04725
X0735Y-04725
T7
X08714Y-041
X08753Y-03923
X08753Y-04277
T8
X08478Y-041
T9
X0505Y-0505
X051Y-0315
X0805Y-0315
X083Y-0505
T0
M30
