G04 (created by PCBNEW-RS274X (2011-05-25)-stable) date Fri 08 Nov 2013 12:39:22 PM EST*
G01*
G70*
G90*
%MOIN*%
G04 Gerber Fmt 3.4, Leading zero omitted, Abs format*
%FSLAX34Y34*%
G04 APERTURE LIST*
%ADD10C,0.006000*%
%ADD11C,0.009000*%
%ADD12C,0.155000*%
%ADD13O,0.060000X0.100000*%
%ADD14C,0.060000*%
%ADD15C,0.076000*%
%ADD16C,0.140000*%
%ADD17C,0.160000*%
%ADD18C,0.120000*%
%ADD19R,0.050000X0.100000*%
%ADD20R,0.047000X0.047000*%
%ADD21R,0.030000X0.125000*%
%ADD22C,0.073000*%
%ADD23R,0.073000X0.073000*%
%ADD24C,0.035000*%
%ADD25C,0.008000*%
%ADD26C,0.012000*%
%ADD27C,0.010000*%
G04 APERTURE END LIST*
G54D10*
G54D11*
X43500Y-51500D02*
X89500Y-51500D01*
X43500Y-30500D02*
X89500Y-30500D01*
X43500Y-30500D02*
X43500Y-51500D01*
X89500Y-51500D02*
X89500Y-30500D01*
G54D12*
X50500Y-50500D03*
X51000Y-31500D03*
X83000Y-50500D03*
X80500Y-31500D03*
G54D13*
X56000Y-50500D03*
X57000Y-50500D03*
X58000Y-50500D03*
X59000Y-50500D03*
X60000Y-50500D03*
X61000Y-50500D03*
X62000Y-50500D03*
X63000Y-50500D03*
X65000Y-50500D03*
X66000Y-50500D03*
X67000Y-50500D03*
X68000Y-50500D03*
X69000Y-50500D03*
X70000Y-50500D03*
X71000Y-50500D03*
X72000Y-50500D03*
X74000Y-50500D03*
X75000Y-50500D03*
X76000Y-50500D03*
X77000Y-50500D03*
X78000Y-50500D03*
X79000Y-50500D03*
X80000Y-50500D03*
X81000Y-50500D03*
X52400Y-31500D03*
X53400Y-31500D03*
X54400Y-31500D03*
X55400Y-31500D03*
X56400Y-31500D03*
X57400Y-31500D03*
X58400Y-31500D03*
X59400Y-31500D03*
X60400Y-31500D03*
X61400Y-31500D03*
X63000Y-31500D03*
X70000Y-31500D03*
X69000Y-31500D03*
X68000Y-31500D03*
X67000Y-31500D03*
X66000Y-31500D03*
X65000Y-31500D03*
X64000Y-31500D03*
X72000Y-31500D03*
X73000Y-31500D03*
X74000Y-31500D03*
X75000Y-31500D03*
X76000Y-31500D03*
X77000Y-31500D03*
X78000Y-31500D03*
X79000Y-31500D03*
G54D14*
X82000Y-31500D03*
X83000Y-31500D03*
X82000Y-32500D03*
X83000Y-32500D03*
X82000Y-33500D03*
X83000Y-33500D03*
X82000Y-34500D03*
X83000Y-34500D03*
X82000Y-35500D03*
X83000Y-35500D03*
X82000Y-36500D03*
X83000Y-36500D03*
X82000Y-37500D03*
X83000Y-37500D03*
X82000Y-38500D03*
X83000Y-38500D03*
X82000Y-39500D03*
X83000Y-39500D03*
X82000Y-40500D03*
X83000Y-40500D03*
X82000Y-41500D03*
X83000Y-41500D03*
X82000Y-42500D03*
X83000Y-42500D03*
X82000Y-43500D03*
X83000Y-43500D03*
X82000Y-44500D03*
X83000Y-44500D03*
X82000Y-45500D03*
X83000Y-45500D03*
X82000Y-46500D03*
X83000Y-46500D03*
X82000Y-47500D03*
X83000Y-47500D03*
X82000Y-48500D03*
X83000Y-48500D03*
G54D15*
X88320Y-41000D03*
G54D16*
X87140Y-41000D03*
G54D17*
X84780Y-41000D03*
G54D16*
X87530Y-39230D03*
X87530Y-42770D03*
G54D14*
X45500Y-39500D03*
X45500Y-38500D03*
X45500Y-35500D03*
X45500Y-34500D03*
X45500Y-42500D03*
X45500Y-43500D03*
X45500Y-46500D03*
X45500Y-47500D03*
X54500Y-33500D03*
X54500Y-34500D03*
X54500Y-35500D03*
X54500Y-36500D03*
X54500Y-37500D03*
X54500Y-38500D03*
X54500Y-39500D03*
X54500Y-40500D03*
X54500Y-41500D03*
X54500Y-42500D03*
X54500Y-43500D03*
X54500Y-44500D03*
G54D18*
X73500Y-47250D03*
X69500Y-47250D03*
G54D14*
X71500Y-44750D03*
X71500Y-43750D03*
X70500Y-43750D03*
X72500Y-43750D03*
G54D18*
X64500Y-34750D03*
X68500Y-34750D03*
G54D14*
X66500Y-37250D03*
X66500Y-38250D03*
X67500Y-38250D03*
X65500Y-38250D03*
G54D18*
X63500Y-47250D03*
X59500Y-47250D03*
G54D14*
X61500Y-44750D03*
X61500Y-43750D03*
X60500Y-43750D03*
X62500Y-43750D03*
G54D19*
X84400Y-44750D03*
X85600Y-44750D03*
G54D20*
X87085Y-44750D03*
X87915Y-44750D03*
G54D21*
X60250Y-35780D03*
X59250Y-35780D03*
X58250Y-35780D03*
X60250Y-33720D03*
X58250Y-33720D03*
X60250Y-39780D03*
X59250Y-39780D03*
X58250Y-39780D03*
X60250Y-37720D03*
X58250Y-37720D03*
G54D22*
X77750Y-42000D03*
X77750Y-41000D03*
G54D23*
X77750Y-43000D03*
G54D22*
X77750Y-40000D03*
X77750Y-39000D03*
G54D24*
X66162Y-43441D03*
X68904Y-43565D03*
X66820Y-43238D03*
X66874Y-44182D03*
X64759Y-44396D03*
X64952Y-41581D03*
G54D25*
X58250Y-35780D02*
X58250Y-36548D01*
X64798Y-36548D02*
X66500Y-38250D01*
X58250Y-36548D02*
X64798Y-36548D01*
X65000Y-50500D02*
X65000Y-49857D01*
X64440Y-49297D02*
X65000Y-49857D01*
X64440Y-40310D02*
X64440Y-49297D01*
X66500Y-38250D02*
X64440Y-40310D01*
X66683Y-42920D02*
X66162Y-43441D01*
X69029Y-42920D02*
X66683Y-42920D01*
X70303Y-44194D02*
X69029Y-42920D01*
X80992Y-44194D02*
X70303Y-44194D01*
X81742Y-44944D02*
X80992Y-44194D01*
X82444Y-44944D02*
X81742Y-44944D01*
X83000Y-45500D02*
X82444Y-44944D01*
X62000Y-44250D02*
X61500Y-44750D01*
X62000Y-42298D02*
X62000Y-44250D01*
X60250Y-40548D02*
X62000Y-42298D01*
X60250Y-39780D02*
X60250Y-40548D01*
X58298Y-40548D02*
X61500Y-43750D01*
X58250Y-40548D02*
X58298Y-40548D01*
X58250Y-39780D02*
X58250Y-40548D01*
X65030Y-35780D02*
X66500Y-37250D01*
X60250Y-35780D02*
X65030Y-35780D01*
X82296Y-45500D02*
X82000Y-45500D01*
X82852Y-46056D02*
X82296Y-45500D01*
X83320Y-46056D02*
X82852Y-46056D01*
X83454Y-45922D02*
X83320Y-46056D01*
X83454Y-44076D02*
X83454Y-45922D01*
X83432Y-44054D02*
X83454Y-44076D01*
X81852Y-44054D02*
X83432Y-44054D01*
X81556Y-43758D02*
X81852Y-44054D01*
X81556Y-41625D02*
X81556Y-43758D01*
X77181Y-37250D02*
X81556Y-41625D01*
X66500Y-37250D02*
X77181Y-37250D01*
X71467Y-46128D02*
X68904Y-43565D01*
X81628Y-46128D02*
X71467Y-46128D01*
X82000Y-46500D02*
X81628Y-46128D01*
X69087Y-43238D02*
X66820Y-43238D01*
X71793Y-45944D02*
X69087Y-43238D01*
X82444Y-45944D02*
X71793Y-45944D01*
X83000Y-46500D02*
X82444Y-45944D01*
X69133Y-46441D02*
X66874Y-44182D01*
X80941Y-46441D02*
X69133Y-46441D01*
X82000Y-47500D02*
X80941Y-46441D01*
X64759Y-44395D02*
X64759Y-44396D01*
X67154Y-42000D02*
X64759Y-44395D01*
X77750Y-42000D02*
X67154Y-42000D01*
X77169Y-41581D02*
X77750Y-41000D01*
X64952Y-41581D02*
X77169Y-41581D01*
G54D26*
X45500Y-35500D02*
X54500Y-35500D01*
X62000Y-49837D02*
X61000Y-49837D01*
X62000Y-50500D02*
X62000Y-49837D01*
X61000Y-50500D02*
X61000Y-49837D01*
X64002Y-36752D02*
X65500Y-38250D01*
X55752Y-36752D02*
X64002Y-36752D01*
X54500Y-35500D02*
X55752Y-36752D01*
X77750Y-43000D02*
X77222Y-43000D01*
X72500Y-43750D02*
X72500Y-43208D01*
X72708Y-43000D02*
X72500Y-43208D01*
X77222Y-43000D02*
X72708Y-43000D01*
X71042Y-43208D02*
X70500Y-43750D01*
X72500Y-43208D02*
X71042Y-43208D01*
X88595Y-43672D02*
X87915Y-44352D01*
X88595Y-42455D02*
X88595Y-43672D01*
X87140Y-41000D02*
X88595Y-42455D01*
X87915Y-44750D02*
X87915Y-44352D01*
G54D25*
X87085Y-44750D02*
X85600Y-44750D01*
X46012Y-35012D02*
X45500Y-34500D01*
X59250Y-35012D02*
X46012Y-35012D01*
X59250Y-35780D02*
X59250Y-35012D01*
X46012Y-39012D02*
X45500Y-38500D01*
X59250Y-39012D02*
X46012Y-39012D01*
X59250Y-39780D02*
X59250Y-39012D01*
G54D26*
X84780Y-43707D02*
X84780Y-41000D01*
X84400Y-44087D02*
X84780Y-43707D01*
X84400Y-44750D02*
X84400Y-44087D01*
G54D10*
G36*
X77929Y-38408D02*
X77873Y-38385D01*
X77628Y-38385D01*
X77402Y-38479D01*
X77229Y-38651D01*
X77135Y-38877D01*
X77135Y-39122D01*
X77229Y-39348D01*
X77380Y-39500D01*
X77229Y-39651D01*
X77135Y-39877D01*
X77135Y-40122D01*
X77229Y-40348D01*
X77380Y-40500D01*
X77229Y-40651D01*
X77135Y-40877D01*
X77135Y-41122D01*
X77159Y-41180D01*
X77048Y-41291D01*
X68043Y-41291D01*
X68043Y-38329D01*
X68032Y-38116D01*
X67972Y-37969D01*
X67878Y-37942D01*
X67808Y-38012D01*
X67808Y-37872D01*
X67781Y-37778D01*
X67579Y-37707D01*
X67366Y-37718D01*
X67219Y-37778D01*
X67192Y-37872D01*
X67500Y-38179D01*
X67808Y-37872D01*
X67808Y-38012D01*
X67571Y-38250D01*
X67878Y-38558D01*
X67972Y-38531D01*
X68043Y-38329D01*
X68043Y-41291D01*
X67808Y-41291D01*
X67808Y-38628D01*
X67500Y-38321D01*
X67192Y-38628D01*
X67219Y-38722D01*
X67421Y-38793D01*
X67634Y-38782D01*
X67781Y-38722D01*
X67808Y-38628D01*
X67808Y-41291D01*
X65263Y-41291D01*
X65193Y-41221D01*
X65037Y-41156D01*
X64868Y-41156D01*
X64730Y-41212D01*
X64730Y-40430D01*
X66369Y-38790D01*
X66391Y-38799D01*
X66609Y-38799D01*
X66811Y-38715D01*
X66965Y-38561D01*
X67002Y-38469D01*
X67028Y-38531D01*
X67122Y-38558D01*
X67429Y-38250D01*
X67122Y-37942D01*
X67028Y-37969D01*
X67004Y-38034D01*
X66965Y-37939D01*
X66811Y-37785D01*
X66726Y-37750D01*
X66811Y-37715D01*
X66965Y-37561D01*
X66973Y-37540D01*
X77061Y-37540D01*
X77929Y-38408D01*
X77929Y-38408D01*
G37*
G54D27*
X77929Y-38408D02*
X77873Y-38385D01*
X77628Y-38385D01*
X77402Y-38479D01*
X77229Y-38651D01*
X77135Y-38877D01*
X77135Y-39122D01*
X77229Y-39348D01*
X77380Y-39500D01*
X77229Y-39651D01*
X77135Y-39877D01*
X77135Y-40122D01*
X77229Y-40348D01*
X77380Y-40500D01*
X77229Y-40651D01*
X77135Y-40877D01*
X77135Y-41122D01*
X77159Y-41180D01*
X77048Y-41291D01*
X68043Y-41291D01*
X68043Y-38329D01*
X68032Y-38116D01*
X67972Y-37969D01*
X67878Y-37942D01*
X67808Y-38012D01*
X67808Y-37872D01*
X67781Y-37778D01*
X67579Y-37707D01*
X67366Y-37718D01*
X67219Y-37778D01*
X67192Y-37872D01*
X67500Y-38179D01*
X67808Y-37872D01*
X67808Y-38012D01*
X67571Y-38250D01*
X67878Y-38558D01*
X67972Y-38531D01*
X68043Y-38329D01*
X68043Y-41291D01*
X67808Y-41291D01*
X67808Y-38628D01*
X67500Y-38321D01*
X67192Y-38628D01*
X67219Y-38722D01*
X67421Y-38793D01*
X67634Y-38782D01*
X67781Y-38722D01*
X67808Y-38628D01*
X67808Y-41291D01*
X65263Y-41291D01*
X65193Y-41221D01*
X65037Y-41156D01*
X64868Y-41156D01*
X64730Y-41212D01*
X64730Y-40430D01*
X66369Y-38790D01*
X66391Y-38799D01*
X66609Y-38799D01*
X66811Y-38715D01*
X66965Y-38561D01*
X67002Y-38469D01*
X67028Y-38531D01*
X67122Y-38558D01*
X67429Y-38250D01*
X67122Y-37942D01*
X67028Y-37969D01*
X67004Y-38034D01*
X66965Y-37939D01*
X66811Y-37785D01*
X66726Y-37750D01*
X66811Y-37715D01*
X66965Y-37561D01*
X66973Y-37540D01*
X77061Y-37540D01*
X77929Y-38408D01*
G54D10*
G36*
X81556Y-44168D02*
X81535Y-44189D01*
X81494Y-44286D01*
X81197Y-43989D01*
X81103Y-43926D01*
X80992Y-43904D01*
X78365Y-43904D01*
X78365Y-43112D01*
X78303Y-43050D01*
X77800Y-43050D01*
X77800Y-43553D01*
X77862Y-43615D01*
X78066Y-43614D01*
X78165Y-43614D01*
X78256Y-43576D01*
X78326Y-43506D01*
X78364Y-43414D01*
X78365Y-43112D01*
X78365Y-43904D01*
X77700Y-43904D01*
X77700Y-43553D01*
X77700Y-43050D01*
X77197Y-43050D01*
X77135Y-43112D01*
X77136Y-43414D01*
X77174Y-43506D01*
X77244Y-43576D01*
X77335Y-43614D01*
X77434Y-43614D01*
X77638Y-43615D01*
X77700Y-43553D01*
X77700Y-43904D01*
X73016Y-43904D01*
X73043Y-43829D01*
X73032Y-43616D01*
X72972Y-43469D01*
X72878Y-43442D01*
X72808Y-43512D01*
X72808Y-43372D01*
X72781Y-43278D01*
X72579Y-43207D01*
X72366Y-43218D01*
X72219Y-43278D01*
X72192Y-43372D01*
X72500Y-43679D01*
X72808Y-43372D01*
X72808Y-43512D01*
X72571Y-43750D01*
X72500Y-43821D01*
X72429Y-43750D01*
X72394Y-43715D01*
X72122Y-43442D01*
X72028Y-43469D01*
X72004Y-43534D01*
X71965Y-43439D01*
X71811Y-43285D01*
X71609Y-43201D01*
X71391Y-43201D01*
X71189Y-43285D01*
X71035Y-43439D01*
X70997Y-43530D01*
X70972Y-43469D01*
X70878Y-43442D01*
X70808Y-43512D01*
X70808Y-43372D01*
X70781Y-43278D01*
X70579Y-43207D01*
X70366Y-43218D01*
X70219Y-43278D01*
X70192Y-43372D01*
X70500Y-43679D01*
X70808Y-43372D01*
X70808Y-43512D01*
X70571Y-43750D01*
X70500Y-43821D01*
X70429Y-43750D01*
X70394Y-43715D01*
X70122Y-43442D01*
X70028Y-43469D01*
X70017Y-43498D01*
X69234Y-42715D01*
X69140Y-42652D01*
X69029Y-42630D01*
X66934Y-42630D01*
X67274Y-42290D01*
X77204Y-42290D01*
X77229Y-42348D01*
X77286Y-42406D01*
X77244Y-42424D01*
X77174Y-42494D01*
X77136Y-42586D01*
X77135Y-42888D01*
X77197Y-42950D01*
X77650Y-42950D01*
X77700Y-42950D01*
X77800Y-42950D01*
X77850Y-42950D01*
X78303Y-42950D01*
X78365Y-42888D01*
X78364Y-42586D01*
X78326Y-42494D01*
X78256Y-42424D01*
X78213Y-42406D01*
X78271Y-42349D01*
X78365Y-42123D01*
X78365Y-41878D01*
X78271Y-41652D01*
X78119Y-41499D01*
X78271Y-41349D01*
X78365Y-41123D01*
X78365Y-40878D01*
X78271Y-40652D01*
X78119Y-40499D01*
X78271Y-40349D01*
X78365Y-40123D01*
X78365Y-39878D01*
X78271Y-39652D01*
X78119Y-39499D01*
X78271Y-39349D01*
X78365Y-39123D01*
X78365Y-38878D01*
X78340Y-38819D01*
X81266Y-41745D01*
X81266Y-43758D01*
X81288Y-43869D01*
X81351Y-43963D01*
X81556Y-44168D01*
X81556Y-44168D01*
G37*
G54D27*
X81556Y-44168D02*
X81535Y-44189D01*
X81494Y-44286D01*
X81197Y-43989D01*
X81103Y-43926D01*
X80992Y-43904D01*
X78365Y-43904D01*
X78365Y-43112D01*
X78303Y-43050D01*
X77800Y-43050D01*
X77800Y-43553D01*
X77862Y-43615D01*
X78066Y-43614D01*
X78165Y-43614D01*
X78256Y-43576D01*
X78326Y-43506D01*
X78364Y-43414D01*
X78365Y-43112D01*
X78365Y-43904D01*
X77700Y-43904D01*
X77700Y-43553D01*
X77700Y-43050D01*
X77197Y-43050D01*
X77135Y-43112D01*
X77136Y-43414D01*
X77174Y-43506D01*
X77244Y-43576D01*
X77335Y-43614D01*
X77434Y-43614D01*
X77638Y-43615D01*
X77700Y-43553D01*
X77700Y-43904D01*
X73016Y-43904D01*
X73043Y-43829D01*
X73032Y-43616D01*
X72972Y-43469D01*
X72878Y-43442D01*
X72808Y-43512D01*
X72808Y-43372D01*
X72781Y-43278D01*
X72579Y-43207D01*
X72366Y-43218D01*
X72219Y-43278D01*
X72192Y-43372D01*
X72500Y-43679D01*
X72808Y-43372D01*
X72808Y-43512D01*
X72571Y-43750D01*
X72500Y-43821D01*
X72429Y-43750D01*
X72394Y-43715D01*
X72122Y-43442D01*
X72028Y-43469D01*
X72004Y-43534D01*
X71965Y-43439D01*
X71811Y-43285D01*
X71609Y-43201D01*
X71391Y-43201D01*
X71189Y-43285D01*
X71035Y-43439D01*
X70997Y-43530D01*
X70972Y-43469D01*
X70878Y-43442D01*
X70808Y-43512D01*
X70808Y-43372D01*
X70781Y-43278D01*
X70579Y-43207D01*
X70366Y-43218D01*
X70219Y-43278D01*
X70192Y-43372D01*
X70500Y-43679D01*
X70808Y-43372D01*
X70808Y-43512D01*
X70571Y-43750D01*
X70500Y-43821D01*
X70429Y-43750D01*
X70394Y-43715D01*
X70122Y-43442D01*
X70028Y-43469D01*
X70017Y-43498D01*
X69234Y-42715D01*
X69140Y-42652D01*
X69029Y-42630D01*
X66934Y-42630D01*
X67274Y-42290D01*
X77204Y-42290D01*
X77229Y-42348D01*
X77286Y-42406D01*
X77244Y-42424D01*
X77174Y-42494D01*
X77136Y-42586D01*
X77135Y-42888D01*
X77197Y-42950D01*
X77650Y-42950D01*
X77700Y-42950D01*
X77800Y-42950D01*
X77850Y-42950D01*
X78303Y-42950D01*
X78365Y-42888D01*
X78364Y-42586D01*
X78326Y-42494D01*
X78256Y-42424D01*
X78213Y-42406D01*
X78271Y-42349D01*
X78365Y-42123D01*
X78365Y-41878D01*
X78271Y-41652D01*
X78119Y-41499D01*
X78271Y-41349D01*
X78365Y-41123D01*
X78365Y-40878D01*
X78271Y-40652D01*
X78119Y-40499D01*
X78271Y-40349D01*
X78365Y-40123D01*
X78365Y-39878D01*
X78271Y-39652D01*
X78119Y-39499D01*
X78271Y-39349D01*
X78365Y-39123D01*
X78365Y-38878D01*
X78340Y-38819D01*
X81266Y-41745D01*
X81266Y-43758D01*
X81288Y-43869D01*
X81351Y-43963D01*
X81556Y-44168D01*
G54D10*
G36*
X81773Y-41000D02*
X81689Y-41035D01*
X81535Y-41189D01*
X81533Y-41192D01*
X77386Y-37045D01*
X77292Y-36982D01*
X77181Y-36960D01*
X69350Y-36960D01*
X69350Y-34920D01*
X69350Y-34582D01*
X69221Y-34270D01*
X68982Y-34030D01*
X68670Y-33900D01*
X68332Y-33900D01*
X68020Y-34029D01*
X67780Y-34268D01*
X67650Y-34580D01*
X67650Y-34918D01*
X67779Y-35230D01*
X68018Y-35470D01*
X68330Y-35600D01*
X68668Y-35600D01*
X68980Y-35471D01*
X69220Y-35232D01*
X69350Y-34920D01*
X69350Y-36960D01*
X66973Y-36960D01*
X66965Y-36939D01*
X66811Y-36785D01*
X66609Y-36701D01*
X66391Y-36701D01*
X66369Y-36709D01*
X65235Y-35575D01*
X65141Y-35512D01*
X65030Y-35490D01*
X64934Y-35490D01*
X64980Y-35471D01*
X65220Y-35232D01*
X65350Y-34920D01*
X65350Y-34582D01*
X65221Y-34270D01*
X64982Y-34030D01*
X64670Y-33900D01*
X64332Y-33900D01*
X64020Y-34029D01*
X63780Y-34268D01*
X63650Y-34580D01*
X63650Y-34918D01*
X63779Y-35230D01*
X64018Y-35470D01*
X64066Y-35490D01*
X60649Y-35490D01*
X60649Y-35106D01*
X60649Y-34395D01*
X60649Y-34296D01*
X60649Y-33046D01*
X60611Y-32954D01*
X60541Y-32884D01*
X60450Y-32846D01*
X60351Y-32846D01*
X60051Y-32846D01*
X59959Y-32884D01*
X59889Y-32954D01*
X59851Y-33045D01*
X59851Y-33144D01*
X59851Y-34394D01*
X59889Y-34486D01*
X59959Y-34556D01*
X60050Y-34594D01*
X60149Y-34594D01*
X60449Y-34594D01*
X60541Y-34556D01*
X60611Y-34486D01*
X60649Y-34395D01*
X60649Y-35106D01*
X60611Y-35014D01*
X60541Y-34944D01*
X60450Y-34906D01*
X60351Y-34906D01*
X60051Y-34906D01*
X59959Y-34944D01*
X59889Y-35014D01*
X59851Y-35105D01*
X59851Y-35204D01*
X59851Y-36258D01*
X59649Y-36258D01*
X59649Y-35106D01*
X59611Y-35014D01*
X59541Y-34944D01*
X59525Y-34937D01*
X59518Y-34901D01*
X59455Y-34807D01*
X59361Y-34744D01*
X59250Y-34722D01*
X58649Y-34722D01*
X58649Y-34395D01*
X58649Y-34296D01*
X58649Y-33046D01*
X58611Y-32954D01*
X58541Y-32884D01*
X58450Y-32846D01*
X58351Y-32846D01*
X58051Y-32846D01*
X57959Y-32884D01*
X57889Y-32954D01*
X57851Y-33045D01*
X57851Y-33144D01*
X57851Y-34394D01*
X57889Y-34486D01*
X57959Y-34556D01*
X58050Y-34594D01*
X58149Y-34594D01*
X58449Y-34594D01*
X58541Y-34556D01*
X58611Y-34486D01*
X58649Y-34395D01*
X58649Y-34722D01*
X55002Y-34722D01*
X55049Y-34609D01*
X55049Y-34391D01*
X54965Y-34189D01*
X54811Y-34035D01*
X54726Y-34000D01*
X54811Y-33965D01*
X54965Y-33811D01*
X55049Y-33609D01*
X55049Y-33391D01*
X54965Y-33189D01*
X54811Y-33035D01*
X54609Y-32951D01*
X54391Y-32951D01*
X54189Y-33035D01*
X54035Y-33189D01*
X53951Y-33391D01*
X53951Y-33609D01*
X54035Y-33811D01*
X54189Y-33965D01*
X54273Y-34000D01*
X54189Y-34035D01*
X54035Y-34189D01*
X53951Y-34391D01*
X53951Y-34609D01*
X53997Y-34722D01*
X46132Y-34722D01*
X46040Y-34630D01*
X46049Y-34609D01*
X46049Y-34391D01*
X45965Y-34189D01*
X45811Y-34035D01*
X45609Y-33951D01*
X45391Y-33951D01*
X45189Y-34035D01*
X45035Y-34189D01*
X44951Y-34391D01*
X44951Y-34609D01*
X45035Y-34811D01*
X45189Y-34965D01*
X45280Y-35002D01*
X45219Y-35028D01*
X45192Y-35122D01*
X45465Y-35394D01*
X45500Y-35429D01*
X45571Y-35500D01*
X45606Y-35535D01*
X45878Y-35808D01*
X45972Y-35781D01*
X46043Y-35579D01*
X46032Y-35366D01*
X46005Y-35300D01*
X46012Y-35302D01*
X53998Y-35302D01*
X53957Y-35421D01*
X53968Y-35634D01*
X54028Y-35781D01*
X54122Y-35808D01*
X54394Y-35535D01*
X54429Y-35500D01*
X54500Y-35429D01*
X54571Y-35500D01*
X54606Y-35535D01*
X54878Y-35808D01*
X54972Y-35781D01*
X55043Y-35579D01*
X55032Y-35366D01*
X55005Y-35302D01*
X57851Y-35302D01*
X57851Y-36454D01*
X57889Y-36546D01*
X57959Y-36616D01*
X57974Y-36622D01*
X57982Y-36659D01*
X58045Y-36753D01*
X58139Y-36816D01*
X58250Y-36838D01*
X64678Y-36838D01*
X65548Y-37708D01*
X65366Y-37718D01*
X65219Y-37778D01*
X65192Y-37872D01*
X65465Y-38144D01*
X65500Y-38179D01*
X65571Y-38250D01*
X65500Y-38321D01*
X65429Y-38391D01*
X65429Y-38250D01*
X65122Y-37942D01*
X65028Y-37969D01*
X64957Y-38171D01*
X64968Y-38384D01*
X65028Y-38531D01*
X65122Y-38558D01*
X65429Y-38250D01*
X65429Y-38391D01*
X65192Y-38628D01*
X65219Y-38722D01*
X65421Y-38793D01*
X65553Y-38786D01*
X64235Y-40105D01*
X64172Y-40199D01*
X64150Y-40310D01*
X64150Y-46698D01*
X63982Y-46530D01*
X63670Y-46400D01*
X63332Y-46400D01*
X63043Y-46519D01*
X63043Y-43829D01*
X63032Y-43616D01*
X62972Y-43469D01*
X62878Y-43442D01*
X62571Y-43750D01*
X62878Y-44058D01*
X62972Y-44031D01*
X63043Y-43829D01*
X63043Y-46519D01*
X63020Y-46529D01*
X62808Y-46740D01*
X62808Y-44128D01*
X62535Y-43856D01*
X62500Y-43821D01*
X62429Y-43750D01*
X62500Y-43679D01*
X62535Y-43644D01*
X62808Y-43372D01*
X62781Y-43278D01*
X62579Y-43207D01*
X62366Y-43218D01*
X62290Y-43249D01*
X62290Y-42298D01*
X62289Y-42297D01*
X62268Y-42187D01*
X62267Y-42186D01*
X62205Y-42093D01*
X62204Y-42092D01*
X60624Y-40512D01*
X60649Y-40455D01*
X60649Y-40356D01*
X60649Y-39106D01*
X60649Y-38395D01*
X60649Y-38296D01*
X60649Y-37046D01*
X60611Y-36954D01*
X60541Y-36884D01*
X60450Y-36846D01*
X60351Y-36846D01*
X60051Y-36846D01*
X59959Y-36884D01*
X59889Y-36954D01*
X59851Y-37045D01*
X59851Y-37144D01*
X59851Y-38394D01*
X59889Y-38486D01*
X59959Y-38556D01*
X60050Y-38594D01*
X60149Y-38594D01*
X60449Y-38594D01*
X60541Y-38556D01*
X60611Y-38486D01*
X60649Y-38395D01*
X60649Y-39106D01*
X60611Y-39014D01*
X60541Y-38944D01*
X60450Y-38906D01*
X60351Y-38906D01*
X60051Y-38906D01*
X59959Y-38944D01*
X59889Y-39014D01*
X59851Y-39105D01*
X59851Y-39204D01*
X59851Y-40454D01*
X59889Y-40546D01*
X59959Y-40616D01*
X59974Y-40622D01*
X59982Y-40659D01*
X60045Y-40753D01*
X61710Y-42418D01*
X61710Y-43243D01*
X61609Y-43201D01*
X61391Y-43201D01*
X61369Y-43209D01*
X58638Y-40478D01*
X58649Y-40455D01*
X58649Y-40356D01*
X58649Y-39302D01*
X58851Y-39302D01*
X58851Y-40454D01*
X58889Y-40546D01*
X58959Y-40616D01*
X59050Y-40654D01*
X59149Y-40654D01*
X59449Y-40654D01*
X59541Y-40616D01*
X59611Y-40546D01*
X59649Y-40455D01*
X59649Y-40356D01*
X59649Y-39106D01*
X59611Y-39014D01*
X59541Y-38944D01*
X59525Y-38937D01*
X59518Y-38901D01*
X59455Y-38807D01*
X59361Y-38744D01*
X59250Y-38722D01*
X58649Y-38722D01*
X58649Y-38395D01*
X58649Y-38296D01*
X58649Y-37046D01*
X58611Y-36954D01*
X58541Y-36884D01*
X58450Y-36846D01*
X58351Y-36846D01*
X58051Y-36846D01*
X57959Y-36884D01*
X57889Y-36954D01*
X57851Y-37045D01*
X57851Y-37144D01*
X57851Y-38394D01*
X57889Y-38486D01*
X57959Y-38556D01*
X58050Y-38594D01*
X58149Y-38594D01*
X58449Y-38594D01*
X58541Y-38556D01*
X58611Y-38486D01*
X58649Y-38395D01*
X58649Y-38722D01*
X55002Y-38722D01*
X55049Y-38609D01*
X55049Y-38391D01*
X54965Y-38189D01*
X54811Y-38035D01*
X54726Y-38000D01*
X54811Y-37965D01*
X54965Y-37811D01*
X55049Y-37609D01*
X55049Y-37391D01*
X54965Y-37189D01*
X54811Y-37035D01*
X54726Y-37000D01*
X54811Y-36965D01*
X54965Y-36811D01*
X55049Y-36609D01*
X55049Y-36391D01*
X54965Y-36189D01*
X54811Y-36035D01*
X54719Y-35997D01*
X54781Y-35972D01*
X54808Y-35878D01*
X54500Y-35571D01*
X54192Y-35878D01*
X54219Y-35972D01*
X54284Y-35995D01*
X54189Y-36035D01*
X54035Y-36189D01*
X53951Y-36391D01*
X53951Y-36609D01*
X54035Y-36811D01*
X54189Y-36965D01*
X54273Y-37000D01*
X54189Y-37035D01*
X54035Y-37189D01*
X53951Y-37391D01*
X53951Y-37609D01*
X54035Y-37811D01*
X54189Y-37965D01*
X54273Y-38000D01*
X54189Y-38035D01*
X54035Y-38189D01*
X53951Y-38391D01*
X53951Y-38609D01*
X53997Y-38722D01*
X46132Y-38722D01*
X46040Y-38630D01*
X46049Y-38609D01*
X46049Y-38391D01*
X45965Y-38189D01*
X45811Y-38035D01*
X45808Y-38033D01*
X45808Y-35878D01*
X45500Y-35571D01*
X45429Y-35641D01*
X45429Y-35500D01*
X45122Y-35192D01*
X45028Y-35219D01*
X44957Y-35421D01*
X44968Y-35634D01*
X45028Y-35781D01*
X45122Y-35808D01*
X45429Y-35500D01*
X45429Y-35641D01*
X45192Y-35878D01*
X45219Y-35972D01*
X45421Y-36043D01*
X45634Y-36032D01*
X45781Y-35972D01*
X45808Y-35878D01*
X45808Y-38033D01*
X45609Y-37951D01*
X45391Y-37951D01*
X45189Y-38035D01*
X45035Y-38189D01*
X44951Y-38391D01*
X44951Y-38609D01*
X45035Y-38811D01*
X45189Y-38965D01*
X45280Y-39002D01*
X45219Y-39028D01*
X45192Y-39122D01*
X45465Y-39394D01*
X45500Y-39429D01*
X45571Y-39500D01*
X45606Y-39535D01*
X45878Y-39808D01*
X45972Y-39781D01*
X46043Y-39579D01*
X46032Y-39366D01*
X46005Y-39300D01*
X46012Y-39302D01*
X53988Y-39302D01*
X53951Y-39391D01*
X53951Y-39609D01*
X54035Y-39811D01*
X54189Y-39965D01*
X54273Y-40000D01*
X54189Y-40035D01*
X54035Y-40189D01*
X53951Y-40391D01*
X53951Y-40609D01*
X54035Y-40811D01*
X54189Y-40965D01*
X54273Y-41000D01*
X54189Y-41035D01*
X54035Y-41189D01*
X53951Y-41391D01*
X53951Y-41609D01*
X54035Y-41811D01*
X54189Y-41965D01*
X54273Y-42000D01*
X54189Y-42035D01*
X54035Y-42189D01*
X53951Y-42391D01*
X53951Y-42609D01*
X54035Y-42811D01*
X54189Y-42965D01*
X54273Y-43000D01*
X54189Y-43035D01*
X54035Y-43189D01*
X53951Y-43391D01*
X53951Y-43609D01*
X54035Y-43811D01*
X54189Y-43965D01*
X54273Y-44000D01*
X54189Y-44035D01*
X54035Y-44189D01*
X53951Y-44391D01*
X53951Y-44609D01*
X54035Y-44811D01*
X54189Y-44965D01*
X54391Y-45049D01*
X54609Y-45049D01*
X54811Y-44965D01*
X54965Y-44811D01*
X55049Y-44609D01*
X55049Y-44391D01*
X54965Y-44189D01*
X54811Y-44035D01*
X54726Y-44000D01*
X54811Y-43965D01*
X54965Y-43811D01*
X55049Y-43609D01*
X55049Y-43391D01*
X54965Y-43189D01*
X54811Y-43035D01*
X54726Y-43000D01*
X54811Y-42965D01*
X54965Y-42811D01*
X55049Y-42609D01*
X55049Y-42391D01*
X54965Y-42189D01*
X54811Y-42035D01*
X54726Y-42000D01*
X54811Y-41965D01*
X54965Y-41811D01*
X55049Y-41609D01*
X55049Y-41391D01*
X54965Y-41189D01*
X54811Y-41035D01*
X54726Y-41000D01*
X54811Y-40965D01*
X54965Y-40811D01*
X55049Y-40609D01*
X55049Y-40391D01*
X54965Y-40189D01*
X54811Y-40035D01*
X54726Y-40000D01*
X54811Y-39965D01*
X54965Y-39811D01*
X55049Y-39609D01*
X55049Y-39391D01*
X55011Y-39302D01*
X57851Y-39302D01*
X57851Y-40454D01*
X57889Y-40546D01*
X57959Y-40616D01*
X57974Y-40622D01*
X57982Y-40659D01*
X58045Y-40753D01*
X58139Y-40816D01*
X58160Y-40820D01*
X60548Y-43208D01*
X60366Y-43218D01*
X60219Y-43278D01*
X60192Y-43372D01*
X60465Y-43644D01*
X60500Y-43679D01*
X60571Y-43750D01*
X60606Y-43785D01*
X60878Y-44058D01*
X60972Y-44031D01*
X60995Y-43965D01*
X61035Y-44061D01*
X61189Y-44215D01*
X61273Y-44250D01*
X61189Y-44285D01*
X61035Y-44439D01*
X60951Y-44641D01*
X60951Y-44859D01*
X61035Y-45061D01*
X61189Y-45215D01*
X61391Y-45299D01*
X61609Y-45299D01*
X61811Y-45215D01*
X61965Y-45061D01*
X62049Y-44859D01*
X62049Y-44641D01*
X62040Y-44619D01*
X62205Y-44455D01*
X62268Y-44361D01*
X62290Y-44250D01*
X62290Y-44246D01*
X62421Y-44293D01*
X62634Y-44282D01*
X62781Y-44222D01*
X62808Y-44128D01*
X62808Y-46740D01*
X62780Y-46768D01*
X62650Y-47080D01*
X62650Y-47418D01*
X62779Y-47730D01*
X63018Y-47970D01*
X63330Y-48100D01*
X63668Y-48100D01*
X63980Y-47971D01*
X64150Y-47801D01*
X64150Y-49297D01*
X64172Y-49408D01*
X64235Y-49502D01*
X64627Y-49894D01*
X64543Y-49980D01*
X64460Y-50178D01*
X64460Y-50393D01*
X64460Y-50821D01*
X64542Y-51020D01*
X64694Y-51171D01*
X64775Y-51205D01*
X63225Y-51205D01*
X63306Y-51172D01*
X63457Y-51020D01*
X63540Y-50822D01*
X63540Y-50607D01*
X63540Y-50179D01*
X63458Y-49980D01*
X63306Y-49829D01*
X63108Y-49746D01*
X62893Y-49746D01*
X62694Y-49828D01*
X62543Y-49980D01*
X62500Y-50081D01*
X62489Y-50043D01*
X62353Y-49875D01*
X62163Y-49772D01*
X62135Y-49768D01*
X62050Y-49815D01*
X62050Y-50400D01*
X62050Y-50450D01*
X62050Y-50550D01*
X61950Y-50550D01*
X61950Y-50450D01*
X61950Y-49815D01*
X61865Y-49768D01*
X61837Y-49772D01*
X61647Y-49875D01*
X61511Y-50043D01*
X61500Y-50080D01*
X61489Y-50043D01*
X61353Y-49875D01*
X61163Y-49772D01*
X61135Y-49768D01*
X61050Y-49815D01*
X61050Y-50450D01*
X61450Y-50450D01*
X61550Y-50450D01*
X61950Y-50450D01*
X61950Y-50550D01*
X61900Y-50550D01*
X61550Y-50550D01*
X61450Y-50550D01*
X61100Y-50550D01*
X61050Y-50550D01*
X60950Y-50550D01*
X60950Y-50450D01*
X60950Y-50400D01*
X60950Y-49815D01*
X60865Y-49768D01*
X60837Y-49772D01*
X60808Y-49787D01*
X60808Y-44128D01*
X60500Y-43821D01*
X60429Y-43891D01*
X60429Y-43750D01*
X60122Y-43442D01*
X60028Y-43469D01*
X59957Y-43671D01*
X59968Y-43884D01*
X60028Y-44031D01*
X60122Y-44058D01*
X60429Y-43750D01*
X60429Y-43891D01*
X60192Y-44128D01*
X60219Y-44222D01*
X60421Y-44293D01*
X60634Y-44282D01*
X60781Y-44222D01*
X60808Y-44128D01*
X60808Y-49787D01*
X60647Y-49875D01*
X60511Y-50043D01*
X60499Y-50081D01*
X60458Y-49980D01*
X60350Y-49872D01*
X60350Y-47420D01*
X60350Y-47082D01*
X60221Y-46770D01*
X59982Y-46530D01*
X59670Y-46400D01*
X59332Y-46400D01*
X59020Y-46529D01*
X58780Y-46768D01*
X58650Y-47080D01*
X58650Y-47418D01*
X58779Y-47730D01*
X59018Y-47970D01*
X59330Y-48100D01*
X59668Y-48100D01*
X59980Y-47971D01*
X60220Y-47732D01*
X60350Y-47420D01*
X60350Y-49872D01*
X60306Y-49829D01*
X60108Y-49746D01*
X59893Y-49746D01*
X59694Y-49828D01*
X59543Y-49980D01*
X59500Y-50082D01*
X59458Y-49980D01*
X59306Y-49829D01*
X59108Y-49746D01*
X58893Y-49746D01*
X58694Y-49828D01*
X58543Y-49980D01*
X58500Y-50082D01*
X58458Y-49980D01*
X58306Y-49829D01*
X58108Y-49746D01*
X57893Y-49746D01*
X57694Y-49828D01*
X57543Y-49980D01*
X57500Y-50082D01*
X57458Y-49980D01*
X57306Y-49829D01*
X57108Y-49746D01*
X56893Y-49746D01*
X56694Y-49828D01*
X56543Y-49980D01*
X56500Y-50082D01*
X56458Y-49980D01*
X56306Y-49829D01*
X56108Y-49746D01*
X55893Y-49746D01*
X55694Y-49828D01*
X55543Y-49980D01*
X55460Y-50178D01*
X55460Y-50393D01*
X55460Y-50821D01*
X55542Y-51020D01*
X55694Y-51171D01*
X55775Y-51205D01*
X51244Y-51205D01*
X51368Y-51081D01*
X51525Y-50705D01*
X51525Y-50297D01*
X51369Y-49920D01*
X51081Y-49632D01*
X50705Y-49475D01*
X50297Y-49475D01*
X49920Y-49631D01*
X49632Y-49919D01*
X49475Y-50295D01*
X49475Y-50703D01*
X49631Y-51080D01*
X49756Y-51205D01*
X46049Y-51205D01*
X46049Y-46609D01*
X46049Y-46391D01*
X46049Y-42609D01*
X46049Y-42391D01*
X45965Y-42189D01*
X45811Y-42035D01*
X45808Y-42033D01*
X45808Y-39878D01*
X45500Y-39571D01*
X45429Y-39641D01*
X45429Y-39500D01*
X45122Y-39192D01*
X45028Y-39219D01*
X44957Y-39421D01*
X44968Y-39634D01*
X45028Y-39781D01*
X45122Y-39808D01*
X45429Y-39500D01*
X45429Y-39641D01*
X45192Y-39878D01*
X45219Y-39972D01*
X45421Y-40043D01*
X45634Y-40032D01*
X45781Y-39972D01*
X45808Y-39878D01*
X45808Y-42033D01*
X45609Y-41951D01*
X45391Y-41951D01*
X45189Y-42035D01*
X45035Y-42189D01*
X44951Y-42391D01*
X44951Y-42609D01*
X45035Y-42811D01*
X45189Y-42965D01*
X45280Y-43002D01*
X45219Y-43028D01*
X45192Y-43122D01*
X45500Y-43429D01*
X45808Y-43122D01*
X45781Y-43028D01*
X45715Y-43004D01*
X45811Y-42965D01*
X45965Y-42811D01*
X46049Y-42609D01*
X46049Y-46391D01*
X46043Y-46376D01*
X46043Y-43579D01*
X46032Y-43366D01*
X45972Y-43219D01*
X45878Y-43192D01*
X45571Y-43500D01*
X45878Y-43808D01*
X45972Y-43781D01*
X46043Y-43579D01*
X46043Y-46376D01*
X45965Y-46189D01*
X45811Y-46035D01*
X45808Y-46033D01*
X45808Y-43878D01*
X45500Y-43571D01*
X45429Y-43641D01*
X45429Y-43500D01*
X45122Y-43192D01*
X45028Y-43219D01*
X44957Y-43421D01*
X44968Y-43634D01*
X45028Y-43781D01*
X45122Y-43808D01*
X45429Y-43500D01*
X45429Y-43641D01*
X45192Y-43878D01*
X45219Y-43972D01*
X45421Y-44043D01*
X45634Y-44032D01*
X45781Y-43972D01*
X45808Y-43878D01*
X45808Y-46033D01*
X45609Y-45951D01*
X45391Y-45951D01*
X45189Y-46035D01*
X45035Y-46189D01*
X44951Y-46391D01*
X44951Y-46609D01*
X45035Y-46811D01*
X45189Y-46965D01*
X45280Y-47002D01*
X45219Y-47028D01*
X45192Y-47122D01*
X45500Y-47429D01*
X45808Y-47122D01*
X45781Y-47028D01*
X45715Y-47004D01*
X45811Y-46965D01*
X45965Y-46811D01*
X46049Y-46609D01*
X46049Y-51205D01*
X46043Y-51205D01*
X46043Y-47579D01*
X46032Y-47366D01*
X45972Y-47219D01*
X45878Y-47192D01*
X45571Y-47500D01*
X45878Y-47808D01*
X45972Y-47781D01*
X46043Y-47579D01*
X46043Y-51205D01*
X45808Y-51205D01*
X45808Y-47878D01*
X45500Y-47571D01*
X45429Y-47641D01*
X45429Y-47500D01*
X45122Y-47192D01*
X45028Y-47219D01*
X44957Y-47421D01*
X44968Y-47634D01*
X45028Y-47781D01*
X45122Y-47808D01*
X45429Y-47500D01*
X45429Y-47641D01*
X45192Y-47878D01*
X45219Y-47972D01*
X45421Y-48043D01*
X45634Y-48032D01*
X45781Y-47972D01*
X45808Y-47878D01*
X45808Y-51205D01*
X43795Y-51205D01*
X43795Y-30795D01*
X50256Y-30795D01*
X50132Y-30919D01*
X49975Y-31295D01*
X49975Y-31703D01*
X50131Y-32080D01*
X50419Y-32368D01*
X50795Y-32525D01*
X51203Y-32525D01*
X51580Y-32369D01*
X51868Y-32081D01*
X51917Y-31961D01*
X51942Y-32020D01*
X52094Y-32171D01*
X52292Y-32254D01*
X52507Y-32254D01*
X52706Y-32172D01*
X52857Y-32020D01*
X52899Y-31917D01*
X52942Y-32020D01*
X53094Y-32171D01*
X53292Y-32254D01*
X53507Y-32254D01*
X53706Y-32172D01*
X53857Y-32020D01*
X53899Y-31917D01*
X53942Y-32020D01*
X54094Y-32171D01*
X54292Y-32254D01*
X54507Y-32254D01*
X54706Y-32172D01*
X54857Y-32020D01*
X54899Y-31917D01*
X54942Y-32020D01*
X55094Y-32171D01*
X55292Y-32254D01*
X55507Y-32254D01*
X55706Y-32172D01*
X55857Y-32020D01*
X55899Y-31917D01*
X55942Y-32020D01*
X56094Y-32171D01*
X56292Y-32254D01*
X56507Y-32254D01*
X56706Y-32172D01*
X56857Y-32020D01*
X56899Y-31917D01*
X56942Y-32020D01*
X57094Y-32171D01*
X57292Y-32254D01*
X57507Y-32254D01*
X57706Y-32172D01*
X57857Y-32020D01*
X57899Y-31917D01*
X57942Y-32020D01*
X58094Y-32171D01*
X58292Y-32254D01*
X58507Y-32254D01*
X58706Y-32172D01*
X58857Y-32020D01*
X58899Y-31917D01*
X58942Y-32020D01*
X59094Y-32171D01*
X59292Y-32254D01*
X59507Y-32254D01*
X59706Y-32172D01*
X59857Y-32020D01*
X59899Y-31917D01*
X59942Y-32020D01*
X60094Y-32171D01*
X60292Y-32254D01*
X60507Y-32254D01*
X60706Y-32172D01*
X60857Y-32020D01*
X60899Y-31917D01*
X60942Y-32020D01*
X61094Y-32171D01*
X61292Y-32254D01*
X61507Y-32254D01*
X61706Y-32172D01*
X61857Y-32020D01*
X61940Y-31822D01*
X61940Y-31607D01*
X61940Y-31179D01*
X61858Y-30980D01*
X61706Y-30829D01*
X61624Y-30795D01*
X62774Y-30795D01*
X62694Y-30828D01*
X62543Y-30980D01*
X62460Y-31178D01*
X62460Y-31393D01*
X62460Y-31821D01*
X62542Y-32020D01*
X62694Y-32171D01*
X62892Y-32254D01*
X63107Y-32254D01*
X63306Y-32172D01*
X63457Y-32020D01*
X63499Y-31917D01*
X63542Y-32020D01*
X63694Y-32171D01*
X63892Y-32254D01*
X64107Y-32254D01*
X64306Y-32172D01*
X64457Y-32020D01*
X64499Y-31917D01*
X64542Y-32020D01*
X64694Y-32171D01*
X64892Y-32254D01*
X65107Y-32254D01*
X65306Y-32172D01*
X65457Y-32020D01*
X65499Y-31917D01*
X65542Y-32020D01*
X65694Y-32171D01*
X65892Y-32254D01*
X66107Y-32254D01*
X66306Y-32172D01*
X66457Y-32020D01*
X66499Y-31917D01*
X66542Y-32020D01*
X66694Y-32171D01*
X66892Y-32254D01*
X67107Y-32254D01*
X67306Y-32172D01*
X67457Y-32020D01*
X67499Y-31917D01*
X67542Y-32020D01*
X67694Y-32171D01*
X67892Y-32254D01*
X68107Y-32254D01*
X68306Y-32172D01*
X68457Y-32020D01*
X68499Y-31917D01*
X68542Y-32020D01*
X68694Y-32171D01*
X68892Y-32254D01*
X69107Y-32254D01*
X69306Y-32172D01*
X69457Y-32020D01*
X69499Y-31917D01*
X69542Y-32020D01*
X69694Y-32171D01*
X69892Y-32254D01*
X70107Y-32254D01*
X70306Y-32172D01*
X70457Y-32020D01*
X70540Y-31822D01*
X70540Y-31607D01*
X70540Y-31179D01*
X70458Y-30980D01*
X70306Y-30829D01*
X70224Y-30795D01*
X71774Y-30795D01*
X71694Y-30828D01*
X71543Y-30980D01*
X71460Y-31178D01*
X71460Y-31393D01*
X71460Y-31821D01*
X71542Y-32020D01*
X71694Y-32171D01*
X71892Y-32254D01*
X72107Y-32254D01*
X72306Y-32172D01*
X72457Y-32020D01*
X72499Y-31917D01*
X72542Y-32020D01*
X72694Y-32171D01*
X72892Y-32254D01*
X73107Y-32254D01*
X73306Y-32172D01*
X73457Y-32020D01*
X73499Y-31917D01*
X73542Y-32020D01*
X73694Y-32171D01*
X73892Y-32254D01*
X74107Y-32254D01*
X74306Y-32172D01*
X74457Y-32020D01*
X74499Y-31917D01*
X74542Y-32020D01*
X74694Y-32171D01*
X74892Y-32254D01*
X75107Y-32254D01*
X75306Y-32172D01*
X75457Y-32020D01*
X75499Y-31917D01*
X75542Y-32020D01*
X75694Y-32171D01*
X75892Y-32254D01*
X76107Y-32254D01*
X76306Y-32172D01*
X76457Y-32020D01*
X76499Y-31917D01*
X76542Y-32020D01*
X76694Y-32171D01*
X76892Y-32254D01*
X77107Y-32254D01*
X77306Y-32172D01*
X77457Y-32020D01*
X77499Y-31917D01*
X77542Y-32020D01*
X77694Y-32171D01*
X77892Y-32254D01*
X78107Y-32254D01*
X78306Y-32172D01*
X78457Y-32020D01*
X78499Y-31917D01*
X78542Y-32020D01*
X78694Y-32171D01*
X78892Y-32254D01*
X79107Y-32254D01*
X79306Y-32172D01*
X79457Y-32020D01*
X79532Y-31840D01*
X79631Y-32080D01*
X79919Y-32368D01*
X80295Y-32525D01*
X80703Y-32525D01*
X81080Y-32369D01*
X81368Y-32081D01*
X81507Y-31745D01*
X81535Y-31811D01*
X81689Y-31965D01*
X81773Y-32000D01*
X81689Y-32035D01*
X81535Y-32189D01*
X81451Y-32391D01*
X81451Y-32609D01*
X81535Y-32811D01*
X81689Y-32965D01*
X81773Y-33000D01*
X81689Y-33035D01*
X81535Y-33189D01*
X81451Y-33391D01*
X81451Y-33609D01*
X81535Y-33811D01*
X81689Y-33965D01*
X81773Y-34000D01*
X81689Y-34035D01*
X81535Y-34189D01*
X81451Y-34391D01*
X81451Y-34609D01*
X81535Y-34811D01*
X81689Y-34965D01*
X81773Y-35000D01*
X81689Y-35035D01*
X81535Y-35189D01*
X81451Y-35391D01*
X81451Y-35609D01*
X81535Y-35811D01*
X81689Y-35965D01*
X81773Y-36000D01*
X81689Y-36035D01*
X81535Y-36189D01*
X81451Y-36391D01*
X81451Y-36609D01*
X81535Y-36811D01*
X81689Y-36965D01*
X81773Y-37000D01*
X81689Y-37035D01*
X81535Y-37189D01*
X81451Y-37391D01*
X81451Y-37609D01*
X81535Y-37811D01*
X81689Y-37965D01*
X81773Y-38000D01*
X81689Y-38035D01*
X81535Y-38189D01*
X81451Y-38391D01*
X81451Y-38609D01*
X81535Y-38811D01*
X81689Y-38965D01*
X81773Y-39000D01*
X81689Y-39035D01*
X81535Y-39189D01*
X81451Y-39391D01*
X81451Y-39609D01*
X81535Y-39811D01*
X81689Y-39965D01*
X81773Y-40000D01*
X81689Y-40035D01*
X81535Y-40189D01*
X81451Y-40391D01*
X81451Y-40609D01*
X81535Y-40811D01*
X81689Y-40965D01*
X81773Y-41000D01*
X81773Y-41000D01*
G37*
G54D27*
X81773Y-41000D02*
X81689Y-41035D01*
X81535Y-41189D01*
X81533Y-41192D01*
X77386Y-37045D01*
X77292Y-36982D01*
X77181Y-36960D01*
X69350Y-36960D01*
X69350Y-34920D01*
X69350Y-34582D01*
X69221Y-34270D01*
X68982Y-34030D01*
X68670Y-33900D01*
X68332Y-33900D01*
X68020Y-34029D01*
X67780Y-34268D01*
X67650Y-34580D01*
X67650Y-34918D01*
X67779Y-35230D01*
X68018Y-35470D01*
X68330Y-35600D01*
X68668Y-35600D01*
X68980Y-35471D01*
X69220Y-35232D01*
X69350Y-34920D01*
X69350Y-36960D01*
X66973Y-36960D01*
X66965Y-36939D01*
X66811Y-36785D01*
X66609Y-36701D01*
X66391Y-36701D01*
X66369Y-36709D01*
X65235Y-35575D01*
X65141Y-35512D01*
X65030Y-35490D01*
X64934Y-35490D01*
X64980Y-35471D01*
X65220Y-35232D01*
X65350Y-34920D01*
X65350Y-34582D01*
X65221Y-34270D01*
X64982Y-34030D01*
X64670Y-33900D01*
X64332Y-33900D01*
X64020Y-34029D01*
X63780Y-34268D01*
X63650Y-34580D01*
X63650Y-34918D01*
X63779Y-35230D01*
X64018Y-35470D01*
X64066Y-35490D01*
X60649Y-35490D01*
X60649Y-35106D01*
X60649Y-34395D01*
X60649Y-34296D01*
X60649Y-33046D01*
X60611Y-32954D01*
X60541Y-32884D01*
X60450Y-32846D01*
X60351Y-32846D01*
X60051Y-32846D01*
X59959Y-32884D01*
X59889Y-32954D01*
X59851Y-33045D01*
X59851Y-33144D01*
X59851Y-34394D01*
X59889Y-34486D01*
X59959Y-34556D01*
X60050Y-34594D01*
X60149Y-34594D01*
X60449Y-34594D01*
X60541Y-34556D01*
X60611Y-34486D01*
X60649Y-34395D01*
X60649Y-35106D01*
X60611Y-35014D01*
X60541Y-34944D01*
X60450Y-34906D01*
X60351Y-34906D01*
X60051Y-34906D01*
X59959Y-34944D01*
X59889Y-35014D01*
X59851Y-35105D01*
X59851Y-35204D01*
X59851Y-36258D01*
X59649Y-36258D01*
X59649Y-35106D01*
X59611Y-35014D01*
X59541Y-34944D01*
X59525Y-34937D01*
X59518Y-34901D01*
X59455Y-34807D01*
X59361Y-34744D01*
X59250Y-34722D01*
X58649Y-34722D01*
X58649Y-34395D01*
X58649Y-34296D01*
X58649Y-33046D01*
X58611Y-32954D01*
X58541Y-32884D01*
X58450Y-32846D01*
X58351Y-32846D01*
X58051Y-32846D01*
X57959Y-32884D01*
X57889Y-32954D01*
X57851Y-33045D01*
X57851Y-33144D01*
X57851Y-34394D01*
X57889Y-34486D01*
X57959Y-34556D01*
X58050Y-34594D01*
X58149Y-34594D01*
X58449Y-34594D01*
X58541Y-34556D01*
X58611Y-34486D01*
X58649Y-34395D01*
X58649Y-34722D01*
X55002Y-34722D01*
X55049Y-34609D01*
X55049Y-34391D01*
X54965Y-34189D01*
X54811Y-34035D01*
X54726Y-34000D01*
X54811Y-33965D01*
X54965Y-33811D01*
X55049Y-33609D01*
X55049Y-33391D01*
X54965Y-33189D01*
X54811Y-33035D01*
X54609Y-32951D01*
X54391Y-32951D01*
X54189Y-33035D01*
X54035Y-33189D01*
X53951Y-33391D01*
X53951Y-33609D01*
X54035Y-33811D01*
X54189Y-33965D01*
X54273Y-34000D01*
X54189Y-34035D01*
X54035Y-34189D01*
X53951Y-34391D01*
X53951Y-34609D01*
X53997Y-34722D01*
X46132Y-34722D01*
X46040Y-34630D01*
X46049Y-34609D01*
X46049Y-34391D01*
X45965Y-34189D01*
X45811Y-34035D01*
X45609Y-33951D01*
X45391Y-33951D01*
X45189Y-34035D01*
X45035Y-34189D01*
X44951Y-34391D01*
X44951Y-34609D01*
X45035Y-34811D01*
X45189Y-34965D01*
X45280Y-35002D01*
X45219Y-35028D01*
X45192Y-35122D01*
X45465Y-35394D01*
X45500Y-35429D01*
X45571Y-35500D01*
X45606Y-35535D01*
X45878Y-35808D01*
X45972Y-35781D01*
X46043Y-35579D01*
X46032Y-35366D01*
X46005Y-35300D01*
X46012Y-35302D01*
X53998Y-35302D01*
X53957Y-35421D01*
X53968Y-35634D01*
X54028Y-35781D01*
X54122Y-35808D01*
X54394Y-35535D01*
X54429Y-35500D01*
X54500Y-35429D01*
X54571Y-35500D01*
X54606Y-35535D01*
X54878Y-35808D01*
X54972Y-35781D01*
X55043Y-35579D01*
X55032Y-35366D01*
X55005Y-35302D01*
X57851Y-35302D01*
X57851Y-36454D01*
X57889Y-36546D01*
X57959Y-36616D01*
X57974Y-36622D01*
X57982Y-36659D01*
X58045Y-36753D01*
X58139Y-36816D01*
X58250Y-36838D01*
X64678Y-36838D01*
X65548Y-37708D01*
X65366Y-37718D01*
X65219Y-37778D01*
X65192Y-37872D01*
X65465Y-38144D01*
X65500Y-38179D01*
X65571Y-38250D01*
X65500Y-38321D01*
X65429Y-38391D01*
X65429Y-38250D01*
X65122Y-37942D01*
X65028Y-37969D01*
X64957Y-38171D01*
X64968Y-38384D01*
X65028Y-38531D01*
X65122Y-38558D01*
X65429Y-38250D01*
X65429Y-38391D01*
X65192Y-38628D01*
X65219Y-38722D01*
X65421Y-38793D01*
X65553Y-38786D01*
X64235Y-40105D01*
X64172Y-40199D01*
X64150Y-40310D01*
X64150Y-46698D01*
X63982Y-46530D01*
X63670Y-46400D01*
X63332Y-46400D01*
X63043Y-46519D01*
X63043Y-43829D01*
X63032Y-43616D01*
X62972Y-43469D01*
X62878Y-43442D01*
X62571Y-43750D01*
X62878Y-44058D01*
X62972Y-44031D01*
X63043Y-43829D01*
X63043Y-46519D01*
X63020Y-46529D01*
X62808Y-46740D01*
X62808Y-44128D01*
X62535Y-43856D01*
X62500Y-43821D01*
X62429Y-43750D01*
X62500Y-43679D01*
X62535Y-43644D01*
X62808Y-43372D01*
X62781Y-43278D01*
X62579Y-43207D01*
X62366Y-43218D01*
X62290Y-43249D01*
X62290Y-42298D01*
X62289Y-42297D01*
X62268Y-42187D01*
X62267Y-42186D01*
X62205Y-42093D01*
X62204Y-42092D01*
X60624Y-40512D01*
X60649Y-40455D01*
X60649Y-40356D01*
X60649Y-39106D01*
X60649Y-38395D01*
X60649Y-38296D01*
X60649Y-37046D01*
X60611Y-36954D01*
X60541Y-36884D01*
X60450Y-36846D01*
X60351Y-36846D01*
X60051Y-36846D01*
X59959Y-36884D01*
X59889Y-36954D01*
X59851Y-37045D01*
X59851Y-37144D01*
X59851Y-38394D01*
X59889Y-38486D01*
X59959Y-38556D01*
X60050Y-38594D01*
X60149Y-38594D01*
X60449Y-38594D01*
X60541Y-38556D01*
X60611Y-38486D01*
X60649Y-38395D01*
X60649Y-39106D01*
X60611Y-39014D01*
X60541Y-38944D01*
X60450Y-38906D01*
X60351Y-38906D01*
X60051Y-38906D01*
X59959Y-38944D01*
X59889Y-39014D01*
X59851Y-39105D01*
X59851Y-39204D01*
X59851Y-40454D01*
X59889Y-40546D01*
X59959Y-40616D01*
X59974Y-40622D01*
X59982Y-40659D01*
X60045Y-40753D01*
X61710Y-42418D01*
X61710Y-43243D01*
X61609Y-43201D01*
X61391Y-43201D01*
X61369Y-43209D01*
X58638Y-40478D01*
X58649Y-40455D01*
X58649Y-40356D01*
X58649Y-39302D01*
X58851Y-39302D01*
X58851Y-40454D01*
X58889Y-40546D01*
X58959Y-40616D01*
X59050Y-40654D01*
X59149Y-40654D01*
X59449Y-40654D01*
X59541Y-40616D01*
X59611Y-40546D01*
X59649Y-40455D01*
X59649Y-40356D01*
X59649Y-39106D01*
X59611Y-39014D01*
X59541Y-38944D01*
X59525Y-38937D01*
X59518Y-38901D01*
X59455Y-38807D01*
X59361Y-38744D01*
X59250Y-38722D01*
X58649Y-38722D01*
X58649Y-38395D01*
X58649Y-38296D01*
X58649Y-37046D01*
X58611Y-36954D01*
X58541Y-36884D01*
X58450Y-36846D01*
X58351Y-36846D01*
X58051Y-36846D01*
X57959Y-36884D01*
X57889Y-36954D01*
X57851Y-37045D01*
X57851Y-37144D01*
X57851Y-38394D01*
X57889Y-38486D01*
X57959Y-38556D01*
X58050Y-38594D01*
X58149Y-38594D01*
X58449Y-38594D01*
X58541Y-38556D01*
X58611Y-38486D01*
X58649Y-38395D01*
X58649Y-38722D01*
X55002Y-38722D01*
X55049Y-38609D01*
X55049Y-38391D01*
X54965Y-38189D01*
X54811Y-38035D01*
X54726Y-38000D01*
X54811Y-37965D01*
X54965Y-37811D01*
X55049Y-37609D01*
X55049Y-37391D01*
X54965Y-37189D01*
X54811Y-37035D01*
X54726Y-37000D01*
X54811Y-36965D01*
X54965Y-36811D01*
X55049Y-36609D01*
X55049Y-36391D01*
X54965Y-36189D01*
X54811Y-36035D01*
X54719Y-35997D01*
X54781Y-35972D01*
X54808Y-35878D01*
X54500Y-35571D01*
X54192Y-35878D01*
X54219Y-35972D01*
X54284Y-35995D01*
X54189Y-36035D01*
X54035Y-36189D01*
X53951Y-36391D01*
X53951Y-36609D01*
X54035Y-36811D01*
X54189Y-36965D01*
X54273Y-37000D01*
X54189Y-37035D01*
X54035Y-37189D01*
X53951Y-37391D01*
X53951Y-37609D01*
X54035Y-37811D01*
X54189Y-37965D01*
X54273Y-38000D01*
X54189Y-38035D01*
X54035Y-38189D01*
X53951Y-38391D01*
X53951Y-38609D01*
X53997Y-38722D01*
X46132Y-38722D01*
X46040Y-38630D01*
X46049Y-38609D01*
X46049Y-38391D01*
X45965Y-38189D01*
X45811Y-38035D01*
X45808Y-38033D01*
X45808Y-35878D01*
X45500Y-35571D01*
X45429Y-35641D01*
X45429Y-35500D01*
X45122Y-35192D01*
X45028Y-35219D01*
X44957Y-35421D01*
X44968Y-35634D01*
X45028Y-35781D01*
X45122Y-35808D01*
X45429Y-35500D01*
X45429Y-35641D01*
X45192Y-35878D01*
X45219Y-35972D01*
X45421Y-36043D01*
X45634Y-36032D01*
X45781Y-35972D01*
X45808Y-35878D01*
X45808Y-38033D01*
X45609Y-37951D01*
X45391Y-37951D01*
X45189Y-38035D01*
X45035Y-38189D01*
X44951Y-38391D01*
X44951Y-38609D01*
X45035Y-38811D01*
X45189Y-38965D01*
X45280Y-39002D01*
X45219Y-39028D01*
X45192Y-39122D01*
X45465Y-39394D01*
X45500Y-39429D01*
X45571Y-39500D01*
X45606Y-39535D01*
X45878Y-39808D01*
X45972Y-39781D01*
X46043Y-39579D01*
X46032Y-39366D01*
X46005Y-39300D01*
X46012Y-39302D01*
X53988Y-39302D01*
X53951Y-39391D01*
X53951Y-39609D01*
X54035Y-39811D01*
X54189Y-39965D01*
X54273Y-40000D01*
X54189Y-40035D01*
X54035Y-40189D01*
X53951Y-40391D01*
X53951Y-40609D01*
X54035Y-40811D01*
X54189Y-40965D01*
X54273Y-41000D01*
X54189Y-41035D01*
X54035Y-41189D01*
X53951Y-41391D01*
X53951Y-41609D01*
X54035Y-41811D01*
X54189Y-41965D01*
X54273Y-42000D01*
X54189Y-42035D01*
X54035Y-42189D01*
X53951Y-42391D01*
X53951Y-42609D01*
X54035Y-42811D01*
X54189Y-42965D01*
X54273Y-43000D01*
X54189Y-43035D01*
X54035Y-43189D01*
X53951Y-43391D01*
X53951Y-43609D01*
X54035Y-43811D01*
X54189Y-43965D01*
X54273Y-44000D01*
X54189Y-44035D01*
X54035Y-44189D01*
X53951Y-44391D01*
X53951Y-44609D01*
X54035Y-44811D01*
X54189Y-44965D01*
X54391Y-45049D01*
X54609Y-45049D01*
X54811Y-44965D01*
X54965Y-44811D01*
X55049Y-44609D01*
X55049Y-44391D01*
X54965Y-44189D01*
X54811Y-44035D01*
X54726Y-44000D01*
X54811Y-43965D01*
X54965Y-43811D01*
X55049Y-43609D01*
X55049Y-43391D01*
X54965Y-43189D01*
X54811Y-43035D01*
X54726Y-43000D01*
X54811Y-42965D01*
X54965Y-42811D01*
X55049Y-42609D01*
X55049Y-42391D01*
X54965Y-42189D01*
X54811Y-42035D01*
X54726Y-42000D01*
X54811Y-41965D01*
X54965Y-41811D01*
X55049Y-41609D01*
X55049Y-41391D01*
X54965Y-41189D01*
X54811Y-41035D01*
X54726Y-41000D01*
X54811Y-40965D01*
X54965Y-40811D01*
X55049Y-40609D01*
X55049Y-40391D01*
X54965Y-40189D01*
X54811Y-40035D01*
X54726Y-40000D01*
X54811Y-39965D01*
X54965Y-39811D01*
X55049Y-39609D01*
X55049Y-39391D01*
X55011Y-39302D01*
X57851Y-39302D01*
X57851Y-40454D01*
X57889Y-40546D01*
X57959Y-40616D01*
X57974Y-40622D01*
X57982Y-40659D01*
X58045Y-40753D01*
X58139Y-40816D01*
X58160Y-40820D01*
X60548Y-43208D01*
X60366Y-43218D01*
X60219Y-43278D01*
X60192Y-43372D01*
X60465Y-43644D01*
X60500Y-43679D01*
X60571Y-43750D01*
X60606Y-43785D01*
X60878Y-44058D01*
X60972Y-44031D01*
X60995Y-43965D01*
X61035Y-44061D01*
X61189Y-44215D01*
X61273Y-44250D01*
X61189Y-44285D01*
X61035Y-44439D01*
X60951Y-44641D01*
X60951Y-44859D01*
X61035Y-45061D01*
X61189Y-45215D01*
X61391Y-45299D01*
X61609Y-45299D01*
X61811Y-45215D01*
X61965Y-45061D01*
X62049Y-44859D01*
X62049Y-44641D01*
X62040Y-44619D01*
X62205Y-44455D01*
X62268Y-44361D01*
X62290Y-44250D01*
X62290Y-44246D01*
X62421Y-44293D01*
X62634Y-44282D01*
X62781Y-44222D01*
X62808Y-44128D01*
X62808Y-46740D01*
X62780Y-46768D01*
X62650Y-47080D01*
X62650Y-47418D01*
X62779Y-47730D01*
X63018Y-47970D01*
X63330Y-48100D01*
X63668Y-48100D01*
X63980Y-47971D01*
X64150Y-47801D01*
X64150Y-49297D01*
X64172Y-49408D01*
X64235Y-49502D01*
X64627Y-49894D01*
X64543Y-49980D01*
X64460Y-50178D01*
X64460Y-50393D01*
X64460Y-50821D01*
X64542Y-51020D01*
X64694Y-51171D01*
X64775Y-51205D01*
X63225Y-51205D01*
X63306Y-51172D01*
X63457Y-51020D01*
X63540Y-50822D01*
X63540Y-50607D01*
X63540Y-50179D01*
X63458Y-49980D01*
X63306Y-49829D01*
X63108Y-49746D01*
X62893Y-49746D01*
X62694Y-49828D01*
X62543Y-49980D01*
X62500Y-50081D01*
X62489Y-50043D01*
X62353Y-49875D01*
X62163Y-49772D01*
X62135Y-49768D01*
X62050Y-49815D01*
X62050Y-50400D01*
X62050Y-50450D01*
X62050Y-50550D01*
X61950Y-50550D01*
X61950Y-50450D01*
X61950Y-49815D01*
X61865Y-49768D01*
X61837Y-49772D01*
X61647Y-49875D01*
X61511Y-50043D01*
X61500Y-50080D01*
X61489Y-50043D01*
X61353Y-49875D01*
X61163Y-49772D01*
X61135Y-49768D01*
X61050Y-49815D01*
X61050Y-50450D01*
X61450Y-50450D01*
X61550Y-50450D01*
X61950Y-50450D01*
X61950Y-50550D01*
X61900Y-50550D01*
X61550Y-50550D01*
X61450Y-50550D01*
X61100Y-50550D01*
X61050Y-50550D01*
X60950Y-50550D01*
X60950Y-50450D01*
X60950Y-50400D01*
X60950Y-49815D01*
X60865Y-49768D01*
X60837Y-49772D01*
X60808Y-49787D01*
X60808Y-44128D01*
X60500Y-43821D01*
X60429Y-43891D01*
X60429Y-43750D01*
X60122Y-43442D01*
X60028Y-43469D01*
X59957Y-43671D01*
X59968Y-43884D01*
X60028Y-44031D01*
X60122Y-44058D01*
X60429Y-43750D01*
X60429Y-43891D01*
X60192Y-44128D01*
X60219Y-44222D01*
X60421Y-44293D01*
X60634Y-44282D01*
X60781Y-44222D01*
X60808Y-44128D01*
X60808Y-49787D01*
X60647Y-49875D01*
X60511Y-50043D01*
X60499Y-50081D01*
X60458Y-49980D01*
X60350Y-49872D01*
X60350Y-47420D01*
X60350Y-47082D01*
X60221Y-46770D01*
X59982Y-46530D01*
X59670Y-46400D01*
X59332Y-46400D01*
X59020Y-46529D01*
X58780Y-46768D01*
X58650Y-47080D01*
X58650Y-47418D01*
X58779Y-47730D01*
X59018Y-47970D01*
X59330Y-48100D01*
X59668Y-48100D01*
X59980Y-47971D01*
X60220Y-47732D01*
X60350Y-47420D01*
X60350Y-49872D01*
X60306Y-49829D01*
X60108Y-49746D01*
X59893Y-49746D01*
X59694Y-49828D01*
X59543Y-49980D01*
X59500Y-50082D01*
X59458Y-49980D01*
X59306Y-49829D01*
X59108Y-49746D01*
X58893Y-49746D01*
X58694Y-49828D01*
X58543Y-49980D01*
X58500Y-50082D01*
X58458Y-49980D01*
X58306Y-49829D01*
X58108Y-49746D01*
X57893Y-49746D01*
X57694Y-49828D01*
X57543Y-49980D01*
X57500Y-50082D01*
X57458Y-49980D01*
X57306Y-49829D01*
X57108Y-49746D01*
X56893Y-49746D01*
X56694Y-49828D01*
X56543Y-49980D01*
X56500Y-50082D01*
X56458Y-49980D01*
X56306Y-49829D01*
X56108Y-49746D01*
X55893Y-49746D01*
X55694Y-49828D01*
X55543Y-49980D01*
X55460Y-50178D01*
X55460Y-50393D01*
X55460Y-50821D01*
X55542Y-51020D01*
X55694Y-51171D01*
X55775Y-51205D01*
X51244Y-51205D01*
X51368Y-51081D01*
X51525Y-50705D01*
X51525Y-50297D01*
X51369Y-49920D01*
X51081Y-49632D01*
X50705Y-49475D01*
X50297Y-49475D01*
X49920Y-49631D01*
X49632Y-49919D01*
X49475Y-50295D01*
X49475Y-50703D01*
X49631Y-51080D01*
X49756Y-51205D01*
X46049Y-51205D01*
X46049Y-46609D01*
X46049Y-46391D01*
X46049Y-42609D01*
X46049Y-42391D01*
X45965Y-42189D01*
X45811Y-42035D01*
X45808Y-42033D01*
X45808Y-39878D01*
X45500Y-39571D01*
X45429Y-39641D01*
X45429Y-39500D01*
X45122Y-39192D01*
X45028Y-39219D01*
X44957Y-39421D01*
X44968Y-39634D01*
X45028Y-39781D01*
X45122Y-39808D01*
X45429Y-39500D01*
X45429Y-39641D01*
X45192Y-39878D01*
X45219Y-39972D01*
X45421Y-40043D01*
X45634Y-40032D01*
X45781Y-39972D01*
X45808Y-39878D01*
X45808Y-42033D01*
X45609Y-41951D01*
X45391Y-41951D01*
X45189Y-42035D01*
X45035Y-42189D01*
X44951Y-42391D01*
X44951Y-42609D01*
X45035Y-42811D01*
X45189Y-42965D01*
X45280Y-43002D01*
X45219Y-43028D01*
X45192Y-43122D01*
X45500Y-43429D01*
X45808Y-43122D01*
X45781Y-43028D01*
X45715Y-43004D01*
X45811Y-42965D01*
X45965Y-42811D01*
X46049Y-42609D01*
X46049Y-46391D01*
X46043Y-46376D01*
X46043Y-43579D01*
X46032Y-43366D01*
X45972Y-43219D01*
X45878Y-43192D01*
X45571Y-43500D01*
X45878Y-43808D01*
X45972Y-43781D01*
X46043Y-43579D01*
X46043Y-46376D01*
X45965Y-46189D01*
X45811Y-46035D01*
X45808Y-46033D01*
X45808Y-43878D01*
X45500Y-43571D01*
X45429Y-43641D01*
X45429Y-43500D01*
X45122Y-43192D01*
X45028Y-43219D01*
X44957Y-43421D01*
X44968Y-43634D01*
X45028Y-43781D01*
X45122Y-43808D01*
X45429Y-43500D01*
X45429Y-43641D01*
X45192Y-43878D01*
X45219Y-43972D01*
X45421Y-44043D01*
X45634Y-44032D01*
X45781Y-43972D01*
X45808Y-43878D01*
X45808Y-46033D01*
X45609Y-45951D01*
X45391Y-45951D01*
X45189Y-46035D01*
X45035Y-46189D01*
X44951Y-46391D01*
X44951Y-46609D01*
X45035Y-46811D01*
X45189Y-46965D01*
X45280Y-47002D01*
X45219Y-47028D01*
X45192Y-47122D01*
X45500Y-47429D01*
X45808Y-47122D01*
X45781Y-47028D01*
X45715Y-47004D01*
X45811Y-46965D01*
X45965Y-46811D01*
X46049Y-46609D01*
X46049Y-51205D01*
X46043Y-51205D01*
X46043Y-47579D01*
X46032Y-47366D01*
X45972Y-47219D01*
X45878Y-47192D01*
X45571Y-47500D01*
X45878Y-47808D01*
X45972Y-47781D01*
X46043Y-47579D01*
X46043Y-51205D01*
X45808Y-51205D01*
X45808Y-47878D01*
X45500Y-47571D01*
X45429Y-47641D01*
X45429Y-47500D01*
X45122Y-47192D01*
X45028Y-47219D01*
X44957Y-47421D01*
X44968Y-47634D01*
X45028Y-47781D01*
X45122Y-47808D01*
X45429Y-47500D01*
X45429Y-47641D01*
X45192Y-47878D01*
X45219Y-47972D01*
X45421Y-48043D01*
X45634Y-48032D01*
X45781Y-47972D01*
X45808Y-47878D01*
X45808Y-51205D01*
X43795Y-51205D01*
X43795Y-30795D01*
X50256Y-30795D01*
X50132Y-30919D01*
X49975Y-31295D01*
X49975Y-31703D01*
X50131Y-32080D01*
X50419Y-32368D01*
X50795Y-32525D01*
X51203Y-32525D01*
X51580Y-32369D01*
X51868Y-32081D01*
X51917Y-31961D01*
X51942Y-32020D01*
X52094Y-32171D01*
X52292Y-32254D01*
X52507Y-32254D01*
X52706Y-32172D01*
X52857Y-32020D01*
X52899Y-31917D01*
X52942Y-32020D01*
X53094Y-32171D01*
X53292Y-32254D01*
X53507Y-32254D01*
X53706Y-32172D01*
X53857Y-32020D01*
X53899Y-31917D01*
X53942Y-32020D01*
X54094Y-32171D01*
X54292Y-32254D01*
X54507Y-32254D01*
X54706Y-32172D01*
X54857Y-32020D01*
X54899Y-31917D01*
X54942Y-32020D01*
X55094Y-32171D01*
X55292Y-32254D01*
X55507Y-32254D01*
X55706Y-32172D01*
X55857Y-32020D01*
X55899Y-31917D01*
X55942Y-32020D01*
X56094Y-32171D01*
X56292Y-32254D01*
X56507Y-32254D01*
X56706Y-32172D01*
X56857Y-32020D01*
X56899Y-31917D01*
X56942Y-32020D01*
X57094Y-32171D01*
X57292Y-32254D01*
X57507Y-32254D01*
X57706Y-32172D01*
X57857Y-32020D01*
X57899Y-31917D01*
X57942Y-32020D01*
X58094Y-32171D01*
X58292Y-32254D01*
X58507Y-32254D01*
X58706Y-32172D01*
X58857Y-32020D01*
X58899Y-31917D01*
X58942Y-32020D01*
X59094Y-32171D01*
X59292Y-32254D01*
X59507Y-32254D01*
X59706Y-32172D01*
X59857Y-32020D01*
X59899Y-31917D01*
X59942Y-32020D01*
X60094Y-32171D01*
X60292Y-32254D01*
X60507Y-32254D01*
X60706Y-32172D01*
X60857Y-32020D01*
X60899Y-31917D01*
X60942Y-32020D01*
X61094Y-32171D01*
X61292Y-32254D01*
X61507Y-32254D01*
X61706Y-32172D01*
X61857Y-32020D01*
X61940Y-31822D01*
X61940Y-31607D01*
X61940Y-31179D01*
X61858Y-30980D01*
X61706Y-30829D01*
X61624Y-30795D01*
X62774Y-30795D01*
X62694Y-30828D01*
X62543Y-30980D01*
X62460Y-31178D01*
X62460Y-31393D01*
X62460Y-31821D01*
X62542Y-32020D01*
X62694Y-32171D01*
X62892Y-32254D01*
X63107Y-32254D01*
X63306Y-32172D01*
X63457Y-32020D01*
X63499Y-31917D01*
X63542Y-32020D01*
X63694Y-32171D01*
X63892Y-32254D01*
X64107Y-32254D01*
X64306Y-32172D01*
X64457Y-32020D01*
X64499Y-31917D01*
X64542Y-32020D01*
X64694Y-32171D01*
X64892Y-32254D01*
X65107Y-32254D01*
X65306Y-32172D01*
X65457Y-32020D01*
X65499Y-31917D01*
X65542Y-32020D01*
X65694Y-32171D01*
X65892Y-32254D01*
X66107Y-32254D01*
X66306Y-32172D01*
X66457Y-32020D01*
X66499Y-31917D01*
X66542Y-32020D01*
X66694Y-32171D01*
X66892Y-32254D01*
X67107Y-32254D01*
X67306Y-32172D01*
X67457Y-32020D01*
X67499Y-31917D01*
X67542Y-32020D01*
X67694Y-32171D01*
X67892Y-32254D01*
X68107Y-32254D01*
X68306Y-32172D01*
X68457Y-32020D01*
X68499Y-31917D01*
X68542Y-32020D01*
X68694Y-32171D01*
X68892Y-32254D01*
X69107Y-32254D01*
X69306Y-32172D01*
X69457Y-32020D01*
X69499Y-31917D01*
X69542Y-32020D01*
X69694Y-32171D01*
X69892Y-32254D01*
X70107Y-32254D01*
X70306Y-32172D01*
X70457Y-32020D01*
X70540Y-31822D01*
X70540Y-31607D01*
X70540Y-31179D01*
X70458Y-30980D01*
X70306Y-30829D01*
X70224Y-30795D01*
X71774Y-30795D01*
X71694Y-30828D01*
X71543Y-30980D01*
X71460Y-31178D01*
X71460Y-31393D01*
X71460Y-31821D01*
X71542Y-32020D01*
X71694Y-32171D01*
X71892Y-32254D01*
X72107Y-32254D01*
X72306Y-32172D01*
X72457Y-32020D01*
X72499Y-31917D01*
X72542Y-32020D01*
X72694Y-32171D01*
X72892Y-32254D01*
X73107Y-32254D01*
X73306Y-32172D01*
X73457Y-32020D01*
X73499Y-31917D01*
X73542Y-32020D01*
X73694Y-32171D01*
X73892Y-32254D01*
X74107Y-32254D01*
X74306Y-32172D01*
X74457Y-32020D01*
X74499Y-31917D01*
X74542Y-32020D01*
X74694Y-32171D01*
X74892Y-32254D01*
X75107Y-32254D01*
X75306Y-32172D01*
X75457Y-32020D01*
X75499Y-31917D01*
X75542Y-32020D01*
X75694Y-32171D01*
X75892Y-32254D01*
X76107Y-32254D01*
X76306Y-32172D01*
X76457Y-32020D01*
X76499Y-31917D01*
X76542Y-32020D01*
X76694Y-32171D01*
X76892Y-32254D01*
X77107Y-32254D01*
X77306Y-32172D01*
X77457Y-32020D01*
X77499Y-31917D01*
X77542Y-32020D01*
X77694Y-32171D01*
X77892Y-32254D01*
X78107Y-32254D01*
X78306Y-32172D01*
X78457Y-32020D01*
X78499Y-31917D01*
X78542Y-32020D01*
X78694Y-32171D01*
X78892Y-32254D01*
X79107Y-32254D01*
X79306Y-32172D01*
X79457Y-32020D01*
X79532Y-31840D01*
X79631Y-32080D01*
X79919Y-32368D01*
X80295Y-32525D01*
X80703Y-32525D01*
X81080Y-32369D01*
X81368Y-32081D01*
X81507Y-31745D01*
X81535Y-31811D01*
X81689Y-31965D01*
X81773Y-32000D01*
X81689Y-32035D01*
X81535Y-32189D01*
X81451Y-32391D01*
X81451Y-32609D01*
X81535Y-32811D01*
X81689Y-32965D01*
X81773Y-33000D01*
X81689Y-33035D01*
X81535Y-33189D01*
X81451Y-33391D01*
X81451Y-33609D01*
X81535Y-33811D01*
X81689Y-33965D01*
X81773Y-34000D01*
X81689Y-34035D01*
X81535Y-34189D01*
X81451Y-34391D01*
X81451Y-34609D01*
X81535Y-34811D01*
X81689Y-34965D01*
X81773Y-35000D01*
X81689Y-35035D01*
X81535Y-35189D01*
X81451Y-35391D01*
X81451Y-35609D01*
X81535Y-35811D01*
X81689Y-35965D01*
X81773Y-36000D01*
X81689Y-36035D01*
X81535Y-36189D01*
X81451Y-36391D01*
X81451Y-36609D01*
X81535Y-36811D01*
X81689Y-36965D01*
X81773Y-37000D01*
X81689Y-37035D01*
X81535Y-37189D01*
X81451Y-37391D01*
X81451Y-37609D01*
X81535Y-37811D01*
X81689Y-37965D01*
X81773Y-38000D01*
X81689Y-38035D01*
X81535Y-38189D01*
X81451Y-38391D01*
X81451Y-38609D01*
X81535Y-38811D01*
X81689Y-38965D01*
X81773Y-39000D01*
X81689Y-39035D01*
X81535Y-39189D01*
X81451Y-39391D01*
X81451Y-39609D01*
X81535Y-39811D01*
X81689Y-39965D01*
X81773Y-40000D01*
X81689Y-40035D01*
X81535Y-40189D01*
X81451Y-40391D01*
X81451Y-40609D01*
X81535Y-40811D01*
X81689Y-40965D01*
X81773Y-41000D01*
G54D10*
G36*
X89205Y-51205D02*
X88950Y-51205D01*
X88950Y-41126D01*
X88950Y-40875D01*
X88854Y-40643D01*
X88677Y-40466D01*
X88480Y-40384D01*
X88480Y-39420D01*
X88480Y-39042D01*
X88336Y-38693D01*
X88069Y-38425D01*
X87720Y-38280D01*
X87342Y-38280D01*
X86993Y-38424D01*
X86725Y-38691D01*
X86580Y-39040D01*
X86580Y-39418D01*
X86724Y-39767D01*
X86991Y-40035D01*
X87071Y-40068D01*
X86943Y-40070D01*
X86623Y-40203D01*
X86549Y-40338D01*
X87140Y-40929D01*
X87731Y-40338D01*
X87657Y-40203D01*
X87599Y-40180D01*
X87718Y-40180D01*
X88067Y-40036D01*
X88335Y-39769D01*
X88480Y-39420D01*
X88480Y-40384D01*
X88446Y-40370D01*
X88195Y-40370D01*
X87963Y-40466D01*
X87939Y-40489D01*
X87937Y-40483D01*
X87802Y-40409D01*
X87211Y-41000D01*
X87802Y-41591D01*
X87937Y-41517D01*
X87939Y-41510D01*
X87963Y-41534D01*
X88194Y-41630D01*
X88445Y-41630D01*
X88677Y-41534D01*
X88854Y-41357D01*
X88950Y-41126D01*
X88950Y-51205D01*
X88480Y-51205D01*
X88480Y-42960D01*
X88480Y-42582D01*
X88336Y-42233D01*
X88069Y-41965D01*
X87720Y-41820D01*
X87601Y-41820D01*
X87657Y-41797D01*
X87731Y-41662D01*
X87140Y-41071D01*
X87069Y-41142D01*
X87069Y-41000D01*
X86478Y-40409D01*
X86343Y-40483D01*
X86206Y-40827D01*
X86210Y-41197D01*
X86343Y-41517D01*
X86478Y-41591D01*
X87069Y-41000D01*
X87069Y-41142D01*
X86549Y-41662D01*
X86623Y-41797D01*
X86967Y-41934D01*
X87068Y-41932D01*
X86993Y-41964D01*
X86725Y-42231D01*
X86580Y-42580D01*
X86580Y-42958D01*
X86724Y-43307D01*
X86991Y-43575D01*
X87340Y-43720D01*
X87718Y-43720D01*
X88067Y-43576D01*
X88335Y-43309D01*
X88480Y-42960D01*
X88480Y-51205D01*
X88400Y-51205D01*
X88400Y-44862D01*
X88400Y-44638D01*
X88399Y-44564D01*
X88399Y-44465D01*
X88361Y-44374D01*
X88291Y-44304D01*
X88199Y-44266D01*
X88027Y-44265D01*
X87965Y-44327D01*
X87965Y-44700D01*
X88338Y-44700D01*
X88400Y-44638D01*
X88400Y-44862D01*
X88338Y-44800D01*
X87965Y-44800D01*
X87965Y-45173D01*
X88027Y-45235D01*
X88199Y-45234D01*
X88291Y-45196D01*
X88361Y-45126D01*
X88399Y-45035D01*
X88399Y-44936D01*
X88400Y-44862D01*
X88400Y-51205D01*
X87865Y-51205D01*
X87865Y-45173D01*
X87865Y-44850D01*
X87865Y-44800D01*
X87865Y-44700D01*
X87865Y-44650D01*
X87865Y-44327D01*
X87803Y-44265D01*
X87631Y-44266D01*
X87539Y-44304D01*
X87500Y-44343D01*
X87461Y-44304D01*
X87370Y-44266D01*
X87271Y-44266D01*
X86801Y-44266D01*
X86709Y-44304D01*
X86639Y-44374D01*
X86603Y-44460D01*
X86099Y-44460D01*
X86099Y-44201D01*
X86061Y-44109D01*
X85991Y-44039D01*
X85900Y-44001D01*
X85830Y-44001D01*
X85830Y-41210D01*
X85830Y-40792D01*
X85670Y-40406D01*
X85375Y-40110D01*
X84990Y-39950D01*
X84572Y-39950D01*
X84186Y-40110D01*
X83890Y-40405D01*
X83730Y-40790D01*
X83730Y-41208D01*
X83890Y-41594D01*
X84185Y-41890D01*
X84470Y-42008D01*
X84470Y-43579D01*
X84181Y-43868D01*
X84114Y-43968D01*
X84107Y-44001D01*
X84101Y-44001D01*
X84009Y-44039D01*
X83939Y-44109D01*
X83901Y-44200D01*
X83901Y-44299D01*
X83901Y-45299D01*
X83939Y-45391D01*
X84009Y-45461D01*
X84100Y-45499D01*
X84199Y-45499D01*
X84699Y-45499D01*
X84791Y-45461D01*
X84861Y-45391D01*
X84899Y-45300D01*
X84899Y-45201D01*
X84899Y-44201D01*
X84861Y-44109D01*
X84838Y-44086D01*
X84999Y-43926D01*
X85066Y-43826D01*
X85066Y-43825D01*
X85089Y-43707D01*
X85090Y-43707D01*
X85090Y-42007D01*
X85374Y-41890D01*
X85670Y-41595D01*
X85830Y-41210D01*
X85830Y-44001D01*
X85801Y-44001D01*
X85301Y-44001D01*
X85209Y-44039D01*
X85139Y-44109D01*
X85101Y-44200D01*
X85101Y-44299D01*
X85101Y-45299D01*
X85139Y-45391D01*
X85209Y-45461D01*
X85300Y-45499D01*
X85399Y-45499D01*
X85899Y-45499D01*
X85991Y-45461D01*
X86061Y-45391D01*
X86099Y-45300D01*
X86099Y-45201D01*
X86099Y-45040D01*
X86603Y-45040D01*
X86639Y-45126D01*
X86709Y-45196D01*
X86800Y-45234D01*
X86899Y-45234D01*
X87369Y-45234D01*
X87461Y-45196D01*
X87500Y-45157D01*
X87539Y-45196D01*
X87631Y-45234D01*
X87803Y-45235D01*
X87865Y-45173D01*
X87865Y-51205D01*
X83744Y-51205D01*
X83868Y-51081D01*
X84025Y-50705D01*
X84025Y-50297D01*
X83869Y-49920D01*
X83581Y-49632D01*
X83205Y-49475D01*
X82797Y-49475D01*
X82420Y-49631D01*
X82132Y-49919D01*
X81975Y-50295D01*
X81975Y-50703D01*
X82131Y-51080D01*
X82256Y-51205D01*
X81225Y-51205D01*
X81306Y-51172D01*
X81457Y-51020D01*
X81540Y-50822D01*
X81540Y-50607D01*
X81540Y-50179D01*
X81458Y-49980D01*
X81306Y-49829D01*
X81108Y-49746D01*
X80893Y-49746D01*
X80694Y-49828D01*
X80543Y-49980D01*
X80500Y-50082D01*
X80458Y-49980D01*
X80306Y-49829D01*
X80108Y-49746D01*
X79893Y-49746D01*
X79694Y-49828D01*
X79543Y-49980D01*
X79500Y-50082D01*
X79458Y-49980D01*
X79306Y-49829D01*
X79108Y-49746D01*
X78893Y-49746D01*
X78694Y-49828D01*
X78543Y-49980D01*
X78500Y-50082D01*
X78458Y-49980D01*
X78306Y-49829D01*
X78108Y-49746D01*
X77893Y-49746D01*
X77694Y-49828D01*
X77543Y-49980D01*
X77500Y-50082D01*
X77458Y-49980D01*
X77306Y-49829D01*
X77108Y-49746D01*
X76893Y-49746D01*
X76694Y-49828D01*
X76543Y-49980D01*
X76500Y-50082D01*
X76458Y-49980D01*
X76306Y-49829D01*
X76108Y-49746D01*
X75893Y-49746D01*
X75694Y-49828D01*
X75543Y-49980D01*
X75500Y-50082D01*
X75458Y-49980D01*
X75306Y-49829D01*
X75108Y-49746D01*
X74893Y-49746D01*
X74694Y-49828D01*
X74543Y-49980D01*
X74500Y-50082D01*
X74458Y-49980D01*
X74306Y-49829D01*
X74108Y-49746D01*
X73893Y-49746D01*
X73694Y-49828D01*
X73543Y-49980D01*
X73460Y-50178D01*
X73460Y-50393D01*
X73460Y-50821D01*
X73542Y-51020D01*
X73694Y-51171D01*
X73775Y-51205D01*
X72225Y-51205D01*
X72306Y-51172D01*
X72457Y-51020D01*
X72540Y-50822D01*
X72540Y-50607D01*
X72540Y-50179D01*
X72458Y-49980D01*
X72306Y-49829D01*
X72108Y-49746D01*
X71893Y-49746D01*
X71694Y-49828D01*
X71543Y-49980D01*
X71500Y-50082D01*
X71458Y-49980D01*
X71306Y-49829D01*
X71108Y-49746D01*
X70893Y-49746D01*
X70694Y-49828D01*
X70543Y-49980D01*
X70500Y-50082D01*
X70458Y-49980D01*
X70306Y-49829D01*
X70108Y-49746D01*
X69893Y-49746D01*
X69694Y-49828D01*
X69543Y-49980D01*
X69500Y-50082D01*
X69458Y-49980D01*
X69306Y-49829D01*
X69108Y-49746D01*
X68893Y-49746D01*
X68694Y-49828D01*
X68543Y-49980D01*
X68500Y-50082D01*
X68458Y-49980D01*
X68306Y-49829D01*
X68108Y-49746D01*
X67893Y-49746D01*
X67694Y-49828D01*
X67543Y-49980D01*
X67500Y-50082D01*
X67458Y-49980D01*
X67306Y-49829D01*
X67108Y-49746D01*
X66893Y-49746D01*
X66694Y-49828D01*
X66543Y-49980D01*
X66500Y-50082D01*
X66458Y-49980D01*
X66306Y-49829D01*
X66108Y-49746D01*
X65893Y-49746D01*
X65694Y-49828D01*
X65543Y-49980D01*
X65500Y-50082D01*
X65458Y-49980D01*
X65306Y-49829D01*
X65282Y-49819D01*
X65268Y-49746D01*
X65267Y-49745D01*
X65205Y-49652D01*
X65204Y-49651D01*
X64730Y-49177D01*
X64730Y-44821D01*
X64843Y-44821D01*
X64999Y-44757D01*
X65119Y-44637D01*
X65184Y-44481D01*
X65184Y-44380D01*
X65842Y-43722D01*
X65921Y-43801D01*
X66077Y-43866D01*
X66246Y-43866D01*
X66402Y-43802D01*
X66522Y-43682D01*
X66563Y-43582D01*
X66579Y-43598D01*
X66735Y-43663D01*
X66904Y-43663D01*
X67060Y-43599D01*
X67131Y-43528D01*
X68479Y-43528D01*
X68479Y-43649D01*
X68543Y-43805D01*
X68663Y-43925D01*
X68819Y-43990D01*
X68918Y-43990D01*
X71079Y-46151D01*
X69253Y-46151D01*
X67299Y-44196D01*
X67299Y-44098D01*
X67235Y-43942D01*
X67115Y-43822D01*
X66959Y-43757D01*
X66790Y-43757D01*
X66634Y-43821D01*
X66514Y-43941D01*
X66449Y-44097D01*
X66449Y-44266D01*
X66513Y-44422D01*
X66633Y-44542D01*
X66789Y-44607D01*
X66888Y-44607D01*
X68914Y-46633D01*
X68780Y-46768D01*
X68650Y-47080D01*
X68650Y-47418D01*
X68779Y-47730D01*
X69018Y-47970D01*
X69330Y-48100D01*
X69668Y-48100D01*
X69980Y-47971D01*
X70220Y-47732D01*
X70350Y-47420D01*
X70350Y-47082D01*
X70221Y-46770D01*
X70182Y-46731D01*
X72817Y-46731D01*
X72780Y-46768D01*
X72650Y-47080D01*
X72650Y-47418D01*
X72779Y-47730D01*
X73018Y-47970D01*
X73330Y-48100D01*
X73668Y-48100D01*
X73980Y-47971D01*
X74220Y-47732D01*
X74350Y-47420D01*
X74350Y-47082D01*
X74221Y-46770D01*
X74182Y-46731D01*
X80820Y-46731D01*
X81459Y-47370D01*
X81451Y-47391D01*
X81451Y-47609D01*
X81535Y-47811D01*
X81689Y-47965D01*
X81773Y-48000D01*
X81689Y-48035D01*
X81535Y-48189D01*
X81451Y-48391D01*
X81451Y-48609D01*
X81535Y-48811D01*
X81689Y-48965D01*
X81891Y-49049D01*
X82109Y-49049D01*
X82311Y-48965D01*
X82465Y-48811D01*
X82500Y-48726D01*
X82535Y-48811D01*
X82689Y-48965D01*
X82891Y-49049D01*
X83109Y-49049D01*
X83311Y-48965D01*
X83465Y-48811D01*
X83549Y-48609D01*
X83549Y-48391D01*
X83465Y-48189D01*
X83311Y-48035D01*
X83226Y-48000D01*
X83311Y-47965D01*
X83465Y-47811D01*
X83549Y-47609D01*
X83549Y-47391D01*
X83465Y-47189D01*
X83311Y-47035D01*
X83226Y-47000D01*
X83311Y-46965D01*
X83465Y-46811D01*
X83549Y-46609D01*
X83549Y-46391D01*
X83501Y-46276D01*
X83525Y-46261D01*
X83659Y-46127D01*
X83722Y-46033D01*
X83744Y-45922D01*
X83744Y-44076D01*
X83722Y-43965D01*
X83659Y-43871D01*
X83637Y-43849D01*
X83543Y-43786D01*
X83480Y-43773D01*
X83549Y-43609D01*
X83549Y-43391D01*
X83465Y-43189D01*
X83311Y-43035D01*
X83226Y-43000D01*
X83311Y-42965D01*
X83465Y-42811D01*
X83549Y-42609D01*
X83549Y-42391D01*
X83465Y-42189D01*
X83311Y-42035D01*
X83226Y-42000D01*
X83311Y-41965D01*
X83465Y-41811D01*
X83549Y-41609D01*
X83549Y-41391D01*
X83465Y-41189D01*
X83311Y-41035D01*
X83226Y-41000D01*
X83311Y-40965D01*
X83465Y-40811D01*
X83549Y-40609D01*
X83549Y-40391D01*
X83465Y-40189D01*
X83311Y-40035D01*
X83226Y-40000D01*
X83311Y-39965D01*
X83465Y-39811D01*
X83549Y-39609D01*
X83549Y-39391D01*
X83465Y-39189D01*
X83311Y-39035D01*
X83226Y-39000D01*
X83311Y-38965D01*
X83465Y-38811D01*
X83549Y-38609D01*
X83549Y-38391D01*
X83465Y-38189D01*
X83311Y-38035D01*
X83226Y-38000D01*
X83311Y-37965D01*
X83465Y-37811D01*
X83549Y-37609D01*
X83549Y-37391D01*
X83465Y-37189D01*
X83311Y-37035D01*
X83226Y-37000D01*
X83311Y-36965D01*
X83465Y-36811D01*
X83549Y-36609D01*
X83549Y-36391D01*
X83465Y-36189D01*
X83311Y-36035D01*
X83226Y-36000D01*
X83311Y-35965D01*
X83465Y-35811D01*
X83549Y-35609D01*
X83549Y-35391D01*
X83465Y-35189D01*
X83311Y-35035D01*
X83226Y-35000D01*
X83311Y-34965D01*
X83465Y-34811D01*
X83549Y-34609D01*
X83549Y-34391D01*
X83465Y-34189D01*
X83311Y-34035D01*
X83226Y-34000D01*
X83311Y-33965D01*
X83465Y-33811D01*
X83549Y-33609D01*
X83549Y-33391D01*
X83465Y-33189D01*
X83311Y-33035D01*
X83226Y-33000D01*
X83311Y-32965D01*
X83465Y-32811D01*
X83549Y-32609D01*
X83549Y-32391D01*
X83465Y-32189D01*
X83311Y-32035D01*
X83226Y-32000D01*
X83311Y-31965D01*
X83465Y-31811D01*
X83549Y-31609D01*
X83549Y-31391D01*
X83465Y-31189D01*
X83311Y-31035D01*
X83109Y-30951D01*
X82891Y-30951D01*
X82689Y-31035D01*
X82535Y-31189D01*
X82500Y-31273D01*
X82465Y-31189D01*
X82311Y-31035D01*
X82109Y-30951D01*
X81891Y-30951D01*
X81689Y-31035D01*
X81535Y-31189D01*
X81507Y-31254D01*
X81369Y-30920D01*
X81244Y-30795D01*
X89205Y-30795D01*
X89205Y-51205D01*
X89205Y-51205D01*
G37*
G54D27*
X89205Y-51205D02*
X88950Y-51205D01*
X88950Y-41126D01*
X88950Y-40875D01*
X88854Y-40643D01*
X88677Y-40466D01*
X88480Y-40384D01*
X88480Y-39420D01*
X88480Y-39042D01*
X88336Y-38693D01*
X88069Y-38425D01*
X87720Y-38280D01*
X87342Y-38280D01*
X86993Y-38424D01*
X86725Y-38691D01*
X86580Y-39040D01*
X86580Y-39418D01*
X86724Y-39767D01*
X86991Y-40035D01*
X87071Y-40068D01*
X86943Y-40070D01*
X86623Y-40203D01*
X86549Y-40338D01*
X87140Y-40929D01*
X87731Y-40338D01*
X87657Y-40203D01*
X87599Y-40180D01*
X87718Y-40180D01*
X88067Y-40036D01*
X88335Y-39769D01*
X88480Y-39420D01*
X88480Y-40384D01*
X88446Y-40370D01*
X88195Y-40370D01*
X87963Y-40466D01*
X87939Y-40489D01*
X87937Y-40483D01*
X87802Y-40409D01*
X87211Y-41000D01*
X87802Y-41591D01*
X87937Y-41517D01*
X87939Y-41510D01*
X87963Y-41534D01*
X88194Y-41630D01*
X88445Y-41630D01*
X88677Y-41534D01*
X88854Y-41357D01*
X88950Y-41126D01*
X88950Y-51205D01*
X88480Y-51205D01*
X88480Y-42960D01*
X88480Y-42582D01*
X88336Y-42233D01*
X88069Y-41965D01*
X87720Y-41820D01*
X87601Y-41820D01*
X87657Y-41797D01*
X87731Y-41662D01*
X87140Y-41071D01*
X87069Y-41142D01*
X87069Y-41000D01*
X86478Y-40409D01*
X86343Y-40483D01*
X86206Y-40827D01*
X86210Y-41197D01*
X86343Y-41517D01*
X86478Y-41591D01*
X87069Y-41000D01*
X87069Y-41142D01*
X86549Y-41662D01*
X86623Y-41797D01*
X86967Y-41934D01*
X87068Y-41932D01*
X86993Y-41964D01*
X86725Y-42231D01*
X86580Y-42580D01*
X86580Y-42958D01*
X86724Y-43307D01*
X86991Y-43575D01*
X87340Y-43720D01*
X87718Y-43720D01*
X88067Y-43576D01*
X88335Y-43309D01*
X88480Y-42960D01*
X88480Y-51205D01*
X88400Y-51205D01*
X88400Y-44862D01*
X88400Y-44638D01*
X88399Y-44564D01*
X88399Y-44465D01*
X88361Y-44374D01*
X88291Y-44304D01*
X88199Y-44266D01*
X88027Y-44265D01*
X87965Y-44327D01*
X87965Y-44700D01*
X88338Y-44700D01*
X88400Y-44638D01*
X88400Y-44862D01*
X88338Y-44800D01*
X87965Y-44800D01*
X87965Y-45173D01*
X88027Y-45235D01*
X88199Y-45234D01*
X88291Y-45196D01*
X88361Y-45126D01*
X88399Y-45035D01*
X88399Y-44936D01*
X88400Y-44862D01*
X88400Y-51205D01*
X87865Y-51205D01*
X87865Y-45173D01*
X87865Y-44850D01*
X87865Y-44800D01*
X87865Y-44700D01*
X87865Y-44650D01*
X87865Y-44327D01*
X87803Y-44265D01*
X87631Y-44266D01*
X87539Y-44304D01*
X87500Y-44343D01*
X87461Y-44304D01*
X87370Y-44266D01*
X87271Y-44266D01*
X86801Y-44266D01*
X86709Y-44304D01*
X86639Y-44374D01*
X86603Y-44460D01*
X86099Y-44460D01*
X86099Y-44201D01*
X86061Y-44109D01*
X85991Y-44039D01*
X85900Y-44001D01*
X85830Y-44001D01*
X85830Y-41210D01*
X85830Y-40792D01*
X85670Y-40406D01*
X85375Y-40110D01*
X84990Y-39950D01*
X84572Y-39950D01*
X84186Y-40110D01*
X83890Y-40405D01*
X83730Y-40790D01*
X83730Y-41208D01*
X83890Y-41594D01*
X84185Y-41890D01*
X84470Y-42008D01*
X84470Y-43579D01*
X84181Y-43868D01*
X84114Y-43968D01*
X84107Y-44001D01*
X84101Y-44001D01*
X84009Y-44039D01*
X83939Y-44109D01*
X83901Y-44200D01*
X83901Y-44299D01*
X83901Y-45299D01*
X83939Y-45391D01*
X84009Y-45461D01*
X84100Y-45499D01*
X84199Y-45499D01*
X84699Y-45499D01*
X84791Y-45461D01*
X84861Y-45391D01*
X84899Y-45300D01*
X84899Y-45201D01*
X84899Y-44201D01*
X84861Y-44109D01*
X84838Y-44086D01*
X84999Y-43926D01*
X85066Y-43826D01*
X85066Y-43825D01*
X85089Y-43707D01*
X85090Y-43707D01*
X85090Y-42007D01*
X85374Y-41890D01*
X85670Y-41595D01*
X85830Y-41210D01*
X85830Y-44001D01*
X85801Y-44001D01*
X85301Y-44001D01*
X85209Y-44039D01*
X85139Y-44109D01*
X85101Y-44200D01*
X85101Y-44299D01*
X85101Y-45299D01*
X85139Y-45391D01*
X85209Y-45461D01*
X85300Y-45499D01*
X85399Y-45499D01*
X85899Y-45499D01*
X85991Y-45461D01*
X86061Y-45391D01*
X86099Y-45300D01*
X86099Y-45201D01*
X86099Y-45040D01*
X86603Y-45040D01*
X86639Y-45126D01*
X86709Y-45196D01*
X86800Y-45234D01*
X86899Y-45234D01*
X87369Y-45234D01*
X87461Y-45196D01*
X87500Y-45157D01*
X87539Y-45196D01*
X87631Y-45234D01*
X87803Y-45235D01*
X87865Y-45173D01*
X87865Y-51205D01*
X83744Y-51205D01*
X83868Y-51081D01*
X84025Y-50705D01*
X84025Y-50297D01*
X83869Y-49920D01*
X83581Y-49632D01*
X83205Y-49475D01*
X82797Y-49475D01*
X82420Y-49631D01*
X82132Y-49919D01*
X81975Y-50295D01*
X81975Y-50703D01*
X82131Y-51080D01*
X82256Y-51205D01*
X81225Y-51205D01*
X81306Y-51172D01*
X81457Y-51020D01*
X81540Y-50822D01*
X81540Y-50607D01*
X81540Y-50179D01*
X81458Y-49980D01*
X81306Y-49829D01*
X81108Y-49746D01*
X80893Y-49746D01*
X80694Y-49828D01*
X80543Y-49980D01*
X80500Y-50082D01*
X80458Y-49980D01*
X80306Y-49829D01*
X80108Y-49746D01*
X79893Y-49746D01*
X79694Y-49828D01*
X79543Y-49980D01*
X79500Y-50082D01*
X79458Y-49980D01*
X79306Y-49829D01*
X79108Y-49746D01*
X78893Y-49746D01*
X78694Y-49828D01*
X78543Y-49980D01*
X78500Y-50082D01*
X78458Y-49980D01*
X78306Y-49829D01*
X78108Y-49746D01*
X77893Y-49746D01*
X77694Y-49828D01*
X77543Y-49980D01*
X77500Y-50082D01*
X77458Y-49980D01*
X77306Y-49829D01*
X77108Y-49746D01*
X76893Y-49746D01*
X76694Y-49828D01*
X76543Y-49980D01*
X76500Y-50082D01*
X76458Y-49980D01*
X76306Y-49829D01*
X76108Y-49746D01*
X75893Y-49746D01*
X75694Y-49828D01*
X75543Y-49980D01*
X75500Y-50082D01*
X75458Y-49980D01*
X75306Y-49829D01*
X75108Y-49746D01*
X74893Y-49746D01*
X74694Y-49828D01*
X74543Y-49980D01*
X74500Y-50082D01*
X74458Y-49980D01*
X74306Y-49829D01*
X74108Y-49746D01*
X73893Y-49746D01*
X73694Y-49828D01*
X73543Y-49980D01*
X73460Y-50178D01*
X73460Y-50393D01*
X73460Y-50821D01*
X73542Y-51020D01*
X73694Y-51171D01*
X73775Y-51205D01*
X72225Y-51205D01*
X72306Y-51172D01*
X72457Y-51020D01*
X72540Y-50822D01*
X72540Y-50607D01*
X72540Y-50179D01*
X72458Y-49980D01*
X72306Y-49829D01*
X72108Y-49746D01*
X71893Y-49746D01*
X71694Y-49828D01*
X71543Y-49980D01*
X71500Y-50082D01*
X71458Y-49980D01*
X71306Y-49829D01*
X71108Y-49746D01*
X70893Y-49746D01*
X70694Y-49828D01*
X70543Y-49980D01*
X70500Y-50082D01*
X70458Y-49980D01*
X70306Y-49829D01*
X70108Y-49746D01*
X69893Y-49746D01*
X69694Y-49828D01*
X69543Y-49980D01*
X69500Y-50082D01*
X69458Y-49980D01*
X69306Y-49829D01*
X69108Y-49746D01*
X68893Y-49746D01*
X68694Y-49828D01*
X68543Y-49980D01*
X68500Y-50082D01*
X68458Y-49980D01*
X68306Y-49829D01*
X68108Y-49746D01*
X67893Y-49746D01*
X67694Y-49828D01*
X67543Y-49980D01*
X67500Y-50082D01*
X67458Y-49980D01*
X67306Y-49829D01*
X67108Y-49746D01*
X66893Y-49746D01*
X66694Y-49828D01*
X66543Y-49980D01*
X66500Y-50082D01*
X66458Y-49980D01*
X66306Y-49829D01*
X66108Y-49746D01*
X65893Y-49746D01*
X65694Y-49828D01*
X65543Y-49980D01*
X65500Y-50082D01*
X65458Y-49980D01*
X65306Y-49829D01*
X65282Y-49819D01*
X65268Y-49746D01*
X65267Y-49745D01*
X65205Y-49652D01*
X65204Y-49651D01*
X64730Y-49177D01*
X64730Y-44821D01*
X64843Y-44821D01*
X64999Y-44757D01*
X65119Y-44637D01*
X65184Y-44481D01*
X65184Y-44380D01*
X65842Y-43722D01*
X65921Y-43801D01*
X66077Y-43866D01*
X66246Y-43866D01*
X66402Y-43802D01*
X66522Y-43682D01*
X66563Y-43582D01*
X66579Y-43598D01*
X66735Y-43663D01*
X66904Y-43663D01*
X67060Y-43599D01*
X67131Y-43528D01*
X68479Y-43528D01*
X68479Y-43649D01*
X68543Y-43805D01*
X68663Y-43925D01*
X68819Y-43990D01*
X68918Y-43990D01*
X71079Y-46151D01*
X69253Y-46151D01*
X67299Y-44196D01*
X67299Y-44098D01*
X67235Y-43942D01*
X67115Y-43822D01*
X66959Y-43757D01*
X66790Y-43757D01*
X66634Y-43821D01*
X66514Y-43941D01*
X66449Y-44097D01*
X66449Y-44266D01*
X66513Y-44422D01*
X66633Y-44542D01*
X66789Y-44607D01*
X66888Y-44607D01*
X68914Y-46633D01*
X68780Y-46768D01*
X68650Y-47080D01*
X68650Y-47418D01*
X68779Y-47730D01*
X69018Y-47970D01*
X69330Y-48100D01*
X69668Y-48100D01*
X69980Y-47971D01*
X70220Y-47732D01*
X70350Y-47420D01*
X70350Y-47082D01*
X70221Y-46770D01*
X70182Y-46731D01*
X72817Y-46731D01*
X72780Y-46768D01*
X72650Y-47080D01*
X72650Y-47418D01*
X72779Y-47730D01*
X73018Y-47970D01*
X73330Y-48100D01*
X73668Y-48100D01*
X73980Y-47971D01*
X74220Y-47732D01*
X74350Y-47420D01*
X74350Y-47082D01*
X74221Y-46770D01*
X74182Y-46731D01*
X80820Y-46731D01*
X81459Y-47370D01*
X81451Y-47391D01*
X81451Y-47609D01*
X81535Y-47811D01*
X81689Y-47965D01*
X81773Y-48000D01*
X81689Y-48035D01*
X81535Y-48189D01*
X81451Y-48391D01*
X81451Y-48609D01*
X81535Y-48811D01*
X81689Y-48965D01*
X81891Y-49049D01*
X82109Y-49049D01*
X82311Y-48965D01*
X82465Y-48811D01*
X82500Y-48726D01*
X82535Y-48811D01*
X82689Y-48965D01*
X82891Y-49049D01*
X83109Y-49049D01*
X83311Y-48965D01*
X83465Y-48811D01*
X83549Y-48609D01*
X83549Y-48391D01*
X83465Y-48189D01*
X83311Y-48035D01*
X83226Y-48000D01*
X83311Y-47965D01*
X83465Y-47811D01*
X83549Y-47609D01*
X83549Y-47391D01*
X83465Y-47189D01*
X83311Y-47035D01*
X83226Y-47000D01*
X83311Y-46965D01*
X83465Y-46811D01*
X83549Y-46609D01*
X83549Y-46391D01*
X83501Y-46276D01*
X83525Y-46261D01*
X83659Y-46127D01*
X83722Y-46033D01*
X83744Y-45922D01*
X83744Y-44076D01*
X83722Y-43965D01*
X83659Y-43871D01*
X83637Y-43849D01*
X83543Y-43786D01*
X83480Y-43773D01*
X83549Y-43609D01*
X83549Y-43391D01*
X83465Y-43189D01*
X83311Y-43035D01*
X83226Y-43000D01*
X83311Y-42965D01*
X83465Y-42811D01*
X83549Y-42609D01*
X83549Y-42391D01*
X83465Y-42189D01*
X83311Y-42035D01*
X83226Y-42000D01*
X83311Y-41965D01*
X83465Y-41811D01*
X83549Y-41609D01*
X83549Y-41391D01*
X83465Y-41189D01*
X83311Y-41035D01*
X83226Y-41000D01*
X83311Y-40965D01*
X83465Y-40811D01*
X83549Y-40609D01*
X83549Y-40391D01*
X83465Y-40189D01*
X83311Y-40035D01*
X83226Y-40000D01*
X83311Y-39965D01*
X83465Y-39811D01*
X83549Y-39609D01*
X83549Y-39391D01*
X83465Y-39189D01*
X83311Y-39035D01*
X83226Y-39000D01*
X83311Y-38965D01*
X83465Y-38811D01*
X83549Y-38609D01*
X83549Y-38391D01*
X83465Y-38189D01*
X83311Y-38035D01*
X83226Y-38000D01*
X83311Y-37965D01*
X83465Y-37811D01*
X83549Y-37609D01*
X83549Y-37391D01*
X83465Y-37189D01*
X83311Y-37035D01*
X83226Y-37000D01*
X83311Y-36965D01*
X83465Y-36811D01*
X83549Y-36609D01*
X83549Y-36391D01*
X83465Y-36189D01*
X83311Y-36035D01*
X83226Y-36000D01*
X83311Y-35965D01*
X83465Y-35811D01*
X83549Y-35609D01*
X83549Y-35391D01*
X83465Y-35189D01*
X83311Y-35035D01*
X83226Y-35000D01*
X83311Y-34965D01*
X83465Y-34811D01*
X83549Y-34609D01*
X83549Y-34391D01*
X83465Y-34189D01*
X83311Y-34035D01*
X83226Y-34000D01*
X83311Y-33965D01*
X83465Y-33811D01*
X83549Y-33609D01*
X83549Y-33391D01*
X83465Y-33189D01*
X83311Y-33035D01*
X83226Y-33000D01*
X83311Y-32965D01*
X83465Y-32811D01*
X83549Y-32609D01*
X83549Y-32391D01*
X83465Y-32189D01*
X83311Y-32035D01*
X83226Y-32000D01*
X83311Y-31965D01*
X83465Y-31811D01*
X83549Y-31609D01*
X83549Y-31391D01*
X83465Y-31189D01*
X83311Y-31035D01*
X83109Y-30951D01*
X82891Y-30951D01*
X82689Y-31035D01*
X82535Y-31189D01*
X82500Y-31273D01*
X82465Y-31189D01*
X82311Y-31035D01*
X82109Y-30951D01*
X81891Y-30951D01*
X81689Y-31035D01*
X81535Y-31189D01*
X81507Y-31254D01*
X81369Y-30920D01*
X81244Y-30795D01*
X89205Y-30795D01*
X89205Y-51205D01*
M02*
