G04 (created by PCBNEW-RS274X (2011-05-25)-stable) date Fri 11 Oct 2013 04:24:49 PM EDT*
G01*
G70*
G90*
%MOIN*%
G04 Gerber Fmt 3.4, Leading zero omitted, Abs format*
%FSLAX34Y34*%
G04 APERTURE LIST*
%ADD10C,0.006000*%
%ADD11C,0.009000*%
%ADD12C,0.096000*%
%ADD13C,0.160000*%
%ADD14C,0.180000*%
%ADD15C,0.175000*%
%ADD16O,0.080000X0.120000*%
%ADD17C,0.080000*%
%ADD18R,0.059100X0.019700*%
%ADD19C,0.140000*%
%ADD20R,0.085000X0.085000*%
%ADD21C,0.085000*%
%ADD22R,0.045000X0.080000*%
G04 APERTURE END LIST*
G54D10*
G54D11*
X89500Y-30500D02*
X49500Y-30500D01*
X89500Y-51500D02*
X89500Y-30500D01*
X49500Y-51500D02*
X89500Y-51500D01*
X49500Y-30500D02*
X49500Y-51500D01*
G54D12*
X88320Y-41000D03*
G54D13*
X87140Y-41000D03*
G54D14*
X84780Y-41000D03*
G54D13*
X87530Y-39230D03*
X87530Y-42770D03*
G54D15*
X50500Y-50500D03*
X51000Y-31500D03*
X83000Y-50500D03*
X80500Y-31500D03*
G54D16*
X56000Y-50500D03*
X57000Y-50500D03*
X58000Y-50500D03*
X59000Y-50500D03*
X60000Y-50500D03*
X61000Y-50500D03*
X62000Y-50500D03*
X63000Y-50500D03*
X65000Y-50500D03*
X66000Y-50500D03*
X67000Y-50500D03*
X68000Y-50500D03*
X69000Y-50500D03*
X70000Y-50500D03*
X71000Y-50500D03*
X72000Y-50500D03*
X74000Y-50500D03*
X75000Y-50500D03*
X76000Y-50500D03*
X77000Y-50500D03*
X78000Y-50500D03*
X79000Y-50500D03*
X80000Y-50500D03*
X81000Y-50500D03*
X52400Y-31500D03*
X53400Y-31500D03*
X54400Y-31500D03*
X55400Y-31500D03*
X56400Y-31500D03*
X57400Y-31500D03*
X58400Y-31500D03*
X59400Y-31500D03*
X60400Y-31500D03*
X61400Y-31500D03*
X63000Y-31500D03*
X70000Y-31500D03*
X69000Y-31500D03*
X68000Y-31500D03*
X67000Y-31500D03*
X66000Y-31500D03*
X65000Y-31500D03*
X64000Y-31500D03*
X72000Y-31500D03*
X73000Y-31500D03*
X74000Y-31500D03*
X75000Y-31500D03*
X76000Y-31500D03*
X77000Y-31500D03*
X78000Y-31500D03*
X79000Y-31500D03*
G54D17*
X82000Y-31500D03*
X83000Y-31500D03*
X82000Y-32500D03*
X83000Y-32500D03*
X82000Y-33500D03*
X83000Y-33500D03*
X82000Y-34500D03*
X83000Y-34500D03*
X82000Y-35500D03*
X83000Y-35500D03*
X82000Y-36500D03*
X83000Y-36500D03*
X82000Y-37500D03*
X83000Y-37500D03*
X82000Y-38500D03*
X83000Y-38500D03*
X82000Y-39500D03*
X83000Y-39500D03*
X82000Y-40500D03*
X83000Y-40500D03*
X82000Y-41500D03*
X83000Y-41500D03*
X82000Y-42500D03*
X83000Y-42500D03*
X82000Y-43500D03*
X83000Y-43500D03*
X82000Y-44500D03*
X83000Y-44500D03*
X82000Y-45500D03*
X83000Y-45500D03*
X82000Y-46500D03*
X83000Y-46500D03*
X82000Y-47500D03*
X83000Y-47500D03*
X82000Y-48500D03*
X83000Y-48500D03*
G54D18*
X85590Y-46100D03*
X85590Y-46354D03*
X85590Y-46610D03*
X85590Y-46866D03*
X85590Y-47122D03*
X85590Y-47378D03*
X85590Y-47634D03*
X85590Y-47890D03*
X85590Y-48146D03*
X85590Y-48400D03*
X87910Y-48400D03*
X87910Y-48146D03*
X87910Y-47890D03*
X87910Y-47634D03*
X87910Y-47378D03*
X87910Y-47122D03*
X87910Y-46866D03*
X87910Y-46610D03*
X87910Y-46354D03*
X87910Y-46100D03*
X85590Y-45840D03*
X87910Y-45840D03*
X85590Y-48660D03*
X87910Y-48660D03*
G54D19*
X55250Y-39000D03*
X59250Y-39000D03*
G54D20*
X57250Y-41000D03*
G54D21*
X56250Y-41000D03*
G54D19*
X55250Y-43000D03*
X75250Y-39000D03*
X79250Y-39000D03*
G54D20*
X77250Y-41000D03*
G54D21*
X76250Y-41000D03*
G54D19*
X75250Y-43000D03*
G54D22*
X85250Y-36450D03*
X85750Y-36450D03*
X86250Y-36450D03*
X86750Y-36450D03*
X87250Y-36450D03*
X87750Y-36450D03*
X88250Y-36450D03*
X88250Y-34050D03*
X87750Y-34050D03*
X87250Y-34050D03*
X86750Y-34050D03*
X86250Y-34050D03*
X85750Y-34050D03*
X85250Y-34050D03*
M02*
