G04 (created by PCBNEW-RS274X (2011-05-25)-stable) date Fri 11 Oct 2013 04:24:49 PM EDT*
G01*
G70*
G90*
%MOIN*%
G04 Gerber Fmt 3.4, Leading zero omitted, Abs format*
%FSLAX34Y34*%
G04 APERTURE LIST*
%ADD10C,0.006000*%
%ADD11C,0.009000*%
%ADD12C,0.076000*%
%ADD13C,0.140000*%
%ADD14C,0.160000*%
%ADD15C,0.155000*%
%ADD16O,0.060000X0.100000*%
%ADD17C,0.060000*%
%ADD18R,0.100000X0.050000*%
%ADD19C,0.120000*%
%ADD20R,0.065000X0.065000*%
%ADD21C,0.065000*%
%ADD22C,0.035000*%
%ADD23C,0.012000*%
%ADD24C,0.008000*%
%ADD25C,0.010000*%
G04 APERTURE END LIST*
G54D10*
G54D11*
X89500Y-30500D02*
X49500Y-30500D01*
X89500Y-51500D02*
X89500Y-30500D01*
X49500Y-51500D02*
X89500Y-51500D01*
X49500Y-30500D02*
X49500Y-51500D01*
G54D12*
X88320Y-41000D03*
G54D13*
X87140Y-41000D03*
G54D14*
X84780Y-41000D03*
G54D13*
X87530Y-39230D03*
X87530Y-42770D03*
G54D15*
X50500Y-50500D03*
X51000Y-31500D03*
X83000Y-50500D03*
X80500Y-31500D03*
G54D16*
X56000Y-50500D03*
X57000Y-50500D03*
X58000Y-50500D03*
X59000Y-50500D03*
X60000Y-50500D03*
X61000Y-50500D03*
X62000Y-50500D03*
X63000Y-50500D03*
X65000Y-50500D03*
X66000Y-50500D03*
X67000Y-50500D03*
X68000Y-50500D03*
X69000Y-50500D03*
X70000Y-50500D03*
X71000Y-50500D03*
X72000Y-50500D03*
X74000Y-50500D03*
X75000Y-50500D03*
X76000Y-50500D03*
X77000Y-50500D03*
X78000Y-50500D03*
X79000Y-50500D03*
X80000Y-50500D03*
X81000Y-50500D03*
X52400Y-31500D03*
X53400Y-31500D03*
X54400Y-31500D03*
X55400Y-31500D03*
X56400Y-31500D03*
X57400Y-31500D03*
X58400Y-31500D03*
X59400Y-31500D03*
X60400Y-31500D03*
X61400Y-31500D03*
X63000Y-31500D03*
X70000Y-31500D03*
X69000Y-31500D03*
X68000Y-31500D03*
X67000Y-31500D03*
X66000Y-31500D03*
X65000Y-31500D03*
X64000Y-31500D03*
X72000Y-31500D03*
X73000Y-31500D03*
X74000Y-31500D03*
X75000Y-31500D03*
X76000Y-31500D03*
X77000Y-31500D03*
X78000Y-31500D03*
X79000Y-31500D03*
G54D17*
X82000Y-31500D03*
X83000Y-31500D03*
X82000Y-32500D03*
X83000Y-32500D03*
X82000Y-33500D03*
X83000Y-33500D03*
X82000Y-34500D03*
X83000Y-34500D03*
X82000Y-35500D03*
X83000Y-35500D03*
X82000Y-36500D03*
X83000Y-36500D03*
X82000Y-37500D03*
X83000Y-37500D03*
X82000Y-38500D03*
X83000Y-38500D03*
X82000Y-39500D03*
X83000Y-39500D03*
X82000Y-40500D03*
X83000Y-40500D03*
X82000Y-41500D03*
X83000Y-41500D03*
X82000Y-42500D03*
X83000Y-42500D03*
X82000Y-43500D03*
X83000Y-43500D03*
X82000Y-44500D03*
X83000Y-44500D03*
X82000Y-45500D03*
X83000Y-45500D03*
X82000Y-46500D03*
X83000Y-46500D03*
X82000Y-47500D03*
X83000Y-47500D03*
X82000Y-48500D03*
X83000Y-48500D03*
G54D18*
X85250Y-46350D03*
X85250Y-45150D03*
X86750Y-35850D03*
X86750Y-34650D03*
X88250Y-48150D03*
X88250Y-49350D03*
X85250Y-48150D03*
X85250Y-49350D03*
X86750Y-48150D03*
X86750Y-49350D03*
X86750Y-46350D03*
X86750Y-45150D03*
G54D19*
X55250Y-39000D03*
X59250Y-39000D03*
G54D20*
X57250Y-41000D03*
G54D21*
X56250Y-41000D03*
G54D19*
X55250Y-43000D03*
X75250Y-39000D03*
X79250Y-39000D03*
G54D20*
X77250Y-41000D03*
G54D21*
X76250Y-41000D03*
G54D19*
X75250Y-43000D03*
G54D22*
X86425Y-48683D03*
X88507Y-47599D03*
X86987Y-45817D03*
G54D23*
X60000Y-50500D02*
X60000Y-51163D01*
X72435Y-51163D02*
X60000Y-51163D01*
X75562Y-48036D02*
X72435Y-51163D01*
X84473Y-48036D02*
X75562Y-48036D01*
X84587Y-48150D02*
X84473Y-48036D01*
X86750Y-48150D02*
X86750Y-48563D01*
X84919Y-48150D02*
X84587Y-48150D01*
X84919Y-48150D02*
X85250Y-48150D01*
X85250Y-48150D02*
X85913Y-48150D01*
X85913Y-48171D02*
X86425Y-48683D01*
X85913Y-48150D02*
X85913Y-48171D01*
X86545Y-48563D02*
X86750Y-48563D01*
X86425Y-48683D02*
X86545Y-48563D01*
X86750Y-34650D02*
X86750Y-35063D01*
X84919Y-45150D02*
X84587Y-45150D01*
X88250Y-49350D02*
X88250Y-48937D01*
X87837Y-48937D02*
X88250Y-48937D01*
X87466Y-48566D02*
X87837Y-48937D01*
X87414Y-48566D02*
X87466Y-48566D01*
X85250Y-49350D02*
X86750Y-49350D01*
X87043Y-48937D02*
X87414Y-48566D01*
X86750Y-48937D02*
X87043Y-48937D01*
X86750Y-49350D02*
X86750Y-48937D01*
X62000Y-50500D02*
X62000Y-49837D01*
X76250Y-41000D02*
X76250Y-41020D01*
X80230Y-45000D02*
X76250Y-41020D01*
X84437Y-45000D02*
X80230Y-45000D01*
X84587Y-45150D02*
X84437Y-45000D01*
X70817Y-41020D02*
X62000Y-49837D01*
X76250Y-41020D02*
X70817Y-41020D01*
X88895Y-39245D02*
X87140Y-41000D01*
X88895Y-36795D02*
X88895Y-39245D01*
X87163Y-35063D02*
X88895Y-36795D01*
X86750Y-35063D02*
X87163Y-35063D01*
X86666Y-44653D02*
X86750Y-44737D01*
X86666Y-41474D02*
X86666Y-44653D01*
X87140Y-41000D02*
X86666Y-41474D01*
X84919Y-45150D02*
X85250Y-45150D01*
X86750Y-45150D02*
X86750Y-44943D01*
X86750Y-44943D02*
X86750Y-44737D01*
X86120Y-44943D02*
X85913Y-45150D01*
X86750Y-44943D02*
X86120Y-44943D01*
X85250Y-45150D02*
X85913Y-45150D01*
X87414Y-45151D02*
X87413Y-45150D01*
X87414Y-48566D02*
X87414Y-45151D01*
X86750Y-45150D02*
X87413Y-45150D01*
G54D24*
X88349Y-47757D02*
X88250Y-47757D01*
X88507Y-47599D02*
X88349Y-47757D01*
X88250Y-48150D02*
X88250Y-47757D01*
X85250Y-46350D02*
X85893Y-46350D01*
X86750Y-46350D02*
X85893Y-46350D01*
X86847Y-45957D02*
X86987Y-45817D01*
X86750Y-45957D02*
X86847Y-45957D01*
X86750Y-46350D02*
X86750Y-45957D01*
G54D23*
X84780Y-38233D02*
X86750Y-36263D01*
X84780Y-41000D02*
X84780Y-38233D01*
X86750Y-35850D02*
X86750Y-36263D01*
G54D10*
G36*
X81773Y-47000D02*
X81689Y-47035D01*
X81535Y-47189D01*
X81451Y-47391D01*
X81451Y-47609D01*
X81499Y-47726D01*
X80100Y-47726D01*
X80100Y-39170D01*
X80100Y-38832D01*
X79971Y-38520D01*
X79732Y-38280D01*
X79420Y-38150D01*
X79082Y-38150D01*
X78770Y-38279D01*
X78530Y-38518D01*
X78400Y-38830D01*
X78400Y-39168D01*
X78529Y-39480D01*
X78768Y-39720D01*
X79080Y-39850D01*
X79418Y-39850D01*
X79730Y-39721D01*
X79970Y-39482D01*
X80100Y-39170D01*
X80100Y-47726D01*
X77824Y-47726D01*
X77824Y-41375D01*
X77824Y-41276D01*
X77824Y-40626D01*
X77786Y-40534D01*
X77716Y-40464D01*
X77625Y-40426D01*
X77526Y-40426D01*
X76876Y-40426D01*
X76784Y-40464D01*
X76714Y-40534D01*
X76676Y-40625D01*
X76676Y-40684D01*
X76646Y-40675D01*
X76575Y-40746D01*
X76575Y-40604D01*
X76546Y-40508D01*
X76334Y-40432D01*
X76111Y-40444D01*
X76100Y-40448D01*
X76100Y-39170D01*
X76100Y-38832D01*
X75971Y-38520D01*
X75732Y-38280D01*
X75420Y-38150D01*
X75082Y-38150D01*
X74770Y-38279D01*
X74530Y-38518D01*
X74400Y-38830D01*
X74400Y-39168D01*
X74529Y-39480D01*
X74768Y-39720D01*
X75080Y-39850D01*
X75418Y-39850D01*
X75730Y-39721D01*
X75970Y-39482D01*
X76100Y-39170D01*
X76100Y-40448D01*
X75954Y-40508D01*
X75925Y-40604D01*
X76250Y-40929D01*
X76575Y-40604D01*
X76575Y-40746D01*
X76321Y-41000D01*
X76646Y-41325D01*
X76676Y-41315D01*
X76676Y-41374D01*
X76714Y-41466D01*
X76784Y-41536D01*
X76875Y-41574D01*
X76974Y-41574D01*
X77624Y-41574D01*
X77716Y-41536D01*
X77786Y-41466D01*
X77824Y-41375D01*
X77824Y-47726D01*
X76575Y-47726D01*
X76575Y-41396D01*
X76250Y-41071D01*
X76179Y-41142D01*
X76179Y-41000D01*
X75854Y-40675D01*
X75758Y-40704D01*
X75682Y-40916D01*
X75694Y-41139D01*
X75758Y-41296D01*
X75854Y-41325D01*
X76179Y-41000D01*
X76179Y-41142D01*
X75925Y-41396D01*
X75954Y-41492D01*
X76166Y-41568D01*
X76389Y-41556D01*
X76546Y-41492D01*
X76575Y-41396D01*
X76575Y-47726D01*
X76100Y-47726D01*
X76100Y-43170D01*
X76100Y-42832D01*
X75971Y-42520D01*
X75732Y-42280D01*
X75420Y-42150D01*
X75082Y-42150D01*
X74770Y-42279D01*
X74530Y-42518D01*
X74400Y-42830D01*
X74400Y-43168D01*
X74529Y-43480D01*
X74768Y-43720D01*
X75080Y-43850D01*
X75418Y-43850D01*
X75730Y-43721D01*
X75970Y-43482D01*
X76100Y-43170D01*
X76100Y-47726D01*
X75562Y-47726D01*
X75443Y-47750D01*
X75343Y-47817D01*
X72540Y-50620D01*
X72540Y-50607D01*
X72540Y-50179D01*
X72458Y-49980D01*
X72306Y-49829D01*
X72108Y-49746D01*
X71893Y-49746D01*
X71694Y-49828D01*
X71543Y-49980D01*
X71500Y-50082D01*
X71458Y-49980D01*
X71306Y-49829D01*
X71108Y-49746D01*
X70893Y-49746D01*
X70694Y-49828D01*
X70543Y-49980D01*
X70500Y-50082D01*
X70458Y-49980D01*
X70306Y-49829D01*
X70108Y-49746D01*
X69893Y-49746D01*
X69694Y-49828D01*
X69543Y-49980D01*
X69500Y-50082D01*
X69458Y-49980D01*
X69306Y-49829D01*
X69108Y-49746D01*
X68893Y-49746D01*
X68694Y-49828D01*
X68543Y-49980D01*
X68500Y-50082D01*
X68458Y-49980D01*
X68306Y-49829D01*
X68108Y-49746D01*
X67893Y-49746D01*
X67694Y-49828D01*
X67543Y-49980D01*
X67500Y-50082D01*
X67458Y-49980D01*
X67306Y-49829D01*
X67108Y-49746D01*
X66893Y-49746D01*
X66694Y-49828D01*
X66543Y-49980D01*
X66500Y-50082D01*
X66458Y-49980D01*
X66306Y-49829D01*
X66108Y-49746D01*
X65893Y-49746D01*
X65694Y-49828D01*
X65543Y-49980D01*
X65500Y-50082D01*
X65458Y-49980D01*
X65306Y-49829D01*
X65108Y-49746D01*
X64893Y-49746D01*
X64694Y-49828D01*
X64543Y-49980D01*
X64460Y-50178D01*
X64460Y-50393D01*
X64460Y-50821D01*
X64473Y-50853D01*
X63527Y-50853D01*
X63540Y-50822D01*
X63540Y-50607D01*
X63540Y-50179D01*
X63458Y-49980D01*
X63306Y-49829D01*
X63108Y-49746D01*
X62893Y-49746D01*
X62694Y-49828D01*
X62543Y-49980D01*
X62500Y-50081D01*
X62489Y-50043D01*
X62353Y-49875D01*
X62163Y-49772D01*
X62135Y-49768D01*
X62050Y-49815D01*
X62050Y-50400D01*
X62050Y-50450D01*
X62050Y-50550D01*
X61950Y-50550D01*
X61950Y-50450D01*
X61950Y-49815D01*
X61865Y-49768D01*
X61837Y-49772D01*
X61647Y-49875D01*
X61511Y-50043D01*
X61500Y-50080D01*
X61489Y-50043D01*
X61353Y-49875D01*
X61163Y-49772D01*
X61135Y-49768D01*
X61050Y-49815D01*
X61050Y-50450D01*
X61450Y-50450D01*
X61550Y-50450D01*
X61950Y-50450D01*
X61950Y-50550D01*
X61900Y-50550D01*
X61550Y-50550D01*
X61450Y-50550D01*
X61100Y-50550D01*
X61050Y-50550D01*
X60950Y-50550D01*
X60950Y-50450D01*
X60950Y-50400D01*
X60950Y-49815D01*
X60865Y-49768D01*
X60837Y-49772D01*
X60647Y-49875D01*
X60511Y-50043D01*
X60499Y-50081D01*
X60458Y-49980D01*
X60306Y-49829D01*
X60108Y-49746D01*
X60100Y-49746D01*
X60100Y-39170D01*
X60100Y-38832D01*
X59971Y-38520D01*
X59732Y-38280D01*
X59420Y-38150D01*
X59082Y-38150D01*
X58770Y-38279D01*
X58530Y-38518D01*
X58400Y-38830D01*
X58400Y-39168D01*
X58529Y-39480D01*
X58768Y-39720D01*
X59080Y-39850D01*
X59418Y-39850D01*
X59730Y-39721D01*
X59970Y-39482D01*
X60100Y-39170D01*
X60100Y-49746D01*
X59893Y-49746D01*
X59694Y-49828D01*
X59543Y-49980D01*
X59500Y-50082D01*
X59458Y-49980D01*
X59306Y-49829D01*
X59108Y-49746D01*
X58893Y-49746D01*
X58694Y-49828D01*
X58543Y-49980D01*
X58500Y-50082D01*
X58458Y-49980D01*
X58306Y-49829D01*
X58108Y-49746D01*
X57893Y-49746D01*
X57824Y-49774D01*
X57824Y-41375D01*
X57824Y-41276D01*
X57824Y-40626D01*
X57786Y-40534D01*
X57716Y-40464D01*
X57625Y-40426D01*
X57526Y-40426D01*
X56876Y-40426D01*
X56784Y-40464D01*
X56714Y-40534D01*
X56676Y-40625D01*
X56676Y-40684D01*
X56646Y-40675D01*
X56575Y-40746D01*
X56575Y-40604D01*
X56546Y-40508D01*
X56334Y-40432D01*
X56111Y-40444D01*
X56100Y-40448D01*
X56100Y-39170D01*
X56100Y-38832D01*
X55971Y-38520D01*
X55732Y-38280D01*
X55420Y-38150D01*
X55082Y-38150D01*
X54770Y-38279D01*
X54530Y-38518D01*
X54400Y-38830D01*
X54400Y-39168D01*
X54529Y-39480D01*
X54768Y-39720D01*
X55080Y-39850D01*
X55418Y-39850D01*
X55730Y-39721D01*
X55970Y-39482D01*
X56100Y-39170D01*
X56100Y-40448D01*
X55954Y-40508D01*
X55925Y-40604D01*
X56250Y-40929D01*
X56575Y-40604D01*
X56575Y-40746D01*
X56321Y-41000D01*
X56646Y-41325D01*
X56676Y-41315D01*
X56676Y-41374D01*
X56714Y-41466D01*
X56784Y-41536D01*
X56875Y-41574D01*
X56974Y-41574D01*
X57624Y-41574D01*
X57716Y-41536D01*
X57786Y-41466D01*
X57824Y-41375D01*
X57824Y-49774D01*
X57694Y-49828D01*
X57543Y-49980D01*
X57500Y-50082D01*
X57458Y-49980D01*
X57306Y-49829D01*
X57108Y-49746D01*
X56893Y-49746D01*
X56694Y-49828D01*
X56575Y-49947D01*
X56575Y-41396D01*
X56250Y-41071D01*
X56179Y-41142D01*
X56179Y-41000D01*
X55854Y-40675D01*
X55758Y-40704D01*
X55682Y-40916D01*
X55694Y-41139D01*
X55758Y-41296D01*
X55854Y-41325D01*
X56179Y-41000D01*
X56179Y-41142D01*
X55925Y-41396D01*
X55954Y-41492D01*
X56166Y-41568D01*
X56389Y-41556D01*
X56546Y-41492D01*
X56575Y-41396D01*
X56575Y-49947D01*
X56543Y-49980D01*
X56500Y-50082D01*
X56458Y-49980D01*
X56306Y-49829D01*
X56108Y-49746D01*
X56100Y-49746D01*
X56100Y-43170D01*
X56100Y-42832D01*
X55971Y-42520D01*
X55732Y-42280D01*
X55420Y-42150D01*
X55082Y-42150D01*
X54770Y-42279D01*
X54530Y-42518D01*
X54400Y-42830D01*
X54400Y-43168D01*
X54529Y-43480D01*
X54768Y-43720D01*
X55080Y-43850D01*
X55418Y-43850D01*
X55730Y-43721D01*
X55970Y-43482D01*
X56100Y-43170D01*
X56100Y-49746D01*
X55893Y-49746D01*
X55694Y-49828D01*
X55543Y-49980D01*
X55460Y-50178D01*
X55460Y-50393D01*
X55460Y-50821D01*
X55542Y-51020D01*
X55694Y-51171D01*
X55775Y-51205D01*
X51244Y-51205D01*
X51368Y-51081D01*
X51525Y-50705D01*
X51525Y-50297D01*
X51369Y-49920D01*
X51081Y-49632D01*
X50705Y-49475D01*
X50297Y-49475D01*
X49920Y-49631D01*
X49795Y-49756D01*
X49795Y-30795D01*
X50256Y-30795D01*
X50132Y-30919D01*
X49975Y-31295D01*
X49975Y-31703D01*
X50131Y-32080D01*
X50419Y-32368D01*
X50795Y-32525D01*
X51203Y-32525D01*
X51580Y-32369D01*
X51868Y-32081D01*
X51917Y-31961D01*
X51942Y-32020D01*
X52094Y-32171D01*
X52292Y-32254D01*
X52507Y-32254D01*
X52706Y-32172D01*
X52857Y-32020D01*
X52899Y-31917D01*
X52942Y-32020D01*
X53094Y-32171D01*
X53292Y-32254D01*
X53507Y-32254D01*
X53706Y-32172D01*
X53857Y-32020D01*
X53899Y-31917D01*
X53942Y-32020D01*
X54094Y-32171D01*
X54292Y-32254D01*
X54507Y-32254D01*
X54706Y-32172D01*
X54857Y-32020D01*
X54899Y-31917D01*
X54942Y-32020D01*
X55094Y-32171D01*
X55292Y-32254D01*
X55507Y-32254D01*
X55706Y-32172D01*
X55857Y-32020D01*
X55899Y-31917D01*
X55942Y-32020D01*
X56094Y-32171D01*
X56292Y-32254D01*
X56507Y-32254D01*
X56706Y-32172D01*
X56857Y-32020D01*
X56899Y-31917D01*
X56942Y-32020D01*
X57094Y-32171D01*
X57292Y-32254D01*
X57507Y-32254D01*
X57706Y-32172D01*
X57857Y-32020D01*
X57899Y-31917D01*
X57942Y-32020D01*
X58094Y-32171D01*
X58292Y-32254D01*
X58507Y-32254D01*
X58706Y-32172D01*
X58857Y-32020D01*
X58899Y-31917D01*
X58942Y-32020D01*
X59094Y-32171D01*
X59292Y-32254D01*
X59507Y-32254D01*
X59706Y-32172D01*
X59857Y-32020D01*
X59899Y-31917D01*
X59942Y-32020D01*
X60094Y-32171D01*
X60292Y-32254D01*
X60507Y-32254D01*
X60706Y-32172D01*
X60857Y-32020D01*
X60899Y-31917D01*
X60942Y-32020D01*
X61094Y-32171D01*
X61292Y-32254D01*
X61507Y-32254D01*
X61706Y-32172D01*
X61857Y-32020D01*
X61940Y-31822D01*
X61940Y-31607D01*
X61940Y-31179D01*
X61858Y-30980D01*
X61706Y-30829D01*
X61624Y-30795D01*
X62774Y-30795D01*
X62694Y-30828D01*
X62543Y-30980D01*
X62460Y-31178D01*
X62460Y-31393D01*
X62460Y-31821D01*
X62542Y-32020D01*
X62694Y-32171D01*
X62892Y-32254D01*
X63107Y-32254D01*
X63306Y-32172D01*
X63457Y-32020D01*
X63499Y-31917D01*
X63542Y-32020D01*
X63694Y-32171D01*
X63892Y-32254D01*
X64107Y-32254D01*
X64306Y-32172D01*
X64457Y-32020D01*
X64499Y-31917D01*
X64542Y-32020D01*
X64694Y-32171D01*
X64892Y-32254D01*
X65107Y-32254D01*
X65306Y-32172D01*
X65457Y-32020D01*
X65499Y-31917D01*
X65542Y-32020D01*
X65694Y-32171D01*
X65892Y-32254D01*
X66107Y-32254D01*
X66306Y-32172D01*
X66457Y-32020D01*
X66499Y-31917D01*
X66542Y-32020D01*
X66694Y-32171D01*
X66892Y-32254D01*
X67107Y-32254D01*
X67306Y-32172D01*
X67457Y-32020D01*
X67499Y-31917D01*
X67542Y-32020D01*
X67694Y-32171D01*
X67892Y-32254D01*
X68107Y-32254D01*
X68306Y-32172D01*
X68457Y-32020D01*
X68499Y-31917D01*
X68542Y-32020D01*
X68694Y-32171D01*
X68892Y-32254D01*
X69107Y-32254D01*
X69306Y-32172D01*
X69457Y-32020D01*
X69499Y-31917D01*
X69542Y-32020D01*
X69694Y-32171D01*
X69892Y-32254D01*
X70107Y-32254D01*
X70306Y-32172D01*
X70457Y-32020D01*
X70540Y-31822D01*
X70540Y-31607D01*
X70540Y-31179D01*
X70458Y-30980D01*
X70306Y-30829D01*
X70224Y-30795D01*
X71774Y-30795D01*
X71694Y-30828D01*
X71543Y-30980D01*
X71460Y-31178D01*
X71460Y-31393D01*
X71460Y-31821D01*
X71542Y-32020D01*
X71694Y-32171D01*
X71892Y-32254D01*
X72107Y-32254D01*
X72306Y-32172D01*
X72457Y-32020D01*
X72499Y-31917D01*
X72542Y-32020D01*
X72694Y-32171D01*
X72892Y-32254D01*
X73107Y-32254D01*
X73306Y-32172D01*
X73457Y-32020D01*
X73499Y-31917D01*
X73542Y-32020D01*
X73694Y-32171D01*
X73892Y-32254D01*
X74107Y-32254D01*
X74306Y-32172D01*
X74457Y-32020D01*
X74499Y-31917D01*
X74542Y-32020D01*
X74694Y-32171D01*
X74892Y-32254D01*
X75107Y-32254D01*
X75306Y-32172D01*
X75457Y-32020D01*
X75499Y-31917D01*
X75542Y-32020D01*
X75694Y-32171D01*
X75892Y-32254D01*
X76107Y-32254D01*
X76306Y-32172D01*
X76457Y-32020D01*
X76499Y-31917D01*
X76542Y-32020D01*
X76694Y-32171D01*
X76892Y-32254D01*
X77107Y-32254D01*
X77306Y-32172D01*
X77457Y-32020D01*
X77499Y-31917D01*
X77542Y-32020D01*
X77694Y-32171D01*
X77892Y-32254D01*
X78107Y-32254D01*
X78306Y-32172D01*
X78457Y-32020D01*
X78499Y-31917D01*
X78542Y-32020D01*
X78694Y-32171D01*
X78892Y-32254D01*
X79107Y-32254D01*
X79306Y-32172D01*
X79457Y-32020D01*
X79532Y-31840D01*
X79631Y-32080D01*
X79919Y-32368D01*
X80295Y-32525D01*
X80703Y-32525D01*
X81080Y-32369D01*
X81368Y-32081D01*
X81507Y-31745D01*
X81535Y-31811D01*
X81689Y-31965D01*
X81773Y-32000D01*
X81689Y-32035D01*
X81535Y-32189D01*
X81451Y-32391D01*
X81451Y-32609D01*
X81535Y-32811D01*
X81689Y-32965D01*
X81773Y-33000D01*
X81689Y-33035D01*
X81535Y-33189D01*
X81451Y-33391D01*
X81451Y-33609D01*
X81535Y-33811D01*
X81689Y-33965D01*
X81773Y-34000D01*
X81689Y-34035D01*
X81535Y-34189D01*
X81451Y-34391D01*
X81451Y-34609D01*
X81535Y-34811D01*
X81689Y-34965D01*
X81773Y-35000D01*
X81689Y-35035D01*
X81535Y-35189D01*
X81451Y-35391D01*
X81451Y-35609D01*
X81535Y-35811D01*
X81689Y-35965D01*
X81773Y-36000D01*
X81689Y-36035D01*
X81535Y-36189D01*
X81451Y-36391D01*
X81451Y-36609D01*
X81535Y-36811D01*
X81689Y-36965D01*
X81773Y-37000D01*
X81689Y-37035D01*
X81535Y-37189D01*
X81451Y-37391D01*
X81451Y-37609D01*
X81535Y-37811D01*
X81689Y-37965D01*
X81773Y-38000D01*
X81689Y-38035D01*
X81535Y-38189D01*
X81451Y-38391D01*
X81451Y-38609D01*
X81535Y-38811D01*
X81689Y-38965D01*
X81773Y-39000D01*
X81689Y-39035D01*
X81535Y-39189D01*
X81451Y-39391D01*
X81451Y-39609D01*
X81535Y-39811D01*
X81689Y-39965D01*
X81773Y-40000D01*
X81689Y-40035D01*
X81535Y-40189D01*
X81451Y-40391D01*
X81451Y-40609D01*
X81535Y-40811D01*
X81689Y-40965D01*
X81773Y-41000D01*
X81689Y-41035D01*
X81535Y-41189D01*
X81451Y-41391D01*
X81451Y-41609D01*
X81535Y-41811D01*
X81689Y-41965D01*
X81773Y-42000D01*
X81689Y-42035D01*
X81535Y-42189D01*
X81451Y-42391D01*
X81451Y-42609D01*
X81535Y-42811D01*
X81689Y-42965D01*
X81773Y-43000D01*
X81689Y-43035D01*
X81535Y-43189D01*
X81451Y-43391D01*
X81451Y-43609D01*
X81535Y-43811D01*
X81689Y-43965D01*
X81773Y-44000D01*
X81689Y-44035D01*
X81535Y-44189D01*
X81451Y-44391D01*
X81451Y-44609D01*
X81535Y-44811D01*
X81689Y-44965D01*
X81773Y-45000D01*
X81689Y-45035D01*
X81535Y-45189D01*
X81451Y-45391D01*
X81451Y-45609D01*
X81535Y-45811D01*
X81689Y-45965D01*
X81773Y-46000D01*
X81689Y-46035D01*
X81535Y-46189D01*
X81451Y-46391D01*
X81451Y-46609D01*
X81535Y-46811D01*
X81689Y-46965D01*
X81773Y-47000D01*
X81773Y-47000D01*
G37*
G54D25*
X81773Y-47000D02*
X81689Y-47035D01*
X81535Y-47189D01*
X81451Y-47391D01*
X81451Y-47609D01*
X81499Y-47726D01*
X80100Y-47726D01*
X80100Y-39170D01*
X80100Y-38832D01*
X79971Y-38520D01*
X79732Y-38280D01*
X79420Y-38150D01*
X79082Y-38150D01*
X78770Y-38279D01*
X78530Y-38518D01*
X78400Y-38830D01*
X78400Y-39168D01*
X78529Y-39480D01*
X78768Y-39720D01*
X79080Y-39850D01*
X79418Y-39850D01*
X79730Y-39721D01*
X79970Y-39482D01*
X80100Y-39170D01*
X80100Y-47726D01*
X77824Y-47726D01*
X77824Y-41375D01*
X77824Y-41276D01*
X77824Y-40626D01*
X77786Y-40534D01*
X77716Y-40464D01*
X77625Y-40426D01*
X77526Y-40426D01*
X76876Y-40426D01*
X76784Y-40464D01*
X76714Y-40534D01*
X76676Y-40625D01*
X76676Y-40684D01*
X76646Y-40675D01*
X76575Y-40746D01*
X76575Y-40604D01*
X76546Y-40508D01*
X76334Y-40432D01*
X76111Y-40444D01*
X76100Y-40448D01*
X76100Y-39170D01*
X76100Y-38832D01*
X75971Y-38520D01*
X75732Y-38280D01*
X75420Y-38150D01*
X75082Y-38150D01*
X74770Y-38279D01*
X74530Y-38518D01*
X74400Y-38830D01*
X74400Y-39168D01*
X74529Y-39480D01*
X74768Y-39720D01*
X75080Y-39850D01*
X75418Y-39850D01*
X75730Y-39721D01*
X75970Y-39482D01*
X76100Y-39170D01*
X76100Y-40448D01*
X75954Y-40508D01*
X75925Y-40604D01*
X76250Y-40929D01*
X76575Y-40604D01*
X76575Y-40746D01*
X76321Y-41000D01*
X76646Y-41325D01*
X76676Y-41315D01*
X76676Y-41374D01*
X76714Y-41466D01*
X76784Y-41536D01*
X76875Y-41574D01*
X76974Y-41574D01*
X77624Y-41574D01*
X77716Y-41536D01*
X77786Y-41466D01*
X77824Y-41375D01*
X77824Y-47726D01*
X76575Y-47726D01*
X76575Y-41396D01*
X76250Y-41071D01*
X76179Y-41142D01*
X76179Y-41000D01*
X75854Y-40675D01*
X75758Y-40704D01*
X75682Y-40916D01*
X75694Y-41139D01*
X75758Y-41296D01*
X75854Y-41325D01*
X76179Y-41000D01*
X76179Y-41142D01*
X75925Y-41396D01*
X75954Y-41492D01*
X76166Y-41568D01*
X76389Y-41556D01*
X76546Y-41492D01*
X76575Y-41396D01*
X76575Y-47726D01*
X76100Y-47726D01*
X76100Y-43170D01*
X76100Y-42832D01*
X75971Y-42520D01*
X75732Y-42280D01*
X75420Y-42150D01*
X75082Y-42150D01*
X74770Y-42279D01*
X74530Y-42518D01*
X74400Y-42830D01*
X74400Y-43168D01*
X74529Y-43480D01*
X74768Y-43720D01*
X75080Y-43850D01*
X75418Y-43850D01*
X75730Y-43721D01*
X75970Y-43482D01*
X76100Y-43170D01*
X76100Y-47726D01*
X75562Y-47726D01*
X75443Y-47750D01*
X75343Y-47817D01*
X72540Y-50620D01*
X72540Y-50607D01*
X72540Y-50179D01*
X72458Y-49980D01*
X72306Y-49829D01*
X72108Y-49746D01*
X71893Y-49746D01*
X71694Y-49828D01*
X71543Y-49980D01*
X71500Y-50082D01*
X71458Y-49980D01*
X71306Y-49829D01*
X71108Y-49746D01*
X70893Y-49746D01*
X70694Y-49828D01*
X70543Y-49980D01*
X70500Y-50082D01*
X70458Y-49980D01*
X70306Y-49829D01*
X70108Y-49746D01*
X69893Y-49746D01*
X69694Y-49828D01*
X69543Y-49980D01*
X69500Y-50082D01*
X69458Y-49980D01*
X69306Y-49829D01*
X69108Y-49746D01*
X68893Y-49746D01*
X68694Y-49828D01*
X68543Y-49980D01*
X68500Y-50082D01*
X68458Y-49980D01*
X68306Y-49829D01*
X68108Y-49746D01*
X67893Y-49746D01*
X67694Y-49828D01*
X67543Y-49980D01*
X67500Y-50082D01*
X67458Y-49980D01*
X67306Y-49829D01*
X67108Y-49746D01*
X66893Y-49746D01*
X66694Y-49828D01*
X66543Y-49980D01*
X66500Y-50082D01*
X66458Y-49980D01*
X66306Y-49829D01*
X66108Y-49746D01*
X65893Y-49746D01*
X65694Y-49828D01*
X65543Y-49980D01*
X65500Y-50082D01*
X65458Y-49980D01*
X65306Y-49829D01*
X65108Y-49746D01*
X64893Y-49746D01*
X64694Y-49828D01*
X64543Y-49980D01*
X64460Y-50178D01*
X64460Y-50393D01*
X64460Y-50821D01*
X64473Y-50853D01*
X63527Y-50853D01*
X63540Y-50822D01*
X63540Y-50607D01*
X63540Y-50179D01*
X63458Y-49980D01*
X63306Y-49829D01*
X63108Y-49746D01*
X62893Y-49746D01*
X62694Y-49828D01*
X62543Y-49980D01*
X62500Y-50081D01*
X62489Y-50043D01*
X62353Y-49875D01*
X62163Y-49772D01*
X62135Y-49768D01*
X62050Y-49815D01*
X62050Y-50400D01*
X62050Y-50450D01*
X62050Y-50550D01*
X61950Y-50550D01*
X61950Y-50450D01*
X61950Y-49815D01*
X61865Y-49768D01*
X61837Y-49772D01*
X61647Y-49875D01*
X61511Y-50043D01*
X61500Y-50080D01*
X61489Y-50043D01*
X61353Y-49875D01*
X61163Y-49772D01*
X61135Y-49768D01*
X61050Y-49815D01*
X61050Y-50450D01*
X61450Y-50450D01*
X61550Y-50450D01*
X61950Y-50450D01*
X61950Y-50550D01*
X61900Y-50550D01*
X61550Y-50550D01*
X61450Y-50550D01*
X61100Y-50550D01*
X61050Y-50550D01*
X60950Y-50550D01*
X60950Y-50450D01*
X60950Y-50400D01*
X60950Y-49815D01*
X60865Y-49768D01*
X60837Y-49772D01*
X60647Y-49875D01*
X60511Y-50043D01*
X60499Y-50081D01*
X60458Y-49980D01*
X60306Y-49829D01*
X60108Y-49746D01*
X60100Y-49746D01*
X60100Y-39170D01*
X60100Y-38832D01*
X59971Y-38520D01*
X59732Y-38280D01*
X59420Y-38150D01*
X59082Y-38150D01*
X58770Y-38279D01*
X58530Y-38518D01*
X58400Y-38830D01*
X58400Y-39168D01*
X58529Y-39480D01*
X58768Y-39720D01*
X59080Y-39850D01*
X59418Y-39850D01*
X59730Y-39721D01*
X59970Y-39482D01*
X60100Y-39170D01*
X60100Y-49746D01*
X59893Y-49746D01*
X59694Y-49828D01*
X59543Y-49980D01*
X59500Y-50082D01*
X59458Y-49980D01*
X59306Y-49829D01*
X59108Y-49746D01*
X58893Y-49746D01*
X58694Y-49828D01*
X58543Y-49980D01*
X58500Y-50082D01*
X58458Y-49980D01*
X58306Y-49829D01*
X58108Y-49746D01*
X57893Y-49746D01*
X57824Y-49774D01*
X57824Y-41375D01*
X57824Y-41276D01*
X57824Y-40626D01*
X57786Y-40534D01*
X57716Y-40464D01*
X57625Y-40426D01*
X57526Y-40426D01*
X56876Y-40426D01*
X56784Y-40464D01*
X56714Y-40534D01*
X56676Y-40625D01*
X56676Y-40684D01*
X56646Y-40675D01*
X56575Y-40746D01*
X56575Y-40604D01*
X56546Y-40508D01*
X56334Y-40432D01*
X56111Y-40444D01*
X56100Y-40448D01*
X56100Y-39170D01*
X56100Y-38832D01*
X55971Y-38520D01*
X55732Y-38280D01*
X55420Y-38150D01*
X55082Y-38150D01*
X54770Y-38279D01*
X54530Y-38518D01*
X54400Y-38830D01*
X54400Y-39168D01*
X54529Y-39480D01*
X54768Y-39720D01*
X55080Y-39850D01*
X55418Y-39850D01*
X55730Y-39721D01*
X55970Y-39482D01*
X56100Y-39170D01*
X56100Y-40448D01*
X55954Y-40508D01*
X55925Y-40604D01*
X56250Y-40929D01*
X56575Y-40604D01*
X56575Y-40746D01*
X56321Y-41000D01*
X56646Y-41325D01*
X56676Y-41315D01*
X56676Y-41374D01*
X56714Y-41466D01*
X56784Y-41536D01*
X56875Y-41574D01*
X56974Y-41574D01*
X57624Y-41574D01*
X57716Y-41536D01*
X57786Y-41466D01*
X57824Y-41375D01*
X57824Y-49774D01*
X57694Y-49828D01*
X57543Y-49980D01*
X57500Y-50082D01*
X57458Y-49980D01*
X57306Y-49829D01*
X57108Y-49746D01*
X56893Y-49746D01*
X56694Y-49828D01*
X56575Y-49947D01*
X56575Y-41396D01*
X56250Y-41071D01*
X56179Y-41142D01*
X56179Y-41000D01*
X55854Y-40675D01*
X55758Y-40704D01*
X55682Y-40916D01*
X55694Y-41139D01*
X55758Y-41296D01*
X55854Y-41325D01*
X56179Y-41000D01*
X56179Y-41142D01*
X55925Y-41396D01*
X55954Y-41492D01*
X56166Y-41568D01*
X56389Y-41556D01*
X56546Y-41492D01*
X56575Y-41396D01*
X56575Y-49947D01*
X56543Y-49980D01*
X56500Y-50082D01*
X56458Y-49980D01*
X56306Y-49829D01*
X56108Y-49746D01*
X56100Y-49746D01*
X56100Y-43170D01*
X56100Y-42832D01*
X55971Y-42520D01*
X55732Y-42280D01*
X55420Y-42150D01*
X55082Y-42150D01*
X54770Y-42279D01*
X54530Y-42518D01*
X54400Y-42830D01*
X54400Y-43168D01*
X54529Y-43480D01*
X54768Y-43720D01*
X55080Y-43850D01*
X55418Y-43850D01*
X55730Y-43721D01*
X55970Y-43482D01*
X56100Y-43170D01*
X56100Y-49746D01*
X55893Y-49746D01*
X55694Y-49828D01*
X55543Y-49980D01*
X55460Y-50178D01*
X55460Y-50393D01*
X55460Y-50821D01*
X55542Y-51020D01*
X55694Y-51171D01*
X55775Y-51205D01*
X51244Y-51205D01*
X51368Y-51081D01*
X51525Y-50705D01*
X51525Y-50297D01*
X51369Y-49920D01*
X51081Y-49632D01*
X50705Y-49475D01*
X50297Y-49475D01*
X49920Y-49631D01*
X49795Y-49756D01*
X49795Y-30795D01*
X50256Y-30795D01*
X50132Y-30919D01*
X49975Y-31295D01*
X49975Y-31703D01*
X50131Y-32080D01*
X50419Y-32368D01*
X50795Y-32525D01*
X51203Y-32525D01*
X51580Y-32369D01*
X51868Y-32081D01*
X51917Y-31961D01*
X51942Y-32020D01*
X52094Y-32171D01*
X52292Y-32254D01*
X52507Y-32254D01*
X52706Y-32172D01*
X52857Y-32020D01*
X52899Y-31917D01*
X52942Y-32020D01*
X53094Y-32171D01*
X53292Y-32254D01*
X53507Y-32254D01*
X53706Y-32172D01*
X53857Y-32020D01*
X53899Y-31917D01*
X53942Y-32020D01*
X54094Y-32171D01*
X54292Y-32254D01*
X54507Y-32254D01*
X54706Y-32172D01*
X54857Y-32020D01*
X54899Y-31917D01*
X54942Y-32020D01*
X55094Y-32171D01*
X55292Y-32254D01*
X55507Y-32254D01*
X55706Y-32172D01*
X55857Y-32020D01*
X55899Y-31917D01*
X55942Y-32020D01*
X56094Y-32171D01*
X56292Y-32254D01*
X56507Y-32254D01*
X56706Y-32172D01*
X56857Y-32020D01*
X56899Y-31917D01*
X56942Y-32020D01*
X57094Y-32171D01*
X57292Y-32254D01*
X57507Y-32254D01*
X57706Y-32172D01*
X57857Y-32020D01*
X57899Y-31917D01*
X57942Y-32020D01*
X58094Y-32171D01*
X58292Y-32254D01*
X58507Y-32254D01*
X58706Y-32172D01*
X58857Y-32020D01*
X58899Y-31917D01*
X58942Y-32020D01*
X59094Y-32171D01*
X59292Y-32254D01*
X59507Y-32254D01*
X59706Y-32172D01*
X59857Y-32020D01*
X59899Y-31917D01*
X59942Y-32020D01*
X60094Y-32171D01*
X60292Y-32254D01*
X60507Y-32254D01*
X60706Y-32172D01*
X60857Y-32020D01*
X60899Y-31917D01*
X60942Y-32020D01*
X61094Y-32171D01*
X61292Y-32254D01*
X61507Y-32254D01*
X61706Y-32172D01*
X61857Y-32020D01*
X61940Y-31822D01*
X61940Y-31607D01*
X61940Y-31179D01*
X61858Y-30980D01*
X61706Y-30829D01*
X61624Y-30795D01*
X62774Y-30795D01*
X62694Y-30828D01*
X62543Y-30980D01*
X62460Y-31178D01*
X62460Y-31393D01*
X62460Y-31821D01*
X62542Y-32020D01*
X62694Y-32171D01*
X62892Y-32254D01*
X63107Y-32254D01*
X63306Y-32172D01*
X63457Y-32020D01*
X63499Y-31917D01*
X63542Y-32020D01*
X63694Y-32171D01*
X63892Y-32254D01*
X64107Y-32254D01*
X64306Y-32172D01*
X64457Y-32020D01*
X64499Y-31917D01*
X64542Y-32020D01*
X64694Y-32171D01*
X64892Y-32254D01*
X65107Y-32254D01*
X65306Y-32172D01*
X65457Y-32020D01*
X65499Y-31917D01*
X65542Y-32020D01*
X65694Y-32171D01*
X65892Y-32254D01*
X66107Y-32254D01*
X66306Y-32172D01*
X66457Y-32020D01*
X66499Y-31917D01*
X66542Y-32020D01*
X66694Y-32171D01*
X66892Y-32254D01*
X67107Y-32254D01*
X67306Y-32172D01*
X67457Y-32020D01*
X67499Y-31917D01*
X67542Y-32020D01*
X67694Y-32171D01*
X67892Y-32254D01*
X68107Y-32254D01*
X68306Y-32172D01*
X68457Y-32020D01*
X68499Y-31917D01*
X68542Y-32020D01*
X68694Y-32171D01*
X68892Y-32254D01*
X69107Y-32254D01*
X69306Y-32172D01*
X69457Y-32020D01*
X69499Y-31917D01*
X69542Y-32020D01*
X69694Y-32171D01*
X69892Y-32254D01*
X70107Y-32254D01*
X70306Y-32172D01*
X70457Y-32020D01*
X70540Y-31822D01*
X70540Y-31607D01*
X70540Y-31179D01*
X70458Y-30980D01*
X70306Y-30829D01*
X70224Y-30795D01*
X71774Y-30795D01*
X71694Y-30828D01*
X71543Y-30980D01*
X71460Y-31178D01*
X71460Y-31393D01*
X71460Y-31821D01*
X71542Y-32020D01*
X71694Y-32171D01*
X71892Y-32254D01*
X72107Y-32254D01*
X72306Y-32172D01*
X72457Y-32020D01*
X72499Y-31917D01*
X72542Y-32020D01*
X72694Y-32171D01*
X72892Y-32254D01*
X73107Y-32254D01*
X73306Y-32172D01*
X73457Y-32020D01*
X73499Y-31917D01*
X73542Y-32020D01*
X73694Y-32171D01*
X73892Y-32254D01*
X74107Y-32254D01*
X74306Y-32172D01*
X74457Y-32020D01*
X74499Y-31917D01*
X74542Y-32020D01*
X74694Y-32171D01*
X74892Y-32254D01*
X75107Y-32254D01*
X75306Y-32172D01*
X75457Y-32020D01*
X75499Y-31917D01*
X75542Y-32020D01*
X75694Y-32171D01*
X75892Y-32254D01*
X76107Y-32254D01*
X76306Y-32172D01*
X76457Y-32020D01*
X76499Y-31917D01*
X76542Y-32020D01*
X76694Y-32171D01*
X76892Y-32254D01*
X77107Y-32254D01*
X77306Y-32172D01*
X77457Y-32020D01*
X77499Y-31917D01*
X77542Y-32020D01*
X77694Y-32171D01*
X77892Y-32254D01*
X78107Y-32254D01*
X78306Y-32172D01*
X78457Y-32020D01*
X78499Y-31917D01*
X78542Y-32020D01*
X78694Y-32171D01*
X78892Y-32254D01*
X79107Y-32254D01*
X79306Y-32172D01*
X79457Y-32020D01*
X79532Y-31840D01*
X79631Y-32080D01*
X79919Y-32368D01*
X80295Y-32525D01*
X80703Y-32525D01*
X81080Y-32369D01*
X81368Y-32081D01*
X81507Y-31745D01*
X81535Y-31811D01*
X81689Y-31965D01*
X81773Y-32000D01*
X81689Y-32035D01*
X81535Y-32189D01*
X81451Y-32391D01*
X81451Y-32609D01*
X81535Y-32811D01*
X81689Y-32965D01*
X81773Y-33000D01*
X81689Y-33035D01*
X81535Y-33189D01*
X81451Y-33391D01*
X81451Y-33609D01*
X81535Y-33811D01*
X81689Y-33965D01*
X81773Y-34000D01*
X81689Y-34035D01*
X81535Y-34189D01*
X81451Y-34391D01*
X81451Y-34609D01*
X81535Y-34811D01*
X81689Y-34965D01*
X81773Y-35000D01*
X81689Y-35035D01*
X81535Y-35189D01*
X81451Y-35391D01*
X81451Y-35609D01*
X81535Y-35811D01*
X81689Y-35965D01*
X81773Y-36000D01*
X81689Y-36035D01*
X81535Y-36189D01*
X81451Y-36391D01*
X81451Y-36609D01*
X81535Y-36811D01*
X81689Y-36965D01*
X81773Y-37000D01*
X81689Y-37035D01*
X81535Y-37189D01*
X81451Y-37391D01*
X81451Y-37609D01*
X81535Y-37811D01*
X81689Y-37965D01*
X81773Y-38000D01*
X81689Y-38035D01*
X81535Y-38189D01*
X81451Y-38391D01*
X81451Y-38609D01*
X81535Y-38811D01*
X81689Y-38965D01*
X81773Y-39000D01*
X81689Y-39035D01*
X81535Y-39189D01*
X81451Y-39391D01*
X81451Y-39609D01*
X81535Y-39811D01*
X81689Y-39965D01*
X81773Y-40000D01*
X81689Y-40035D01*
X81535Y-40189D01*
X81451Y-40391D01*
X81451Y-40609D01*
X81535Y-40811D01*
X81689Y-40965D01*
X81773Y-41000D01*
X81689Y-41035D01*
X81535Y-41189D01*
X81451Y-41391D01*
X81451Y-41609D01*
X81535Y-41811D01*
X81689Y-41965D01*
X81773Y-42000D01*
X81689Y-42035D01*
X81535Y-42189D01*
X81451Y-42391D01*
X81451Y-42609D01*
X81535Y-42811D01*
X81689Y-42965D01*
X81773Y-43000D01*
X81689Y-43035D01*
X81535Y-43189D01*
X81451Y-43391D01*
X81451Y-43609D01*
X81535Y-43811D01*
X81689Y-43965D01*
X81773Y-44000D01*
X81689Y-44035D01*
X81535Y-44189D01*
X81451Y-44391D01*
X81451Y-44609D01*
X81535Y-44811D01*
X81689Y-44965D01*
X81773Y-45000D01*
X81689Y-45035D01*
X81535Y-45189D01*
X81451Y-45391D01*
X81451Y-45609D01*
X81535Y-45811D01*
X81689Y-45965D01*
X81773Y-46000D01*
X81689Y-46035D01*
X81535Y-46189D01*
X81451Y-46391D01*
X81451Y-46609D01*
X81535Y-46811D01*
X81689Y-46965D01*
X81773Y-47000D01*
G54D10*
G36*
X89205Y-51205D02*
X89000Y-51205D01*
X89000Y-49462D01*
X89000Y-49238D01*
X88999Y-49051D01*
X88999Y-48450D01*
X88999Y-48351D01*
X88999Y-47851D01*
X88961Y-47759D01*
X88950Y-47748D01*
X88950Y-41126D01*
X88950Y-40875D01*
X88854Y-40643D01*
X88677Y-40466D01*
X88480Y-40384D01*
X88480Y-39420D01*
X88480Y-39042D01*
X88336Y-38693D01*
X88069Y-38425D01*
X87720Y-38280D01*
X87500Y-38280D01*
X87500Y-34762D01*
X87500Y-34538D01*
X87499Y-34351D01*
X87461Y-34259D01*
X87391Y-34189D01*
X87300Y-34151D01*
X87201Y-34151D01*
X86862Y-34150D01*
X86800Y-34212D01*
X86800Y-34600D01*
X87438Y-34600D01*
X87500Y-34538D01*
X87500Y-34762D01*
X87438Y-34700D01*
X86800Y-34700D01*
X86800Y-35088D01*
X86862Y-35150D01*
X87201Y-35149D01*
X87300Y-35149D01*
X87391Y-35111D01*
X87461Y-35041D01*
X87499Y-34949D01*
X87500Y-34762D01*
X87500Y-38280D01*
X87499Y-38280D01*
X87499Y-36150D01*
X87499Y-36051D01*
X87499Y-35551D01*
X87461Y-35459D01*
X87391Y-35389D01*
X87300Y-35351D01*
X87201Y-35351D01*
X86700Y-35351D01*
X86700Y-35088D01*
X86700Y-34700D01*
X86700Y-34600D01*
X86700Y-34212D01*
X86638Y-34150D01*
X86299Y-34151D01*
X86200Y-34151D01*
X86109Y-34189D01*
X86039Y-34259D01*
X86001Y-34351D01*
X86000Y-34538D01*
X86062Y-34600D01*
X86700Y-34600D01*
X86700Y-34700D01*
X86062Y-34700D01*
X86000Y-34762D01*
X86001Y-34949D01*
X86039Y-35041D01*
X86109Y-35111D01*
X86200Y-35149D01*
X86299Y-35149D01*
X86638Y-35150D01*
X86700Y-35088D01*
X86700Y-35351D01*
X86201Y-35351D01*
X86109Y-35389D01*
X86039Y-35459D01*
X86001Y-35550D01*
X86001Y-35649D01*
X86001Y-36149D01*
X86039Y-36241D01*
X86109Y-36311D01*
X86200Y-36349D01*
X86226Y-36349D01*
X84561Y-38014D01*
X84494Y-38114D01*
X84470Y-38233D01*
X84470Y-39992D01*
X84186Y-40110D01*
X83890Y-40405D01*
X83730Y-40790D01*
X83730Y-41208D01*
X83890Y-41594D01*
X84185Y-41890D01*
X84570Y-42050D01*
X84988Y-42050D01*
X85374Y-41890D01*
X85670Y-41595D01*
X85830Y-41210D01*
X85830Y-40792D01*
X85670Y-40406D01*
X85375Y-40110D01*
X85090Y-39991D01*
X85090Y-38361D01*
X86969Y-36482D01*
X87036Y-36382D01*
X87036Y-36381D01*
X87042Y-36349D01*
X87299Y-36349D01*
X87391Y-36311D01*
X87461Y-36241D01*
X87499Y-36150D01*
X87499Y-38280D01*
X87342Y-38280D01*
X86993Y-38424D01*
X86725Y-38691D01*
X86580Y-39040D01*
X86580Y-39418D01*
X86724Y-39767D01*
X86991Y-40035D01*
X87071Y-40068D01*
X86943Y-40070D01*
X86623Y-40203D01*
X86549Y-40338D01*
X87140Y-40929D01*
X87731Y-40338D01*
X87657Y-40203D01*
X87599Y-40180D01*
X87718Y-40180D01*
X88067Y-40036D01*
X88335Y-39769D01*
X88480Y-39420D01*
X88480Y-40384D01*
X88446Y-40370D01*
X88195Y-40370D01*
X87963Y-40466D01*
X87939Y-40489D01*
X87937Y-40483D01*
X87802Y-40409D01*
X87211Y-41000D01*
X87802Y-41591D01*
X87937Y-41517D01*
X87939Y-41510D01*
X87963Y-41534D01*
X88194Y-41630D01*
X88445Y-41630D01*
X88677Y-41534D01*
X88854Y-41357D01*
X88950Y-41126D01*
X88950Y-47748D01*
X88918Y-47716D01*
X88932Y-47684D01*
X88932Y-47515D01*
X88868Y-47359D01*
X88748Y-47239D01*
X88592Y-47174D01*
X88480Y-47174D01*
X88480Y-42960D01*
X88480Y-42582D01*
X88336Y-42233D01*
X88069Y-41965D01*
X87720Y-41820D01*
X87601Y-41820D01*
X87657Y-41797D01*
X87731Y-41662D01*
X87140Y-41071D01*
X87069Y-41142D01*
X87069Y-41000D01*
X86478Y-40409D01*
X86343Y-40483D01*
X86206Y-40827D01*
X86210Y-41197D01*
X86343Y-41517D01*
X86478Y-41591D01*
X87069Y-41000D01*
X87069Y-41142D01*
X86549Y-41662D01*
X86623Y-41797D01*
X86967Y-41934D01*
X87068Y-41932D01*
X86993Y-41964D01*
X86725Y-42231D01*
X86580Y-42580D01*
X86580Y-42958D01*
X86724Y-43307D01*
X86991Y-43575D01*
X87340Y-43720D01*
X87718Y-43720D01*
X88067Y-43576D01*
X88335Y-43309D01*
X88480Y-42960D01*
X88480Y-47174D01*
X88423Y-47174D01*
X88267Y-47238D01*
X88147Y-47358D01*
X88082Y-47514D01*
X88082Y-47527D01*
X88045Y-47552D01*
X87982Y-47646D01*
X87981Y-47651D01*
X87701Y-47651D01*
X87609Y-47689D01*
X87539Y-47759D01*
X87501Y-47850D01*
X87501Y-47949D01*
X87501Y-48449D01*
X87539Y-48541D01*
X87609Y-48611D01*
X87700Y-48649D01*
X87799Y-48649D01*
X88799Y-48649D01*
X88891Y-48611D01*
X88961Y-48541D01*
X88999Y-48450D01*
X88999Y-49051D01*
X88961Y-48959D01*
X88891Y-48889D01*
X88800Y-48851D01*
X88701Y-48851D01*
X88362Y-48850D01*
X88300Y-48912D01*
X88300Y-49300D01*
X88938Y-49300D01*
X89000Y-49238D01*
X89000Y-49462D01*
X88938Y-49400D01*
X88300Y-49400D01*
X88300Y-49788D01*
X88362Y-49850D01*
X88701Y-49849D01*
X88800Y-49849D01*
X88891Y-49811D01*
X88961Y-49741D01*
X88999Y-49649D01*
X89000Y-49462D01*
X89000Y-51205D01*
X88200Y-51205D01*
X88200Y-49788D01*
X88200Y-49400D01*
X87562Y-49400D01*
X87500Y-49462D01*
X87438Y-49400D01*
X86800Y-49400D01*
X86800Y-49788D01*
X86862Y-49850D01*
X87201Y-49849D01*
X87300Y-49849D01*
X87391Y-49811D01*
X87461Y-49741D01*
X87499Y-49649D01*
X87500Y-49462D01*
X87501Y-49649D01*
X87539Y-49741D01*
X87609Y-49811D01*
X87700Y-49849D01*
X87799Y-49849D01*
X88138Y-49850D01*
X88200Y-49788D01*
X88200Y-51205D01*
X86700Y-51205D01*
X86700Y-49788D01*
X86700Y-49400D01*
X86062Y-49400D01*
X86000Y-49462D01*
X85938Y-49400D01*
X85300Y-49400D01*
X85300Y-49788D01*
X85362Y-49850D01*
X85701Y-49849D01*
X85800Y-49849D01*
X85891Y-49811D01*
X85961Y-49741D01*
X85999Y-49649D01*
X86000Y-49462D01*
X86001Y-49649D01*
X86039Y-49741D01*
X86109Y-49811D01*
X86200Y-49849D01*
X86299Y-49849D01*
X86638Y-49850D01*
X86700Y-49788D01*
X86700Y-51205D01*
X85200Y-51205D01*
X85200Y-49788D01*
X85200Y-49400D01*
X85200Y-49300D01*
X85200Y-48912D01*
X85138Y-48850D01*
X84799Y-48851D01*
X84700Y-48851D01*
X84609Y-48889D01*
X84539Y-48959D01*
X84501Y-49051D01*
X84500Y-49238D01*
X84562Y-49300D01*
X85200Y-49300D01*
X85200Y-49400D01*
X84562Y-49400D01*
X84500Y-49462D01*
X84501Y-49649D01*
X84539Y-49741D01*
X84609Y-49811D01*
X84700Y-49849D01*
X84799Y-49849D01*
X85138Y-49850D01*
X85200Y-49788D01*
X85200Y-51205D01*
X83744Y-51205D01*
X83868Y-51081D01*
X84025Y-50705D01*
X84025Y-50297D01*
X83869Y-49920D01*
X83581Y-49632D01*
X83205Y-49475D01*
X82797Y-49475D01*
X82420Y-49631D01*
X82132Y-49919D01*
X81975Y-50295D01*
X81975Y-50703D01*
X82131Y-51080D01*
X82256Y-51205D01*
X81225Y-51205D01*
X81306Y-51172D01*
X81457Y-51020D01*
X81540Y-50822D01*
X81540Y-50607D01*
X81540Y-50179D01*
X81458Y-49980D01*
X81306Y-49829D01*
X81108Y-49746D01*
X80893Y-49746D01*
X80694Y-49828D01*
X80543Y-49980D01*
X80500Y-50082D01*
X80458Y-49980D01*
X80306Y-49829D01*
X80108Y-49746D01*
X79893Y-49746D01*
X79694Y-49828D01*
X79543Y-49980D01*
X79500Y-50082D01*
X79458Y-49980D01*
X79306Y-49829D01*
X79108Y-49746D01*
X78893Y-49746D01*
X78694Y-49828D01*
X78543Y-49980D01*
X78500Y-50082D01*
X78458Y-49980D01*
X78306Y-49829D01*
X78108Y-49746D01*
X77893Y-49746D01*
X77694Y-49828D01*
X77543Y-49980D01*
X77500Y-50082D01*
X77458Y-49980D01*
X77306Y-49829D01*
X77108Y-49746D01*
X76893Y-49746D01*
X76694Y-49828D01*
X76543Y-49980D01*
X76500Y-50082D01*
X76458Y-49980D01*
X76306Y-49829D01*
X76108Y-49746D01*
X75893Y-49746D01*
X75694Y-49828D01*
X75543Y-49980D01*
X75500Y-50082D01*
X75458Y-49980D01*
X75306Y-49829D01*
X75108Y-49746D01*
X74893Y-49746D01*
X74694Y-49828D01*
X74543Y-49980D01*
X74500Y-50082D01*
X74458Y-49980D01*
X74306Y-49829D01*
X74236Y-49799D01*
X75690Y-48346D01*
X81469Y-48346D01*
X81451Y-48391D01*
X81451Y-48609D01*
X81535Y-48811D01*
X81689Y-48965D01*
X81891Y-49049D01*
X82109Y-49049D01*
X82311Y-48965D01*
X82465Y-48811D01*
X82500Y-48726D01*
X82535Y-48811D01*
X82689Y-48965D01*
X82891Y-49049D01*
X83109Y-49049D01*
X83311Y-48965D01*
X83465Y-48811D01*
X83549Y-48609D01*
X83549Y-48391D01*
X83530Y-48346D01*
X84345Y-48346D01*
X84368Y-48369D01*
X84468Y-48436D01*
X84469Y-48436D01*
X84501Y-48442D01*
X84501Y-48449D01*
X84539Y-48541D01*
X84609Y-48611D01*
X84700Y-48649D01*
X84799Y-48649D01*
X85799Y-48649D01*
X85891Y-48611D01*
X85903Y-48599D01*
X86000Y-48696D01*
X86000Y-48767D01*
X86064Y-48923D01*
X86069Y-48928D01*
X86039Y-48959D01*
X86001Y-49051D01*
X86000Y-49238D01*
X85999Y-49051D01*
X85961Y-48959D01*
X85891Y-48889D01*
X85800Y-48851D01*
X85701Y-48851D01*
X85362Y-48850D01*
X85300Y-48912D01*
X85300Y-49300D01*
X85938Y-49300D01*
X86000Y-49238D01*
X86062Y-49300D01*
X86650Y-49300D01*
X86700Y-49300D01*
X86800Y-49300D01*
X86850Y-49300D01*
X87438Y-49300D01*
X87500Y-49238D01*
X87562Y-49300D01*
X88200Y-49300D01*
X88200Y-48912D01*
X88138Y-48850D01*
X87799Y-48851D01*
X87700Y-48851D01*
X87609Y-48889D01*
X87539Y-48959D01*
X87501Y-49051D01*
X87500Y-49238D01*
X87500Y-45262D01*
X87500Y-45038D01*
X87499Y-44851D01*
X87461Y-44759D01*
X87391Y-44689D01*
X87300Y-44651D01*
X87201Y-44651D01*
X86862Y-44650D01*
X86800Y-44712D01*
X86800Y-45100D01*
X87438Y-45100D01*
X87500Y-45038D01*
X87500Y-45262D01*
X87438Y-45200D01*
X86850Y-45200D01*
X86800Y-45200D01*
X86700Y-45200D01*
X86700Y-45100D01*
X86700Y-44712D01*
X86638Y-44650D01*
X86299Y-44651D01*
X86200Y-44651D01*
X86109Y-44689D01*
X86039Y-44759D01*
X86001Y-44851D01*
X86000Y-45038D01*
X85999Y-44851D01*
X85961Y-44759D01*
X85891Y-44689D01*
X85800Y-44651D01*
X85701Y-44651D01*
X85362Y-44650D01*
X85300Y-44712D01*
X85300Y-45100D01*
X85938Y-45100D01*
X86000Y-45038D01*
X86062Y-45100D01*
X86700Y-45100D01*
X86700Y-45200D01*
X86650Y-45200D01*
X86062Y-45200D01*
X86000Y-45262D01*
X85938Y-45200D01*
X85300Y-45200D01*
X85300Y-45588D01*
X85362Y-45650D01*
X85701Y-45649D01*
X85800Y-45649D01*
X85891Y-45611D01*
X85961Y-45541D01*
X85999Y-45449D01*
X86000Y-45262D01*
X86001Y-45449D01*
X86039Y-45541D01*
X86109Y-45611D01*
X86200Y-45649D01*
X86299Y-45649D01*
X86596Y-45649D01*
X86562Y-45732D01*
X86562Y-45740D01*
X86545Y-45752D01*
X86482Y-45846D01*
X86481Y-45851D01*
X86201Y-45851D01*
X86109Y-45889D01*
X86039Y-45959D01*
X86001Y-46050D01*
X86001Y-46060D01*
X85999Y-46060D01*
X85999Y-46051D01*
X85961Y-45959D01*
X85891Y-45889D01*
X85800Y-45851D01*
X85701Y-45851D01*
X85200Y-45851D01*
X85200Y-45588D01*
X85200Y-45200D01*
X85200Y-45100D01*
X85200Y-44712D01*
X85138Y-44650D01*
X84799Y-44651D01*
X84700Y-44651D01*
X84609Y-44689D01*
X84539Y-44759D01*
X84501Y-44851D01*
X84500Y-45038D01*
X84562Y-45100D01*
X85200Y-45100D01*
X85200Y-45200D01*
X84562Y-45200D01*
X84500Y-45262D01*
X84501Y-45449D01*
X84539Y-45541D01*
X84609Y-45611D01*
X84700Y-45649D01*
X84799Y-45649D01*
X85138Y-45650D01*
X85200Y-45588D01*
X85200Y-45851D01*
X84701Y-45851D01*
X84609Y-45889D01*
X84539Y-45959D01*
X84501Y-46050D01*
X84501Y-46149D01*
X84501Y-46649D01*
X84539Y-46741D01*
X84609Y-46811D01*
X84700Y-46849D01*
X84799Y-46849D01*
X85799Y-46849D01*
X85891Y-46811D01*
X85961Y-46741D01*
X85999Y-46650D01*
X85999Y-46640D01*
X86001Y-46640D01*
X86001Y-46649D01*
X86039Y-46741D01*
X86109Y-46811D01*
X86200Y-46849D01*
X86299Y-46849D01*
X87299Y-46849D01*
X87391Y-46811D01*
X87461Y-46741D01*
X87499Y-46650D01*
X87499Y-46551D01*
X87499Y-46051D01*
X87461Y-45959D01*
X87409Y-45907D01*
X87412Y-45902D01*
X87412Y-45733D01*
X87366Y-45621D01*
X87391Y-45611D01*
X87461Y-45541D01*
X87499Y-45449D01*
X87500Y-45262D01*
X87500Y-49238D01*
X87499Y-49051D01*
X87461Y-48959D01*
X87391Y-48889D01*
X87300Y-48851D01*
X87201Y-48851D01*
X86864Y-48850D01*
X86869Y-48849D01*
X86969Y-48782D01*
X87036Y-48682D01*
X87042Y-48649D01*
X87299Y-48649D01*
X87391Y-48611D01*
X87461Y-48541D01*
X87499Y-48450D01*
X87499Y-48351D01*
X87499Y-47851D01*
X87461Y-47759D01*
X87391Y-47689D01*
X87300Y-47651D01*
X87201Y-47651D01*
X86201Y-47651D01*
X86109Y-47689D01*
X86039Y-47759D01*
X86001Y-47850D01*
X86001Y-47857D01*
X85999Y-47857D01*
X85999Y-47851D01*
X85961Y-47759D01*
X85891Y-47689D01*
X85800Y-47651D01*
X85701Y-47651D01*
X84701Y-47651D01*
X84609Y-47689D01*
X84555Y-47742D01*
X84473Y-47726D01*
X83500Y-47726D01*
X83549Y-47609D01*
X83549Y-47391D01*
X83465Y-47189D01*
X83311Y-47035D01*
X83226Y-47000D01*
X83311Y-46965D01*
X83465Y-46811D01*
X83549Y-46609D01*
X83549Y-46391D01*
X83465Y-46189D01*
X83311Y-46035D01*
X83226Y-46000D01*
X83311Y-45965D01*
X83465Y-45811D01*
X83549Y-45609D01*
X83549Y-45391D01*
X83465Y-45189D01*
X83311Y-45035D01*
X83226Y-45000D01*
X83311Y-44965D01*
X83465Y-44811D01*
X83549Y-44609D01*
X83549Y-44391D01*
X83465Y-44189D01*
X83311Y-44035D01*
X83226Y-44000D01*
X83311Y-43965D01*
X83465Y-43811D01*
X83549Y-43609D01*
X83549Y-43391D01*
X83465Y-43189D01*
X83311Y-43035D01*
X83226Y-43000D01*
X83311Y-42965D01*
X83465Y-42811D01*
X83549Y-42609D01*
X83549Y-42391D01*
X83465Y-42189D01*
X83311Y-42035D01*
X83226Y-42000D01*
X83311Y-41965D01*
X83465Y-41811D01*
X83549Y-41609D01*
X83549Y-41391D01*
X83465Y-41189D01*
X83311Y-41035D01*
X83226Y-41000D01*
X83311Y-40965D01*
X83465Y-40811D01*
X83549Y-40609D01*
X83549Y-40391D01*
X83465Y-40189D01*
X83311Y-40035D01*
X83226Y-40000D01*
X83311Y-39965D01*
X83465Y-39811D01*
X83549Y-39609D01*
X83549Y-39391D01*
X83465Y-39189D01*
X83311Y-39035D01*
X83226Y-39000D01*
X83311Y-38965D01*
X83465Y-38811D01*
X83549Y-38609D01*
X83549Y-38391D01*
X83465Y-38189D01*
X83311Y-38035D01*
X83226Y-38000D01*
X83311Y-37965D01*
X83465Y-37811D01*
X83549Y-37609D01*
X83549Y-37391D01*
X83465Y-37189D01*
X83311Y-37035D01*
X83226Y-37000D01*
X83311Y-36965D01*
X83465Y-36811D01*
X83549Y-36609D01*
X83549Y-36391D01*
X83465Y-36189D01*
X83311Y-36035D01*
X83226Y-36000D01*
X83311Y-35965D01*
X83465Y-35811D01*
X83549Y-35609D01*
X83549Y-35391D01*
X83465Y-35189D01*
X83311Y-35035D01*
X83226Y-35000D01*
X83311Y-34965D01*
X83465Y-34811D01*
X83549Y-34609D01*
X83549Y-34391D01*
X83465Y-34189D01*
X83311Y-34035D01*
X83226Y-34000D01*
X83311Y-33965D01*
X83465Y-33811D01*
X83549Y-33609D01*
X83549Y-33391D01*
X83465Y-33189D01*
X83311Y-33035D01*
X83226Y-33000D01*
X83311Y-32965D01*
X83465Y-32811D01*
X83549Y-32609D01*
X83549Y-32391D01*
X83465Y-32189D01*
X83311Y-32035D01*
X83226Y-32000D01*
X83311Y-31965D01*
X83465Y-31811D01*
X83549Y-31609D01*
X83549Y-31391D01*
X83465Y-31189D01*
X83311Y-31035D01*
X83109Y-30951D01*
X82891Y-30951D01*
X82689Y-31035D01*
X82535Y-31189D01*
X82500Y-31273D01*
X82465Y-31189D01*
X82311Y-31035D01*
X82109Y-30951D01*
X81891Y-30951D01*
X81689Y-31035D01*
X81535Y-31189D01*
X81507Y-31254D01*
X81369Y-30920D01*
X81244Y-30795D01*
X89205Y-30795D01*
X89205Y-51205D01*
X89205Y-51205D01*
G37*
G54D25*
X89205Y-51205D02*
X89000Y-51205D01*
X89000Y-49462D01*
X89000Y-49238D01*
X88999Y-49051D01*
X88999Y-48450D01*
X88999Y-48351D01*
X88999Y-47851D01*
X88961Y-47759D01*
X88950Y-47748D01*
X88950Y-41126D01*
X88950Y-40875D01*
X88854Y-40643D01*
X88677Y-40466D01*
X88480Y-40384D01*
X88480Y-39420D01*
X88480Y-39042D01*
X88336Y-38693D01*
X88069Y-38425D01*
X87720Y-38280D01*
X87500Y-38280D01*
X87500Y-34762D01*
X87500Y-34538D01*
X87499Y-34351D01*
X87461Y-34259D01*
X87391Y-34189D01*
X87300Y-34151D01*
X87201Y-34151D01*
X86862Y-34150D01*
X86800Y-34212D01*
X86800Y-34600D01*
X87438Y-34600D01*
X87500Y-34538D01*
X87500Y-34762D01*
X87438Y-34700D01*
X86800Y-34700D01*
X86800Y-35088D01*
X86862Y-35150D01*
X87201Y-35149D01*
X87300Y-35149D01*
X87391Y-35111D01*
X87461Y-35041D01*
X87499Y-34949D01*
X87500Y-34762D01*
X87500Y-38280D01*
X87499Y-38280D01*
X87499Y-36150D01*
X87499Y-36051D01*
X87499Y-35551D01*
X87461Y-35459D01*
X87391Y-35389D01*
X87300Y-35351D01*
X87201Y-35351D01*
X86700Y-35351D01*
X86700Y-35088D01*
X86700Y-34700D01*
X86700Y-34600D01*
X86700Y-34212D01*
X86638Y-34150D01*
X86299Y-34151D01*
X86200Y-34151D01*
X86109Y-34189D01*
X86039Y-34259D01*
X86001Y-34351D01*
X86000Y-34538D01*
X86062Y-34600D01*
X86700Y-34600D01*
X86700Y-34700D01*
X86062Y-34700D01*
X86000Y-34762D01*
X86001Y-34949D01*
X86039Y-35041D01*
X86109Y-35111D01*
X86200Y-35149D01*
X86299Y-35149D01*
X86638Y-35150D01*
X86700Y-35088D01*
X86700Y-35351D01*
X86201Y-35351D01*
X86109Y-35389D01*
X86039Y-35459D01*
X86001Y-35550D01*
X86001Y-35649D01*
X86001Y-36149D01*
X86039Y-36241D01*
X86109Y-36311D01*
X86200Y-36349D01*
X86226Y-36349D01*
X84561Y-38014D01*
X84494Y-38114D01*
X84470Y-38233D01*
X84470Y-39992D01*
X84186Y-40110D01*
X83890Y-40405D01*
X83730Y-40790D01*
X83730Y-41208D01*
X83890Y-41594D01*
X84185Y-41890D01*
X84570Y-42050D01*
X84988Y-42050D01*
X85374Y-41890D01*
X85670Y-41595D01*
X85830Y-41210D01*
X85830Y-40792D01*
X85670Y-40406D01*
X85375Y-40110D01*
X85090Y-39991D01*
X85090Y-38361D01*
X86969Y-36482D01*
X87036Y-36382D01*
X87036Y-36381D01*
X87042Y-36349D01*
X87299Y-36349D01*
X87391Y-36311D01*
X87461Y-36241D01*
X87499Y-36150D01*
X87499Y-38280D01*
X87342Y-38280D01*
X86993Y-38424D01*
X86725Y-38691D01*
X86580Y-39040D01*
X86580Y-39418D01*
X86724Y-39767D01*
X86991Y-40035D01*
X87071Y-40068D01*
X86943Y-40070D01*
X86623Y-40203D01*
X86549Y-40338D01*
X87140Y-40929D01*
X87731Y-40338D01*
X87657Y-40203D01*
X87599Y-40180D01*
X87718Y-40180D01*
X88067Y-40036D01*
X88335Y-39769D01*
X88480Y-39420D01*
X88480Y-40384D01*
X88446Y-40370D01*
X88195Y-40370D01*
X87963Y-40466D01*
X87939Y-40489D01*
X87937Y-40483D01*
X87802Y-40409D01*
X87211Y-41000D01*
X87802Y-41591D01*
X87937Y-41517D01*
X87939Y-41510D01*
X87963Y-41534D01*
X88194Y-41630D01*
X88445Y-41630D01*
X88677Y-41534D01*
X88854Y-41357D01*
X88950Y-41126D01*
X88950Y-47748D01*
X88918Y-47716D01*
X88932Y-47684D01*
X88932Y-47515D01*
X88868Y-47359D01*
X88748Y-47239D01*
X88592Y-47174D01*
X88480Y-47174D01*
X88480Y-42960D01*
X88480Y-42582D01*
X88336Y-42233D01*
X88069Y-41965D01*
X87720Y-41820D01*
X87601Y-41820D01*
X87657Y-41797D01*
X87731Y-41662D01*
X87140Y-41071D01*
X87069Y-41142D01*
X87069Y-41000D01*
X86478Y-40409D01*
X86343Y-40483D01*
X86206Y-40827D01*
X86210Y-41197D01*
X86343Y-41517D01*
X86478Y-41591D01*
X87069Y-41000D01*
X87069Y-41142D01*
X86549Y-41662D01*
X86623Y-41797D01*
X86967Y-41934D01*
X87068Y-41932D01*
X86993Y-41964D01*
X86725Y-42231D01*
X86580Y-42580D01*
X86580Y-42958D01*
X86724Y-43307D01*
X86991Y-43575D01*
X87340Y-43720D01*
X87718Y-43720D01*
X88067Y-43576D01*
X88335Y-43309D01*
X88480Y-42960D01*
X88480Y-47174D01*
X88423Y-47174D01*
X88267Y-47238D01*
X88147Y-47358D01*
X88082Y-47514D01*
X88082Y-47527D01*
X88045Y-47552D01*
X87982Y-47646D01*
X87981Y-47651D01*
X87701Y-47651D01*
X87609Y-47689D01*
X87539Y-47759D01*
X87501Y-47850D01*
X87501Y-47949D01*
X87501Y-48449D01*
X87539Y-48541D01*
X87609Y-48611D01*
X87700Y-48649D01*
X87799Y-48649D01*
X88799Y-48649D01*
X88891Y-48611D01*
X88961Y-48541D01*
X88999Y-48450D01*
X88999Y-49051D01*
X88961Y-48959D01*
X88891Y-48889D01*
X88800Y-48851D01*
X88701Y-48851D01*
X88362Y-48850D01*
X88300Y-48912D01*
X88300Y-49300D01*
X88938Y-49300D01*
X89000Y-49238D01*
X89000Y-49462D01*
X88938Y-49400D01*
X88300Y-49400D01*
X88300Y-49788D01*
X88362Y-49850D01*
X88701Y-49849D01*
X88800Y-49849D01*
X88891Y-49811D01*
X88961Y-49741D01*
X88999Y-49649D01*
X89000Y-49462D01*
X89000Y-51205D01*
X88200Y-51205D01*
X88200Y-49788D01*
X88200Y-49400D01*
X87562Y-49400D01*
X87500Y-49462D01*
X87438Y-49400D01*
X86800Y-49400D01*
X86800Y-49788D01*
X86862Y-49850D01*
X87201Y-49849D01*
X87300Y-49849D01*
X87391Y-49811D01*
X87461Y-49741D01*
X87499Y-49649D01*
X87500Y-49462D01*
X87501Y-49649D01*
X87539Y-49741D01*
X87609Y-49811D01*
X87700Y-49849D01*
X87799Y-49849D01*
X88138Y-49850D01*
X88200Y-49788D01*
X88200Y-51205D01*
X86700Y-51205D01*
X86700Y-49788D01*
X86700Y-49400D01*
X86062Y-49400D01*
X86000Y-49462D01*
X85938Y-49400D01*
X85300Y-49400D01*
X85300Y-49788D01*
X85362Y-49850D01*
X85701Y-49849D01*
X85800Y-49849D01*
X85891Y-49811D01*
X85961Y-49741D01*
X85999Y-49649D01*
X86000Y-49462D01*
X86001Y-49649D01*
X86039Y-49741D01*
X86109Y-49811D01*
X86200Y-49849D01*
X86299Y-49849D01*
X86638Y-49850D01*
X86700Y-49788D01*
X86700Y-51205D01*
X85200Y-51205D01*
X85200Y-49788D01*
X85200Y-49400D01*
X85200Y-49300D01*
X85200Y-48912D01*
X85138Y-48850D01*
X84799Y-48851D01*
X84700Y-48851D01*
X84609Y-48889D01*
X84539Y-48959D01*
X84501Y-49051D01*
X84500Y-49238D01*
X84562Y-49300D01*
X85200Y-49300D01*
X85200Y-49400D01*
X84562Y-49400D01*
X84500Y-49462D01*
X84501Y-49649D01*
X84539Y-49741D01*
X84609Y-49811D01*
X84700Y-49849D01*
X84799Y-49849D01*
X85138Y-49850D01*
X85200Y-49788D01*
X85200Y-51205D01*
X83744Y-51205D01*
X83868Y-51081D01*
X84025Y-50705D01*
X84025Y-50297D01*
X83869Y-49920D01*
X83581Y-49632D01*
X83205Y-49475D01*
X82797Y-49475D01*
X82420Y-49631D01*
X82132Y-49919D01*
X81975Y-50295D01*
X81975Y-50703D01*
X82131Y-51080D01*
X82256Y-51205D01*
X81225Y-51205D01*
X81306Y-51172D01*
X81457Y-51020D01*
X81540Y-50822D01*
X81540Y-50607D01*
X81540Y-50179D01*
X81458Y-49980D01*
X81306Y-49829D01*
X81108Y-49746D01*
X80893Y-49746D01*
X80694Y-49828D01*
X80543Y-49980D01*
X80500Y-50082D01*
X80458Y-49980D01*
X80306Y-49829D01*
X80108Y-49746D01*
X79893Y-49746D01*
X79694Y-49828D01*
X79543Y-49980D01*
X79500Y-50082D01*
X79458Y-49980D01*
X79306Y-49829D01*
X79108Y-49746D01*
X78893Y-49746D01*
X78694Y-49828D01*
X78543Y-49980D01*
X78500Y-50082D01*
X78458Y-49980D01*
X78306Y-49829D01*
X78108Y-49746D01*
X77893Y-49746D01*
X77694Y-49828D01*
X77543Y-49980D01*
X77500Y-50082D01*
X77458Y-49980D01*
X77306Y-49829D01*
X77108Y-49746D01*
X76893Y-49746D01*
X76694Y-49828D01*
X76543Y-49980D01*
X76500Y-50082D01*
X76458Y-49980D01*
X76306Y-49829D01*
X76108Y-49746D01*
X75893Y-49746D01*
X75694Y-49828D01*
X75543Y-49980D01*
X75500Y-50082D01*
X75458Y-49980D01*
X75306Y-49829D01*
X75108Y-49746D01*
X74893Y-49746D01*
X74694Y-49828D01*
X74543Y-49980D01*
X74500Y-50082D01*
X74458Y-49980D01*
X74306Y-49829D01*
X74236Y-49799D01*
X75690Y-48346D01*
X81469Y-48346D01*
X81451Y-48391D01*
X81451Y-48609D01*
X81535Y-48811D01*
X81689Y-48965D01*
X81891Y-49049D01*
X82109Y-49049D01*
X82311Y-48965D01*
X82465Y-48811D01*
X82500Y-48726D01*
X82535Y-48811D01*
X82689Y-48965D01*
X82891Y-49049D01*
X83109Y-49049D01*
X83311Y-48965D01*
X83465Y-48811D01*
X83549Y-48609D01*
X83549Y-48391D01*
X83530Y-48346D01*
X84345Y-48346D01*
X84368Y-48369D01*
X84468Y-48436D01*
X84469Y-48436D01*
X84501Y-48442D01*
X84501Y-48449D01*
X84539Y-48541D01*
X84609Y-48611D01*
X84700Y-48649D01*
X84799Y-48649D01*
X85799Y-48649D01*
X85891Y-48611D01*
X85903Y-48599D01*
X86000Y-48696D01*
X86000Y-48767D01*
X86064Y-48923D01*
X86069Y-48928D01*
X86039Y-48959D01*
X86001Y-49051D01*
X86000Y-49238D01*
X85999Y-49051D01*
X85961Y-48959D01*
X85891Y-48889D01*
X85800Y-48851D01*
X85701Y-48851D01*
X85362Y-48850D01*
X85300Y-48912D01*
X85300Y-49300D01*
X85938Y-49300D01*
X86000Y-49238D01*
X86062Y-49300D01*
X86650Y-49300D01*
X86700Y-49300D01*
X86800Y-49300D01*
X86850Y-49300D01*
X87438Y-49300D01*
X87500Y-49238D01*
X87562Y-49300D01*
X88200Y-49300D01*
X88200Y-48912D01*
X88138Y-48850D01*
X87799Y-48851D01*
X87700Y-48851D01*
X87609Y-48889D01*
X87539Y-48959D01*
X87501Y-49051D01*
X87500Y-49238D01*
X87500Y-45262D01*
X87500Y-45038D01*
X87499Y-44851D01*
X87461Y-44759D01*
X87391Y-44689D01*
X87300Y-44651D01*
X87201Y-44651D01*
X86862Y-44650D01*
X86800Y-44712D01*
X86800Y-45100D01*
X87438Y-45100D01*
X87500Y-45038D01*
X87500Y-45262D01*
X87438Y-45200D01*
X86850Y-45200D01*
X86800Y-45200D01*
X86700Y-45200D01*
X86700Y-45100D01*
X86700Y-44712D01*
X86638Y-44650D01*
X86299Y-44651D01*
X86200Y-44651D01*
X86109Y-44689D01*
X86039Y-44759D01*
X86001Y-44851D01*
X86000Y-45038D01*
X85999Y-44851D01*
X85961Y-44759D01*
X85891Y-44689D01*
X85800Y-44651D01*
X85701Y-44651D01*
X85362Y-44650D01*
X85300Y-44712D01*
X85300Y-45100D01*
X85938Y-45100D01*
X86000Y-45038D01*
X86062Y-45100D01*
X86700Y-45100D01*
X86700Y-45200D01*
X86650Y-45200D01*
X86062Y-45200D01*
X86000Y-45262D01*
X85938Y-45200D01*
X85300Y-45200D01*
X85300Y-45588D01*
X85362Y-45650D01*
X85701Y-45649D01*
X85800Y-45649D01*
X85891Y-45611D01*
X85961Y-45541D01*
X85999Y-45449D01*
X86000Y-45262D01*
X86001Y-45449D01*
X86039Y-45541D01*
X86109Y-45611D01*
X86200Y-45649D01*
X86299Y-45649D01*
X86596Y-45649D01*
X86562Y-45732D01*
X86562Y-45740D01*
X86545Y-45752D01*
X86482Y-45846D01*
X86481Y-45851D01*
X86201Y-45851D01*
X86109Y-45889D01*
X86039Y-45959D01*
X86001Y-46050D01*
X86001Y-46060D01*
X85999Y-46060D01*
X85999Y-46051D01*
X85961Y-45959D01*
X85891Y-45889D01*
X85800Y-45851D01*
X85701Y-45851D01*
X85200Y-45851D01*
X85200Y-45588D01*
X85200Y-45200D01*
X85200Y-45100D01*
X85200Y-44712D01*
X85138Y-44650D01*
X84799Y-44651D01*
X84700Y-44651D01*
X84609Y-44689D01*
X84539Y-44759D01*
X84501Y-44851D01*
X84500Y-45038D01*
X84562Y-45100D01*
X85200Y-45100D01*
X85200Y-45200D01*
X84562Y-45200D01*
X84500Y-45262D01*
X84501Y-45449D01*
X84539Y-45541D01*
X84609Y-45611D01*
X84700Y-45649D01*
X84799Y-45649D01*
X85138Y-45650D01*
X85200Y-45588D01*
X85200Y-45851D01*
X84701Y-45851D01*
X84609Y-45889D01*
X84539Y-45959D01*
X84501Y-46050D01*
X84501Y-46149D01*
X84501Y-46649D01*
X84539Y-46741D01*
X84609Y-46811D01*
X84700Y-46849D01*
X84799Y-46849D01*
X85799Y-46849D01*
X85891Y-46811D01*
X85961Y-46741D01*
X85999Y-46650D01*
X85999Y-46640D01*
X86001Y-46640D01*
X86001Y-46649D01*
X86039Y-46741D01*
X86109Y-46811D01*
X86200Y-46849D01*
X86299Y-46849D01*
X87299Y-46849D01*
X87391Y-46811D01*
X87461Y-46741D01*
X87499Y-46650D01*
X87499Y-46551D01*
X87499Y-46051D01*
X87461Y-45959D01*
X87409Y-45907D01*
X87412Y-45902D01*
X87412Y-45733D01*
X87366Y-45621D01*
X87391Y-45611D01*
X87461Y-45541D01*
X87499Y-45449D01*
X87500Y-45262D01*
X87500Y-49238D01*
X87499Y-49051D01*
X87461Y-48959D01*
X87391Y-48889D01*
X87300Y-48851D01*
X87201Y-48851D01*
X86864Y-48850D01*
X86869Y-48849D01*
X86969Y-48782D01*
X87036Y-48682D01*
X87042Y-48649D01*
X87299Y-48649D01*
X87391Y-48611D01*
X87461Y-48541D01*
X87499Y-48450D01*
X87499Y-48351D01*
X87499Y-47851D01*
X87461Y-47759D01*
X87391Y-47689D01*
X87300Y-47651D01*
X87201Y-47651D01*
X86201Y-47651D01*
X86109Y-47689D01*
X86039Y-47759D01*
X86001Y-47850D01*
X86001Y-47857D01*
X85999Y-47857D01*
X85999Y-47851D01*
X85961Y-47759D01*
X85891Y-47689D01*
X85800Y-47651D01*
X85701Y-47651D01*
X84701Y-47651D01*
X84609Y-47689D01*
X84555Y-47742D01*
X84473Y-47726D01*
X83500Y-47726D01*
X83549Y-47609D01*
X83549Y-47391D01*
X83465Y-47189D01*
X83311Y-47035D01*
X83226Y-47000D01*
X83311Y-46965D01*
X83465Y-46811D01*
X83549Y-46609D01*
X83549Y-46391D01*
X83465Y-46189D01*
X83311Y-46035D01*
X83226Y-46000D01*
X83311Y-45965D01*
X83465Y-45811D01*
X83549Y-45609D01*
X83549Y-45391D01*
X83465Y-45189D01*
X83311Y-45035D01*
X83226Y-45000D01*
X83311Y-44965D01*
X83465Y-44811D01*
X83549Y-44609D01*
X83549Y-44391D01*
X83465Y-44189D01*
X83311Y-44035D01*
X83226Y-44000D01*
X83311Y-43965D01*
X83465Y-43811D01*
X83549Y-43609D01*
X83549Y-43391D01*
X83465Y-43189D01*
X83311Y-43035D01*
X83226Y-43000D01*
X83311Y-42965D01*
X83465Y-42811D01*
X83549Y-42609D01*
X83549Y-42391D01*
X83465Y-42189D01*
X83311Y-42035D01*
X83226Y-42000D01*
X83311Y-41965D01*
X83465Y-41811D01*
X83549Y-41609D01*
X83549Y-41391D01*
X83465Y-41189D01*
X83311Y-41035D01*
X83226Y-41000D01*
X83311Y-40965D01*
X83465Y-40811D01*
X83549Y-40609D01*
X83549Y-40391D01*
X83465Y-40189D01*
X83311Y-40035D01*
X83226Y-40000D01*
X83311Y-39965D01*
X83465Y-39811D01*
X83549Y-39609D01*
X83549Y-39391D01*
X83465Y-39189D01*
X83311Y-39035D01*
X83226Y-39000D01*
X83311Y-38965D01*
X83465Y-38811D01*
X83549Y-38609D01*
X83549Y-38391D01*
X83465Y-38189D01*
X83311Y-38035D01*
X83226Y-38000D01*
X83311Y-37965D01*
X83465Y-37811D01*
X83549Y-37609D01*
X83549Y-37391D01*
X83465Y-37189D01*
X83311Y-37035D01*
X83226Y-37000D01*
X83311Y-36965D01*
X83465Y-36811D01*
X83549Y-36609D01*
X83549Y-36391D01*
X83465Y-36189D01*
X83311Y-36035D01*
X83226Y-36000D01*
X83311Y-35965D01*
X83465Y-35811D01*
X83549Y-35609D01*
X83549Y-35391D01*
X83465Y-35189D01*
X83311Y-35035D01*
X83226Y-35000D01*
X83311Y-34965D01*
X83465Y-34811D01*
X83549Y-34609D01*
X83549Y-34391D01*
X83465Y-34189D01*
X83311Y-34035D01*
X83226Y-34000D01*
X83311Y-33965D01*
X83465Y-33811D01*
X83549Y-33609D01*
X83549Y-33391D01*
X83465Y-33189D01*
X83311Y-33035D01*
X83226Y-33000D01*
X83311Y-32965D01*
X83465Y-32811D01*
X83549Y-32609D01*
X83549Y-32391D01*
X83465Y-32189D01*
X83311Y-32035D01*
X83226Y-32000D01*
X83311Y-31965D01*
X83465Y-31811D01*
X83549Y-31609D01*
X83549Y-31391D01*
X83465Y-31189D01*
X83311Y-31035D01*
X83109Y-30951D01*
X82891Y-30951D01*
X82689Y-31035D01*
X82535Y-31189D01*
X82500Y-31273D01*
X82465Y-31189D01*
X82311Y-31035D01*
X82109Y-30951D01*
X81891Y-30951D01*
X81689Y-31035D01*
X81535Y-31189D01*
X81507Y-31254D01*
X81369Y-30920D01*
X81244Y-30795D01*
X89205Y-30795D01*
X89205Y-51205D01*
M02*
